G04 #@! TF.GenerationSoftware,KiCad,Pcbnew,(5.1.6)-1*
G04 #@! TF.CreationDate,2021-04-15T22:16:23+02:00*
G04 #@! TF.ProjectId,DCLink,44434c69-6e6b-42e6-9b69-6361645f7063,rev?*
G04 #@! TF.SameCoordinates,Original*
G04 #@! TF.FileFunction,Paste,Top*
G04 #@! TF.FilePolarity,Positive*
%FSLAX46Y46*%
G04 Gerber Fmt 4.6, Leading zero omitted, Abs format (unit mm)*
G04 Created by KiCad (PCBNEW (5.1.6)-1) date 2021-04-15 22:16:23*
%MOMM*%
%LPD*%
G01*
G04 APERTURE LIST*
%ADD10C,0.100000*%
G04 APERTURE END LIST*
D10*
G36*
X27500000Y-31900000D02*
G01*
X27225000Y-31850000D01*
X26875000Y-31775000D01*
X26525000Y-31675000D01*
X26225000Y-31575000D01*
X25975000Y-31475000D01*
X25750000Y-31350000D01*
X25350000Y-31100000D01*
X25175000Y-30975000D01*
X24800000Y-30700000D01*
X24300000Y-30200000D01*
X24125000Y-29975000D01*
X23975000Y-29775000D01*
X23850000Y-29575000D01*
X23725000Y-29350000D01*
X23600000Y-29100000D01*
X23475000Y-28825000D01*
X23350000Y-28475000D01*
X23250000Y-28150000D01*
X23175000Y-27825000D01*
X23125000Y-27500000D01*
X27500000Y-27500000D01*
X27500000Y-31900000D01*
G37*
X27500000Y-31900000D02*
X27225000Y-31850000D01*
X26875000Y-31775000D01*
X26525000Y-31675000D01*
X26225000Y-31575000D01*
X25975000Y-31475000D01*
X25750000Y-31350000D01*
X25350000Y-31100000D01*
X25175000Y-30975000D01*
X24800000Y-30700000D01*
X24300000Y-30200000D01*
X24125000Y-29975000D01*
X23975000Y-29775000D01*
X23850000Y-29575000D01*
X23725000Y-29350000D01*
X23600000Y-29100000D01*
X23475000Y-28825000D01*
X23350000Y-28475000D01*
X23250000Y-28150000D01*
X23175000Y-27825000D01*
X23125000Y-27500000D01*
X27500000Y-27500000D01*
X27500000Y-31900000D01*
G36*
X23100000Y-26500000D02*
G01*
X23150000Y-26225000D01*
X23225000Y-25875000D01*
X23325000Y-25525000D01*
X23425000Y-25225000D01*
X23525000Y-24975000D01*
X23650000Y-24750000D01*
X23900000Y-24350000D01*
X24025000Y-24175000D01*
X24300000Y-23800000D01*
X24800000Y-23300000D01*
X25025000Y-23125000D01*
X25225000Y-22975000D01*
X25425000Y-22850000D01*
X25650000Y-22725000D01*
X25900000Y-22600000D01*
X26175000Y-22475000D01*
X26525000Y-22350000D01*
X26850000Y-22250000D01*
X27175000Y-22175000D01*
X27500000Y-22125000D01*
X27500000Y-26500000D01*
X23100000Y-26500000D01*
G37*
X23100000Y-26500000D02*
X23150000Y-26225000D01*
X23225000Y-25875000D01*
X23325000Y-25525000D01*
X23425000Y-25225000D01*
X23525000Y-24975000D01*
X23650000Y-24750000D01*
X23900000Y-24350000D01*
X24025000Y-24175000D01*
X24300000Y-23800000D01*
X24800000Y-23300000D01*
X25025000Y-23125000D01*
X25225000Y-22975000D01*
X25425000Y-22850000D01*
X25650000Y-22725000D01*
X25900000Y-22600000D01*
X26175000Y-22475000D01*
X26525000Y-22350000D01*
X26850000Y-22250000D01*
X27175000Y-22175000D01*
X27500000Y-22125000D01*
X27500000Y-26500000D01*
X23100000Y-26500000D01*
G36*
X32900000Y-27500000D02*
G01*
X32850000Y-27775000D01*
X32775000Y-28125000D01*
X32675000Y-28475000D01*
X32575000Y-28775000D01*
X32475000Y-29025000D01*
X32350000Y-29250000D01*
X32100000Y-29650000D01*
X31975000Y-29825000D01*
X31700000Y-30200000D01*
X31200000Y-30700000D01*
X30975000Y-30875000D01*
X30775000Y-31025000D01*
X30575000Y-31150000D01*
X30350000Y-31275000D01*
X30100000Y-31400000D01*
X29825000Y-31525000D01*
X29475000Y-31650000D01*
X29150000Y-31750000D01*
X28825000Y-31825000D01*
X28500000Y-31875000D01*
X28500000Y-27500000D01*
X32900000Y-27500000D01*
G37*
X32900000Y-27500000D02*
X32850000Y-27775000D01*
X32775000Y-28125000D01*
X32675000Y-28475000D01*
X32575000Y-28775000D01*
X32475000Y-29025000D01*
X32350000Y-29250000D01*
X32100000Y-29650000D01*
X31975000Y-29825000D01*
X31700000Y-30200000D01*
X31200000Y-30700000D01*
X30975000Y-30875000D01*
X30775000Y-31025000D01*
X30575000Y-31150000D01*
X30350000Y-31275000D01*
X30100000Y-31400000D01*
X29825000Y-31525000D01*
X29475000Y-31650000D01*
X29150000Y-31750000D01*
X28825000Y-31825000D01*
X28500000Y-31875000D01*
X28500000Y-27500000D01*
X32900000Y-27500000D01*
G36*
X28500000Y-22100000D02*
G01*
X28775000Y-22150000D01*
X29125000Y-22225000D01*
X29475000Y-22325000D01*
X29775000Y-22425000D01*
X30025000Y-22525000D01*
X30250000Y-22650000D01*
X30650000Y-22900000D01*
X30825000Y-23025000D01*
X31200000Y-23300000D01*
X31700000Y-23800000D01*
X31875000Y-24025000D01*
X32025000Y-24225000D01*
X32150000Y-24425000D01*
X32275000Y-24650000D01*
X32400000Y-24900000D01*
X32525000Y-25175000D01*
X32650000Y-25525000D01*
X32750000Y-25850000D01*
X32825000Y-26175000D01*
X32875000Y-26500000D01*
X28500000Y-26500000D01*
X28500000Y-22100000D01*
G37*
X28500000Y-22100000D02*
X28775000Y-22150000D01*
X29125000Y-22225000D01*
X29475000Y-22325000D01*
X29775000Y-22425000D01*
X30025000Y-22525000D01*
X30250000Y-22650000D01*
X30650000Y-22900000D01*
X30825000Y-23025000D01*
X31200000Y-23300000D01*
X31700000Y-23800000D01*
X31875000Y-24025000D01*
X32025000Y-24225000D01*
X32150000Y-24425000D01*
X32275000Y-24650000D01*
X32400000Y-24900000D01*
X32525000Y-25175000D01*
X32650000Y-25525000D01*
X32750000Y-25850000D01*
X32825000Y-26175000D01*
X32875000Y-26500000D01*
X28500000Y-26500000D01*
X28500000Y-22100000D01*
G36*
X28500000Y-34100000D02*
G01*
X28775000Y-34150000D01*
X29125000Y-34225000D01*
X29475000Y-34325000D01*
X29775000Y-34425000D01*
X30025000Y-34525000D01*
X30250000Y-34650000D01*
X30650000Y-34900000D01*
X30825000Y-35025000D01*
X31200000Y-35300000D01*
X31700000Y-35800000D01*
X31875000Y-36025000D01*
X32025000Y-36225000D01*
X32150000Y-36425000D01*
X32275000Y-36650000D01*
X32400000Y-36900000D01*
X32525000Y-37175000D01*
X32650000Y-37525000D01*
X32750000Y-37850000D01*
X32825000Y-38175000D01*
X32875000Y-38500000D01*
X28500000Y-38500000D01*
X28500000Y-34100000D01*
G37*
X28500000Y-34100000D02*
X28775000Y-34150000D01*
X29125000Y-34225000D01*
X29475000Y-34325000D01*
X29775000Y-34425000D01*
X30025000Y-34525000D01*
X30250000Y-34650000D01*
X30650000Y-34900000D01*
X30825000Y-35025000D01*
X31200000Y-35300000D01*
X31700000Y-35800000D01*
X31875000Y-36025000D01*
X32025000Y-36225000D01*
X32150000Y-36425000D01*
X32275000Y-36650000D01*
X32400000Y-36900000D01*
X32525000Y-37175000D01*
X32650000Y-37525000D01*
X32750000Y-37850000D01*
X32825000Y-38175000D01*
X32875000Y-38500000D01*
X28500000Y-38500000D01*
X28500000Y-34100000D01*
G36*
X32900000Y-39500000D02*
G01*
X32850000Y-39775000D01*
X32775000Y-40125000D01*
X32675000Y-40475000D01*
X32575000Y-40775000D01*
X32475000Y-41025000D01*
X32350000Y-41250000D01*
X32100000Y-41650000D01*
X31975000Y-41825000D01*
X31700000Y-42200000D01*
X31200000Y-42700000D01*
X30975000Y-42875000D01*
X30775000Y-43025000D01*
X30575000Y-43150000D01*
X30350000Y-43275000D01*
X30100000Y-43400000D01*
X29825000Y-43525000D01*
X29475000Y-43650000D01*
X29150000Y-43750000D01*
X28825000Y-43825000D01*
X28500000Y-43875000D01*
X28500000Y-39500000D01*
X32900000Y-39500000D01*
G37*
X32900000Y-39500000D02*
X32850000Y-39775000D01*
X32775000Y-40125000D01*
X32675000Y-40475000D01*
X32575000Y-40775000D01*
X32475000Y-41025000D01*
X32350000Y-41250000D01*
X32100000Y-41650000D01*
X31975000Y-41825000D01*
X31700000Y-42200000D01*
X31200000Y-42700000D01*
X30975000Y-42875000D01*
X30775000Y-43025000D01*
X30575000Y-43150000D01*
X30350000Y-43275000D01*
X30100000Y-43400000D01*
X29825000Y-43525000D01*
X29475000Y-43650000D01*
X29150000Y-43750000D01*
X28825000Y-43825000D01*
X28500000Y-43875000D01*
X28500000Y-39500000D01*
X32900000Y-39500000D01*
G36*
X23100000Y-38500000D02*
G01*
X23150000Y-38225000D01*
X23225000Y-37875000D01*
X23325000Y-37525000D01*
X23425000Y-37225000D01*
X23525000Y-36975000D01*
X23650000Y-36750000D01*
X23900000Y-36350000D01*
X24025000Y-36175000D01*
X24300000Y-35800000D01*
X24800000Y-35300000D01*
X25025000Y-35125000D01*
X25225000Y-34975000D01*
X25425000Y-34850000D01*
X25650000Y-34725000D01*
X25900000Y-34600000D01*
X26175000Y-34475000D01*
X26525000Y-34350000D01*
X26850000Y-34250000D01*
X27175000Y-34175000D01*
X27500000Y-34125000D01*
X27500000Y-38500000D01*
X23100000Y-38500000D01*
G37*
X23100000Y-38500000D02*
X23150000Y-38225000D01*
X23225000Y-37875000D01*
X23325000Y-37525000D01*
X23425000Y-37225000D01*
X23525000Y-36975000D01*
X23650000Y-36750000D01*
X23900000Y-36350000D01*
X24025000Y-36175000D01*
X24300000Y-35800000D01*
X24800000Y-35300000D01*
X25025000Y-35125000D01*
X25225000Y-34975000D01*
X25425000Y-34850000D01*
X25650000Y-34725000D01*
X25900000Y-34600000D01*
X26175000Y-34475000D01*
X26525000Y-34350000D01*
X26850000Y-34250000D01*
X27175000Y-34175000D01*
X27500000Y-34125000D01*
X27500000Y-38500000D01*
X23100000Y-38500000D01*
G36*
X27500000Y-43900000D02*
G01*
X27225000Y-43850000D01*
X26875000Y-43775000D01*
X26525000Y-43675000D01*
X26225000Y-43575000D01*
X25975000Y-43475000D01*
X25750000Y-43350000D01*
X25350000Y-43100000D01*
X25175000Y-42975000D01*
X24800000Y-42700000D01*
X24300000Y-42200000D01*
X24125000Y-41975000D01*
X23975000Y-41775000D01*
X23850000Y-41575000D01*
X23725000Y-41350000D01*
X23600000Y-41100000D01*
X23475000Y-40825000D01*
X23350000Y-40475000D01*
X23250000Y-40150000D01*
X23175000Y-39825000D01*
X23125000Y-39500000D01*
X27500000Y-39500000D01*
X27500000Y-43900000D01*
G37*
X27500000Y-43900000D02*
X27225000Y-43850000D01*
X26875000Y-43775000D01*
X26525000Y-43675000D01*
X26225000Y-43575000D01*
X25975000Y-43475000D01*
X25750000Y-43350000D01*
X25350000Y-43100000D01*
X25175000Y-42975000D01*
X24800000Y-42700000D01*
X24300000Y-42200000D01*
X24125000Y-41975000D01*
X23975000Y-41775000D01*
X23850000Y-41575000D01*
X23725000Y-41350000D01*
X23600000Y-41100000D01*
X23475000Y-40825000D01*
X23350000Y-40475000D01*
X23250000Y-40150000D01*
X23175000Y-39825000D01*
X23125000Y-39500000D01*
X27500000Y-39500000D01*
X27500000Y-43900000D01*
G36*
X27500000Y-72900000D02*
G01*
X27225000Y-72850000D01*
X26875000Y-72775000D01*
X26525000Y-72675000D01*
X26225000Y-72575000D01*
X25975000Y-72475000D01*
X25750000Y-72350000D01*
X25350000Y-72100000D01*
X25175000Y-71975000D01*
X24800000Y-71700000D01*
X24300000Y-71200000D01*
X24125000Y-70975000D01*
X23975000Y-70775000D01*
X23850000Y-70575000D01*
X23725000Y-70350000D01*
X23600000Y-70100000D01*
X23475000Y-69825000D01*
X23350000Y-69475000D01*
X23250000Y-69150000D01*
X23175000Y-68825000D01*
X23125000Y-68500000D01*
X27500000Y-68500000D01*
X27500000Y-72900000D01*
G37*
X27500000Y-72900000D02*
X27225000Y-72850000D01*
X26875000Y-72775000D01*
X26525000Y-72675000D01*
X26225000Y-72575000D01*
X25975000Y-72475000D01*
X25750000Y-72350000D01*
X25350000Y-72100000D01*
X25175000Y-71975000D01*
X24800000Y-71700000D01*
X24300000Y-71200000D01*
X24125000Y-70975000D01*
X23975000Y-70775000D01*
X23850000Y-70575000D01*
X23725000Y-70350000D01*
X23600000Y-70100000D01*
X23475000Y-69825000D01*
X23350000Y-69475000D01*
X23250000Y-69150000D01*
X23175000Y-68825000D01*
X23125000Y-68500000D01*
X27500000Y-68500000D01*
X27500000Y-72900000D01*
G36*
X23100000Y-67500000D02*
G01*
X23150000Y-67225000D01*
X23225000Y-66875000D01*
X23325000Y-66525000D01*
X23425000Y-66225000D01*
X23525000Y-65975000D01*
X23650000Y-65750000D01*
X23900000Y-65350000D01*
X24025000Y-65175000D01*
X24300000Y-64800000D01*
X24800000Y-64300000D01*
X25025000Y-64125000D01*
X25225000Y-63975000D01*
X25425000Y-63850000D01*
X25650000Y-63725000D01*
X25900000Y-63600000D01*
X26175000Y-63475000D01*
X26525000Y-63350000D01*
X26850000Y-63250000D01*
X27175000Y-63175000D01*
X27500000Y-63125000D01*
X27500000Y-67500000D01*
X23100000Y-67500000D01*
G37*
X23100000Y-67500000D02*
X23150000Y-67225000D01*
X23225000Y-66875000D01*
X23325000Y-66525000D01*
X23425000Y-66225000D01*
X23525000Y-65975000D01*
X23650000Y-65750000D01*
X23900000Y-65350000D01*
X24025000Y-65175000D01*
X24300000Y-64800000D01*
X24800000Y-64300000D01*
X25025000Y-64125000D01*
X25225000Y-63975000D01*
X25425000Y-63850000D01*
X25650000Y-63725000D01*
X25900000Y-63600000D01*
X26175000Y-63475000D01*
X26525000Y-63350000D01*
X26850000Y-63250000D01*
X27175000Y-63175000D01*
X27500000Y-63125000D01*
X27500000Y-67500000D01*
X23100000Y-67500000D01*
G36*
X32900000Y-68500000D02*
G01*
X32850000Y-68775000D01*
X32775000Y-69125000D01*
X32675000Y-69475000D01*
X32575000Y-69775000D01*
X32475000Y-70025000D01*
X32350000Y-70250000D01*
X32100000Y-70650000D01*
X31975000Y-70825000D01*
X31700000Y-71200000D01*
X31200000Y-71700000D01*
X30975000Y-71875000D01*
X30775000Y-72025000D01*
X30575000Y-72150000D01*
X30350000Y-72275000D01*
X30100000Y-72400000D01*
X29825000Y-72525000D01*
X29475000Y-72650000D01*
X29150000Y-72750000D01*
X28825000Y-72825000D01*
X28500000Y-72875000D01*
X28500000Y-68500000D01*
X32900000Y-68500000D01*
G37*
X32900000Y-68500000D02*
X32850000Y-68775000D01*
X32775000Y-69125000D01*
X32675000Y-69475000D01*
X32575000Y-69775000D01*
X32475000Y-70025000D01*
X32350000Y-70250000D01*
X32100000Y-70650000D01*
X31975000Y-70825000D01*
X31700000Y-71200000D01*
X31200000Y-71700000D01*
X30975000Y-71875000D01*
X30775000Y-72025000D01*
X30575000Y-72150000D01*
X30350000Y-72275000D01*
X30100000Y-72400000D01*
X29825000Y-72525000D01*
X29475000Y-72650000D01*
X29150000Y-72750000D01*
X28825000Y-72825000D01*
X28500000Y-72875000D01*
X28500000Y-68500000D01*
X32900000Y-68500000D01*
G36*
X28500000Y-63100000D02*
G01*
X28775000Y-63150000D01*
X29125000Y-63225000D01*
X29475000Y-63325000D01*
X29775000Y-63425000D01*
X30025000Y-63525000D01*
X30250000Y-63650000D01*
X30650000Y-63900000D01*
X30825000Y-64025000D01*
X31200000Y-64300000D01*
X31700000Y-64800000D01*
X31875000Y-65025000D01*
X32025000Y-65225000D01*
X32150000Y-65425000D01*
X32275000Y-65650000D01*
X32400000Y-65900000D01*
X32525000Y-66175000D01*
X32650000Y-66525000D01*
X32750000Y-66850000D01*
X32825000Y-67175000D01*
X32875000Y-67500000D01*
X28500000Y-67500000D01*
X28500000Y-63100000D01*
G37*
X28500000Y-63100000D02*
X28775000Y-63150000D01*
X29125000Y-63225000D01*
X29475000Y-63325000D01*
X29775000Y-63425000D01*
X30025000Y-63525000D01*
X30250000Y-63650000D01*
X30650000Y-63900000D01*
X30825000Y-64025000D01*
X31200000Y-64300000D01*
X31700000Y-64800000D01*
X31875000Y-65025000D01*
X32025000Y-65225000D01*
X32150000Y-65425000D01*
X32275000Y-65650000D01*
X32400000Y-65900000D01*
X32525000Y-66175000D01*
X32650000Y-66525000D01*
X32750000Y-66850000D01*
X32825000Y-67175000D01*
X32875000Y-67500000D01*
X28500000Y-67500000D01*
X28500000Y-63100000D01*
G36*
X28500000Y-51100000D02*
G01*
X28775000Y-51150000D01*
X29125000Y-51225000D01*
X29475000Y-51325000D01*
X29775000Y-51425000D01*
X30025000Y-51525000D01*
X30250000Y-51650000D01*
X30650000Y-51900000D01*
X30825000Y-52025000D01*
X31200000Y-52300000D01*
X31700000Y-52800000D01*
X31875000Y-53025000D01*
X32025000Y-53225000D01*
X32150000Y-53425000D01*
X32275000Y-53650000D01*
X32400000Y-53900000D01*
X32525000Y-54175000D01*
X32650000Y-54525000D01*
X32750000Y-54850000D01*
X32825000Y-55175000D01*
X32875000Y-55500000D01*
X28500000Y-55500000D01*
X28500000Y-51100000D01*
G37*
X28500000Y-51100000D02*
X28775000Y-51150000D01*
X29125000Y-51225000D01*
X29475000Y-51325000D01*
X29775000Y-51425000D01*
X30025000Y-51525000D01*
X30250000Y-51650000D01*
X30650000Y-51900000D01*
X30825000Y-52025000D01*
X31200000Y-52300000D01*
X31700000Y-52800000D01*
X31875000Y-53025000D01*
X32025000Y-53225000D01*
X32150000Y-53425000D01*
X32275000Y-53650000D01*
X32400000Y-53900000D01*
X32525000Y-54175000D01*
X32650000Y-54525000D01*
X32750000Y-54850000D01*
X32825000Y-55175000D01*
X32875000Y-55500000D01*
X28500000Y-55500000D01*
X28500000Y-51100000D01*
G36*
X32900000Y-56500000D02*
G01*
X32850000Y-56775000D01*
X32775000Y-57125000D01*
X32675000Y-57475000D01*
X32575000Y-57775000D01*
X32475000Y-58025000D01*
X32350000Y-58250000D01*
X32100000Y-58650000D01*
X31975000Y-58825000D01*
X31700000Y-59200000D01*
X31200000Y-59700000D01*
X30975000Y-59875000D01*
X30775000Y-60025000D01*
X30575000Y-60150000D01*
X30350000Y-60275000D01*
X30100000Y-60400000D01*
X29825000Y-60525000D01*
X29475000Y-60650000D01*
X29150000Y-60750000D01*
X28825000Y-60825000D01*
X28500000Y-60875000D01*
X28500000Y-56500000D01*
X32900000Y-56500000D01*
G37*
X32900000Y-56500000D02*
X32850000Y-56775000D01*
X32775000Y-57125000D01*
X32675000Y-57475000D01*
X32575000Y-57775000D01*
X32475000Y-58025000D01*
X32350000Y-58250000D01*
X32100000Y-58650000D01*
X31975000Y-58825000D01*
X31700000Y-59200000D01*
X31200000Y-59700000D01*
X30975000Y-59875000D01*
X30775000Y-60025000D01*
X30575000Y-60150000D01*
X30350000Y-60275000D01*
X30100000Y-60400000D01*
X29825000Y-60525000D01*
X29475000Y-60650000D01*
X29150000Y-60750000D01*
X28825000Y-60825000D01*
X28500000Y-60875000D01*
X28500000Y-56500000D01*
X32900000Y-56500000D01*
G36*
X23100000Y-55500000D02*
G01*
X23150000Y-55225000D01*
X23225000Y-54875000D01*
X23325000Y-54525000D01*
X23425000Y-54225000D01*
X23525000Y-53975000D01*
X23650000Y-53750000D01*
X23900000Y-53350000D01*
X24025000Y-53175000D01*
X24300000Y-52800000D01*
X24800000Y-52300000D01*
X25025000Y-52125000D01*
X25225000Y-51975000D01*
X25425000Y-51850000D01*
X25650000Y-51725000D01*
X25900000Y-51600000D01*
X26175000Y-51475000D01*
X26525000Y-51350000D01*
X26850000Y-51250000D01*
X27175000Y-51175000D01*
X27500000Y-51125000D01*
X27500000Y-55500000D01*
X23100000Y-55500000D01*
G37*
X23100000Y-55500000D02*
X23150000Y-55225000D01*
X23225000Y-54875000D01*
X23325000Y-54525000D01*
X23425000Y-54225000D01*
X23525000Y-53975000D01*
X23650000Y-53750000D01*
X23900000Y-53350000D01*
X24025000Y-53175000D01*
X24300000Y-52800000D01*
X24800000Y-52300000D01*
X25025000Y-52125000D01*
X25225000Y-51975000D01*
X25425000Y-51850000D01*
X25650000Y-51725000D01*
X25900000Y-51600000D01*
X26175000Y-51475000D01*
X26525000Y-51350000D01*
X26850000Y-51250000D01*
X27175000Y-51175000D01*
X27500000Y-51125000D01*
X27500000Y-55500000D01*
X23100000Y-55500000D01*
G36*
X27500000Y-60900000D02*
G01*
X27225000Y-60850000D01*
X26875000Y-60775000D01*
X26525000Y-60675000D01*
X26225000Y-60575000D01*
X25975000Y-60475000D01*
X25750000Y-60350000D01*
X25350000Y-60100000D01*
X25175000Y-59975000D01*
X24800000Y-59700000D01*
X24300000Y-59200000D01*
X24125000Y-58975000D01*
X23975000Y-58775000D01*
X23850000Y-58575000D01*
X23725000Y-58350000D01*
X23600000Y-58100000D01*
X23475000Y-57825000D01*
X23350000Y-57475000D01*
X23250000Y-57150000D01*
X23175000Y-56825000D01*
X23125000Y-56500000D01*
X27500000Y-56500000D01*
X27500000Y-60900000D01*
G37*
X27500000Y-60900000D02*
X27225000Y-60850000D01*
X26875000Y-60775000D01*
X26525000Y-60675000D01*
X26225000Y-60575000D01*
X25975000Y-60475000D01*
X25750000Y-60350000D01*
X25350000Y-60100000D01*
X25175000Y-59975000D01*
X24800000Y-59700000D01*
X24300000Y-59200000D01*
X24125000Y-58975000D01*
X23975000Y-58775000D01*
X23850000Y-58575000D01*
X23725000Y-58350000D01*
X23600000Y-58100000D01*
X23475000Y-57825000D01*
X23350000Y-57475000D01*
X23250000Y-57150000D01*
X23175000Y-56825000D01*
X23125000Y-56500000D01*
X27500000Y-56500000D01*
X27500000Y-60900000D01*
G36*
G01*
X160262500Y-67050001D02*
X160262500Y-66149999D01*
G75*
G02*
X160512499Y-65900000I249999J0D01*
G01*
X161037501Y-65900000D01*
G75*
G02*
X161287500Y-66149999I0J-249999D01*
G01*
X161287500Y-67050001D01*
G75*
G02*
X161037501Y-67300000I-249999J0D01*
G01*
X160512499Y-67300000D01*
G75*
G02*
X160262500Y-67050001I0J249999D01*
G01*
G37*
G36*
G01*
X162087500Y-67050001D02*
X162087500Y-66149999D01*
G75*
G02*
X162337499Y-65900000I249999J0D01*
G01*
X162862501Y-65900000D01*
G75*
G02*
X163112500Y-66149999I0J-249999D01*
G01*
X163112500Y-67050001D01*
G75*
G02*
X162862501Y-67300000I-249999J0D01*
G01*
X162337499Y-67300000D01*
G75*
G02*
X162087500Y-67050001I0J249999D01*
G01*
G37*
G36*
G01*
X41712500Y-65249999D02*
X41712500Y-66150001D01*
G75*
G02*
X41462501Y-66400000I-249999J0D01*
G01*
X40937499Y-66400000D01*
G75*
G02*
X40687500Y-66150001I0J249999D01*
G01*
X40687500Y-65249999D01*
G75*
G02*
X40937499Y-65000000I249999J0D01*
G01*
X41462501Y-65000000D01*
G75*
G02*
X41712500Y-65249999I0J-249999D01*
G01*
G37*
G36*
G01*
X43537500Y-65249999D02*
X43537500Y-66150001D01*
G75*
G02*
X43287501Y-66400000I-249999J0D01*
G01*
X42762499Y-66400000D01*
G75*
G02*
X42512500Y-66150001I0J249999D01*
G01*
X42512500Y-65249999D01*
G75*
G02*
X42762499Y-65000000I249999J0D01*
G01*
X43287501Y-65000000D01*
G75*
G02*
X43537500Y-65249999I0J-249999D01*
G01*
G37*
G36*
G01*
X83600000Y-68975000D02*
X83600000Y-68025000D01*
G75*
G02*
X83850000Y-67775000I250000J0D01*
G01*
X84350000Y-67775000D01*
G75*
G02*
X84600000Y-68025000I0J-250000D01*
G01*
X84600000Y-68975000D01*
G75*
G02*
X84350000Y-69225000I-250000J0D01*
G01*
X83850000Y-69225000D01*
G75*
G02*
X83600000Y-68975000I0J250000D01*
G01*
G37*
G36*
G01*
X81700000Y-68975000D02*
X81700000Y-68025000D01*
G75*
G02*
X81950000Y-67775000I250000J0D01*
G01*
X82450000Y-67775000D01*
G75*
G02*
X82700000Y-68025000I0J-250000D01*
G01*
X82700000Y-68975000D01*
G75*
G02*
X82450000Y-69225000I-250000J0D01*
G01*
X81950000Y-69225000D01*
G75*
G02*
X81700000Y-68975000I0J250000D01*
G01*
G37*
G36*
G01*
X163650000Y-69075000D02*
X163650000Y-68125000D01*
G75*
G02*
X163900000Y-67875000I250000J0D01*
G01*
X164400000Y-67875000D01*
G75*
G02*
X164650000Y-68125000I0J-250000D01*
G01*
X164650000Y-69075000D01*
G75*
G02*
X164400000Y-69325000I-250000J0D01*
G01*
X163900000Y-69325000D01*
G75*
G02*
X163650000Y-69075000I0J250000D01*
G01*
G37*
G36*
G01*
X165550000Y-69075000D02*
X165550000Y-68125000D01*
G75*
G02*
X165800000Y-67875000I250000J0D01*
G01*
X166300000Y-67875000D01*
G75*
G02*
X166550000Y-68125000I0J-250000D01*
G01*
X166550000Y-69075000D01*
G75*
G02*
X166300000Y-69325000I-250000J0D01*
G01*
X165800000Y-69325000D01*
G75*
G02*
X165550000Y-69075000I0J250000D01*
G01*
G37*
G36*
G01*
X247550000Y-69075000D02*
X247550000Y-68125000D01*
G75*
G02*
X247800000Y-67875000I250000J0D01*
G01*
X248300000Y-67875000D01*
G75*
G02*
X248550000Y-68125000I0J-250000D01*
G01*
X248550000Y-69075000D01*
G75*
G02*
X248300000Y-69325000I-250000J0D01*
G01*
X247800000Y-69325000D01*
G75*
G02*
X247550000Y-69075000I0J250000D01*
G01*
G37*
G36*
G01*
X245650000Y-69075000D02*
X245650000Y-68125000D01*
G75*
G02*
X245900000Y-67875000I250000J0D01*
G01*
X246400000Y-67875000D01*
G75*
G02*
X246650000Y-68125000I0J-250000D01*
G01*
X246650000Y-69075000D01*
G75*
G02*
X246400000Y-69325000I-250000J0D01*
G01*
X245900000Y-69325000D01*
G75*
G02*
X245650000Y-69075000I0J250000D01*
G01*
G37*
G36*
G01*
X41900000Y-69125000D02*
X41900000Y-70075000D01*
G75*
G02*
X41650000Y-70325000I-250000J0D01*
G01*
X41150000Y-70325000D01*
G75*
G02*
X40900000Y-70075000I0J250000D01*
G01*
X40900000Y-69125000D01*
G75*
G02*
X41150000Y-68875000I250000J0D01*
G01*
X41650000Y-68875000D01*
G75*
G02*
X41900000Y-69125000I0J-250000D01*
G01*
G37*
G36*
G01*
X40000000Y-69125000D02*
X40000000Y-70075000D01*
G75*
G02*
X39750000Y-70325000I-250000J0D01*
G01*
X39250000Y-70325000D01*
G75*
G02*
X39000000Y-70075000I0J250000D01*
G01*
X39000000Y-69125000D01*
G75*
G02*
X39250000Y-68875000I250000J0D01*
G01*
X39750000Y-68875000D01*
G75*
G02*
X40000000Y-69125000I0J-250000D01*
G01*
G37*
G36*
G01*
X78325000Y-66950001D02*
X78325000Y-66049999D01*
G75*
G02*
X78574999Y-65800000I249999J0D01*
G01*
X79100001Y-65800000D01*
G75*
G02*
X79350000Y-66049999I0J-249999D01*
G01*
X79350000Y-66950001D01*
G75*
G02*
X79100001Y-67200000I-249999J0D01*
G01*
X78574999Y-67200000D01*
G75*
G02*
X78325000Y-66950001I0J249999D01*
G01*
G37*
G36*
G01*
X80150000Y-66950001D02*
X80150000Y-66049999D01*
G75*
G02*
X80399999Y-65800000I249999J0D01*
G01*
X80925001Y-65800000D01*
G75*
G02*
X81175000Y-66049999I0J-249999D01*
G01*
X81175000Y-66950001D01*
G75*
G02*
X80925001Y-67200000I-249999J0D01*
G01*
X80399999Y-67200000D01*
G75*
G02*
X80150000Y-66950001I0J249999D01*
G01*
G37*
G36*
G01*
X84587500Y-66049999D02*
X84587500Y-66950001D01*
G75*
G02*
X84337501Y-67200000I-249999J0D01*
G01*
X83812499Y-67200000D01*
G75*
G02*
X83562500Y-66950001I0J249999D01*
G01*
X83562500Y-66049999D01*
G75*
G02*
X83812499Y-65800000I249999J0D01*
G01*
X84337501Y-65800000D01*
G75*
G02*
X84587500Y-66049999I0J-249999D01*
G01*
G37*
G36*
G01*
X82762500Y-66049999D02*
X82762500Y-66950001D01*
G75*
G02*
X82512501Y-67200000I-249999J0D01*
G01*
X81987499Y-67200000D01*
G75*
G02*
X81737500Y-66950001I0J249999D01*
G01*
X81737500Y-66049999D01*
G75*
G02*
X81987499Y-65800000I249999J0D01*
G01*
X82512501Y-65800000D01*
G75*
G02*
X82762500Y-66049999I0J-249999D01*
G01*
G37*
G36*
G01*
X164712500Y-66149999D02*
X164712500Y-67050001D01*
G75*
G02*
X164462501Y-67300000I-249999J0D01*
G01*
X163937499Y-67300000D01*
G75*
G02*
X163687500Y-67050001I0J249999D01*
G01*
X163687500Y-66149999D01*
G75*
G02*
X163937499Y-65900000I249999J0D01*
G01*
X164462501Y-65900000D01*
G75*
G02*
X164712500Y-66149999I0J-249999D01*
G01*
G37*
G36*
G01*
X166537500Y-66149999D02*
X166537500Y-67050001D01*
G75*
G02*
X166287501Y-67300000I-249999J0D01*
G01*
X165762499Y-67300000D01*
G75*
G02*
X165512500Y-67050001I0J249999D01*
G01*
X165512500Y-66149999D01*
G75*
G02*
X165762499Y-65900000I249999J0D01*
G01*
X166287501Y-65900000D01*
G75*
G02*
X166537500Y-66149999I0J-249999D01*
G01*
G37*
G36*
G01*
X242262500Y-67050001D02*
X242262500Y-66149999D01*
G75*
G02*
X242512499Y-65900000I249999J0D01*
G01*
X243037501Y-65900000D01*
G75*
G02*
X243287500Y-66149999I0J-249999D01*
G01*
X243287500Y-67050001D01*
G75*
G02*
X243037501Y-67300000I-249999J0D01*
G01*
X242512499Y-67300000D01*
G75*
G02*
X242262500Y-67050001I0J249999D01*
G01*
G37*
G36*
G01*
X244087500Y-67050001D02*
X244087500Y-66149999D01*
G75*
G02*
X244337499Y-65900000I249999J0D01*
G01*
X244862501Y-65900000D01*
G75*
G02*
X245112500Y-66149999I0J-249999D01*
G01*
X245112500Y-67050001D01*
G75*
G02*
X244862501Y-67300000I-249999J0D01*
G01*
X244337499Y-67300000D01*
G75*
G02*
X244087500Y-67050001I0J249999D01*
G01*
G37*
G36*
G01*
X246712500Y-66149999D02*
X246712500Y-67050001D01*
G75*
G02*
X246462501Y-67300000I-249999J0D01*
G01*
X245937499Y-67300000D01*
G75*
G02*
X245687500Y-67050001I0J249999D01*
G01*
X245687500Y-66149999D01*
G75*
G02*
X245937499Y-65900000I249999J0D01*
G01*
X246462501Y-65900000D01*
G75*
G02*
X246712500Y-66149999I0J-249999D01*
G01*
G37*
G36*
G01*
X248537500Y-66149999D02*
X248537500Y-67050001D01*
G75*
G02*
X248287501Y-67300000I-249999J0D01*
G01*
X247762499Y-67300000D01*
G75*
G02*
X247512500Y-67050001I0J249999D01*
G01*
X247512500Y-66149999D01*
G75*
G02*
X247762499Y-65900000I249999J0D01*
G01*
X248287501Y-65900000D01*
G75*
G02*
X248537500Y-66149999I0J-249999D01*
G01*
G37*
G36*
G01*
X40887500Y-68050001D02*
X40887500Y-67149999D01*
G75*
G02*
X41137499Y-66900000I249999J0D01*
G01*
X41662501Y-66900000D01*
G75*
G02*
X41912500Y-67149999I0J-249999D01*
G01*
X41912500Y-68050001D01*
G75*
G02*
X41662501Y-68300000I-249999J0D01*
G01*
X41137499Y-68300000D01*
G75*
G02*
X40887500Y-68050001I0J249999D01*
G01*
G37*
G36*
G01*
X39062500Y-68050001D02*
X39062500Y-67149999D01*
G75*
G02*
X39312499Y-66900000I249999J0D01*
G01*
X39837501Y-66900000D01*
G75*
G02*
X40087500Y-67149999I0J-249999D01*
G01*
X40087500Y-68050001D01*
G75*
G02*
X39837501Y-68300000I-249999J0D01*
G01*
X39312499Y-68300000D01*
G75*
G02*
X39062500Y-68050001I0J249999D01*
G01*
G37*
M02*
