G04 #@! TF.GenerationSoftware,KiCad,Pcbnew,(5.1.6)-1*
G04 #@! TF.CreationDate,2021-04-15T22:16:23+02:00*
G04 #@! TF.ProjectId,DCLink,44434c69-6e6b-42e6-9b69-6361645f7063,rev?*
G04 #@! TF.SameCoordinates,Original*
G04 #@! TF.FileFunction,Soldermask,Top*
G04 #@! TF.FilePolarity,Negative*
%FSLAX46Y46*%
G04 Gerber Fmt 4.6, Leading zero omitted, Abs format (unit mm)*
G04 Created by KiCad (PCBNEW (5.1.6)-1) date 2021-04-15 22:16:23*
%MOMM*%
%LPD*%
G01*
G04 APERTURE LIST*
%ADD10O,1.800000X1.800000*%
%ADD11R,1.800000X1.800000*%
%ADD12C,2.500000*%
%ADD13R,2.500000X2.500000*%
%ADD14C,10.100000*%
%ADD15C,9.600000*%
G04 APERTURE END LIST*
G36*
G01*
X160212500Y-67075611D02*
X160212500Y-66124389D01*
G75*
G02*
X160486889Y-65850000I274389J0D01*
G01*
X161063111Y-65850000D01*
G75*
G02*
X161337500Y-66124389I0J-274389D01*
G01*
X161337500Y-67075611D01*
G75*
G02*
X161063111Y-67350000I-274389J0D01*
G01*
X160486889Y-67350000D01*
G75*
G02*
X160212500Y-67075611I0J274389D01*
G01*
G37*
G36*
G01*
X162037500Y-67075611D02*
X162037500Y-66124389D01*
G75*
G02*
X162311889Y-65850000I274389J0D01*
G01*
X162888111Y-65850000D01*
G75*
G02*
X163162500Y-66124389I0J-274389D01*
G01*
X163162500Y-67075611D01*
G75*
G02*
X162888111Y-67350000I-274389J0D01*
G01*
X162311889Y-67350000D01*
G75*
G02*
X162037500Y-67075611I0J274389D01*
G01*
G37*
D10*
X84740000Y-72400000D03*
D11*
X82200000Y-72400000D03*
G36*
G01*
X41762500Y-65224389D02*
X41762500Y-66175611D01*
G75*
G02*
X41488111Y-66450000I-274389J0D01*
G01*
X40911889Y-66450000D01*
G75*
G02*
X40637500Y-66175611I0J274389D01*
G01*
X40637500Y-65224389D01*
G75*
G02*
X40911889Y-64950000I274389J0D01*
G01*
X41488111Y-64950000D01*
G75*
G02*
X41762500Y-65224389I0J-274389D01*
G01*
G37*
G36*
G01*
X43587500Y-65224389D02*
X43587500Y-66175611D01*
G75*
G02*
X43313111Y-66450000I-274389J0D01*
G01*
X42736889Y-66450000D01*
G75*
G02*
X42462500Y-66175611I0J274389D01*
G01*
X42462500Y-65224389D01*
G75*
G02*
X42736889Y-64950000I274389J0D01*
G01*
X43313111Y-64950000D01*
G75*
G02*
X43587500Y-65224389I0J-274389D01*
G01*
G37*
D12*
X61000000Y-31000000D03*
D13*
X56000000Y-31000000D03*
X56000000Y-60000000D03*
D12*
X61000000Y-60000000D03*
D13*
X88500000Y-31000000D03*
D12*
X93500000Y-31000000D03*
X93500000Y-60000000D03*
D13*
X88500000Y-60000000D03*
X138000000Y-31000000D03*
D12*
X143000000Y-31000000D03*
X143000000Y-60000000D03*
D13*
X138000000Y-60000000D03*
X170500000Y-31000000D03*
D12*
X175500000Y-31000000D03*
X175500000Y-60000000D03*
D13*
X170500000Y-60000000D03*
X219500000Y-31000000D03*
D12*
X224500000Y-31000000D03*
X224500000Y-60000000D03*
D13*
X219500000Y-60000000D03*
X252000000Y-31000000D03*
D12*
X257000000Y-31000000D03*
X257000000Y-60000000D03*
D13*
X252000000Y-60000000D03*
G36*
G01*
X83550000Y-69000000D02*
X83550000Y-68000000D01*
G75*
G02*
X83825000Y-67725000I275000J0D01*
G01*
X84375000Y-67725000D01*
G75*
G02*
X84650000Y-68000000I0J-275000D01*
G01*
X84650000Y-69000000D01*
G75*
G02*
X84375000Y-69275000I-275000J0D01*
G01*
X83825000Y-69275000D01*
G75*
G02*
X83550000Y-69000000I0J275000D01*
G01*
G37*
G36*
G01*
X81650000Y-69000000D02*
X81650000Y-68000000D01*
G75*
G02*
X81925000Y-67725000I275000J0D01*
G01*
X82475000Y-67725000D01*
G75*
G02*
X82750000Y-68000000I0J-275000D01*
G01*
X82750000Y-69000000D01*
G75*
G02*
X82475000Y-69275000I-275000J0D01*
G01*
X81925000Y-69275000D01*
G75*
G02*
X81650000Y-69000000I0J275000D01*
G01*
G37*
G36*
G01*
X163600000Y-69100000D02*
X163600000Y-68100000D01*
G75*
G02*
X163875000Y-67825000I275000J0D01*
G01*
X164425000Y-67825000D01*
G75*
G02*
X164700000Y-68100000I0J-275000D01*
G01*
X164700000Y-69100000D01*
G75*
G02*
X164425000Y-69375000I-275000J0D01*
G01*
X163875000Y-69375000D01*
G75*
G02*
X163600000Y-69100000I0J275000D01*
G01*
G37*
G36*
G01*
X165500000Y-69100000D02*
X165500000Y-68100000D01*
G75*
G02*
X165775000Y-67825000I275000J0D01*
G01*
X166325000Y-67825000D01*
G75*
G02*
X166600000Y-68100000I0J-275000D01*
G01*
X166600000Y-69100000D01*
G75*
G02*
X166325000Y-69375000I-275000J0D01*
G01*
X165775000Y-69375000D01*
G75*
G02*
X165500000Y-69100000I0J275000D01*
G01*
G37*
G36*
G01*
X247500000Y-69100000D02*
X247500000Y-68100000D01*
G75*
G02*
X247775000Y-67825000I275000J0D01*
G01*
X248325000Y-67825000D01*
G75*
G02*
X248600000Y-68100000I0J-275000D01*
G01*
X248600000Y-69100000D01*
G75*
G02*
X248325000Y-69375000I-275000J0D01*
G01*
X247775000Y-69375000D01*
G75*
G02*
X247500000Y-69100000I0J275000D01*
G01*
G37*
G36*
G01*
X245600000Y-69100000D02*
X245600000Y-68100000D01*
G75*
G02*
X245875000Y-67825000I275000J0D01*
G01*
X246425000Y-67825000D01*
G75*
G02*
X246700000Y-68100000I0J-275000D01*
G01*
X246700000Y-69100000D01*
G75*
G02*
X246425000Y-69375000I-275000J0D01*
G01*
X245875000Y-69375000D01*
G75*
G02*
X245600000Y-69100000I0J275000D01*
G01*
G37*
G36*
G01*
X41950000Y-69100000D02*
X41950000Y-70100000D01*
G75*
G02*
X41675000Y-70375000I-275000J0D01*
G01*
X41125000Y-70375000D01*
G75*
G02*
X40850000Y-70100000I0J275000D01*
G01*
X40850000Y-69100000D01*
G75*
G02*
X41125000Y-68825000I275000J0D01*
G01*
X41675000Y-68825000D01*
G75*
G02*
X41950000Y-69100000I0J-275000D01*
G01*
G37*
G36*
G01*
X40050000Y-69100000D02*
X40050000Y-70100000D01*
G75*
G02*
X39775000Y-70375000I-275000J0D01*
G01*
X39225000Y-70375000D01*
G75*
G02*
X38950000Y-70100000I0J275000D01*
G01*
X38950000Y-69100000D01*
G75*
G02*
X39225000Y-68825000I275000J0D01*
G01*
X39775000Y-68825000D01*
G75*
G02*
X40050000Y-69100000I0J-275000D01*
G01*
G37*
D14*
X28000000Y-27000000D03*
X28000000Y-39000000D03*
X28000000Y-68000000D03*
X28000000Y-56000000D03*
D11*
X164200000Y-72600000D03*
D10*
X166740000Y-72600000D03*
D15*
X43500000Y-37500000D03*
X43500000Y-58500000D03*
X125500000Y-37500000D03*
X125500000Y-58500000D03*
X207500000Y-58500000D03*
X207500000Y-37500000D03*
X74000000Y-49900000D03*
X156000000Y-49900000D03*
X238000000Y-49900000D03*
X74000000Y-62000000D03*
X156000000Y-62000000D03*
X238000000Y-62000000D03*
X106000000Y-37500000D03*
X106000000Y-58500000D03*
X188000000Y-37500000D03*
X188000000Y-58500000D03*
X270000000Y-58500000D03*
X270000000Y-37500000D03*
D11*
X246200000Y-72500000D03*
D10*
X248740000Y-72500000D03*
X38860000Y-72400000D03*
D11*
X41400000Y-72400000D03*
G36*
G01*
X78275000Y-66975611D02*
X78275000Y-66024389D01*
G75*
G02*
X78549389Y-65750000I274389J0D01*
G01*
X79125611Y-65750000D01*
G75*
G02*
X79400000Y-66024389I0J-274389D01*
G01*
X79400000Y-66975611D01*
G75*
G02*
X79125611Y-67250000I-274389J0D01*
G01*
X78549389Y-67250000D01*
G75*
G02*
X78275000Y-66975611I0J274389D01*
G01*
G37*
G36*
G01*
X80100000Y-66975611D02*
X80100000Y-66024389D01*
G75*
G02*
X80374389Y-65750000I274389J0D01*
G01*
X80950611Y-65750000D01*
G75*
G02*
X81225000Y-66024389I0J-274389D01*
G01*
X81225000Y-66975611D01*
G75*
G02*
X80950611Y-67250000I-274389J0D01*
G01*
X80374389Y-67250000D01*
G75*
G02*
X80100000Y-66975611I0J274389D01*
G01*
G37*
G36*
G01*
X84637500Y-66024389D02*
X84637500Y-66975611D01*
G75*
G02*
X84363111Y-67250000I-274389J0D01*
G01*
X83786889Y-67250000D01*
G75*
G02*
X83512500Y-66975611I0J274389D01*
G01*
X83512500Y-66024389D01*
G75*
G02*
X83786889Y-65750000I274389J0D01*
G01*
X84363111Y-65750000D01*
G75*
G02*
X84637500Y-66024389I0J-274389D01*
G01*
G37*
G36*
G01*
X82812500Y-66024389D02*
X82812500Y-66975611D01*
G75*
G02*
X82538111Y-67250000I-274389J0D01*
G01*
X81961889Y-67250000D01*
G75*
G02*
X81687500Y-66975611I0J274389D01*
G01*
X81687500Y-66024389D01*
G75*
G02*
X81961889Y-65750000I274389J0D01*
G01*
X82538111Y-65750000D01*
G75*
G02*
X82812500Y-66024389I0J-274389D01*
G01*
G37*
G36*
G01*
X164762500Y-66124389D02*
X164762500Y-67075611D01*
G75*
G02*
X164488111Y-67350000I-274389J0D01*
G01*
X163911889Y-67350000D01*
G75*
G02*
X163637500Y-67075611I0J274389D01*
G01*
X163637500Y-66124389D01*
G75*
G02*
X163911889Y-65850000I274389J0D01*
G01*
X164488111Y-65850000D01*
G75*
G02*
X164762500Y-66124389I0J-274389D01*
G01*
G37*
G36*
G01*
X166587500Y-66124389D02*
X166587500Y-67075611D01*
G75*
G02*
X166313111Y-67350000I-274389J0D01*
G01*
X165736889Y-67350000D01*
G75*
G02*
X165462500Y-67075611I0J274389D01*
G01*
X165462500Y-66124389D01*
G75*
G02*
X165736889Y-65850000I274389J0D01*
G01*
X166313111Y-65850000D01*
G75*
G02*
X166587500Y-66124389I0J-274389D01*
G01*
G37*
G36*
G01*
X242212500Y-67075611D02*
X242212500Y-66124389D01*
G75*
G02*
X242486889Y-65850000I274389J0D01*
G01*
X243063111Y-65850000D01*
G75*
G02*
X243337500Y-66124389I0J-274389D01*
G01*
X243337500Y-67075611D01*
G75*
G02*
X243063111Y-67350000I-274389J0D01*
G01*
X242486889Y-67350000D01*
G75*
G02*
X242212500Y-67075611I0J274389D01*
G01*
G37*
G36*
G01*
X244037500Y-67075611D02*
X244037500Y-66124389D01*
G75*
G02*
X244311889Y-65850000I274389J0D01*
G01*
X244888111Y-65850000D01*
G75*
G02*
X245162500Y-66124389I0J-274389D01*
G01*
X245162500Y-67075611D01*
G75*
G02*
X244888111Y-67350000I-274389J0D01*
G01*
X244311889Y-67350000D01*
G75*
G02*
X244037500Y-67075611I0J274389D01*
G01*
G37*
G36*
G01*
X246762500Y-66124389D02*
X246762500Y-67075611D01*
G75*
G02*
X246488111Y-67350000I-274389J0D01*
G01*
X245911889Y-67350000D01*
G75*
G02*
X245637500Y-67075611I0J274389D01*
G01*
X245637500Y-66124389D01*
G75*
G02*
X245911889Y-65850000I274389J0D01*
G01*
X246488111Y-65850000D01*
G75*
G02*
X246762500Y-66124389I0J-274389D01*
G01*
G37*
G36*
G01*
X248587500Y-66124389D02*
X248587500Y-67075611D01*
G75*
G02*
X248313111Y-67350000I-274389J0D01*
G01*
X247736889Y-67350000D01*
G75*
G02*
X247462500Y-67075611I0J274389D01*
G01*
X247462500Y-66124389D01*
G75*
G02*
X247736889Y-65850000I274389J0D01*
G01*
X248313111Y-65850000D01*
G75*
G02*
X248587500Y-66124389I0J-274389D01*
G01*
G37*
G36*
G01*
X40837500Y-68075611D02*
X40837500Y-67124389D01*
G75*
G02*
X41111889Y-66850000I274389J0D01*
G01*
X41688111Y-66850000D01*
G75*
G02*
X41962500Y-67124389I0J-274389D01*
G01*
X41962500Y-68075611D01*
G75*
G02*
X41688111Y-68350000I-274389J0D01*
G01*
X41111889Y-68350000D01*
G75*
G02*
X40837500Y-68075611I0J274389D01*
G01*
G37*
G36*
G01*
X39012500Y-68075611D02*
X39012500Y-67124389D01*
G75*
G02*
X39286889Y-66850000I274389J0D01*
G01*
X39863111Y-66850000D01*
G75*
G02*
X40137500Y-67124389I0J-274389D01*
G01*
X40137500Y-68075611D01*
G75*
G02*
X39863111Y-68350000I-274389J0D01*
G01*
X39286889Y-68350000D01*
G75*
G02*
X39012500Y-68075611I0J274389D01*
G01*
G37*
M02*
