G04 #@! TF.GenerationSoftware,KiCad,Pcbnew,(5.1.6)-1*
G04 #@! TF.CreationDate,2021-04-15T22:16:23+02:00*
G04 #@! TF.ProjectId,DCLink,44434c69-6e6b-42e6-9b69-6361645f7063,rev?*
G04 #@! TF.SameCoordinates,Original*
G04 #@! TF.FileFunction,Copper,L1,Top*
G04 #@! TF.FilePolarity,Positive*
%FSLAX46Y46*%
G04 Gerber Fmt 4.6, Leading zero omitted, Abs format (unit mm)*
G04 Created by KiCad (PCBNEW (5.1.6)-1) date 2021-04-15 22:16:23*
%MOMM*%
%LPD*%
G01*
G04 APERTURE LIST*
G04 #@! TA.AperFunction,ComponentPad*
%ADD10O,1.700000X1.700000*%
G04 #@! TD*
G04 #@! TA.AperFunction,ComponentPad*
%ADD11R,1.700000X1.700000*%
G04 #@! TD*
G04 #@! TA.AperFunction,ComponentPad*
%ADD12C,2.400000*%
G04 #@! TD*
G04 #@! TA.AperFunction,ComponentPad*
%ADD13R,2.400000X2.400000*%
G04 #@! TD*
G04 #@! TA.AperFunction,ConnectorPad*
%ADD14C,10.000000*%
G04 #@! TD*
G04 #@! TA.AperFunction,ComponentPad*
%ADD15C,9.500000*%
G04 #@! TD*
G04 #@! TA.AperFunction,ViaPad*
%ADD16C,0.800000*%
G04 #@! TD*
G04 #@! TA.AperFunction,Conductor*
%ADD17C,0.500000*%
G04 #@! TD*
G04 #@! TA.AperFunction,Conductor*
%ADD18C,0.254000*%
G04 #@! TD*
G04 APERTURE END LIST*
G04 #@! TA.AperFunction,SMDPad,CuDef*
G36*
G01*
X160262500Y-67050001D02*
X160262500Y-66149999D01*
G75*
G02*
X160512499Y-65900000I249999J0D01*
G01*
X161037501Y-65900000D01*
G75*
G02*
X161287500Y-66149999I0J-249999D01*
G01*
X161287500Y-67050001D01*
G75*
G02*
X161037501Y-67300000I-249999J0D01*
G01*
X160512499Y-67300000D01*
G75*
G02*
X160262500Y-67050001I0J249999D01*
G01*
G37*
G04 #@! TD.AperFunction*
G04 #@! TA.AperFunction,SMDPad,CuDef*
G36*
G01*
X162087500Y-67050001D02*
X162087500Y-66149999D01*
G75*
G02*
X162337499Y-65900000I249999J0D01*
G01*
X162862501Y-65900000D01*
G75*
G02*
X163112500Y-66149999I0J-249999D01*
G01*
X163112500Y-67050001D01*
G75*
G02*
X162862501Y-67300000I-249999J0D01*
G01*
X162337499Y-67300000D01*
G75*
G02*
X162087500Y-67050001I0J249999D01*
G01*
G37*
G04 #@! TD.AperFunction*
D10*
X84740000Y-72400000D03*
D11*
X82200000Y-72400000D03*
G04 #@! TA.AperFunction,SMDPad,CuDef*
G36*
G01*
X41712500Y-65249999D02*
X41712500Y-66150001D01*
G75*
G02*
X41462501Y-66400000I-249999J0D01*
G01*
X40937499Y-66400000D01*
G75*
G02*
X40687500Y-66150001I0J249999D01*
G01*
X40687500Y-65249999D01*
G75*
G02*
X40937499Y-65000000I249999J0D01*
G01*
X41462501Y-65000000D01*
G75*
G02*
X41712500Y-65249999I0J-249999D01*
G01*
G37*
G04 #@! TD.AperFunction*
G04 #@! TA.AperFunction,SMDPad,CuDef*
G36*
G01*
X43537500Y-65249999D02*
X43537500Y-66150001D01*
G75*
G02*
X43287501Y-66400000I-249999J0D01*
G01*
X42762499Y-66400000D01*
G75*
G02*
X42512500Y-66150001I0J249999D01*
G01*
X42512500Y-65249999D01*
G75*
G02*
X42762499Y-65000000I249999J0D01*
G01*
X43287501Y-65000000D01*
G75*
G02*
X43537500Y-65249999I0J-249999D01*
G01*
G37*
G04 #@! TD.AperFunction*
D12*
X61000000Y-31000000D03*
D13*
X56000000Y-31000000D03*
X56000000Y-60000000D03*
D12*
X61000000Y-60000000D03*
D13*
X88500000Y-31000000D03*
D12*
X93500000Y-31000000D03*
X93500000Y-60000000D03*
D13*
X88500000Y-60000000D03*
X138000000Y-31000000D03*
D12*
X143000000Y-31000000D03*
X143000000Y-60000000D03*
D13*
X138000000Y-60000000D03*
X170500000Y-31000000D03*
D12*
X175500000Y-31000000D03*
X175500000Y-60000000D03*
D13*
X170500000Y-60000000D03*
X219500000Y-31000000D03*
D12*
X224500000Y-31000000D03*
X224500000Y-60000000D03*
D13*
X219500000Y-60000000D03*
X252000000Y-31000000D03*
D12*
X257000000Y-31000000D03*
X257000000Y-60000000D03*
D13*
X252000000Y-60000000D03*
G04 #@! TA.AperFunction,SMDPad,CuDef*
G36*
G01*
X83600000Y-68975000D02*
X83600000Y-68025000D01*
G75*
G02*
X83850000Y-67775000I250000J0D01*
G01*
X84350000Y-67775000D01*
G75*
G02*
X84600000Y-68025000I0J-250000D01*
G01*
X84600000Y-68975000D01*
G75*
G02*
X84350000Y-69225000I-250000J0D01*
G01*
X83850000Y-69225000D01*
G75*
G02*
X83600000Y-68975000I0J250000D01*
G01*
G37*
G04 #@! TD.AperFunction*
G04 #@! TA.AperFunction,SMDPad,CuDef*
G36*
G01*
X81700000Y-68975000D02*
X81700000Y-68025000D01*
G75*
G02*
X81950000Y-67775000I250000J0D01*
G01*
X82450000Y-67775000D01*
G75*
G02*
X82700000Y-68025000I0J-250000D01*
G01*
X82700000Y-68975000D01*
G75*
G02*
X82450000Y-69225000I-250000J0D01*
G01*
X81950000Y-69225000D01*
G75*
G02*
X81700000Y-68975000I0J250000D01*
G01*
G37*
G04 #@! TD.AperFunction*
G04 #@! TA.AperFunction,SMDPad,CuDef*
G36*
G01*
X163650000Y-69075000D02*
X163650000Y-68125000D01*
G75*
G02*
X163900000Y-67875000I250000J0D01*
G01*
X164400000Y-67875000D01*
G75*
G02*
X164650000Y-68125000I0J-250000D01*
G01*
X164650000Y-69075000D01*
G75*
G02*
X164400000Y-69325000I-250000J0D01*
G01*
X163900000Y-69325000D01*
G75*
G02*
X163650000Y-69075000I0J250000D01*
G01*
G37*
G04 #@! TD.AperFunction*
G04 #@! TA.AperFunction,SMDPad,CuDef*
G36*
G01*
X165550000Y-69075000D02*
X165550000Y-68125000D01*
G75*
G02*
X165800000Y-67875000I250000J0D01*
G01*
X166300000Y-67875000D01*
G75*
G02*
X166550000Y-68125000I0J-250000D01*
G01*
X166550000Y-69075000D01*
G75*
G02*
X166300000Y-69325000I-250000J0D01*
G01*
X165800000Y-69325000D01*
G75*
G02*
X165550000Y-69075000I0J250000D01*
G01*
G37*
G04 #@! TD.AperFunction*
G04 #@! TA.AperFunction,SMDPad,CuDef*
G36*
G01*
X247550000Y-69075000D02*
X247550000Y-68125000D01*
G75*
G02*
X247800000Y-67875000I250000J0D01*
G01*
X248300000Y-67875000D01*
G75*
G02*
X248550000Y-68125000I0J-250000D01*
G01*
X248550000Y-69075000D01*
G75*
G02*
X248300000Y-69325000I-250000J0D01*
G01*
X247800000Y-69325000D01*
G75*
G02*
X247550000Y-69075000I0J250000D01*
G01*
G37*
G04 #@! TD.AperFunction*
G04 #@! TA.AperFunction,SMDPad,CuDef*
G36*
G01*
X245650000Y-69075000D02*
X245650000Y-68125000D01*
G75*
G02*
X245900000Y-67875000I250000J0D01*
G01*
X246400000Y-67875000D01*
G75*
G02*
X246650000Y-68125000I0J-250000D01*
G01*
X246650000Y-69075000D01*
G75*
G02*
X246400000Y-69325000I-250000J0D01*
G01*
X245900000Y-69325000D01*
G75*
G02*
X245650000Y-69075000I0J250000D01*
G01*
G37*
G04 #@! TD.AperFunction*
G04 #@! TA.AperFunction,SMDPad,CuDef*
G36*
G01*
X41900000Y-69125000D02*
X41900000Y-70075000D01*
G75*
G02*
X41650000Y-70325000I-250000J0D01*
G01*
X41150000Y-70325000D01*
G75*
G02*
X40900000Y-70075000I0J250000D01*
G01*
X40900000Y-69125000D01*
G75*
G02*
X41150000Y-68875000I250000J0D01*
G01*
X41650000Y-68875000D01*
G75*
G02*
X41900000Y-69125000I0J-250000D01*
G01*
G37*
G04 #@! TD.AperFunction*
G04 #@! TA.AperFunction,SMDPad,CuDef*
G36*
G01*
X40000000Y-69125000D02*
X40000000Y-70075000D01*
G75*
G02*
X39750000Y-70325000I-250000J0D01*
G01*
X39250000Y-70325000D01*
G75*
G02*
X39000000Y-70075000I0J250000D01*
G01*
X39000000Y-69125000D01*
G75*
G02*
X39250000Y-68875000I250000J0D01*
G01*
X39750000Y-68875000D01*
G75*
G02*
X40000000Y-69125000I0J-250000D01*
G01*
G37*
G04 #@! TD.AperFunction*
D14*
X28000000Y-27000000D03*
X28000000Y-39000000D03*
X28000000Y-68000000D03*
X28000000Y-56000000D03*
D11*
X164200000Y-72600000D03*
D10*
X166740000Y-72600000D03*
D15*
X43500000Y-37500000D03*
X43500000Y-58500000D03*
X125500000Y-37500000D03*
X125500000Y-58500000D03*
X207500000Y-58500000D03*
X207500000Y-37500000D03*
X74000000Y-49900000D03*
X156000000Y-49900000D03*
X238000000Y-49900000D03*
X74000000Y-62000000D03*
X156000000Y-62000000D03*
X238000000Y-62000000D03*
X106000000Y-37500000D03*
X106000000Y-58500000D03*
X188000000Y-37500000D03*
X188000000Y-58500000D03*
X270000000Y-58500000D03*
X270000000Y-37500000D03*
D11*
X246200000Y-72500000D03*
D10*
X248740000Y-72500000D03*
X38860000Y-72400000D03*
D11*
X41400000Y-72400000D03*
G04 #@! TA.AperFunction,SMDPad,CuDef*
G36*
G01*
X78325000Y-66950001D02*
X78325000Y-66049999D01*
G75*
G02*
X78574999Y-65800000I249999J0D01*
G01*
X79100001Y-65800000D01*
G75*
G02*
X79350000Y-66049999I0J-249999D01*
G01*
X79350000Y-66950001D01*
G75*
G02*
X79100001Y-67200000I-249999J0D01*
G01*
X78574999Y-67200000D01*
G75*
G02*
X78325000Y-66950001I0J249999D01*
G01*
G37*
G04 #@! TD.AperFunction*
G04 #@! TA.AperFunction,SMDPad,CuDef*
G36*
G01*
X80150000Y-66950001D02*
X80150000Y-66049999D01*
G75*
G02*
X80399999Y-65800000I249999J0D01*
G01*
X80925001Y-65800000D01*
G75*
G02*
X81175000Y-66049999I0J-249999D01*
G01*
X81175000Y-66950001D01*
G75*
G02*
X80925001Y-67200000I-249999J0D01*
G01*
X80399999Y-67200000D01*
G75*
G02*
X80150000Y-66950001I0J249999D01*
G01*
G37*
G04 #@! TD.AperFunction*
G04 #@! TA.AperFunction,SMDPad,CuDef*
G36*
G01*
X84587500Y-66049999D02*
X84587500Y-66950001D01*
G75*
G02*
X84337501Y-67200000I-249999J0D01*
G01*
X83812499Y-67200000D01*
G75*
G02*
X83562500Y-66950001I0J249999D01*
G01*
X83562500Y-66049999D01*
G75*
G02*
X83812499Y-65800000I249999J0D01*
G01*
X84337501Y-65800000D01*
G75*
G02*
X84587500Y-66049999I0J-249999D01*
G01*
G37*
G04 #@! TD.AperFunction*
G04 #@! TA.AperFunction,SMDPad,CuDef*
G36*
G01*
X82762500Y-66049999D02*
X82762500Y-66950001D01*
G75*
G02*
X82512501Y-67200000I-249999J0D01*
G01*
X81987499Y-67200000D01*
G75*
G02*
X81737500Y-66950001I0J249999D01*
G01*
X81737500Y-66049999D01*
G75*
G02*
X81987499Y-65800000I249999J0D01*
G01*
X82512501Y-65800000D01*
G75*
G02*
X82762500Y-66049999I0J-249999D01*
G01*
G37*
G04 #@! TD.AperFunction*
G04 #@! TA.AperFunction,SMDPad,CuDef*
G36*
G01*
X164712500Y-66149999D02*
X164712500Y-67050001D01*
G75*
G02*
X164462501Y-67300000I-249999J0D01*
G01*
X163937499Y-67300000D01*
G75*
G02*
X163687500Y-67050001I0J249999D01*
G01*
X163687500Y-66149999D01*
G75*
G02*
X163937499Y-65900000I249999J0D01*
G01*
X164462501Y-65900000D01*
G75*
G02*
X164712500Y-66149999I0J-249999D01*
G01*
G37*
G04 #@! TD.AperFunction*
G04 #@! TA.AperFunction,SMDPad,CuDef*
G36*
G01*
X166537500Y-66149999D02*
X166537500Y-67050001D01*
G75*
G02*
X166287501Y-67300000I-249999J0D01*
G01*
X165762499Y-67300000D01*
G75*
G02*
X165512500Y-67050001I0J249999D01*
G01*
X165512500Y-66149999D01*
G75*
G02*
X165762499Y-65900000I249999J0D01*
G01*
X166287501Y-65900000D01*
G75*
G02*
X166537500Y-66149999I0J-249999D01*
G01*
G37*
G04 #@! TD.AperFunction*
G04 #@! TA.AperFunction,SMDPad,CuDef*
G36*
G01*
X242262500Y-67050001D02*
X242262500Y-66149999D01*
G75*
G02*
X242512499Y-65900000I249999J0D01*
G01*
X243037501Y-65900000D01*
G75*
G02*
X243287500Y-66149999I0J-249999D01*
G01*
X243287500Y-67050001D01*
G75*
G02*
X243037501Y-67300000I-249999J0D01*
G01*
X242512499Y-67300000D01*
G75*
G02*
X242262500Y-67050001I0J249999D01*
G01*
G37*
G04 #@! TD.AperFunction*
G04 #@! TA.AperFunction,SMDPad,CuDef*
G36*
G01*
X244087500Y-67050001D02*
X244087500Y-66149999D01*
G75*
G02*
X244337499Y-65900000I249999J0D01*
G01*
X244862501Y-65900000D01*
G75*
G02*
X245112500Y-66149999I0J-249999D01*
G01*
X245112500Y-67050001D01*
G75*
G02*
X244862501Y-67300000I-249999J0D01*
G01*
X244337499Y-67300000D01*
G75*
G02*
X244087500Y-67050001I0J249999D01*
G01*
G37*
G04 #@! TD.AperFunction*
G04 #@! TA.AperFunction,SMDPad,CuDef*
G36*
G01*
X246712500Y-66149999D02*
X246712500Y-67050001D01*
G75*
G02*
X246462501Y-67300000I-249999J0D01*
G01*
X245937499Y-67300000D01*
G75*
G02*
X245687500Y-67050001I0J249999D01*
G01*
X245687500Y-66149999D01*
G75*
G02*
X245937499Y-65900000I249999J0D01*
G01*
X246462501Y-65900000D01*
G75*
G02*
X246712500Y-66149999I0J-249999D01*
G01*
G37*
G04 #@! TD.AperFunction*
G04 #@! TA.AperFunction,SMDPad,CuDef*
G36*
G01*
X248537500Y-66149999D02*
X248537500Y-67050001D01*
G75*
G02*
X248287501Y-67300000I-249999J0D01*
G01*
X247762499Y-67300000D01*
G75*
G02*
X247512500Y-67050001I0J249999D01*
G01*
X247512500Y-66149999D01*
G75*
G02*
X247762499Y-65900000I249999J0D01*
G01*
X248287501Y-65900000D01*
G75*
G02*
X248537500Y-66149999I0J-249999D01*
G01*
G37*
G04 #@! TD.AperFunction*
G04 #@! TA.AperFunction,SMDPad,CuDef*
G36*
G01*
X40887500Y-68050001D02*
X40887500Y-67149999D01*
G75*
G02*
X41137499Y-66900000I249999J0D01*
G01*
X41662501Y-66900000D01*
G75*
G02*
X41912500Y-67149999I0J-249999D01*
G01*
X41912500Y-68050001D01*
G75*
G02*
X41662501Y-68300000I-249999J0D01*
G01*
X41137499Y-68300000D01*
G75*
G02*
X40887500Y-68050001I0J249999D01*
G01*
G37*
G04 #@! TD.AperFunction*
G04 #@! TA.AperFunction,SMDPad,CuDef*
G36*
G01*
X39062500Y-68050001D02*
X39062500Y-67149999D01*
G75*
G02*
X39312499Y-66900000I249999J0D01*
G01*
X39837501Y-66900000D01*
G75*
G02*
X40087500Y-67149999I0J-249999D01*
G01*
X40087500Y-68050001D01*
G75*
G02*
X39837501Y-68300000I-249999J0D01*
G01*
X39312499Y-68300000D01*
G75*
G02*
X39062500Y-68050001I0J249999D01*
G01*
G37*
G04 #@! TD.AperFunction*
D16*
X25500000Y-71500000D03*
X27000000Y-71500000D03*
X28500000Y-71500000D03*
X30000000Y-71500000D03*
X31500000Y-71500000D03*
X31500000Y-70000000D03*
X30000000Y-70000000D03*
X28500000Y-70000000D03*
X27000000Y-70000000D03*
X25500000Y-70000000D03*
X24000000Y-70000000D03*
X24000000Y-68500000D03*
X25500000Y-68500000D03*
X27000000Y-68500000D03*
X28500000Y-68500000D03*
X30000000Y-68500000D03*
X31500000Y-68500000D03*
X31500000Y-67000000D03*
X30000000Y-67000000D03*
X28500000Y-67000000D03*
X27000000Y-67000000D03*
X25500000Y-67000000D03*
X24000000Y-67000000D03*
X24000000Y-65500000D03*
X25500000Y-65500000D03*
X27000000Y-65500000D03*
X28500000Y-65500000D03*
X30000000Y-65500000D03*
X31500000Y-65500000D03*
X30000000Y-64000000D03*
X28500000Y-64000000D03*
X27000000Y-64000000D03*
X25500000Y-64000000D03*
X25500000Y-59500000D03*
X27000000Y-59500000D03*
X28500000Y-59500000D03*
X30000000Y-59500000D03*
X31500000Y-59500000D03*
X31500000Y-58000000D03*
X30000000Y-58000000D03*
X28500000Y-58000000D03*
X27000000Y-58000000D03*
X25500000Y-58000000D03*
X24000000Y-58000000D03*
X24000000Y-56500000D03*
X25500000Y-56500000D03*
X27000000Y-56500000D03*
X28500000Y-56500000D03*
X30000000Y-56500000D03*
X31500000Y-56500000D03*
X31500000Y-55000000D03*
X30000000Y-55000000D03*
X28500000Y-55000000D03*
X27000000Y-55000000D03*
X25500000Y-55000000D03*
X24000000Y-55000000D03*
X24000000Y-53500000D03*
X25500000Y-53500000D03*
X27000000Y-53500000D03*
X28500000Y-53500000D03*
X30000000Y-53500000D03*
X31500000Y-53500000D03*
X30000000Y-52000000D03*
X28500000Y-52000000D03*
X27000000Y-52000000D03*
X25500000Y-52000000D03*
X21000000Y-49000000D03*
X22500000Y-49000000D03*
X24000000Y-49000000D03*
X25500000Y-49000000D03*
X27000000Y-49000000D03*
X28500000Y-49000000D03*
X30000000Y-49000000D03*
X31500000Y-49000000D03*
X33000000Y-49000000D03*
X34500000Y-49000000D03*
X34500000Y-50500000D03*
X33000000Y-50500000D03*
X31500000Y-50500000D03*
X30000000Y-50500000D03*
X28500000Y-50500000D03*
X27000000Y-50500000D03*
X25500000Y-50500000D03*
X24000000Y-50500000D03*
X22500000Y-50500000D03*
X21000000Y-50500000D03*
X21000000Y-52000000D03*
X22500000Y-52000000D03*
X24000000Y-52000000D03*
X31500000Y-52000000D03*
X33000000Y-52000000D03*
X34500000Y-52000000D03*
X34500000Y-53500000D03*
X33000000Y-53500000D03*
X22500000Y-53500000D03*
X21000000Y-53500000D03*
X21000000Y-55000000D03*
X22500000Y-55000000D03*
X33000000Y-55000000D03*
X34500000Y-55000000D03*
X34500000Y-56500000D03*
X33000000Y-56500000D03*
X22500000Y-56500000D03*
X21000000Y-56500000D03*
X21000000Y-58000000D03*
X22500000Y-58000000D03*
X33000000Y-58000000D03*
X34500000Y-58000000D03*
X34500000Y-59500000D03*
X33000000Y-59500000D03*
X24000000Y-59500000D03*
X22500000Y-59500000D03*
X21000000Y-59500000D03*
X21000000Y-61000000D03*
X22500000Y-61000000D03*
X24000000Y-61000000D03*
X25500000Y-61000000D03*
X27000000Y-61000000D03*
X28500000Y-61000000D03*
X30000000Y-61000000D03*
X31500000Y-61000000D03*
X33000000Y-61000000D03*
X34500000Y-61000000D03*
X34500000Y-62500000D03*
X33000000Y-62500000D03*
X31500000Y-62500000D03*
X30000000Y-62500000D03*
X28500000Y-62500000D03*
X27000000Y-62500000D03*
X25500000Y-62500000D03*
X24000000Y-62500000D03*
X22500000Y-62500000D03*
X21000000Y-62500000D03*
X21000000Y-64000000D03*
X22500000Y-64000000D03*
X24000000Y-64000000D03*
X31500000Y-64000000D03*
X31500000Y-64000000D03*
X33000000Y-64000000D03*
X34500000Y-64000000D03*
X34500000Y-65500000D03*
X33000000Y-65500000D03*
X22500000Y-65500000D03*
X21000000Y-65500000D03*
X21000000Y-67000000D03*
X22500000Y-67000000D03*
X33000000Y-67000000D03*
X34500000Y-67000000D03*
X34500000Y-68500000D03*
X33000000Y-68500000D03*
X22500000Y-68500000D03*
X21000000Y-68500000D03*
X21000000Y-70000000D03*
X22500000Y-70000000D03*
X33000000Y-70000000D03*
X34500000Y-70000000D03*
X34500000Y-71500000D03*
X33000000Y-71500000D03*
X24000000Y-71500000D03*
X22500000Y-71500000D03*
X21000000Y-71500000D03*
X21000000Y-73000000D03*
X22500000Y-73000000D03*
X24000000Y-73000000D03*
X25500000Y-73000000D03*
X27000000Y-73000000D03*
X28500000Y-73000000D03*
X30000000Y-73000000D03*
X31500000Y-73000000D03*
X33000000Y-73000000D03*
X34500000Y-73000000D03*
D17*
X39575000Y-71685000D02*
X38860000Y-72400000D01*
X39575000Y-67600000D02*
X39575000Y-71685000D01*
X84075000Y-71735000D02*
X84740000Y-72400000D01*
X84075000Y-66500000D02*
X84075000Y-71735000D01*
X166025000Y-71885000D02*
X166740000Y-72600000D01*
X166025000Y-66600000D02*
X166025000Y-71885000D01*
X248025000Y-71785000D02*
X248740000Y-72500000D01*
X248025000Y-66600000D02*
X248025000Y-71785000D01*
X80662500Y-66500000D02*
X82250000Y-66500000D01*
X82250000Y-72350000D02*
X82200000Y-72400000D01*
X82250000Y-66500000D02*
X82250000Y-72350000D01*
X164200000Y-66600000D02*
X164200000Y-72600000D01*
X162600000Y-66600000D02*
X164200000Y-66600000D01*
X246200000Y-66600000D02*
X246200000Y-72500000D01*
X244600000Y-66600000D02*
X246200000Y-66600000D01*
X41200000Y-72200000D02*
X41400000Y-72400000D01*
X41200000Y-65800000D02*
X41200000Y-72200000D01*
D18*
G36*
X279340001Y-74340000D02*
G01*
X35635000Y-74340000D01*
X35635000Y-72253740D01*
X37375000Y-72253740D01*
X37375000Y-72546260D01*
X37432068Y-72833158D01*
X37544010Y-73103411D01*
X37706525Y-73346632D01*
X37913368Y-73553475D01*
X38156589Y-73715990D01*
X38426842Y-73827932D01*
X38713740Y-73885000D01*
X39006260Y-73885000D01*
X39293158Y-73827932D01*
X39563411Y-73715990D01*
X39806632Y-73553475D01*
X39938487Y-73421620D01*
X39960498Y-73494180D01*
X40019463Y-73604494D01*
X40098815Y-73701185D01*
X40195506Y-73780537D01*
X40305820Y-73839502D01*
X40425518Y-73875812D01*
X40550000Y-73888072D01*
X42250000Y-73888072D01*
X42374482Y-73875812D01*
X42494180Y-73839502D01*
X42604494Y-73780537D01*
X42701185Y-73701185D01*
X42780537Y-73604494D01*
X42839502Y-73494180D01*
X42875812Y-73374482D01*
X42888072Y-73250000D01*
X42888072Y-71550000D01*
X42875812Y-71425518D01*
X42839502Y-71305820D01*
X42780537Y-71195506D01*
X42701185Y-71098815D01*
X42604494Y-71019463D01*
X42494180Y-70960498D01*
X42374482Y-70924188D01*
X42250000Y-70911928D01*
X42085000Y-70911928D01*
X42085000Y-70844613D01*
X42143386Y-70813405D01*
X42277962Y-70702962D01*
X42388405Y-70568386D01*
X42470472Y-70414850D01*
X42521008Y-70248254D01*
X42538072Y-70075000D01*
X42538072Y-69125000D01*
X42521008Y-68951746D01*
X42470472Y-68785150D01*
X42388405Y-68631614D01*
X42358452Y-68595116D01*
X42400905Y-68543387D01*
X42482972Y-68389851D01*
X42533508Y-68223255D01*
X42550572Y-68050001D01*
X42550572Y-67149999D01*
X42539512Y-67037706D01*
X42739250Y-67035000D01*
X42898000Y-66876250D01*
X42898000Y-65827000D01*
X43152000Y-65827000D01*
X43152000Y-66876250D01*
X43310750Y-67035000D01*
X43537500Y-67038072D01*
X43661982Y-67025812D01*
X43781680Y-66989502D01*
X43891994Y-66930537D01*
X43988685Y-66851185D01*
X44068037Y-66754494D01*
X44127002Y-66644180D01*
X44163312Y-66524482D01*
X44175572Y-66400000D01*
X44172500Y-65985750D01*
X44013750Y-65827000D01*
X43152000Y-65827000D01*
X42898000Y-65827000D01*
X42878000Y-65827000D01*
X42878000Y-65573000D01*
X42898000Y-65573000D01*
X42898000Y-64523750D01*
X43152000Y-64523750D01*
X43152000Y-65573000D01*
X44013750Y-65573000D01*
X44172500Y-65414250D01*
X44175572Y-65000000D01*
X44163312Y-64875518D01*
X44127002Y-64755820D01*
X44068037Y-64645506D01*
X43988685Y-64548815D01*
X43891994Y-64469463D01*
X43781680Y-64410498D01*
X43661982Y-64374188D01*
X43537500Y-64361928D01*
X43310750Y-64365000D01*
X43152000Y-64523750D01*
X42898000Y-64523750D01*
X42739250Y-64365000D01*
X42512500Y-64361928D01*
X42388018Y-64374188D01*
X42268320Y-64410498D01*
X42158006Y-64469463D01*
X42061315Y-64548815D01*
X42037137Y-64578276D01*
X41955887Y-64511595D01*
X41802351Y-64429528D01*
X41635755Y-64378992D01*
X41462501Y-64361928D01*
X40937499Y-64361928D01*
X40764245Y-64378992D01*
X40597649Y-64429528D01*
X40444113Y-64511595D01*
X40309538Y-64622038D01*
X40199095Y-64756613D01*
X40117028Y-64910149D01*
X40066492Y-65076745D01*
X40049428Y-65249999D01*
X40049428Y-66150001D01*
X40063715Y-66295057D01*
X40010755Y-66278992D01*
X39837501Y-66261928D01*
X39312499Y-66261928D01*
X39139245Y-66278992D01*
X38972649Y-66329528D01*
X38819113Y-66411595D01*
X38684538Y-66522038D01*
X38574095Y-66656613D01*
X38492028Y-66810149D01*
X38441492Y-66976745D01*
X38424428Y-67149999D01*
X38424428Y-68050001D01*
X38441492Y-68223255D01*
X38492028Y-68389851D01*
X38574095Y-68543387D01*
X38579048Y-68549422D01*
X38511595Y-68631614D01*
X38429528Y-68785150D01*
X38378992Y-68951746D01*
X38361928Y-69125000D01*
X38361928Y-70075000D01*
X38378992Y-70248254D01*
X38429528Y-70414850D01*
X38511595Y-70568386D01*
X38622038Y-70702962D01*
X38690001Y-70758737D01*
X38690001Y-70919722D01*
X38426842Y-70972068D01*
X38156589Y-71084010D01*
X37913368Y-71246525D01*
X37706525Y-71453368D01*
X37544010Y-71696589D01*
X37432068Y-71966842D01*
X37375000Y-72253740D01*
X35635000Y-72253740D01*
X35635000Y-62302658D01*
X39876947Y-62302658D01*
X40423083Y-62951079D01*
X41350567Y-63465829D01*
X42360653Y-63789746D01*
X43414523Y-63910380D01*
X44471678Y-63823097D01*
X45491492Y-63531251D01*
X46434775Y-63046056D01*
X46576917Y-62951079D01*
X47123053Y-62302658D01*
X43500000Y-58679605D01*
X39876947Y-62302658D01*
X35635000Y-62302658D01*
X35635000Y-58414523D01*
X38089620Y-58414523D01*
X38176903Y-59471678D01*
X38468749Y-60491492D01*
X38953944Y-61434775D01*
X39048921Y-61576917D01*
X39697342Y-62123053D01*
X43320395Y-58500000D01*
X43679605Y-58500000D01*
X47302658Y-62123053D01*
X47951079Y-61576917D01*
X48160266Y-61200000D01*
X54161928Y-61200000D01*
X54174188Y-61324482D01*
X54210498Y-61444180D01*
X54269463Y-61554494D01*
X54348815Y-61651185D01*
X54445506Y-61730537D01*
X54555820Y-61789502D01*
X54675518Y-61825812D01*
X54800000Y-61838072D01*
X55714250Y-61835000D01*
X55873000Y-61676250D01*
X55873000Y-60127000D01*
X56127000Y-60127000D01*
X56127000Y-61676250D01*
X56285750Y-61835000D01*
X57200000Y-61838072D01*
X57324482Y-61825812D01*
X57444180Y-61789502D01*
X57554494Y-61730537D01*
X57651185Y-61651185D01*
X57730537Y-61554494D01*
X57789502Y-61444180D01*
X57825812Y-61324482D01*
X57838072Y-61200000D01*
X57835000Y-60285750D01*
X57676250Y-60127000D01*
X56127000Y-60127000D01*
X55873000Y-60127000D01*
X54323750Y-60127000D01*
X54165000Y-60285750D01*
X54161928Y-61200000D01*
X48160266Y-61200000D01*
X48465829Y-60649433D01*
X48789746Y-59639347D01*
X48885824Y-58800000D01*
X54161928Y-58800000D01*
X54165000Y-59714250D01*
X54323750Y-59873000D01*
X55873000Y-59873000D01*
X55873000Y-58323750D01*
X56127000Y-58323750D01*
X56127000Y-59873000D01*
X57676250Y-59873000D01*
X57729982Y-59819268D01*
X59165000Y-59819268D01*
X59165000Y-60180732D01*
X59235518Y-60535250D01*
X59373844Y-60869199D01*
X59574662Y-61169744D01*
X59830256Y-61425338D01*
X60130801Y-61626156D01*
X60464750Y-61764482D01*
X60819268Y-61835000D01*
X61180732Y-61835000D01*
X61535250Y-61764482D01*
X61869199Y-61626156D01*
X62169744Y-61425338D01*
X62425338Y-61169744D01*
X62626156Y-60869199D01*
X62764482Y-60535250D01*
X62835000Y-60180732D01*
X62835000Y-59819268D01*
X62764482Y-59464750D01*
X62626156Y-59130801D01*
X62425338Y-58830256D01*
X62169744Y-58574662D01*
X61869199Y-58373844D01*
X61535250Y-58235518D01*
X61180732Y-58165000D01*
X60819268Y-58165000D01*
X60464750Y-58235518D01*
X60130801Y-58373844D01*
X59830256Y-58574662D01*
X59574662Y-58830256D01*
X59373844Y-59130801D01*
X59235518Y-59464750D01*
X59165000Y-59819268D01*
X57729982Y-59819268D01*
X57835000Y-59714250D01*
X57838072Y-58800000D01*
X57825812Y-58675518D01*
X57789502Y-58555820D01*
X57730537Y-58445506D01*
X57651185Y-58348815D01*
X57554494Y-58269463D01*
X57444180Y-58210498D01*
X57324482Y-58174188D01*
X57200000Y-58161928D01*
X56285750Y-58165000D01*
X56127000Y-58323750D01*
X55873000Y-58323750D01*
X55714250Y-58165000D01*
X54800000Y-58161928D01*
X54675518Y-58174188D01*
X54555820Y-58210498D01*
X54445506Y-58269463D01*
X54348815Y-58348815D01*
X54269463Y-58445506D01*
X54210498Y-58555820D01*
X54174188Y-58675518D01*
X54161928Y-58800000D01*
X48885824Y-58800000D01*
X48910380Y-58585477D01*
X48823097Y-57528322D01*
X48531251Y-56508508D01*
X48046056Y-55565225D01*
X47951079Y-55423083D01*
X47302658Y-54876947D01*
X43679605Y-58500000D01*
X43320395Y-58500000D01*
X39697342Y-54876947D01*
X39048921Y-55423083D01*
X38534171Y-56350567D01*
X38210254Y-57360653D01*
X38089620Y-58414523D01*
X35635000Y-58414523D01*
X35635000Y-54697342D01*
X39876947Y-54697342D01*
X43500000Y-58320395D01*
X47123053Y-54697342D01*
X46576917Y-54048921D01*
X45649433Y-53534171D01*
X44639347Y-53210254D01*
X43585477Y-53089620D01*
X42528322Y-53176903D01*
X41508508Y-53468749D01*
X40565225Y-53953944D01*
X40423083Y-54048921D01*
X39876947Y-54697342D01*
X35635000Y-54697342D01*
X35635000Y-48000000D01*
X35622799Y-47876118D01*
X35586664Y-47756996D01*
X35527983Y-47647213D01*
X35449013Y-47550987D01*
X35352787Y-47472017D01*
X35243004Y-47413336D01*
X35123882Y-47377201D01*
X35000000Y-47365000D01*
X20660000Y-47365000D01*
X20660000Y-42980339D01*
X24199266Y-42980339D01*
X24775387Y-43654365D01*
X25745368Y-44194024D01*
X26801994Y-44534079D01*
X27904659Y-44661462D01*
X29010987Y-44571279D01*
X30078464Y-44266994D01*
X31066067Y-43760302D01*
X31224613Y-43654365D01*
X31800734Y-42980339D01*
X28000000Y-39179605D01*
X24199266Y-42980339D01*
X20660000Y-42980339D01*
X20660000Y-38904659D01*
X22338538Y-38904659D01*
X22428721Y-40010987D01*
X22733006Y-41078464D01*
X23239698Y-42066067D01*
X23345635Y-42224613D01*
X24019661Y-42800734D01*
X27820395Y-39000000D01*
X28179605Y-39000000D01*
X31980339Y-42800734D01*
X32654365Y-42224613D01*
X33167304Y-41302658D01*
X39876947Y-41302658D01*
X40423083Y-41951079D01*
X41350567Y-42465829D01*
X42360653Y-42789746D01*
X43414523Y-42910380D01*
X44471678Y-42823097D01*
X45491492Y-42531251D01*
X45552248Y-42500000D01*
X66373000Y-42500000D01*
X66373000Y-69500000D01*
X66375440Y-69524776D01*
X66382667Y-69548601D01*
X66394403Y-69570557D01*
X66410197Y-69589803D01*
X66429443Y-69605597D01*
X66451399Y-69617333D01*
X66475224Y-69624560D01*
X66500000Y-69627000D01*
X81351329Y-69627000D01*
X81365001Y-69638220D01*
X81365001Y-70911928D01*
X81350000Y-70911928D01*
X81225518Y-70924188D01*
X81105820Y-70960498D01*
X80995506Y-71019463D01*
X80898815Y-71098815D01*
X80819463Y-71195506D01*
X80760498Y-71305820D01*
X80724188Y-71425518D01*
X80711928Y-71550000D01*
X80711928Y-73250000D01*
X80724188Y-73374482D01*
X80760498Y-73494180D01*
X80819463Y-73604494D01*
X80898815Y-73701185D01*
X80995506Y-73780537D01*
X81105820Y-73839502D01*
X81225518Y-73875812D01*
X81350000Y-73888072D01*
X83050000Y-73888072D01*
X83174482Y-73875812D01*
X83294180Y-73839502D01*
X83404494Y-73780537D01*
X83501185Y-73701185D01*
X83580537Y-73604494D01*
X83639502Y-73494180D01*
X83661513Y-73421620D01*
X83793368Y-73553475D01*
X84036589Y-73715990D01*
X84306842Y-73827932D01*
X84593740Y-73885000D01*
X84886260Y-73885000D01*
X85173158Y-73827932D01*
X85443411Y-73715990D01*
X85686632Y-73553475D01*
X85893475Y-73346632D01*
X86055990Y-73103411D01*
X86167932Y-72833158D01*
X86225000Y-72546260D01*
X86225000Y-72253740D01*
X86167932Y-71966842D01*
X86055990Y-71696589D01*
X85893475Y-71453368D01*
X85686632Y-71246525D01*
X85443411Y-71084010D01*
X85173158Y-70972068D01*
X84960000Y-70929668D01*
X84960000Y-69617703D01*
X84977962Y-69602962D01*
X85088405Y-69468386D01*
X85170472Y-69314850D01*
X85221008Y-69148254D01*
X85238072Y-68975000D01*
X85238072Y-68025000D01*
X85221008Y-67851746D01*
X85170472Y-67685150D01*
X85088405Y-67531614D01*
X85045952Y-67479885D01*
X85075905Y-67443387D01*
X85157972Y-67289851D01*
X85208508Y-67123255D01*
X85225572Y-66950001D01*
X85225572Y-66049999D01*
X85208508Y-65876745D01*
X85157972Y-65710149D01*
X85075905Y-65556613D01*
X84965462Y-65422038D01*
X84830887Y-65311595D01*
X84677351Y-65229528D01*
X84510755Y-65178992D01*
X84337501Y-65161928D01*
X83812499Y-65161928D01*
X83639245Y-65178992D01*
X83472649Y-65229528D01*
X83319113Y-65311595D01*
X83184538Y-65422038D01*
X83162500Y-65448891D01*
X83140462Y-65422038D01*
X83005887Y-65311595D01*
X82852351Y-65229528D01*
X82685755Y-65178992D01*
X82512501Y-65161928D01*
X81987499Y-65161928D01*
X81814245Y-65178992D01*
X81647649Y-65229528D01*
X81627000Y-65240565D01*
X81627000Y-61200000D01*
X86661928Y-61200000D01*
X86674188Y-61324482D01*
X86710498Y-61444180D01*
X86769463Y-61554494D01*
X86848815Y-61651185D01*
X86945506Y-61730537D01*
X87055820Y-61789502D01*
X87175518Y-61825812D01*
X87300000Y-61838072D01*
X88214250Y-61835000D01*
X88373000Y-61676250D01*
X88373000Y-60127000D01*
X88627000Y-60127000D01*
X88627000Y-61676250D01*
X88785750Y-61835000D01*
X89700000Y-61838072D01*
X89824482Y-61825812D01*
X89944180Y-61789502D01*
X90054494Y-61730537D01*
X90151185Y-61651185D01*
X90230537Y-61554494D01*
X90289502Y-61444180D01*
X90325812Y-61324482D01*
X90338072Y-61200000D01*
X90335000Y-60285750D01*
X90176250Y-60127000D01*
X88627000Y-60127000D01*
X88373000Y-60127000D01*
X86823750Y-60127000D01*
X86665000Y-60285750D01*
X86661928Y-61200000D01*
X81627000Y-61200000D01*
X81627000Y-58800000D01*
X86661928Y-58800000D01*
X86665000Y-59714250D01*
X86823750Y-59873000D01*
X88373000Y-59873000D01*
X88373000Y-58323750D01*
X88627000Y-58323750D01*
X88627000Y-59873000D01*
X90176250Y-59873000D01*
X90229982Y-59819268D01*
X91665000Y-59819268D01*
X91665000Y-60180732D01*
X91735518Y-60535250D01*
X91873844Y-60869199D01*
X92074662Y-61169744D01*
X92330256Y-61425338D01*
X92630801Y-61626156D01*
X92964750Y-61764482D01*
X93319268Y-61835000D01*
X93680732Y-61835000D01*
X94035250Y-61764482D01*
X94369199Y-61626156D01*
X94669744Y-61425338D01*
X94925338Y-61169744D01*
X95126156Y-60869199D01*
X95264482Y-60535250D01*
X95335000Y-60180732D01*
X95335000Y-59819268D01*
X95264482Y-59464750D01*
X95126156Y-59130801D01*
X94925338Y-58830256D01*
X94669744Y-58574662D01*
X94369199Y-58373844D01*
X94035250Y-58235518D01*
X93680732Y-58165000D01*
X93319268Y-58165000D01*
X92964750Y-58235518D01*
X92630801Y-58373844D01*
X92330256Y-58574662D01*
X92074662Y-58830256D01*
X91873844Y-59130801D01*
X91735518Y-59464750D01*
X91665000Y-59819268D01*
X90229982Y-59819268D01*
X90335000Y-59714250D01*
X90338072Y-58800000D01*
X90325812Y-58675518D01*
X90289502Y-58555820D01*
X90230537Y-58445506D01*
X90151185Y-58348815D01*
X90054494Y-58269463D01*
X89944180Y-58210498D01*
X89824482Y-58174188D01*
X89700000Y-58161928D01*
X88785750Y-58165000D01*
X88627000Y-58323750D01*
X88373000Y-58323750D01*
X88214250Y-58165000D01*
X87300000Y-58161928D01*
X87175518Y-58174188D01*
X87055820Y-58210498D01*
X86945506Y-58269463D01*
X86848815Y-58348815D01*
X86769463Y-58445506D01*
X86710498Y-58555820D01*
X86674188Y-58675518D01*
X86661928Y-58800000D01*
X81627000Y-58800000D01*
X81627000Y-57969624D01*
X100615000Y-57969624D01*
X100615000Y-59030376D01*
X100821942Y-60070747D01*
X101227875Y-61050754D01*
X101817197Y-61932738D01*
X102567262Y-62682803D01*
X103449246Y-63272125D01*
X104429253Y-63678058D01*
X105469624Y-63885000D01*
X106530376Y-63885000D01*
X107570747Y-63678058D01*
X108550754Y-63272125D01*
X109432738Y-62682803D01*
X109812883Y-62302658D01*
X121876947Y-62302658D01*
X122423083Y-62951079D01*
X123350567Y-63465829D01*
X124360653Y-63789746D01*
X125414523Y-63910380D01*
X126471678Y-63823097D01*
X127491492Y-63531251D01*
X128434775Y-63046056D01*
X128576917Y-62951079D01*
X129123053Y-62302658D01*
X125500000Y-58679605D01*
X121876947Y-62302658D01*
X109812883Y-62302658D01*
X110182803Y-61932738D01*
X110772125Y-61050754D01*
X111178058Y-60070747D01*
X111385000Y-59030376D01*
X111385000Y-58414523D01*
X120089620Y-58414523D01*
X120176903Y-59471678D01*
X120468749Y-60491492D01*
X120953944Y-61434775D01*
X121048921Y-61576917D01*
X121697342Y-62123053D01*
X125320395Y-58500000D01*
X125679605Y-58500000D01*
X129302658Y-62123053D01*
X129951079Y-61576917D01*
X130160266Y-61200000D01*
X136161928Y-61200000D01*
X136174188Y-61324482D01*
X136210498Y-61444180D01*
X136269463Y-61554494D01*
X136348815Y-61651185D01*
X136445506Y-61730537D01*
X136555820Y-61789502D01*
X136675518Y-61825812D01*
X136800000Y-61838072D01*
X137714250Y-61835000D01*
X137873000Y-61676250D01*
X137873000Y-60127000D01*
X138127000Y-60127000D01*
X138127000Y-61676250D01*
X138285750Y-61835000D01*
X139200000Y-61838072D01*
X139324482Y-61825812D01*
X139444180Y-61789502D01*
X139554494Y-61730537D01*
X139651185Y-61651185D01*
X139730537Y-61554494D01*
X139789502Y-61444180D01*
X139825812Y-61324482D01*
X139838072Y-61200000D01*
X139835000Y-60285750D01*
X139676250Y-60127000D01*
X138127000Y-60127000D01*
X137873000Y-60127000D01*
X136323750Y-60127000D01*
X136165000Y-60285750D01*
X136161928Y-61200000D01*
X130160266Y-61200000D01*
X130465829Y-60649433D01*
X130789746Y-59639347D01*
X130885824Y-58800000D01*
X136161928Y-58800000D01*
X136165000Y-59714250D01*
X136323750Y-59873000D01*
X137873000Y-59873000D01*
X137873000Y-58323750D01*
X138127000Y-58323750D01*
X138127000Y-59873000D01*
X139676250Y-59873000D01*
X139729982Y-59819268D01*
X141165000Y-59819268D01*
X141165000Y-60180732D01*
X141235518Y-60535250D01*
X141373844Y-60869199D01*
X141574662Y-61169744D01*
X141830256Y-61425338D01*
X142130801Y-61626156D01*
X142464750Y-61764482D01*
X142819268Y-61835000D01*
X143180732Y-61835000D01*
X143535250Y-61764482D01*
X143869199Y-61626156D01*
X144169744Y-61425338D01*
X144425338Y-61169744D01*
X144626156Y-60869199D01*
X144764482Y-60535250D01*
X144835000Y-60180732D01*
X144835000Y-59819268D01*
X144764482Y-59464750D01*
X144626156Y-59130801D01*
X144425338Y-58830256D01*
X144169744Y-58574662D01*
X143869199Y-58373844D01*
X143535250Y-58235518D01*
X143180732Y-58165000D01*
X142819268Y-58165000D01*
X142464750Y-58235518D01*
X142130801Y-58373844D01*
X141830256Y-58574662D01*
X141574662Y-58830256D01*
X141373844Y-59130801D01*
X141235518Y-59464750D01*
X141165000Y-59819268D01*
X139729982Y-59819268D01*
X139835000Y-59714250D01*
X139838072Y-58800000D01*
X139825812Y-58675518D01*
X139789502Y-58555820D01*
X139730537Y-58445506D01*
X139651185Y-58348815D01*
X139554494Y-58269463D01*
X139444180Y-58210498D01*
X139324482Y-58174188D01*
X139200000Y-58161928D01*
X138285750Y-58165000D01*
X138127000Y-58323750D01*
X137873000Y-58323750D01*
X137714250Y-58165000D01*
X136800000Y-58161928D01*
X136675518Y-58174188D01*
X136555820Y-58210498D01*
X136445506Y-58269463D01*
X136348815Y-58348815D01*
X136269463Y-58445506D01*
X136210498Y-58555820D01*
X136174188Y-58675518D01*
X136161928Y-58800000D01*
X130885824Y-58800000D01*
X130910380Y-58585477D01*
X130823097Y-57528322D01*
X130531251Y-56508508D01*
X130046056Y-55565225D01*
X129951079Y-55423083D01*
X129302658Y-54876947D01*
X125679605Y-58500000D01*
X125320395Y-58500000D01*
X121697342Y-54876947D01*
X121048921Y-55423083D01*
X120534171Y-56350567D01*
X120210254Y-57360653D01*
X120089620Y-58414523D01*
X111385000Y-58414523D01*
X111385000Y-57969624D01*
X111178058Y-56929253D01*
X110772125Y-55949246D01*
X110182803Y-55067262D01*
X109812883Y-54697342D01*
X121876947Y-54697342D01*
X125500000Y-58320395D01*
X129123053Y-54697342D01*
X128576917Y-54048921D01*
X127649433Y-53534171D01*
X126639347Y-53210254D01*
X125585477Y-53089620D01*
X124528322Y-53176903D01*
X123508508Y-53468749D01*
X122565225Y-53953944D01*
X122423083Y-54048921D01*
X121876947Y-54697342D01*
X109812883Y-54697342D01*
X109432738Y-54317197D01*
X108550754Y-53727875D01*
X107570747Y-53321942D01*
X106530376Y-53115000D01*
X105469624Y-53115000D01*
X104429253Y-53321942D01*
X103449246Y-53727875D01*
X102567262Y-54317197D01*
X101817197Y-55067262D01*
X101227875Y-55949246D01*
X100821942Y-56929253D01*
X100615000Y-57969624D01*
X81627000Y-57969624D01*
X81627000Y-42500000D01*
X81624560Y-42475224D01*
X81617333Y-42451399D01*
X81605597Y-42429443D01*
X81589803Y-42410197D01*
X81570557Y-42394403D01*
X81548601Y-42382667D01*
X81524776Y-42375440D01*
X81500000Y-42373000D01*
X66500000Y-42373000D01*
X66475224Y-42375440D01*
X66451399Y-42382667D01*
X66429443Y-42394403D01*
X66410197Y-42410197D01*
X66394403Y-42429443D01*
X66382667Y-42451399D01*
X66375440Y-42475224D01*
X66373000Y-42500000D01*
X45552248Y-42500000D01*
X46434775Y-42046056D01*
X46576917Y-41951079D01*
X47123053Y-41302658D01*
X43500000Y-37679605D01*
X39876947Y-41302658D01*
X33167304Y-41302658D01*
X33194024Y-41254632D01*
X33534079Y-40198006D01*
X33661462Y-39095341D01*
X33571279Y-37989013D01*
X33407521Y-37414523D01*
X38089620Y-37414523D01*
X38176903Y-38471678D01*
X38468749Y-39491492D01*
X38953944Y-40434775D01*
X39048921Y-40576917D01*
X39697342Y-41123053D01*
X43320395Y-37500000D01*
X43679605Y-37500000D01*
X47302658Y-41123053D01*
X47951079Y-40576917D01*
X48465829Y-39649433D01*
X48789746Y-38639347D01*
X48910380Y-37585477D01*
X48859533Y-36969624D01*
X100615000Y-36969624D01*
X100615000Y-38030376D01*
X100821942Y-39070747D01*
X101227875Y-40050754D01*
X101817197Y-40932738D01*
X102567262Y-41682803D01*
X103449246Y-42272125D01*
X104429253Y-42678058D01*
X105469624Y-42885000D01*
X106530376Y-42885000D01*
X107570747Y-42678058D01*
X108550754Y-42272125D01*
X109432738Y-41682803D01*
X109812883Y-41302658D01*
X121876947Y-41302658D01*
X122423083Y-41951079D01*
X123350567Y-42465829D01*
X124360653Y-42789746D01*
X125414523Y-42910380D01*
X126471678Y-42823097D01*
X127491492Y-42531251D01*
X127552248Y-42500000D01*
X148373000Y-42500000D01*
X148373000Y-69500000D01*
X148375440Y-69524776D01*
X148382667Y-69548601D01*
X148394403Y-69570557D01*
X148410197Y-69589803D01*
X148429443Y-69605597D01*
X148451399Y-69617333D01*
X148475224Y-69624560D01*
X148500000Y-69627000D01*
X163209698Y-69627000D01*
X163272038Y-69702962D01*
X163315001Y-69738220D01*
X163315001Y-71115375D01*
X163225518Y-71124188D01*
X163105820Y-71160498D01*
X162995506Y-71219463D01*
X162898815Y-71298815D01*
X162819463Y-71395506D01*
X162760498Y-71505820D01*
X162724188Y-71625518D01*
X162711928Y-71750000D01*
X162711928Y-73450000D01*
X162724188Y-73574482D01*
X162760498Y-73694180D01*
X162819463Y-73804494D01*
X162898815Y-73901185D01*
X162995506Y-73980537D01*
X163105820Y-74039502D01*
X163225518Y-74075812D01*
X163350000Y-74088072D01*
X165050000Y-74088072D01*
X165174482Y-74075812D01*
X165294180Y-74039502D01*
X165404494Y-73980537D01*
X165501185Y-73901185D01*
X165580537Y-73804494D01*
X165639502Y-73694180D01*
X165661513Y-73621620D01*
X165793368Y-73753475D01*
X166036589Y-73915990D01*
X166306842Y-74027932D01*
X166593740Y-74085000D01*
X166886260Y-74085000D01*
X167173158Y-74027932D01*
X167443411Y-73915990D01*
X167686632Y-73753475D01*
X167893475Y-73546632D01*
X168055990Y-73303411D01*
X168167932Y-73033158D01*
X168225000Y-72746260D01*
X168225000Y-72453740D01*
X168167932Y-72166842D01*
X168055990Y-71896589D01*
X167893475Y-71653368D01*
X167686632Y-71446525D01*
X167443411Y-71284010D01*
X167173158Y-71172068D01*
X166910000Y-71119722D01*
X166910000Y-69717703D01*
X166927962Y-69702962D01*
X167038405Y-69568386D01*
X167120472Y-69414850D01*
X167171008Y-69248254D01*
X167188072Y-69075000D01*
X167188072Y-68125000D01*
X167171008Y-67951746D01*
X167120472Y-67785150D01*
X167038405Y-67631614D01*
X166995952Y-67579885D01*
X167025905Y-67543387D01*
X167107972Y-67389851D01*
X167158508Y-67223255D01*
X167175572Y-67050001D01*
X167175572Y-66149999D01*
X167158508Y-65976745D01*
X167107972Y-65810149D01*
X167025905Y-65656613D01*
X166915462Y-65522038D01*
X166780887Y-65411595D01*
X166627351Y-65329528D01*
X166460755Y-65278992D01*
X166287501Y-65261928D01*
X165762499Y-65261928D01*
X165589245Y-65278992D01*
X165422649Y-65329528D01*
X165269113Y-65411595D01*
X165134538Y-65522038D01*
X165112500Y-65548891D01*
X165090462Y-65522038D01*
X164955887Y-65411595D01*
X164802351Y-65329528D01*
X164635755Y-65278992D01*
X164462501Y-65261928D01*
X163937499Y-65261928D01*
X163764245Y-65278992D01*
X163627000Y-65320625D01*
X163627000Y-61200000D01*
X168661928Y-61200000D01*
X168674188Y-61324482D01*
X168710498Y-61444180D01*
X168769463Y-61554494D01*
X168848815Y-61651185D01*
X168945506Y-61730537D01*
X169055820Y-61789502D01*
X169175518Y-61825812D01*
X169300000Y-61838072D01*
X170214250Y-61835000D01*
X170373000Y-61676250D01*
X170373000Y-60127000D01*
X170627000Y-60127000D01*
X170627000Y-61676250D01*
X170785750Y-61835000D01*
X171700000Y-61838072D01*
X171824482Y-61825812D01*
X171944180Y-61789502D01*
X172054494Y-61730537D01*
X172151185Y-61651185D01*
X172230537Y-61554494D01*
X172289502Y-61444180D01*
X172325812Y-61324482D01*
X172338072Y-61200000D01*
X172335000Y-60285750D01*
X172176250Y-60127000D01*
X170627000Y-60127000D01*
X170373000Y-60127000D01*
X168823750Y-60127000D01*
X168665000Y-60285750D01*
X168661928Y-61200000D01*
X163627000Y-61200000D01*
X163627000Y-58800000D01*
X168661928Y-58800000D01*
X168665000Y-59714250D01*
X168823750Y-59873000D01*
X170373000Y-59873000D01*
X170373000Y-58323750D01*
X170627000Y-58323750D01*
X170627000Y-59873000D01*
X172176250Y-59873000D01*
X172229982Y-59819268D01*
X173665000Y-59819268D01*
X173665000Y-60180732D01*
X173735518Y-60535250D01*
X173873844Y-60869199D01*
X174074662Y-61169744D01*
X174330256Y-61425338D01*
X174630801Y-61626156D01*
X174964750Y-61764482D01*
X175319268Y-61835000D01*
X175680732Y-61835000D01*
X176035250Y-61764482D01*
X176369199Y-61626156D01*
X176669744Y-61425338D01*
X176925338Y-61169744D01*
X177126156Y-60869199D01*
X177264482Y-60535250D01*
X177335000Y-60180732D01*
X177335000Y-59819268D01*
X177264482Y-59464750D01*
X177126156Y-59130801D01*
X176925338Y-58830256D01*
X176669744Y-58574662D01*
X176369199Y-58373844D01*
X176035250Y-58235518D01*
X175680732Y-58165000D01*
X175319268Y-58165000D01*
X174964750Y-58235518D01*
X174630801Y-58373844D01*
X174330256Y-58574662D01*
X174074662Y-58830256D01*
X173873844Y-59130801D01*
X173735518Y-59464750D01*
X173665000Y-59819268D01*
X172229982Y-59819268D01*
X172335000Y-59714250D01*
X172338072Y-58800000D01*
X172325812Y-58675518D01*
X172289502Y-58555820D01*
X172230537Y-58445506D01*
X172151185Y-58348815D01*
X172054494Y-58269463D01*
X171944180Y-58210498D01*
X171824482Y-58174188D01*
X171700000Y-58161928D01*
X170785750Y-58165000D01*
X170627000Y-58323750D01*
X170373000Y-58323750D01*
X170214250Y-58165000D01*
X169300000Y-58161928D01*
X169175518Y-58174188D01*
X169055820Y-58210498D01*
X168945506Y-58269463D01*
X168848815Y-58348815D01*
X168769463Y-58445506D01*
X168710498Y-58555820D01*
X168674188Y-58675518D01*
X168661928Y-58800000D01*
X163627000Y-58800000D01*
X163627000Y-57969624D01*
X182615000Y-57969624D01*
X182615000Y-59030376D01*
X182821942Y-60070747D01*
X183227875Y-61050754D01*
X183817197Y-61932738D01*
X184567262Y-62682803D01*
X185449246Y-63272125D01*
X186429253Y-63678058D01*
X187469624Y-63885000D01*
X188530376Y-63885000D01*
X189570747Y-63678058D01*
X190550754Y-63272125D01*
X191432738Y-62682803D01*
X191812883Y-62302658D01*
X203876947Y-62302658D01*
X204423083Y-62951079D01*
X205350567Y-63465829D01*
X206360653Y-63789746D01*
X207414523Y-63910380D01*
X208471678Y-63823097D01*
X209491492Y-63531251D01*
X210434775Y-63046056D01*
X210576917Y-62951079D01*
X211123053Y-62302658D01*
X207500000Y-58679605D01*
X203876947Y-62302658D01*
X191812883Y-62302658D01*
X192182803Y-61932738D01*
X192772125Y-61050754D01*
X193178058Y-60070747D01*
X193385000Y-59030376D01*
X193385000Y-58414523D01*
X202089620Y-58414523D01*
X202176903Y-59471678D01*
X202468749Y-60491492D01*
X202953944Y-61434775D01*
X203048921Y-61576917D01*
X203697342Y-62123053D01*
X207320395Y-58500000D01*
X207679605Y-58500000D01*
X211302658Y-62123053D01*
X211951079Y-61576917D01*
X212160266Y-61200000D01*
X217661928Y-61200000D01*
X217674188Y-61324482D01*
X217710498Y-61444180D01*
X217769463Y-61554494D01*
X217848815Y-61651185D01*
X217945506Y-61730537D01*
X218055820Y-61789502D01*
X218175518Y-61825812D01*
X218300000Y-61838072D01*
X219214250Y-61835000D01*
X219373000Y-61676250D01*
X219373000Y-60127000D01*
X219627000Y-60127000D01*
X219627000Y-61676250D01*
X219785750Y-61835000D01*
X220700000Y-61838072D01*
X220824482Y-61825812D01*
X220944180Y-61789502D01*
X221054494Y-61730537D01*
X221151185Y-61651185D01*
X221230537Y-61554494D01*
X221289502Y-61444180D01*
X221325812Y-61324482D01*
X221338072Y-61200000D01*
X221335000Y-60285750D01*
X221176250Y-60127000D01*
X219627000Y-60127000D01*
X219373000Y-60127000D01*
X217823750Y-60127000D01*
X217665000Y-60285750D01*
X217661928Y-61200000D01*
X212160266Y-61200000D01*
X212465829Y-60649433D01*
X212789746Y-59639347D01*
X212885824Y-58800000D01*
X217661928Y-58800000D01*
X217665000Y-59714250D01*
X217823750Y-59873000D01*
X219373000Y-59873000D01*
X219373000Y-58323750D01*
X219627000Y-58323750D01*
X219627000Y-59873000D01*
X221176250Y-59873000D01*
X221229982Y-59819268D01*
X222665000Y-59819268D01*
X222665000Y-60180732D01*
X222735518Y-60535250D01*
X222873844Y-60869199D01*
X223074662Y-61169744D01*
X223330256Y-61425338D01*
X223630801Y-61626156D01*
X223964750Y-61764482D01*
X224319268Y-61835000D01*
X224680732Y-61835000D01*
X225035250Y-61764482D01*
X225369199Y-61626156D01*
X225669744Y-61425338D01*
X225925338Y-61169744D01*
X226126156Y-60869199D01*
X226264482Y-60535250D01*
X226335000Y-60180732D01*
X226335000Y-59819268D01*
X226264482Y-59464750D01*
X226126156Y-59130801D01*
X225925338Y-58830256D01*
X225669744Y-58574662D01*
X225369199Y-58373844D01*
X225035250Y-58235518D01*
X224680732Y-58165000D01*
X224319268Y-58165000D01*
X223964750Y-58235518D01*
X223630801Y-58373844D01*
X223330256Y-58574662D01*
X223074662Y-58830256D01*
X222873844Y-59130801D01*
X222735518Y-59464750D01*
X222665000Y-59819268D01*
X221229982Y-59819268D01*
X221335000Y-59714250D01*
X221338072Y-58800000D01*
X221325812Y-58675518D01*
X221289502Y-58555820D01*
X221230537Y-58445506D01*
X221151185Y-58348815D01*
X221054494Y-58269463D01*
X220944180Y-58210498D01*
X220824482Y-58174188D01*
X220700000Y-58161928D01*
X219785750Y-58165000D01*
X219627000Y-58323750D01*
X219373000Y-58323750D01*
X219214250Y-58165000D01*
X218300000Y-58161928D01*
X218175518Y-58174188D01*
X218055820Y-58210498D01*
X217945506Y-58269463D01*
X217848815Y-58348815D01*
X217769463Y-58445506D01*
X217710498Y-58555820D01*
X217674188Y-58675518D01*
X217661928Y-58800000D01*
X212885824Y-58800000D01*
X212910380Y-58585477D01*
X212823097Y-57528322D01*
X212531251Y-56508508D01*
X212046056Y-55565225D01*
X211951079Y-55423083D01*
X211302658Y-54876947D01*
X207679605Y-58500000D01*
X207320395Y-58500000D01*
X203697342Y-54876947D01*
X203048921Y-55423083D01*
X202534171Y-56350567D01*
X202210254Y-57360653D01*
X202089620Y-58414523D01*
X193385000Y-58414523D01*
X193385000Y-57969624D01*
X193178058Y-56929253D01*
X192772125Y-55949246D01*
X192182803Y-55067262D01*
X191812883Y-54697342D01*
X203876947Y-54697342D01*
X207500000Y-58320395D01*
X211123053Y-54697342D01*
X210576917Y-54048921D01*
X209649433Y-53534171D01*
X208639347Y-53210254D01*
X207585477Y-53089620D01*
X206528322Y-53176903D01*
X205508508Y-53468749D01*
X204565225Y-53953944D01*
X204423083Y-54048921D01*
X203876947Y-54697342D01*
X191812883Y-54697342D01*
X191432738Y-54317197D01*
X190550754Y-53727875D01*
X189570747Y-53321942D01*
X188530376Y-53115000D01*
X187469624Y-53115000D01*
X186429253Y-53321942D01*
X185449246Y-53727875D01*
X184567262Y-54317197D01*
X183817197Y-55067262D01*
X183227875Y-55949246D01*
X182821942Y-56929253D01*
X182615000Y-57969624D01*
X163627000Y-57969624D01*
X163627000Y-42500000D01*
X163624560Y-42475224D01*
X163617333Y-42451399D01*
X163605597Y-42429443D01*
X163589803Y-42410197D01*
X163570557Y-42394403D01*
X163548601Y-42382667D01*
X163524776Y-42375440D01*
X163500000Y-42373000D01*
X148500000Y-42373000D01*
X148475224Y-42375440D01*
X148451399Y-42382667D01*
X148429443Y-42394403D01*
X148410197Y-42410197D01*
X148394403Y-42429443D01*
X148382667Y-42451399D01*
X148375440Y-42475224D01*
X148373000Y-42500000D01*
X127552248Y-42500000D01*
X128434775Y-42046056D01*
X128576917Y-41951079D01*
X129123053Y-41302658D01*
X125500000Y-37679605D01*
X121876947Y-41302658D01*
X109812883Y-41302658D01*
X110182803Y-40932738D01*
X110772125Y-40050754D01*
X111178058Y-39070747D01*
X111385000Y-38030376D01*
X111385000Y-37414523D01*
X120089620Y-37414523D01*
X120176903Y-38471678D01*
X120468749Y-39491492D01*
X120953944Y-40434775D01*
X121048921Y-40576917D01*
X121697342Y-41123053D01*
X125320395Y-37500000D01*
X125679605Y-37500000D01*
X129302658Y-41123053D01*
X129951079Y-40576917D01*
X130465829Y-39649433D01*
X130789746Y-38639347D01*
X130910380Y-37585477D01*
X130859533Y-36969624D01*
X182615000Y-36969624D01*
X182615000Y-38030376D01*
X182821942Y-39070747D01*
X183227875Y-40050754D01*
X183817197Y-40932738D01*
X184567262Y-41682803D01*
X185449246Y-42272125D01*
X186429253Y-42678058D01*
X187469624Y-42885000D01*
X188530376Y-42885000D01*
X189570747Y-42678058D01*
X190550754Y-42272125D01*
X191432738Y-41682803D01*
X191812883Y-41302658D01*
X203876947Y-41302658D01*
X204423083Y-41951079D01*
X205350567Y-42465829D01*
X206360653Y-42789746D01*
X207414523Y-42910380D01*
X208471678Y-42823097D01*
X209491492Y-42531251D01*
X209552248Y-42500000D01*
X230373000Y-42500000D01*
X230373000Y-69500000D01*
X230375440Y-69524776D01*
X230382667Y-69548601D01*
X230394403Y-69570557D01*
X230410197Y-69589803D01*
X230429443Y-69605597D01*
X230451399Y-69617333D01*
X230475224Y-69624560D01*
X230500000Y-69627000D01*
X245209698Y-69627000D01*
X245272038Y-69702962D01*
X245315001Y-69738220D01*
X245315001Y-71015375D01*
X245225518Y-71024188D01*
X245105820Y-71060498D01*
X244995506Y-71119463D01*
X244898815Y-71198815D01*
X244819463Y-71295506D01*
X244760498Y-71405820D01*
X244724188Y-71525518D01*
X244711928Y-71650000D01*
X244711928Y-73350000D01*
X244724188Y-73474482D01*
X244760498Y-73594180D01*
X244819463Y-73704494D01*
X244898815Y-73801185D01*
X244995506Y-73880537D01*
X245105820Y-73939502D01*
X245225518Y-73975812D01*
X245350000Y-73988072D01*
X247050000Y-73988072D01*
X247174482Y-73975812D01*
X247294180Y-73939502D01*
X247404494Y-73880537D01*
X247501185Y-73801185D01*
X247580537Y-73704494D01*
X247639502Y-73594180D01*
X247661513Y-73521620D01*
X247793368Y-73653475D01*
X248036589Y-73815990D01*
X248306842Y-73927932D01*
X248593740Y-73985000D01*
X248886260Y-73985000D01*
X249173158Y-73927932D01*
X249443411Y-73815990D01*
X249686632Y-73653475D01*
X249893475Y-73446632D01*
X250055990Y-73203411D01*
X250167932Y-72933158D01*
X250225000Y-72646260D01*
X250225000Y-72353740D01*
X250167932Y-72066842D01*
X250055990Y-71796589D01*
X249893475Y-71553368D01*
X249686632Y-71346525D01*
X249443411Y-71184010D01*
X249173158Y-71072068D01*
X248910000Y-71019722D01*
X248910000Y-69717703D01*
X248927962Y-69702962D01*
X249038405Y-69568386D01*
X249120472Y-69414850D01*
X249171008Y-69248254D01*
X249188072Y-69075000D01*
X249188072Y-68125000D01*
X249171008Y-67951746D01*
X249120472Y-67785150D01*
X249038405Y-67631614D01*
X248995952Y-67579885D01*
X249025905Y-67543387D01*
X249107972Y-67389851D01*
X249158508Y-67223255D01*
X249175572Y-67050001D01*
X249175572Y-66149999D01*
X249158508Y-65976745D01*
X249107972Y-65810149D01*
X249025905Y-65656613D01*
X248915462Y-65522038D01*
X248780887Y-65411595D01*
X248627351Y-65329528D01*
X248460755Y-65278992D01*
X248287501Y-65261928D01*
X247762499Y-65261928D01*
X247589245Y-65278992D01*
X247422649Y-65329528D01*
X247269113Y-65411595D01*
X247134538Y-65522038D01*
X247112500Y-65548891D01*
X247090462Y-65522038D01*
X246955887Y-65411595D01*
X246802351Y-65329528D01*
X246635755Y-65278992D01*
X246462501Y-65261928D01*
X245937499Y-65261928D01*
X245764245Y-65278992D01*
X245627000Y-65320625D01*
X245627000Y-61200000D01*
X250161928Y-61200000D01*
X250174188Y-61324482D01*
X250210498Y-61444180D01*
X250269463Y-61554494D01*
X250348815Y-61651185D01*
X250445506Y-61730537D01*
X250555820Y-61789502D01*
X250675518Y-61825812D01*
X250800000Y-61838072D01*
X251714250Y-61835000D01*
X251873000Y-61676250D01*
X251873000Y-60127000D01*
X252127000Y-60127000D01*
X252127000Y-61676250D01*
X252285750Y-61835000D01*
X253200000Y-61838072D01*
X253324482Y-61825812D01*
X253444180Y-61789502D01*
X253554494Y-61730537D01*
X253651185Y-61651185D01*
X253730537Y-61554494D01*
X253789502Y-61444180D01*
X253825812Y-61324482D01*
X253838072Y-61200000D01*
X253835000Y-60285750D01*
X253676250Y-60127000D01*
X252127000Y-60127000D01*
X251873000Y-60127000D01*
X250323750Y-60127000D01*
X250165000Y-60285750D01*
X250161928Y-61200000D01*
X245627000Y-61200000D01*
X245627000Y-58800000D01*
X250161928Y-58800000D01*
X250165000Y-59714250D01*
X250323750Y-59873000D01*
X251873000Y-59873000D01*
X251873000Y-58323750D01*
X252127000Y-58323750D01*
X252127000Y-59873000D01*
X253676250Y-59873000D01*
X253729982Y-59819268D01*
X255165000Y-59819268D01*
X255165000Y-60180732D01*
X255235518Y-60535250D01*
X255373844Y-60869199D01*
X255574662Y-61169744D01*
X255830256Y-61425338D01*
X256130801Y-61626156D01*
X256464750Y-61764482D01*
X256819268Y-61835000D01*
X257180732Y-61835000D01*
X257535250Y-61764482D01*
X257869199Y-61626156D01*
X258169744Y-61425338D01*
X258425338Y-61169744D01*
X258626156Y-60869199D01*
X258764482Y-60535250D01*
X258835000Y-60180732D01*
X258835000Y-59819268D01*
X258764482Y-59464750D01*
X258626156Y-59130801D01*
X258425338Y-58830256D01*
X258169744Y-58574662D01*
X257869199Y-58373844D01*
X257535250Y-58235518D01*
X257180732Y-58165000D01*
X256819268Y-58165000D01*
X256464750Y-58235518D01*
X256130801Y-58373844D01*
X255830256Y-58574662D01*
X255574662Y-58830256D01*
X255373844Y-59130801D01*
X255235518Y-59464750D01*
X255165000Y-59819268D01*
X253729982Y-59819268D01*
X253835000Y-59714250D01*
X253838072Y-58800000D01*
X253825812Y-58675518D01*
X253789502Y-58555820D01*
X253730537Y-58445506D01*
X253651185Y-58348815D01*
X253554494Y-58269463D01*
X253444180Y-58210498D01*
X253324482Y-58174188D01*
X253200000Y-58161928D01*
X252285750Y-58165000D01*
X252127000Y-58323750D01*
X251873000Y-58323750D01*
X251714250Y-58165000D01*
X250800000Y-58161928D01*
X250675518Y-58174188D01*
X250555820Y-58210498D01*
X250445506Y-58269463D01*
X250348815Y-58348815D01*
X250269463Y-58445506D01*
X250210498Y-58555820D01*
X250174188Y-58675518D01*
X250161928Y-58800000D01*
X245627000Y-58800000D01*
X245627000Y-57969624D01*
X264615000Y-57969624D01*
X264615000Y-59030376D01*
X264821942Y-60070747D01*
X265227875Y-61050754D01*
X265817197Y-61932738D01*
X266567262Y-62682803D01*
X267449246Y-63272125D01*
X268429253Y-63678058D01*
X269469624Y-63885000D01*
X270530376Y-63885000D01*
X271570747Y-63678058D01*
X272550754Y-63272125D01*
X273432738Y-62682803D01*
X274182803Y-61932738D01*
X274772125Y-61050754D01*
X275178058Y-60070747D01*
X275385000Y-59030376D01*
X275385000Y-57969624D01*
X275178058Y-56929253D01*
X274772125Y-55949246D01*
X274182803Y-55067262D01*
X273432738Y-54317197D01*
X272550754Y-53727875D01*
X271570747Y-53321942D01*
X270530376Y-53115000D01*
X269469624Y-53115000D01*
X268429253Y-53321942D01*
X267449246Y-53727875D01*
X266567262Y-54317197D01*
X265817197Y-55067262D01*
X265227875Y-55949246D01*
X264821942Y-56929253D01*
X264615000Y-57969624D01*
X245627000Y-57969624D01*
X245627000Y-42500000D01*
X245624560Y-42475224D01*
X245617333Y-42451399D01*
X245605597Y-42429443D01*
X245589803Y-42410197D01*
X245570557Y-42394403D01*
X245548601Y-42382667D01*
X245524776Y-42375440D01*
X245500000Y-42373000D01*
X230500000Y-42373000D01*
X230475224Y-42375440D01*
X230451399Y-42382667D01*
X230429443Y-42394403D01*
X230410197Y-42410197D01*
X230394403Y-42429443D01*
X230382667Y-42451399D01*
X230375440Y-42475224D01*
X230373000Y-42500000D01*
X209552248Y-42500000D01*
X210434775Y-42046056D01*
X210576917Y-41951079D01*
X211123053Y-41302658D01*
X207500000Y-37679605D01*
X203876947Y-41302658D01*
X191812883Y-41302658D01*
X192182803Y-40932738D01*
X192772125Y-40050754D01*
X193178058Y-39070747D01*
X193385000Y-38030376D01*
X193385000Y-37414523D01*
X202089620Y-37414523D01*
X202176903Y-38471678D01*
X202468749Y-39491492D01*
X202953944Y-40434775D01*
X203048921Y-40576917D01*
X203697342Y-41123053D01*
X207320395Y-37500000D01*
X207679605Y-37500000D01*
X211302658Y-41123053D01*
X211951079Y-40576917D01*
X212465829Y-39649433D01*
X212789746Y-38639347D01*
X212910380Y-37585477D01*
X212859533Y-36969624D01*
X264615000Y-36969624D01*
X264615000Y-38030376D01*
X264821942Y-39070747D01*
X265227875Y-40050754D01*
X265817197Y-40932738D01*
X266567262Y-41682803D01*
X267449246Y-42272125D01*
X268429253Y-42678058D01*
X269469624Y-42885000D01*
X270530376Y-42885000D01*
X271570747Y-42678058D01*
X272550754Y-42272125D01*
X273432738Y-41682803D01*
X274182803Y-40932738D01*
X274772125Y-40050754D01*
X275178058Y-39070747D01*
X275385000Y-38030376D01*
X275385000Y-36969624D01*
X275178058Y-35929253D01*
X274772125Y-34949246D01*
X274182803Y-34067262D01*
X273432738Y-33317197D01*
X272550754Y-32727875D01*
X271570747Y-32321942D01*
X270530376Y-32115000D01*
X269469624Y-32115000D01*
X268429253Y-32321942D01*
X267449246Y-32727875D01*
X266567262Y-33317197D01*
X265817197Y-34067262D01*
X265227875Y-34949246D01*
X264821942Y-35929253D01*
X264615000Y-36969624D01*
X212859533Y-36969624D01*
X212823097Y-36528322D01*
X212531251Y-35508508D01*
X212046056Y-34565225D01*
X211951079Y-34423083D01*
X211302658Y-33876947D01*
X207679605Y-37500000D01*
X207320395Y-37500000D01*
X203697342Y-33876947D01*
X203048921Y-34423083D01*
X202534171Y-35350567D01*
X202210254Y-36360653D01*
X202089620Y-37414523D01*
X193385000Y-37414523D01*
X193385000Y-36969624D01*
X193178058Y-35929253D01*
X192772125Y-34949246D01*
X192182803Y-34067262D01*
X191812883Y-33697342D01*
X203876947Y-33697342D01*
X207500000Y-37320395D01*
X211123053Y-33697342D01*
X210576917Y-33048921D01*
X209649433Y-32534171D01*
X208639347Y-32210254D01*
X208549768Y-32200000D01*
X217661928Y-32200000D01*
X217674188Y-32324482D01*
X217710498Y-32444180D01*
X217769463Y-32554494D01*
X217848815Y-32651185D01*
X217945506Y-32730537D01*
X218055820Y-32789502D01*
X218175518Y-32825812D01*
X218300000Y-32838072D01*
X219214250Y-32835000D01*
X219373000Y-32676250D01*
X219373000Y-31127000D01*
X219627000Y-31127000D01*
X219627000Y-32676250D01*
X219785750Y-32835000D01*
X220700000Y-32838072D01*
X220824482Y-32825812D01*
X220944180Y-32789502D01*
X221054494Y-32730537D01*
X221151185Y-32651185D01*
X221230537Y-32554494D01*
X221289502Y-32444180D01*
X221325812Y-32324482D01*
X221338072Y-32200000D01*
X221335000Y-31285750D01*
X221176250Y-31127000D01*
X219627000Y-31127000D01*
X219373000Y-31127000D01*
X217823750Y-31127000D01*
X217665000Y-31285750D01*
X217661928Y-32200000D01*
X208549768Y-32200000D01*
X207585477Y-32089620D01*
X206528322Y-32176903D01*
X205508508Y-32468749D01*
X204565225Y-32953944D01*
X204423083Y-33048921D01*
X203876947Y-33697342D01*
X191812883Y-33697342D01*
X191432738Y-33317197D01*
X190550754Y-32727875D01*
X189570747Y-32321942D01*
X188530376Y-32115000D01*
X187469624Y-32115000D01*
X186429253Y-32321942D01*
X185449246Y-32727875D01*
X184567262Y-33317197D01*
X183817197Y-34067262D01*
X183227875Y-34949246D01*
X182821942Y-35929253D01*
X182615000Y-36969624D01*
X130859533Y-36969624D01*
X130823097Y-36528322D01*
X130531251Y-35508508D01*
X130046056Y-34565225D01*
X129951079Y-34423083D01*
X129302658Y-33876947D01*
X125679605Y-37500000D01*
X125320395Y-37500000D01*
X121697342Y-33876947D01*
X121048921Y-34423083D01*
X120534171Y-35350567D01*
X120210254Y-36360653D01*
X120089620Y-37414523D01*
X111385000Y-37414523D01*
X111385000Y-36969624D01*
X111178058Y-35929253D01*
X110772125Y-34949246D01*
X110182803Y-34067262D01*
X109812883Y-33697342D01*
X121876947Y-33697342D01*
X125500000Y-37320395D01*
X129123053Y-33697342D01*
X128576917Y-33048921D01*
X127649433Y-32534171D01*
X126639347Y-32210254D01*
X126549768Y-32200000D01*
X136161928Y-32200000D01*
X136174188Y-32324482D01*
X136210498Y-32444180D01*
X136269463Y-32554494D01*
X136348815Y-32651185D01*
X136445506Y-32730537D01*
X136555820Y-32789502D01*
X136675518Y-32825812D01*
X136800000Y-32838072D01*
X137714250Y-32835000D01*
X137873000Y-32676250D01*
X137873000Y-31127000D01*
X138127000Y-31127000D01*
X138127000Y-32676250D01*
X138285750Y-32835000D01*
X139200000Y-32838072D01*
X139324482Y-32825812D01*
X139444180Y-32789502D01*
X139554494Y-32730537D01*
X139651185Y-32651185D01*
X139730537Y-32554494D01*
X139789502Y-32444180D01*
X139825812Y-32324482D01*
X139838072Y-32200000D01*
X139835000Y-31285750D01*
X139676250Y-31127000D01*
X138127000Y-31127000D01*
X137873000Y-31127000D01*
X136323750Y-31127000D01*
X136165000Y-31285750D01*
X136161928Y-32200000D01*
X126549768Y-32200000D01*
X125585477Y-32089620D01*
X124528322Y-32176903D01*
X123508508Y-32468749D01*
X122565225Y-32953944D01*
X122423083Y-33048921D01*
X121876947Y-33697342D01*
X109812883Y-33697342D01*
X109432738Y-33317197D01*
X108550754Y-32727875D01*
X107570747Y-32321942D01*
X106530376Y-32115000D01*
X105469624Y-32115000D01*
X104429253Y-32321942D01*
X103449246Y-32727875D01*
X102567262Y-33317197D01*
X101817197Y-34067262D01*
X101227875Y-34949246D01*
X100821942Y-35929253D01*
X100615000Y-36969624D01*
X48859533Y-36969624D01*
X48823097Y-36528322D01*
X48531251Y-35508508D01*
X48046056Y-34565225D01*
X47951079Y-34423083D01*
X47302658Y-33876947D01*
X43679605Y-37500000D01*
X43320395Y-37500000D01*
X39697342Y-33876947D01*
X39048921Y-34423083D01*
X38534171Y-35350567D01*
X38210254Y-36360653D01*
X38089620Y-37414523D01*
X33407521Y-37414523D01*
X33266994Y-36921536D01*
X32760302Y-35933933D01*
X32654365Y-35775387D01*
X31980339Y-35199266D01*
X28179605Y-39000000D01*
X27820395Y-39000000D01*
X24019661Y-35199266D01*
X23345635Y-35775387D01*
X22805976Y-36745368D01*
X22465921Y-37801994D01*
X22338538Y-38904659D01*
X20660000Y-38904659D01*
X20660000Y-35019661D01*
X24199266Y-35019661D01*
X28000000Y-38820395D01*
X31800734Y-35019661D01*
X31224613Y-34345635D01*
X30254632Y-33805976D01*
X29917083Y-33697342D01*
X39876947Y-33697342D01*
X43500000Y-37320395D01*
X47123053Y-33697342D01*
X46576917Y-33048921D01*
X45649433Y-32534171D01*
X44639347Y-32210254D01*
X44549768Y-32200000D01*
X54161928Y-32200000D01*
X54174188Y-32324482D01*
X54210498Y-32444180D01*
X54269463Y-32554494D01*
X54348815Y-32651185D01*
X54445506Y-32730537D01*
X54555820Y-32789502D01*
X54675518Y-32825812D01*
X54800000Y-32838072D01*
X55714250Y-32835000D01*
X55873000Y-32676250D01*
X55873000Y-31127000D01*
X56127000Y-31127000D01*
X56127000Y-32676250D01*
X56285750Y-32835000D01*
X57200000Y-32838072D01*
X57324482Y-32825812D01*
X57444180Y-32789502D01*
X57554494Y-32730537D01*
X57651185Y-32651185D01*
X57730537Y-32554494D01*
X57789502Y-32444180D01*
X57825812Y-32324482D01*
X57838072Y-32200000D01*
X57835000Y-31285750D01*
X57676250Y-31127000D01*
X56127000Y-31127000D01*
X55873000Y-31127000D01*
X54323750Y-31127000D01*
X54165000Y-31285750D01*
X54161928Y-32200000D01*
X44549768Y-32200000D01*
X43585477Y-32089620D01*
X42528322Y-32176903D01*
X41508508Y-32468749D01*
X40565225Y-32953944D01*
X40423083Y-33048921D01*
X39876947Y-33697342D01*
X29917083Y-33697342D01*
X29198006Y-33465921D01*
X28095341Y-33338538D01*
X26989013Y-33428721D01*
X25921536Y-33733006D01*
X24933933Y-34239698D01*
X24775387Y-34345635D01*
X24199266Y-35019661D01*
X20660000Y-35019661D01*
X20660000Y-30980339D01*
X24199266Y-30980339D01*
X24775387Y-31654365D01*
X25745368Y-32194024D01*
X26801994Y-32534079D01*
X27904659Y-32661462D01*
X29010987Y-32571279D01*
X30078464Y-32266994D01*
X31066067Y-31760302D01*
X31224613Y-31654365D01*
X31800734Y-30980339D01*
X28000000Y-27179605D01*
X24199266Y-30980339D01*
X20660000Y-30980339D01*
X20660000Y-26904659D01*
X22338538Y-26904659D01*
X22428721Y-28010987D01*
X22733006Y-29078464D01*
X23239698Y-30066067D01*
X23345635Y-30224613D01*
X24019661Y-30800734D01*
X27820395Y-27000000D01*
X28179605Y-27000000D01*
X31980339Y-30800734D01*
X32654365Y-30224613D01*
X32890602Y-29800000D01*
X54161928Y-29800000D01*
X54165000Y-30714250D01*
X54323750Y-30873000D01*
X55873000Y-30873000D01*
X55873000Y-29323750D01*
X56127000Y-29323750D01*
X56127000Y-30873000D01*
X57676250Y-30873000D01*
X57729982Y-30819268D01*
X59165000Y-30819268D01*
X59165000Y-31180732D01*
X59235518Y-31535250D01*
X59373844Y-31869199D01*
X59574662Y-32169744D01*
X59830256Y-32425338D01*
X60130801Y-32626156D01*
X60464750Y-32764482D01*
X60819268Y-32835000D01*
X61180732Y-32835000D01*
X61535250Y-32764482D01*
X61869199Y-32626156D01*
X62169744Y-32425338D01*
X62395082Y-32200000D01*
X86661928Y-32200000D01*
X86674188Y-32324482D01*
X86710498Y-32444180D01*
X86769463Y-32554494D01*
X86848815Y-32651185D01*
X86945506Y-32730537D01*
X87055820Y-32789502D01*
X87175518Y-32825812D01*
X87300000Y-32838072D01*
X88214250Y-32835000D01*
X88373000Y-32676250D01*
X88373000Y-31127000D01*
X88627000Y-31127000D01*
X88627000Y-32676250D01*
X88785750Y-32835000D01*
X89700000Y-32838072D01*
X89824482Y-32825812D01*
X89944180Y-32789502D01*
X90054494Y-32730537D01*
X90151185Y-32651185D01*
X90230537Y-32554494D01*
X90289502Y-32444180D01*
X90325812Y-32324482D01*
X90338072Y-32200000D01*
X90335000Y-31285750D01*
X90176250Y-31127000D01*
X88627000Y-31127000D01*
X88373000Y-31127000D01*
X86823750Y-31127000D01*
X86665000Y-31285750D01*
X86661928Y-32200000D01*
X62395082Y-32200000D01*
X62425338Y-32169744D01*
X62626156Y-31869199D01*
X62764482Y-31535250D01*
X62835000Y-31180732D01*
X62835000Y-30819268D01*
X62764482Y-30464750D01*
X62626156Y-30130801D01*
X62425338Y-29830256D01*
X62395082Y-29800000D01*
X86661928Y-29800000D01*
X86665000Y-30714250D01*
X86823750Y-30873000D01*
X88373000Y-30873000D01*
X88373000Y-29323750D01*
X88627000Y-29323750D01*
X88627000Y-30873000D01*
X90176250Y-30873000D01*
X90229982Y-30819268D01*
X91665000Y-30819268D01*
X91665000Y-31180732D01*
X91735518Y-31535250D01*
X91873844Y-31869199D01*
X92074662Y-32169744D01*
X92330256Y-32425338D01*
X92630801Y-32626156D01*
X92964750Y-32764482D01*
X93319268Y-32835000D01*
X93680732Y-32835000D01*
X94035250Y-32764482D01*
X94369199Y-32626156D01*
X94669744Y-32425338D01*
X94925338Y-32169744D01*
X95126156Y-31869199D01*
X95264482Y-31535250D01*
X95335000Y-31180732D01*
X95335000Y-30819268D01*
X95264482Y-30464750D01*
X95126156Y-30130801D01*
X94925338Y-29830256D01*
X94895082Y-29800000D01*
X136161928Y-29800000D01*
X136165000Y-30714250D01*
X136323750Y-30873000D01*
X137873000Y-30873000D01*
X137873000Y-29323750D01*
X138127000Y-29323750D01*
X138127000Y-30873000D01*
X139676250Y-30873000D01*
X139729982Y-30819268D01*
X141165000Y-30819268D01*
X141165000Y-31180732D01*
X141235518Y-31535250D01*
X141373844Y-31869199D01*
X141574662Y-32169744D01*
X141830256Y-32425338D01*
X142130801Y-32626156D01*
X142464750Y-32764482D01*
X142819268Y-32835000D01*
X143180732Y-32835000D01*
X143535250Y-32764482D01*
X143869199Y-32626156D01*
X144169744Y-32425338D01*
X144395082Y-32200000D01*
X168661928Y-32200000D01*
X168674188Y-32324482D01*
X168710498Y-32444180D01*
X168769463Y-32554494D01*
X168848815Y-32651185D01*
X168945506Y-32730537D01*
X169055820Y-32789502D01*
X169175518Y-32825812D01*
X169300000Y-32838072D01*
X170214250Y-32835000D01*
X170373000Y-32676250D01*
X170373000Y-31127000D01*
X170627000Y-31127000D01*
X170627000Y-32676250D01*
X170785750Y-32835000D01*
X171700000Y-32838072D01*
X171824482Y-32825812D01*
X171944180Y-32789502D01*
X172054494Y-32730537D01*
X172151185Y-32651185D01*
X172230537Y-32554494D01*
X172289502Y-32444180D01*
X172325812Y-32324482D01*
X172338072Y-32200000D01*
X172335000Y-31285750D01*
X172176250Y-31127000D01*
X170627000Y-31127000D01*
X170373000Y-31127000D01*
X168823750Y-31127000D01*
X168665000Y-31285750D01*
X168661928Y-32200000D01*
X144395082Y-32200000D01*
X144425338Y-32169744D01*
X144626156Y-31869199D01*
X144764482Y-31535250D01*
X144835000Y-31180732D01*
X144835000Y-30819268D01*
X144764482Y-30464750D01*
X144626156Y-30130801D01*
X144425338Y-29830256D01*
X144395082Y-29800000D01*
X168661928Y-29800000D01*
X168665000Y-30714250D01*
X168823750Y-30873000D01*
X170373000Y-30873000D01*
X170373000Y-29323750D01*
X170627000Y-29323750D01*
X170627000Y-30873000D01*
X172176250Y-30873000D01*
X172229982Y-30819268D01*
X173665000Y-30819268D01*
X173665000Y-31180732D01*
X173735518Y-31535250D01*
X173873844Y-31869199D01*
X174074662Y-32169744D01*
X174330256Y-32425338D01*
X174630801Y-32626156D01*
X174964750Y-32764482D01*
X175319268Y-32835000D01*
X175680732Y-32835000D01*
X176035250Y-32764482D01*
X176369199Y-32626156D01*
X176669744Y-32425338D01*
X176925338Y-32169744D01*
X177126156Y-31869199D01*
X177264482Y-31535250D01*
X177335000Y-31180732D01*
X177335000Y-30819268D01*
X177264482Y-30464750D01*
X177126156Y-30130801D01*
X176925338Y-29830256D01*
X176895082Y-29800000D01*
X217661928Y-29800000D01*
X217665000Y-30714250D01*
X217823750Y-30873000D01*
X219373000Y-30873000D01*
X219373000Y-29323750D01*
X219627000Y-29323750D01*
X219627000Y-30873000D01*
X221176250Y-30873000D01*
X221229982Y-30819268D01*
X222665000Y-30819268D01*
X222665000Y-31180732D01*
X222735518Y-31535250D01*
X222873844Y-31869199D01*
X223074662Y-32169744D01*
X223330256Y-32425338D01*
X223630801Y-32626156D01*
X223964750Y-32764482D01*
X224319268Y-32835000D01*
X224680732Y-32835000D01*
X225035250Y-32764482D01*
X225369199Y-32626156D01*
X225669744Y-32425338D01*
X225895082Y-32200000D01*
X250161928Y-32200000D01*
X250174188Y-32324482D01*
X250210498Y-32444180D01*
X250269463Y-32554494D01*
X250348815Y-32651185D01*
X250445506Y-32730537D01*
X250555820Y-32789502D01*
X250675518Y-32825812D01*
X250800000Y-32838072D01*
X251714250Y-32835000D01*
X251873000Y-32676250D01*
X251873000Y-31127000D01*
X252127000Y-31127000D01*
X252127000Y-32676250D01*
X252285750Y-32835000D01*
X253200000Y-32838072D01*
X253324482Y-32825812D01*
X253444180Y-32789502D01*
X253554494Y-32730537D01*
X253651185Y-32651185D01*
X253730537Y-32554494D01*
X253789502Y-32444180D01*
X253825812Y-32324482D01*
X253838072Y-32200000D01*
X253835000Y-31285750D01*
X253676250Y-31127000D01*
X252127000Y-31127000D01*
X251873000Y-31127000D01*
X250323750Y-31127000D01*
X250165000Y-31285750D01*
X250161928Y-32200000D01*
X225895082Y-32200000D01*
X225925338Y-32169744D01*
X226126156Y-31869199D01*
X226264482Y-31535250D01*
X226335000Y-31180732D01*
X226335000Y-30819268D01*
X226264482Y-30464750D01*
X226126156Y-30130801D01*
X225925338Y-29830256D01*
X225895082Y-29800000D01*
X250161928Y-29800000D01*
X250165000Y-30714250D01*
X250323750Y-30873000D01*
X251873000Y-30873000D01*
X251873000Y-29323750D01*
X252127000Y-29323750D01*
X252127000Y-30873000D01*
X253676250Y-30873000D01*
X253729982Y-30819268D01*
X255165000Y-30819268D01*
X255165000Y-31180732D01*
X255235518Y-31535250D01*
X255373844Y-31869199D01*
X255574662Y-32169744D01*
X255830256Y-32425338D01*
X256130801Y-32626156D01*
X256464750Y-32764482D01*
X256819268Y-32835000D01*
X257180732Y-32835000D01*
X257535250Y-32764482D01*
X257869199Y-32626156D01*
X258169744Y-32425338D01*
X258425338Y-32169744D01*
X258626156Y-31869199D01*
X258764482Y-31535250D01*
X258835000Y-31180732D01*
X258835000Y-30819268D01*
X258764482Y-30464750D01*
X258626156Y-30130801D01*
X258425338Y-29830256D01*
X258169744Y-29574662D01*
X257869199Y-29373844D01*
X257535250Y-29235518D01*
X257180732Y-29165000D01*
X256819268Y-29165000D01*
X256464750Y-29235518D01*
X256130801Y-29373844D01*
X255830256Y-29574662D01*
X255574662Y-29830256D01*
X255373844Y-30130801D01*
X255235518Y-30464750D01*
X255165000Y-30819268D01*
X253729982Y-30819268D01*
X253835000Y-30714250D01*
X253838072Y-29800000D01*
X253825812Y-29675518D01*
X253789502Y-29555820D01*
X253730537Y-29445506D01*
X253651185Y-29348815D01*
X253554494Y-29269463D01*
X253444180Y-29210498D01*
X253324482Y-29174188D01*
X253200000Y-29161928D01*
X252285750Y-29165000D01*
X252127000Y-29323750D01*
X251873000Y-29323750D01*
X251714250Y-29165000D01*
X250800000Y-29161928D01*
X250675518Y-29174188D01*
X250555820Y-29210498D01*
X250445506Y-29269463D01*
X250348815Y-29348815D01*
X250269463Y-29445506D01*
X250210498Y-29555820D01*
X250174188Y-29675518D01*
X250161928Y-29800000D01*
X225895082Y-29800000D01*
X225669744Y-29574662D01*
X225369199Y-29373844D01*
X225035250Y-29235518D01*
X224680732Y-29165000D01*
X224319268Y-29165000D01*
X223964750Y-29235518D01*
X223630801Y-29373844D01*
X223330256Y-29574662D01*
X223074662Y-29830256D01*
X222873844Y-30130801D01*
X222735518Y-30464750D01*
X222665000Y-30819268D01*
X221229982Y-30819268D01*
X221335000Y-30714250D01*
X221338072Y-29800000D01*
X221325812Y-29675518D01*
X221289502Y-29555820D01*
X221230537Y-29445506D01*
X221151185Y-29348815D01*
X221054494Y-29269463D01*
X220944180Y-29210498D01*
X220824482Y-29174188D01*
X220700000Y-29161928D01*
X219785750Y-29165000D01*
X219627000Y-29323750D01*
X219373000Y-29323750D01*
X219214250Y-29165000D01*
X218300000Y-29161928D01*
X218175518Y-29174188D01*
X218055820Y-29210498D01*
X217945506Y-29269463D01*
X217848815Y-29348815D01*
X217769463Y-29445506D01*
X217710498Y-29555820D01*
X217674188Y-29675518D01*
X217661928Y-29800000D01*
X176895082Y-29800000D01*
X176669744Y-29574662D01*
X176369199Y-29373844D01*
X176035250Y-29235518D01*
X175680732Y-29165000D01*
X175319268Y-29165000D01*
X174964750Y-29235518D01*
X174630801Y-29373844D01*
X174330256Y-29574662D01*
X174074662Y-29830256D01*
X173873844Y-30130801D01*
X173735518Y-30464750D01*
X173665000Y-30819268D01*
X172229982Y-30819268D01*
X172335000Y-30714250D01*
X172338072Y-29800000D01*
X172325812Y-29675518D01*
X172289502Y-29555820D01*
X172230537Y-29445506D01*
X172151185Y-29348815D01*
X172054494Y-29269463D01*
X171944180Y-29210498D01*
X171824482Y-29174188D01*
X171700000Y-29161928D01*
X170785750Y-29165000D01*
X170627000Y-29323750D01*
X170373000Y-29323750D01*
X170214250Y-29165000D01*
X169300000Y-29161928D01*
X169175518Y-29174188D01*
X169055820Y-29210498D01*
X168945506Y-29269463D01*
X168848815Y-29348815D01*
X168769463Y-29445506D01*
X168710498Y-29555820D01*
X168674188Y-29675518D01*
X168661928Y-29800000D01*
X144395082Y-29800000D01*
X144169744Y-29574662D01*
X143869199Y-29373844D01*
X143535250Y-29235518D01*
X143180732Y-29165000D01*
X142819268Y-29165000D01*
X142464750Y-29235518D01*
X142130801Y-29373844D01*
X141830256Y-29574662D01*
X141574662Y-29830256D01*
X141373844Y-30130801D01*
X141235518Y-30464750D01*
X141165000Y-30819268D01*
X139729982Y-30819268D01*
X139835000Y-30714250D01*
X139838072Y-29800000D01*
X139825812Y-29675518D01*
X139789502Y-29555820D01*
X139730537Y-29445506D01*
X139651185Y-29348815D01*
X139554494Y-29269463D01*
X139444180Y-29210498D01*
X139324482Y-29174188D01*
X139200000Y-29161928D01*
X138285750Y-29165000D01*
X138127000Y-29323750D01*
X137873000Y-29323750D01*
X137714250Y-29165000D01*
X136800000Y-29161928D01*
X136675518Y-29174188D01*
X136555820Y-29210498D01*
X136445506Y-29269463D01*
X136348815Y-29348815D01*
X136269463Y-29445506D01*
X136210498Y-29555820D01*
X136174188Y-29675518D01*
X136161928Y-29800000D01*
X94895082Y-29800000D01*
X94669744Y-29574662D01*
X94369199Y-29373844D01*
X94035250Y-29235518D01*
X93680732Y-29165000D01*
X93319268Y-29165000D01*
X92964750Y-29235518D01*
X92630801Y-29373844D01*
X92330256Y-29574662D01*
X92074662Y-29830256D01*
X91873844Y-30130801D01*
X91735518Y-30464750D01*
X91665000Y-30819268D01*
X90229982Y-30819268D01*
X90335000Y-30714250D01*
X90338072Y-29800000D01*
X90325812Y-29675518D01*
X90289502Y-29555820D01*
X90230537Y-29445506D01*
X90151185Y-29348815D01*
X90054494Y-29269463D01*
X89944180Y-29210498D01*
X89824482Y-29174188D01*
X89700000Y-29161928D01*
X88785750Y-29165000D01*
X88627000Y-29323750D01*
X88373000Y-29323750D01*
X88214250Y-29165000D01*
X87300000Y-29161928D01*
X87175518Y-29174188D01*
X87055820Y-29210498D01*
X86945506Y-29269463D01*
X86848815Y-29348815D01*
X86769463Y-29445506D01*
X86710498Y-29555820D01*
X86674188Y-29675518D01*
X86661928Y-29800000D01*
X62395082Y-29800000D01*
X62169744Y-29574662D01*
X61869199Y-29373844D01*
X61535250Y-29235518D01*
X61180732Y-29165000D01*
X60819268Y-29165000D01*
X60464750Y-29235518D01*
X60130801Y-29373844D01*
X59830256Y-29574662D01*
X59574662Y-29830256D01*
X59373844Y-30130801D01*
X59235518Y-30464750D01*
X59165000Y-30819268D01*
X57729982Y-30819268D01*
X57835000Y-30714250D01*
X57838072Y-29800000D01*
X57825812Y-29675518D01*
X57789502Y-29555820D01*
X57730537Y-29445506D01*
X57651185Y-29348815D01*
X57554494Y-29269463D01*
X57444180Y-29210498D01*
X57324482Y-29174188D01*
X57200000Y-29161928D01*
X56285750Y-29165000D01*
X56127000Y-29323750D01*
X55873000Y-29323750D01*
X55714250Y-29165000D01*
X54800000Y-29161928D01*
X54675518Y-29174188D01*
X54555820Y-29210498D01*
X54445506Y-29269463D01*
X54348815Y-29348815D01*
X54269463Y-29445506D01*
X54210498Y-29555820D01*
X54174188Y-29675518D01*
X54161928Y-29800000D01*
X32890602Y-29800000D01*
X33194024Y-29254632D01*
X33534079Y-28198006D01*
X33661462Y-27095341D01*
X33571279Y-25989013D01*
X33266994Y-24921536D01*
X32760302Y-23933933D01*
X32654365Y-23775387D01*
X31980339Y-23199266D01*
X28179605Y-27000000D01*
X27820395Y-27000000D01*
X24019661Y-23199266D01*
X23345635Y-23775387D01*
X22805976Y-24745368D01*
X22465921Y-25801994D01*
X22338538Y-26904659D01*
X20660000Y-26904659D01*
X20660000Y-23019661D01*
X24199266Y-23019661D01*
X28000000Y-26820395D01*
X31800734Y-23019661D01*
X31224613Y-22345635D01*
X30254632Y-21805976D01*
X29198006Y-21465921D01*
X28095341Y-21338538D01*
X26989013Y-21428721D01*
X25921536Y-21733006D01*
X24933933Y-22239698D01*
X24775387Y-22345635D01*
X24199266Y-23019661D01*
X20660000Y-23019661D01*
X20660000Y-20660000D01*
X279340000Y-20660000D01*
X279340001Y-74340000D01*
G37*
X279340001Y-74340000D02*
X35635000Y-74340000D01*
X35635000Y-72253740D01*
X37375000Y-72253740D01*
X37375000Y-72546260D01*
X37432068Y-72833158D01*
X37544010Y-73103411D01*
X37706525Y-73346632D01*
X37913368Y-73553475D01*
X38156589Y-73715990D01*
X38426842Y-73827932D01*
X38713740Y-73885000D01*
X39006260Y-73885000D01*
X39293158Y-73827932D01*
X39563411Y-73715990D01*
X39806632Y-73553475D01*
X39938487Y-73421620D01*
X39960498Y-73494180D01*
X40019463Y-73604494D01*
X40098815Y-73701185D01*
X40195506Y-73780537D01*
X40305820Y-73839502D01*
X40425518Y-73875812D01*
X40550000Y-73888072D01*
X42250000Y-73888072D01*
X42374482Y-73875812D01*
X42494180Y-73839502D01*
X42604494Y-73780537D01*
X42701185Y-73701185D01*
X42780537Y-73604494D01*
X42839502Y-73494180D01*
X42875812Y-73374482D01*
X42888072Y-73250000D01*
X42888072Y-71550000D01*
X42875812Y-71425518D01*
X42839502Y-71305820D01*
X42780537Y-71195506D01*
X42701185Y-71098815D01*
X42604494Y-71019463D01*
X42494180Y-70960498D01*
X42374482Y-70924188D01*
X42250000Y-70911928D01*
X42085000Y-70911928D01*
X42085000Y-70844613D01*
X42143386Y-70813405D01*
X42277962Y-70702962D01*
X42388405Y-70568386D01*
X42470472Y-70414850D01*
X42521008Y-70248254D01*
X42538072Y-70075000D01*
X42538072Y-69125000D01*
X42521008Y-68951746D01*
X42470472Y-68785150D01*
X42388405Y-68631614D01*
X42358452Y-68595116D01*
X42400905Y-68543387D01*
X42482972Y-68389851D01*
X42533508Y-68223255D01*
X42550572Y-68050001D01*
X42550572Y-67149999D01*
X42539512Y-67037706D01*
X42739250Y-67035000D01*
X42898000Y-66876250D01*
X42898000Y-65827000D01*
X43152000Y-65827000D01*
X43152000Y-66876250D01*
X43310750Y-67035000D01*
X43537500Y-67038072D01*
X43661982Y-67025812D01*
X43781680Y-66989502D01*
X43891994Y-66930537D01*
X43988685Y-66851185D01*
X44068037Y-66754494D01*
X44127002Y-66644180D01*
X44163312Y-66524482D01*
X44175572Y-66400000D01*
X44172500Y-65985750D01*
X44013750Y-65827000D01*
X43152000Y-65827000D01*
X42898000Y-65827000D01*
X42878000Y-65827000D01*
X42878000Y-65573000D01*
X42898000Y-65573000D01*
X42898000Y-64523750D01*
X43152000Y-64523750D01*
X43152000Y-65573000D01*
X44013750Y-65573000D01*
X44172500Y-65414250D01*
X44175572Y-65000000D01*
X44163312Y-64875518D01*
X44127002Y-64755820D01*
X44068037Y-64645506D01*
X43988685Y-64548815D01*
X43891994Y-64469463D01*
X43781680Y-64410498D01*
X43661982Y-64374188D01*
X43537500Y-64361928D01*
X43310750Y-64365000D01*
X43152000Y-64523750D01*
X42898000Y-64523750D01*
X42739250Y-64365000D01*
X42512500Y-64361928D01*
X42388018Y-64374188D01*
X42268320Y-64410498D01*
X42158006Y-64469463D01*
X42061315Y-64548815D01*
X42037137Y-64578276D01*
X41955887Y-64511595D01*
X41802351Y-64429528D01*
X41635755Y-64378992D01*
X41462501Y-64361928D01*
X40937499Y-64361928D01*
X40764245Y-64378992D01*
X40597649Y-64429528D01*
X40444113Y-64511595D01*
X40309538Y-64622038D01*
X40199095Y-64756613D01*
X40117028Y-64910149D01*
X40066492Y-65076745D01*
X40049428Y-65249999D01*
X40049428Y-66150001D01*
X40063715Y-66295057D01*
X40010755Y-66278992D01*
X39837501Y-66261928D01*
X39312499Y-66261928D01*
X39139245Y-66278992D01*
X38972649Y-66329528D01*
X38819113Y-66411595D01*
X38684538Y-66522038D01*
X38574095Y-66656613D01*
X38492028Y-66810149D01*
X38441492Y-66976745D01*
X38424428Y-67149999D01*
X38424428Y-68050001D01*
X38441492Y-68223255D01*
X38492028Y-68389851D01*
X38574095Y-68543387D01*
X38579048Y-68549422D01*
X38511595Y-68631614D01*
X38429528Y-68785150D01*
X38378992Y-68951746D01*
X38361928Y-69125000D01*
X38361928Y-70075000D01*
X38378992Y-70248254D01*
X38429528Y-70414850D01*
X38511595Y-70568386D01*
X38622038Y-70702962D01*
X38690001Y-70758737D01*
X38690001Y-70919722D01*
X38426842Y-70972068D01*
X38156589Y-71084010D01*
X37913368Y-71246525D01*
X37706525Y-71453368D01*
X37544010Y-71696589D01*
X37432068Y-71966842D01*
X37375000Y-72253740D01*
X35635000Y-72253740D01*
X35635000Y-62302658D01*
X39876947Y-62302658D01*
X40423083Y-62951079D01*
X41350567Y-63465829D01*
X42360653Y-63789746D01*
X43414523Y-63910380D01*
X44471678Y-63823097D01*
X45491492Y-63531251D01*
X46434775Y-63046056D01*
X46576917Y-62951079D01*
X47123053Y-62302658D01*
X43500000Y-58679605D01*
X39876947Y-62302658D01*
X35635000Y-62302658D01*
X35635000Y-58414523D01*
X38089620Y-58414523D01*
X38176903Y-59471678D01*
X38468749Y-60491492D01*
X38953944Y-61434775D01*
X39048921Y-61576917D01*
X39697342Y-62123053D01*
X43320395Y-58500000D01*
X43679605Y-58500000D01*
X47302658Y-62123053D01*
X47951079Y-61576917D01*
X48160266Y-61200000D01*
X54161928Y-61200000D01*
X54174188Y-61324482D01*
X54210498Y-61444180D01*
X54269463Y-61554494D01*
X54348815Y-61651185D01*
X54445506Y-61730537D01*
X54555820Y-61789502D01*
X54675518Y-61825812D01*
X54800000Y-61838072D01*
X55714250Y-61835000D01*
X55873000Y-61676250D01*
X55873000Y-60127000D01*
X56127000Y-60127000D01*
X56127000Y-61676250D01*
X56285750Y-61835000D01*
X57200000Y-61838072D01*
X57324482Y-61825812D01*
X57444180Y-61789502D01*
X57554494Y-61730537D01*
X57651185Y-61651185D01*
X57730537Y-61554494D01*
X57789502Y-61444180D01*
X57825812Y-61324482D01*
X57838072Y-61200000D01*
X57835000Y-60285750D01*
X57676250Y-60127000D01*
X56127000Y-60127000D01*
X55873000Y-60127000D01*
X54323750Y-60127000D01*
X54165000Y-60285750D01*
X54161928Y-61200000D01*
X48160266Y-61200000D01*
X48465829Y-60649433D01*
X48789746Y-59639347D01*
X48885824Y-58800000D01*
X54161928Y-58800000D01*
X54165000Y-59714250D01*
X54323750Y-59873000D01*
X55873000Y-59873000D01*
X55873000Y-58323750D01*
X56127000Y-58323750D01*
X56127000Y-59873000D01*
X57676250Y-59873000D01*
X57729982Y-59819268D01*
X59165000Y-59819268D01*
X59165000Y-60180732D01*
X59235518Y-60535250D01*
X59373844Y-60869199D01*
X59574662Y-61169744D01*
X59830256Y-61425338D01*
X60130801Y-61626156D01*
X60464750Y-61764482D01*
X60819268Y-61835000D01*
X61180732Y-61835000D01*
X61535250Y-61764482D01*
X61869199Y-61626156D01*
X62169744Y-61425338D01*
X62425338Y-61169744D01*
X62626156Y-60869199D01*
X62764482Y-60535250D01*
X62835000Y-60180732D01*
X62835000Y-59819268D01*
X62764482Y-59464750D01*
X62626156Y-59130801D01*
X62425338Y-58830256D01*
X62169744Y-58574662D01*
X61869199Y-58373844D01*
X61535250Y-58235518D01*
X61180732Y-58165000D01*
X60819268Y-58165000D01*
X60464750Y-58235518D01*
X60130801Y-58373844D01*
X59830256Y-58574662D01*
X59574662Y-58830256D01*
X59373844Y-59130801D01*
X59235518Y-59464750D01*
X59165000Y-59819268D01*
X57729982Y-59819268D01*
X57835000Y-59714250D01*
X57838072Y-58800000D01*
X57825812Y-58675518D01*
X57789502Y-58555820D01*
X57730537Y-58445506D01*
X57651185Y-58348815D01*
X57554494Y-58269463D01*
X57444180Y-58210498D01*
X57324482Y-58174188D01*
X57200000Y-58161928D01*
X56285750Y-58165000D01*
X56127000Y-58323750D01*
X55873000Y-58323750D01*
X55714250Y-58165000D01*
X54800000Y-58161928D01*
X54675518Y-58174188D01*
X54555820Y-58210498D01*
X54445506Y-58269463D01*
X54348815Y-58348815D01*
X54269463Y-58445506D01*
X54210498Y-58555820D01*
X54174188Y-58675518D01*
X54161928Y-58800000D01*
X48885824Y-58800000D01*
X48910380Y-58585477D01*
X48823097Y-57528322D01*
X48531251Y-56508508D01*
X48046056Y-55565225D01*
X47951079Y-55423083D01*
X47302658Y-54876947D01*
X43679605Y-58500000D01*
X43320395Y-58500000D01*
X39697342Y-54876947D01*
X39048921Y-55423083D01*
X38534171Y-56350567D01*
X38210254Y-57360653D01*
X38089620Y-58414523D01*
X35635000Y-58414523D01*
X35635000Y-54697342D01*
X39876947Y-54697342D01*
X43500000Y-58320395D01*
X47123053Y-54697342D01*
X46576917Y-54048921D01*
X45649433Y-53534171D01*
X44639347Y-53210254D01*
X43585477Y-53089620D01*
X42528322Y-53176903D01*
X41508508Y-53468749D01*
X40565225Y-53953944D01*
X40423083Y-54048921D01*
X39876947Y-54697342D01*
X35635000Y-54697342D01*
X35635000Y-48000000D01*
X35622799Y-47876118D01*
X35586664Y-47756996D01*
X35527983Y-47647213D01*
X35449013Y-47550987D01*
X35352787Y-47472017D01*
X35243004Y-47413336D01*
X35123882Y-47377201D01*
X35000000Y-47365000D01*
X20660000Y-47365000D01*
X20660000Y-42980339D01*
X24199266Y-42980339D01*
X24775387Y-43654365D01*
X25745368Y-44194024D01*
X26801994Y-44534079D01*
X27904659Y-44661462D01*
X29010987Y-44571279D01*
X30078464Y-44266994D01*
X31066067Y-43760302D01*
X31224613Y-43654365D01*
X31800734Y-42980339D01*
X28000000Y-39179605D01*
X24199266Y-42980339D01*
X20660000Y-42980339D01*
X20660000Y-38904659D01*
X22338538Y-38904659D01*
X22428721Y-40010987D01*
X22733006Y-41078464D01*
X23239698Y-42066067D01*
X23345635Y-42224613D01*
X24019661Y-42800734D01*
X27820395Y-39000000D01*
X28179605Y-39000000D01*
X31980339Y-42800734D01*
X32654365Y-42224613D01*
X33167304Y-41302658D01*
X39876947Y-41302658D01*
X40423083Y-41951079D01*
X41350567Y-42465829D01*
X42360653Y-42789746D01*
X43414523Y-42910380D01*
X44471678Y-42823097D01*
X45491492Y-42531251D01*
X45552248Y-42500000D01*
X66373000Y-42500000D01*
X66373000Y-69500000D01*
X66375440Y-69524776D01*
X66382667Y-69548601D01*
X66394403Y-69570557D01*
X66410197Y-69589803D01*
X66429443Y-69605597D01*
X66451399Y-69617333D01*
X66475224Y-69624560D01*
X66500000Y-69627000D01*
X81351329Y-69627000D01*
X81365001Y-69638220D01*
X81365001Y-70911928D01*
X81350000Y-70911928D01*
X81225518Y-70924188D01*
X81105820Y-70960498D01*
X80995506Y-71019463D01*
X80898815Y-71098815D01*
X80819463Y-71195506D01*
X80760498Y-71305820D01*
X80724188Y-71425518D01*
X80711928Y-71550000D01*
X80711928Y-73250000D01*
X80724188Y-73374482D01*
X80760498Y-73494180D01*
X80819463Y-73604494D01*
X80898815Y-73701185D01*
X80995506Y-73780537D01*
X81105820Y-73839502D01*
X81225518Y-73875812D01*
X81350000Y-73888072D01*
X83050000Y-73888072D01*
X83174482Y-73875812D01*
X83294180Y-73839502D01*
X83404494Y-73780537D01*
X83501185Y-73701185D01*
X83580537Y-73604494D01*
X83639502Y-73494180D01*
X83661513Y-73421620D01*
X83793368Y-73553475D01*
X84036589Y-73715990D01*
X84306842Y-73827932D01*
X84593740Y-73885000D01*
X84886260Y-73885000D01*
X85173158Y-73827932D01*
X85443411Y-73715990D01*
X85686632Y-73553475D01*
X85893475Y-73346632D01*
X86055990Y-73103411D01*
X86167932Y-72833158D01*
X86225000Y-72546260D01*
X86225000Y-72253740D01*
X86167932Y-71966842D01*
X86055990Y-71696589D01*
X85893475Y-71453368D01*
X85686632Y-71246525D01*
X85443411Y-71084010D01*
X85173158Y-70972068D01*
X84960000Y-70929668D01*
X84960000Y-69617703D01*
X84977962Y-69602962D01*
X85088405Y-69468386D01*
X85170472Y-69314850D01*
X85221008Y-69148254D01*
X85238072Y-68975000D01*
X85238072Y-68025000D01*
X85221008Y-67851746D01*
X85170472Y-67685150D01*
X85088405Y-67531614D01*
X85045952Y-67479885D01*
X85075905Y-67443387D01*
X85157972Y-67289851D01*
X85208508Y-67123255D01*
X85225572Y-66950001D01*
X85225572Y-66049999D01*
X85208508Y-65876745D01*
X85157972Y-65710149D01*
X85075905Y-65556613D01*
X84965462Y-65422038D01*
X84830887Y-65311595D01*
X84677351Y-65229528D01*
X84510755Y-65178992D01*
X84337501Y-65161928D01*
X83812499Y-65161928D01*
X83639245Y-65178992D01*
X83472649Y-65229528D01*
X83319113Y-65311595D01*
X83184538Y-65422038D01*
X83162500Y-65448891D01*
X83140462Y-65422038D01*
X83005887Y-65311595D01*
X82852351Y-65229528D01*
X82685755Y-65178992D01*
X82512501Y-65161928D01*
X81987499Y-65161928D01*
X81814245Y-65178992D01*
X81647649Y-65229528D01*
X81627000Y-65240565D01*
X81627000Y-61200000D01*
X86661928Y-61200000D01*
X86674188Y-61324482D01*
X86710498Y-61444180D01*
X86769463Y-61554494D01*
X86848815Y-61651185D01*
X86945506Y-61730537D01*
X87055820Y-61789502D01*
X87175518Y-61825812D01*
X87300000Y-61838072D01*
X88214250Y-61835000D01*
X88373000Y-61676250D01*
X88373000Y-60127000D01*
X88627000Y-60127000D01*
X88627000Y-61676250D01*
X88785750Y-61835000D01*
X89700000Y-61838072D01*
X89824482Y-61825812D01*
X89944180Y-61789502D01*
X90054494Y-61730537D01*
X90151185Y-61651185D01*
X90230537Y-61554494D01*
X90289502Y-61444180D01*
X90325812Y-61324482D01*
X90338072Y-61200000D01*
X90335000Y-60285750D01*
X90176250Y-60127000D01*
X88627000Y-60127000D01*
X88373000Y-60127000D01*
X86823750Y-60127000D01*
X86665000Y-60285750D01*
X86661928Y-61200000D01*
X81627000Y-61200000D01*
X81627000Y-58800000D01*
X86661928Y-58800000D01*
X86665000Y-59714250D01*
X86823750Y-59873000D01*
X88373000Y-59873000D01*
X88373000Y-58323750D01*
X88627000Y-58323750D01*
X88627000Y-59873000D01*
X90176250Y-59873000D01*
X90229982Y-59819268D01*
X91665000Y-59819268D01*
X91665000Y-60180732D01*
X91735518Y-60535250D01*
X91873844Y-60869199D01*
X92074662Y-61169744D01*
X92330256Y-61425338D01*
X92630801Y-61626156D01*
X92964750Y-61764482D01*
X93319268Y-61835000D01*
X93680732Y-61835000D01*
X94035250Y-61764482D01*
X94369199Y-61626156D01*
X94669744Y-61425338D01*
X94925338Y-61169744D01*
X95126156Y-60869199D01*
X95264482Y-60535250D01*
X95335000Y-60180732D01*
X95335000Y-59819268D01*
X95264482Y-59464750D01*
X95126156Y-59130801D01*
X94925338Y-58830256D01*
X94669744Y-58574662D01*
X94369199Y-58373844D01*
X94035250Y-58235518D01*
X93680732Y-58165000D01*
X93319268Y-58165000D01*
X92964750Y-58235518D01*
X92630801Y-58373844D01*
X92330256Y-58574662D01*
X92074662Y-58830256D01*
X91873844Y-59130801D01*
X91735518Y-59464750D01*
X91665000Y-59819268D01*
X90229982Y-59819268D01*
X90335000Y-59714250D01*
X90338072Y-58800000D01*
X90325812Y-58675518D01*
X90289502Y-58555820D01*
X90230537Y-58445506D01*
X90151185Y-58348815D01*
X90054494Y-58269463D01*
X89944180Y-58210498D01*
X89824482Y-58174188D01*
X89700000Y-58161928D01*
X88785750Y-58165000D01*
X88627000Y-58323750D01*
X88373000Y-58323750D01*
X88214250Y-58165000D01*
X87300000Y-58161928D01*
X87175518Y-58174188D01*
X87055820Y-58210498D01*
X86945506Y-58269463D01*
X86848815Y-58348815D01*
X86769463Y-58445506D01*
X86710498Y-58555820D01*
X86674188Y-58675518D01*
X86661928Y-58800000D01*
X81627000Y-58800000D01*
X81627000Y-57969624D01*
X100615000Y-57969624D01*
X100615000Y-59030376D01*
X100821942Y-60070747D01*
X101227875Y-61050754D01*
X101817197Y-61932738D01*
X102567262Y-62682803D01*
X103449246Y-63272125D01*
X104429253Y-63678058D01*
X105469624Y-63885000D01*
X106530376Y-63885000D01*
X107570747Y-63678058D01*
X108550754Y-63272125D01*
X109432738Y-62682803D01*
X109812883Y-62302658D01*
X121876947Y-62302658D01*
X122423083Y-62951079D01*
X123350567Y-63465829D01*
X124360653Y-63789746D01*
X125414523Y-63910380D01*
X126471678Y-63823097D01*
X127491492Y-63531251D01*
X128434775Y-63046056D01*
X128576917Y-62951079D01*
X129123053Y-62302658D01*
X125500000Y-58679605D01*
X121876947Y-62302658D01*
X109812883Y-62302658D01*
X110182803Y-61932738D01*
X110772125Y-61050754D01*
X111178058Y-60070747D01*
X111385000Y-59030376D01*
X111385000Y-58414523D01*
X120089620Y-58414523D01*
X120176903Y-59471678D01*
X120468749Y-60491492D01*
X120953944Y-61434775D01*
X121048921Y-61576917D01*
X121697342Y-62123053D01*
X125320395Y-58500000D01*
X125679605Y-58500000D01*
X129302658Y-62123053D01*
X129951079Y-61576917D01*
X130160266Y-61200000D01*
X136161928Y-61200000D01*
X136174188Y-61324482D01*
X136210498Y-61444180D01*
X136269463Y-61554494D01*
X136348815Y-61651185D01*
X136445506Y-61730537D01*
X136555820Y-61789502D01*
X136675518Y-61825812D01*
X136800000Y-61838072D01*
X137714250Y-61835000D01*
X137873000Y-61676250D01*
X137873000Y-60127000D01*
X138127000Y-60127000D01*
X138127000Y-61676250D01*
X138285750Y-61835000D01*
X139200000Y-61838072D01*
X139324482Y-61825812D01*
X139444180Y-61789502D01*
X139554494Y-61730537D01*
X139651185Y-61651185D01*
X139730537Y-61554494D01*
X139789502Y-61444180D01*
X139825812Y-61324482D01*
X139838072Y-61200000D01*
X139835000Y-60285750D01*
X139676250Y-60127000D01*
X138127000Y-60127000D01*
X137873000Y-60127000D01*
X136323750Y-60127000D01*
X136165000Y-60285750D01*
X136161928Y-61200000D01*
X130160266Y-61200000D01*
X130465829Y-60649433D01*
X130789746Y-59639347D01*
X130885824Y-58800000D01*
X136161928Y-58800000D01*
X136165000Y-59714250D01*
X136323750Y-59873000D01*
X137873000Y-59873000D01*
X137873000Y-58323750D01*
X138127000Y-58323750D01*
X138127000Y-59873000D01*
X139676250Y-59873000D01*
X139729982Y-59819268D01*
X141165000Y-59819268D01*
X141165000Y-60180732D01*
X141235518Y-60535250D01*
X141373844Y-60869199D01*
X141574662Y-61169744D01*
X141830256Y-61425338D01*
X142130801Y-61626156D01*
X142464750Y-61764482D01*
X142819268Y-61835000D01*
X143180732Y-61835000D01*
X143535250Y-61764482D01*
X143869199Y-61626156D01*
X144169744Y-61425338D01*
X144425338Y-61169744D01*
X144626156Y-60869199D01*
X144764482Y-60535250D01*
X144835000Y-60180732D01*
X144835000Y-59819268D01*
X144764482Y-59464750D01*
X144626156Y-59130801D01*
X144425338Y-58830256D01*
X144169744Y-58574662D01*
X143869199Y-58373844D01*
X143535250Y-58235518D01*
X143180732Y-58165000D01*
X142819268Y-58165000D01*
X142464750Y-58235518D01*
X142130801Y-58373844D01*
X141830256Y-58574662D01*
X141574662Y-58830256D01*
X141373844Y-59130801D01*
X141235518Y-59464750D01*
X141165000Y-59819268D01*
X139729982Y-59819268D01*
X139835000Y-59714250D01*
X139838072Y-58800000D01*
X139825812Y-58675518D01*
X139789502Y-58555820D01*
X139730537Y-58445506D01*
X139651185Y-58348815D01*
X139554494Y-58269463D01*
X139444180Y-58210498D01*
X139324482Y-58174188D01*
X139200000Y-58161928D01*
X138285750Y-58165000D01*
X138127000Y-58323750D01*
X137873000Y-58323750D01*
X137714250Y-58165000D01*
X136800000Y-58161928D01*
X136675518Y-58174188D01*
X136555820Y-58210498D01*
X136445506Y-58269463D01*
X136348815Y-58348815D01*
X136269463Y-58445506D01*
X136210498Y-58555820D01*
X136174188Y-58675518D01*
X136161928Y-58800000D01*
X130885824Y-58800000D01*
X130910380Y-58585477D01*
X130823097Y-57528322D01*
X130531251Y-56508508D01*
X130046056Y-55565225D01*
X129951079Y-55423083D01*
X129302658Y-54876947D01*
X125679605Y-58500000D01*
X125320395Y-58500000D01*
X121697342Y-54876947D01*
X121048921Y-55423083D01*
X120534171Y-56350567D01*
X120210254Y-57360653D01*
X120089620Y-58414523D01*
X111385000Y-58414523D01*
X111385000Y-57969624D01*
X111178058Y-56929253D01*
X110772125Y-55949246D01*
X110182803Y-55067262D01*
X109812883Y-54697342D01*
X121876947Y-54697342D01*
X125500000Y-58320395D01*
X129123053Y-54697342D01*
X128576917Y-54048921D01*
X127649433Y-53534171D01*
X126639347Y-53210254D01*
X125585477Y-53089620D01*
X124528322Y-53176903D01*
X123508508Y-53468749D01*
X122565225Y-53953944D01*
X122423083Y-54048921D01*
X121876947Y-54697342D01*
X109812883Y-54697342D01*
X109432738Y-54317197D01*
X108550754Y-53727875D01*
X107570747Y-53321942D01*
X106530376Y-53115000D01*
X105469624Y-53115000D01*
X104429253Y-53321942D01*
X103449246Y-53727875D01*
X102567262Y-54317197D01*
X101817197Y-55067262D01*
X101227875Y-55949246D01*
X100821942Y-56929253D01*
X100615000Y-57969624D01*
X81627000Y-57969624D01*
X81627000Y-42500000D01*
X81624560Y-42475224D01*
X81617333Y-42451399D01*
X81605597Y-42429443D01*
X81589803Y-42410197D01*
X81570557Y-42394403D01*
X81548601Y-42382667D01*
X81524776Y-42375440D01*
X81500000Y-42373000D01*
X66500000Y-42373000D01*
X66475224Y-42375440D01*
X66451399Y-42382667D01*
X66429443Y-42394403D01*
X66410197Y-42410197D01*
X66394403Y-42429443D01*
X66382667Y-42451399D01*
X66375440Y-42475224D01*
X66373000Y-42500000D01*
X45552248Y-42500000D01*
X46434775Y-42046056D01*
X46576917Y-41951079D01*
X47123053Y-41302658D01*
X43500000Y-37679605D01*
X39876947Y-41302658D01*
X33167304Y-41302658D01*
X33194024Y-41254632D01*
X33534079Y-40198006D01*
X33661462Y-39095341D01*
X33571279Y-37989013D01*
X33407521Y-37414523D01*
X38089620Y-37414523D01*
X38176903Y-38471678D01*
X38468749Y-39491492D01*
X38953944Y-40434775D01*
X39048921Y-40576917D01*
X39697342Y-41123053D01*
X43320395Y-37500000D01*
X43679605Y-37500000D01*
X47302658Y-41123053D01*
X47951079Y-40576917D01*
X48465829Y-39649433D01*
X48789746Y-38639347D01*
X48910380Y-37585477D01*
X48859533Y-36969624D01*
X100615000Y-36969624D01*
X100615000Y-38030376D01*
X100821942Y-39070747D01*
X101227875Y-40050754D01*
X101817197Y-40932738D01*
X102567262Y-41682803D01*
X103449246Y-42272125D01*
X104429253Y-42678058D01*
X105469624Y-42885000D01*
X106530376Y-42885000D01*
X107570747Y-42678058D01*
X108550754Y-42272125D01*
X109432738Y-41682803D01*
X109812883Y-41302658D01*
X121876947Y-41302658D01*
X122423083Y-41951079D01*
X123350567Y-42465829D01*
X124360653Y-42789746D01*
X125414523Y-42910380D01*
X126471678Y-42823097D01*
X127491492Y-42531251D01*
X127552248Y-42500000D01*
X148373000Y-42500000D01*
X148373000Y-69500000D01*
X148375440Y-69524776D01*
X148382667Y-69548601D01*
X148394403Y-69570557D01*
X148410197Y-69589803D01*
X148429443Y-69605597D01*
X148451399Y-69617333D01*
X148475224Y-69624560D01*
X148500000Y-69627000D01*
X163209698Y-69627000D01*
X163272038Y-69702962D01*
X163315001Y-69738220D01*
X163315001Y-71115375D01*
X163225518Y-71124188D01*
X163105820Y-71160498D01*
X162995506Y-71219463D01*
X162898815Y-71298815D01*
X162819463Y-71395506D01*
X162760498Y-71505820D01*
X162724188Y-71625518D01*
X162711928Y-71750000D01*
X162711928Y-73450000D01*
X162724188Y-73574482D01*
X162760498Y-73694180D01*
X162819463Y-73804494D01*
X162898815Y-73901185D01*
X162995506Y-73980537D01*
X163105820Y-74039502D01*
X163225518Y-74075812D01*
X163350000Y-74088072D01*
X165050000Y-74088072D01*
X165174482Y-74075812D01*
X165294180Y-74039502D01*
X165404494Y-73980537D01*
X165501185Y-73901185D01*
X165580537Y-73804494D01*
X165639502Y-73694180D01*
X165661513Y-73621620D01*
X165793368Y-73753475D01*
X166036589Y-73915990D01*
X166306842Y-74027932D01*
X166593740Y-74085000D01*
X166886260Y-74085000D01*
X167173158Y-74027932D01*
X167443411Y-73915990D01*
X167686632Y-73753475D01*
X167893475Y-73546632D01*
X168055990Y-73303411D01*
X168167932Y-73033158D01*
X168225000Y-72746260D01*
X168225000Y-72453740D01*
X168167932Y-72166842D01*
X168055990Y-71896589D01*
X167893475Y-71653368D01*
X167686632Y-71446525D01*
X167443411Y-71284010D01*
X167173158Y-71172068D01*
X166910000Y-71119722D01*
X166910000Y-69717703D01*
X166927962Y-69702962D01*
X167038405Y-69568386D01*
X167120472Y-69414850D01*
X167171008Y-69248254D01*
X167188072Y-69075000D01*
X167188072Y-68125000D01*
X167171008Y-67951746D01*
X167120472Y-67785150D01*
X167038405Y-67631614D01*
X166995952Y-67579885D01*
X167025905Y-67543387D01*
X167107972Y-67389851D01*
X167158508Y-67223255D01*
X167175572Y-67050001D01*
X167175572Y-66149999D01*
X167158508Y-65976745D01*
X167107972Y-65810149D01*
X167025905Y-65656613D01*
X166915462Y-65522038D01*
X166780887Y-65411595D01*
X166627351Y-65329528D01*
X166460755Y-65278992D01*
X166287501Y-65261928D01*
X165762499Y-65261928D01*
X165589245Y-65278992D01*
X165422649Y-65329528D01*
X165269113Y-65411595D01*
X165134538Y-65522038D01*
X165112500Y-65548891D01*
X165090462Y-65522038D01*
X164955887Y-65411595D01*
X164802351Y-65329528D01*
X164635755Y-65278992D01*
X164462501Y-65261928D01*
X163937499Y-65261928D01*
X163764245Y-65278992D01*
X163627000Y-65320625D01*
X163627000Y-61200000D01*
X168661928Y-61200000D01*
X168674188Y-61324482D01*
X168710498Y-61444180D01*
X168769463Y-61554494D01*
X168848815Y-61651185D01*
X168945506Y-61730537D01*
X169055820Y-61789502D01*
X169175518Y-61825812D01*
X169300000Y-61838072D01*
X170214250Y-61835000D01*
X170373000Y-61676250D01*
X170373000Y-60127000D01*
X170627000Y-60127000D01*
X170627000Y-61676250D01*
X170785750Y-61835000D01*
X171700000Y-61838072D01*
X171824482Y-61825812D01*
X171944180Y-61789502D01*
X172054494Y-61730537D01*
X172151185Y-61651185D01*
X172230537Y-61554494D01*
X172289502Y-61444180D01*
X172325812Y-61324482D01*
X172338072Y-61200000D01*
X172335000Y-60285750D01*
X172176250Y-60127000D01*
X170627000Y-60127000D01*
X170373000Y-60127000D01*
X168823750Y-60127000D01*
X168665000Y-60285750D01*
X168661928Y-61200000D01*
X163627000Y-61200000D01*
X163627000Y-58800000D01*
X168661928Y-58800000D01*
X168665000Y-59714250D01*
X168823750Y-59873000D01*
X170373000Y-59873000D01*
X170373000Y-58323750D01*
X170627000Y-58323750D01*
X170627000Y-59873000D01*
X172176250Y-59873000D01*
X172229982Y-59819268D01*
X173665000Y-59819268D01*
X173665000Y-60180732D01*
X173735518Y-60535250D01*
X173873844Y-60869199D01*
X174074662Y-61169744D01*
X174330256Y-61425338D01*
X174630801Y-61626156D01*
X174964750Y-61764482D01*
X175319268Y-61835000D01*
X175680732Y-61835000D01*
X176035250Y-61764482D01*
X176369199Y-61626156D01*
X176669744Y-61425338D01*
X176925338Y-61169744D01*
X177126156Y-60869199D01*
X177264482Y-60535250D01*
X177335000Y-60180732D01*
X177335000Y-59819268D01*
X177264482Y-59464750D01*
X177126156Y-59130801D01*
X176925338Y-58830256D01*
X176669744Y-58574662D01*
X176369199Y-58373844D01*
X176035250Y-58235518D01*
X175680732Y-58165000D01*
X175319268Y-58165000D01*
X174964750Y-58235518D01*
X174630801Y-58373844D01*
X174330256Y-58574662D01*
X174074662Y-58830256D01*
X173873844Y-59130801D01*
X173735518Y-59464750D01*
X173665000Y-59819268D01*
X172229982Y-59819268D01*
X172335000Y-59714250D01*
X172338072Y-58800000D01*
X172325812Y-58675518D01*
X172289502Y-58555820D01*
X172230537Y-58445506D01*
X172151185Y-58348815D01*
X172054494Y-58269463D01*
X171944180Y-58210498D01*
X171824482Y-58174188D01*
X171700000Y-58161928D01*
X170785750Y-58165000D01*
X170627000Y-58323750D01*
X170373000Y-58323750D01*
X170214250Y-58165000D01*
X169300000Y-58161928D01*
X169175518Y-58174188D01*
X169055820Y-58210498D01*
X168945506Y-58269463D01*
X168848815Y-58348815D01*
X168769463Y-58445506D01*
X168710498Y-58555820D01*
X168674188Y-58675518D01*
X168661928Y-58800000D01*
X163627000Y-58800000D01*
X163627000Y-57969624D01*
X182615000Y-57969624D01*
X182615000Y-59030376D01*
X182821942Y-60070747D01*
X183227875Y-61050754D01*
X183817197Y-61932738D01*
X184567262Y-62682803D01*
X185449246Y-63272125D01*
X186429253Y-63678058D01*
X187469624Y-63885000D01*
X188530376Y-63885000D01*
X189570747Y-63678058D01*
X190550754Y-63272125D01*
X191432738Y-62682803D01*
X191812883Y-62302658D01*
X203876947Y-62302658D01*
X204423083Y-62951079D01*
X205350567Y-63465829D01*
X206360653Y-63789746D01*
X207414523Y-63910380D01*
X208471678Y-63823097D01*
X209491492Y-63531251D01*
X210434775Y-63046056D01*
X210576917Y-62951079D01*
X211123053Y-62302658D01*
X207500000Y-58679605D01*
X203876947Y-62302658D01*
X191812883Y-62302658D01*
X192182803Y-61932738D01*
X192772125Y-61050754D01*
X193178058Y-60070747D01*
X193385000Y-59030376D01*
X193385000Y-58414523D01*
X202089620Y-58414523D01*
X202176903Y-59471678D01*
X202468749Y-60491492D01*
X202953944Y-61434775D01*
X203048921Y-61576917D01*
X203697342Y-62123053D01*
X207320395Y-58500000D01*
X207679605Y-58500000D01*
X211302658Y-62123053D01*
X211951079Y-61576917D01*
X212160266Y-61200000D01*
X217661928Y-61200000D01*
X217674188Y-61324482D01*
X217710498Y-61444180D01*
X217769463Y-61554494D01*
X217848815Y-61651185D01*
X217945506Y-61730537D01*
X218055820Y-61789502D01*
X218175518Y-61825812D01*
X218300000Y-61838072D01*
X219214250Y-61835000D01*
X219373000Y-61676250D01*
X219373000Y-60127000D01*
X219627000Y-60127000D01*
X219627000Y-61676250D01*
X219785750Y-61835000D01*
X220700000Y-61838072D01*
X220824482Y-61825812D01*
X220944180Y-61789502D01*
X221054494Y-61730537D01*
X221151185Y-61651185D01*
X221230537Y-61554494D01*
X221289502Y-61444180D01*
X221325812Y-61324482D01*
X221338072Y-61200000D01*
X221335000Y-60285750D01*
X221176250Y-60127000D01*
X219627000Y-60127000D01*
X219373000Y-60127000D01*
X217823750Y-60127000D01*
X217665000Y-60285750D01*
X217661928Y-61200000D01*
X212160266Y-61200000D01*
X212465829Y-60649433D01*
X212789746Y-59639347D01*
X212885824Y-58800000D01*
X217661928Y-58800000D01*
X217665000Y-59714250D01*
X217823750Y-59873000D01*
X219373000Y-59873000D01*
X219373000Y-58323750D01*
X219627000Y-58323750D01*
X219627000Y-59873000D01*
X221176250Y-59873000D01*
X221229982Y-59819268D01*
X222665000Y-59819268D01*
X222665000Y-60180732D01*
X222735518Y-60535250D01*
X222873844Y-60869199D01*
X223074662Y-61169744D01*
X223330256Y-61425338D01*
X223630801Y-61626156D01*
X223964750Y-61764482D01*
X224319268Y-61835000D01*
X224680732Y-61835000D01*
X225035250Y-61764482D01*
X225369199Y-61626156D01*
X225669744Y-61425338D01*
X225925338Y-61169744D01*
X226126156Y-60869199D01*
X226264482Y-60535250D01*
X226335000Y-60180732D01*
X226335000Y-59819268D01*
X226264482Y-59464750D01*
X226126156Y-59130801D01*
X225925338Y-58830256D01*
X225669744Y-58574662D01*
X225369199Y-58373844D01*
X225035250Y-58235518D01*
X224680732Y-58165000D01*
X224319268Y-58165000D01*
X223964750Y-58235518D01*
X223630801Y-58373844D01*
X223330256Y-58574662D01*
X223074662Y-58830256D01*
X222873844Y-59130801D01*
X222735518Y-59464750D01*
X222665000Y-59819268D01*
X221229982Y-59819268D01*
X221335000Y-59714250D01*
X221338072Y-58800000D01*
X221325812Y-58675518D01*
X221289502Y-58555820D01*
X221230537Y-58445506D01*
X221151185Y-58348815D01*
X221054494Y-58269463D01*
X220944180Y-58210498D01*
X220824482Y-58174188D01*
X220700000Y-58161928D01*
X219785750Y-58165000D01*
X219627000Y-58323750D01*
X219373000Y-58323750D01*
X219214250Y-58165000D01*
X218300000Y-58161928D01*
X218175518Y-58174188D01*
X218055820Y-58210498D01*
X217945506Y-58269463D01*
X217848815Y-58348815D01*
X217769463Y-58445506D01*
X217710498Y-58555820D01*
X217674188Y-58675518D01*
X217661928Y-58800000D01*
X212885824Y-58800000D01*
X212910380Y-58585477D01*
X212823097Y-57528322D01*
X212531251Y-56508508D01*
X212046056Y-55565225D01*
X211951079Y-55423083D01*
X211302658Y-54876947D01*
X207679605Y-58500000D01*
X207320395Y-58500000D01*
X203697342Y-54876947D01*
X203048921Y-55423083D01*
X202534171Y-56350567D01*
X202210254Y-57360653D01*
X202089620Y-58414523D01*
X193385000Y-58414523D01*
X193385000Y-57969624D01*
X193178058Y-56929253D01*
X192772125Y-55949246D01*
X192182803Y-55067262D01*
X191812883Y-54697342D01*
X203876947Y-54697342D01*
X207500000Y-58320395D01*
X211123053Y-54697342D01*
X210576917Y-54048921D01*
X209649433Y-53534171D01*
X208639347Y-53210254D01*
X207585477Y-53089620D01*
X206528322Y-53176903D01*
X205508508Y-53468749D01*
X204565225Y-53953944D01*
X204423083Y-54048921D01*
X203876947Y-54697342D01*
X191812883Y-54697342D01*
X191432738Y-54317197D01*
X190550754Y-53727875D01*
X189570747Y-53321942D01*
X188530376Y-53115000D01*
X187469624Y-53115000D01*
X186429253Y-53321942D01*
X185449246Y-53727875D01*
X184567262Y-54317197D01*
X183817197Y-55067262D01*
X183227875Y-55949246D01*
X182821942Y-56929253D01*
X182615000Y-57969624D01*
X163627000Y-57969624D01*
X163627000Y-42500000D01*
X163624560Y-42475224D01*
X163617333Y-42451399D01*
X163605597Y-42429443D01*
X163589803Y-42410197D01*
X163570557Y-42394403D01*
X163548601Y-42382667D01*
X163524776Y-42375440D01*
X163500000Y-42373000D01*
X148500000Y-42373000D01*
X148475224Y-42375440D01*
X148451399Y-42382667D01*
X148429443Y-42394403D01*
X148410197Y-42410197D01*
X148394403Y-42429443D01*
X148382667Y-42451399D01*
X148375440Y-42475224D01*
X148373000Y-42500000D01*
X127552248Y-42500000D01*
X128434775Y-42046056D01*
X128576917Y-41951079D01*
X129123053Y-41302658D01*
X125500000Y-37679605D01*
X121876947Y-41302658D01*
X109812883Y-41302658D01*
X110182803Y-40932738D01*
X110772125Y-40050754D01*
X111178058Y-39070747D01*
X111385000Y-38030376D01*
X111385000Y-37414523D01*
X120089620Y-37414523D01*
X120176903Y-38471678D01*
X120468749Y-39491492D01*
X120953944Y-40434775D01*
X121048921Y-40576917D01*
X121697342Y-41123053D01*
X125320395Y-37500000D01*
X125679605Y-37500000D01*
X129302658Y-41123053D01*
X129951079Y-40576917D01*
X130465829Y-39649433D01*
X130789746Y-38639347D01*
X130910380Y-37585477D01*
X130859533Y-36969624D01*
X182615000Y-36969624D01*
X182615000Y-38030376D01*
X182821942Y-39070747D01*
X183227875Y-40050754D01*
X183817197Y-40932738D01*
X184567262Y-41682803D01*
X185449246Y-42272125D01*
X186429253Y-42678058D01*
X187469624Y-42885000D01*
X188530376Y-42885000D01*
X189570747Y-42678058D01*
X190550754Y-42272125D01*
X191432738Y-41682803D01*
X191812883Y-41302658D01*
X203876947Y-41302658D01*
X204423083Y-41951079D01*
X205350567Y-42465829D01*
X206360653Y-42789746D01*
X207414523Y-42910380D01*
X208471678Y-42823097D01*
X209491492Y-42531251D01*
X209552248Y-42500000D01*
X230373000Y-42500000D01*
X230373000Y-69500000D01*
X230375440Y-69524776D01*
X230382667Y-69548601D01*
X230394403Y-69570557D01*
X230410197Y-69589803D01*
X230429443Y-69605597D01*
X230451399Y-69617333D01*
X230475224Y-69624560D01*
X230500000Y-69627000D01*
X245209698Y-69627000D01*
X245272038Y-69702962D01*
X245315001Y-69738220D01*
X245315001Y-71015375D01*
X245225518Y-71024188D01*
X245105820Y-71060498D01*
X244995506Y-71119463D01*
X244898815Y-71198815D01*
X244819463Y-71295506D01*
X244760498Y-71405820D01*
X244724188Y-71525518D01*
X244711928Y-71650000D01*
X244711928Y-73350000D01*
X244724188Y-73474482D01*
X244760498Y-73594180D01*
X244819463Y-73704494D01*
X244898815Y-73801185D01*
X244995506Y-73880537D01*
X245105820Y-73939502D01*
X245225518Y-73975812D01*
X245350000Y-73988072D01*
X247050000Y-73988072D01*
X247174482Y-73975812D01*
X247294180Y-73939502D01*
X247404494Y-73880537D01*
X247501185Y-73801185D01*
X247580537Y-73704494D01*
X247639502Y-73594180D01*
X247661513Y-73521620D01*
X247793368Y-73653475D01*
X248036589Y-73815990D01*
X248306842Y-73927932D01*
X248593740Y-73985000D01*
X248886260Y-73985000D01*
X249173158Y-73927932D01*
X249443411Y-73815990D01*
X249686632Y-73653475D01*
X249893475Y-73446632D01*
X250055990Y-73203411D01*
X250167932Y-72933158D01*
X250225000Y-72646260D01*
X250225000Y-72353740D01*
X250167932Y-72066842D01*
X250055990Y-71796589D01*
X249893475Y-71553368D01*
X249686632Y-71346525D01*
X249443411Y-71184010D01*
X249173158Y-71072068D01*
X248910000Y-71019722D01*
X248910000Y-69717703D01*
X248927962Y-69702962D01*
X249038405Y-69568386D01*
X249120472Y-69414850D01*
X249171008Y-69248254D01*
X249188072Y-69075000D01*
X249188072Y-68125000D01*
X249171008Y-67951746D01*
X249120472Y-67785150D01*
X249038405Y-67631614D01*
X248995952Y-67579885D01*
X249025905Y-67543387D01*
X249107972Y-67389851D01*
X249158508Y-67223255D01*
X249175572Y-67050001D01*
X249175572Y-66149999D01*
X249158508Y-65976745D01*
X249107972Y-65810149D01*
X249025905Y-65656613D01*
X248915462Y-65522038D01*
X248780887Y-65411595D01*
X248627351Y-65329528D01*
X248460755Y-65278992D01*
X248287501Y-65261928D01*
X247762499Y-65261928D01*
X247589245Y-65278992D01*
X247422649Y-65329528D01*
X247269113Y-65411595D01*
X247134538Y-65522038D01*
X247112500Y-65548891D01*
X247090462Y-65522038D01*
X246955887Y-65411595D01*
X246802351Y-65329528D01*
X246635755Y-65278992D01*
X246462501Y-65261928D01*
X245937499Y-65261928D01*
X245764245Y-65278992D01*
X245627000Y-65320625D01*
X245627000Y-61200000D01*
X250161928Y-61200000D01*
X250174188Y-61324482D01*
X250210498Y-61444180D01*
X250269463Y-61554494D01*
X250348815Y-61651185D01*
X250445506Y-61730537D01*
X250555820Y-61789502D01*
X250675518Y-61825812D01*
X250800000Y-61838072D01*
X251714250Y-61835000D01*
X251873000Y-61676250D01*
X251873000Y-60127000D01*
X252127000Y-60127000D01*
X252127000Y-61676250D01*
X252285750Y-61835000D01*
X253200000Y-61838072D01*
X253324482Y-61825812D01*
X253444180Y-61789502D01*
X253554494Y-61730537D01*
X253651185Y-61651185D01*
X253730537Y-61554494D01*
X253789502Y-61444180D01*
X253825812Y-61324482D01*
X253838072Y-61200000D01*
X253835000Y-60285750D01*
X253676250Y-60127000D01*
X252127000Y-60127000D01*
X251873000Y-60127000D01*
X250323750Y-60127000D01*
X250165000Y-60285750D01*
X250161928Y-61200000D01*
X245627000Y-61200000D01*
X245627000Y-58800000D01*
X250161928Y-58800000D01*
X250165000Y-59714250D01*
X250323750Y-59873000D01*
X251873000Y-59873000D01*
X251873000Y-58323750D01*
X252127000Y-58323750D01*
X252127000Y-59873000D01*
X253676250Y-59873000D01*
X253729982Y-59819268D01*
X255165000Y-59819268D01*
X255165000Y-60180732D01*
X255235518Y-60535250D01*
X255373844Y-60869199D01*
X255574662Y-61169744D01*
X255830256Y-61425338D01*
X256130801Y-61626156D01*
X256464750Y-61764482D01*
X256819268Y-61835000D01*
X257180732Y-61835000D01*
X257535250Y-61764482D01*
X257869199Y-61626156D01*
X258169744Y-61425338D01*
X258425338Y-61169744D01*
X258626156Y-60869199D01*
X258764482Y-60535250D01*
X258835000Y-60180732D01*
X258835000Y-59819268D01*
X258764482Y-59464750D01*
X258626156Y-59130801D01*
X258425338Y-58830256D01*
X258169744Y-58574662D01*
X257869199Y-58373844D01*
X257535250Y-58235518D01*
X257180732Y-58165000D01*
X256819268Y-58165000D01*
X256464750Y-58235518D01*
X256130801Y-58373844D01*
X255830256Y-58574662D01*
X255574662Y-58830256D01*
X255373844Y-59130801D01*
X255235518Y-59464750D01*
X255165000Y-59819268D01*
X253729982Y-59819268D01*
X253835000Y-59714250D01*
X253838072Y-58800000D01*
X253825812Y-58675518D01*
X253789502Y-58555820D01*
X253730537Y-58445506D01*
X253651185Y-58348815D01*
X253554494Y-58269463D01*
X253444180Y-58210498D01*
X253324482Y-58174188D01*
X253200000Y-58161928D01*
X252285750Y-58165000D01*
X252127000Y-58323750D01*
X251873000Y-58323750D01*
X251714250Y-58165000D01*
X250800000Y-58161928D01*
X250675518Y-58174188D01*
X250555820Y-58210498D01*
X250445506Y-58269463D01*
X250348815Y-58348815D01*
X250269463Y-58445506D01*
X250210498Y-58555820D01*
X250174188Y-58675518D01*
X250161928Y-58800000D01*
X245627000Y-58800000D01*
X245627000Y-57969624D01*
X264615000Y-57969624D01*
X264615000Y-59030376D01*
X264821942Y-60070747D01*
X265227875Y-61050754D01*
X265817197Y-61932738D01*
X266567262Y-62682803D01*
X267449246Y-63272125D01*
X268429253Y-63678058D01*
X269469624Y-63885000D01*
X270530376Y-63885000D01*
X271570747Y-63678058D01*
X272550754Y-63272125D01*
X273432738Y-62682803D01*
X274182803Y-61932738D01*
X274772125Y-61050754D01*
X275178058Y-60070747D01*
X275385000Y-59030376D01*
X275385000Y-57969624D01*
X275178058Y-56929253D01*
X274772125Y-55949246D01*
X274182803Y-55067262D01*
X273432738Y-54317197D01*
X272550754Y-53727875D01*
X271570747Y-53321942D01*
X270530376Y-53115000D01*
X269469624Y-53115000D01*
X268429253Y-53321942D01*
X267449246Y-53727875D01*
X266567262Y-54317197D01*
X265817197Y-55067262D01*
X265227875Y-55949246D01*
X264821942Y-56929253D01*
X264615000Y-57969624D01*
X245627000Y-57969624D01*
X245627000Y-42500000D01*
X245624560Y-42475224D01*
X245617333Y-42451399D01*
X245605597Y-42429443D01*
X245589803Y-42410197D01*
X245570557Y-42394403D01*
X245548601Y-42382667D01*
X245524776Y-42375440D01*
X245500000Y-42373000D01*
X230500000Y-42373000D01*
X230475224Y-42375440D01*
X230451399Y-42382667D01*
X230429443Y-42394403D01*
X230410197Y-42410197D01*
X230394403Y-42429443D01*
X230382667Y-42451399D01*
X230375440Y-42475224D01*
X230373000Y-42500000D01*
X209552248Y-42500000D01*
X210434775Y-42046056D01*
X210576917Y-41951079D01*
X211123053Y-41302658D01*
X207500000Y-37679605D01*
X203876947Y-41302658D01*
X191812883Y-41302658D01*
X192182803Y-40932738D01*
X192772125Y-40050754D01*
X193178058Y-39070747D01*
X193385000Y-38030376D01*
X193385000Y-37414523D01*
X202089620Y-37414523D01*
X202176903Y-38471678D01*
X202468749Y-39491492D01*
X202953944Y-40434775D01*
X203048921Y-40576917D01*
X203697342Y-41123053D01*
X207320395Y-37500000D01*
X207679605Y-37500000D01*
X211302658Y-41123053D01*
X211951079Y-40576917D01*
X212465829Y-39649433D01*
X212789746Y-38639347D01*
X212910380Y-37585477D01*
X212859533Y-36969624D01*
X264615000Y-36969624D01*
X264615000Y-38030376D01*
X264821942Y-39070747D01*
X265227875Y-40050754D01*
X265817197Y-40932738D01*
X266567262Y-41682803D01*
X267449246Y-42272125D01*
X268429253Y-42678058D01*
X269469624Y-42885000D01*
X270530376Y-42885000D01*
X271570747Y-42678058D01*
X272550754Y-42272125D01*
X273432738Y-41682803D01*
X274182803Y-40932738D01*
X274772125Y-40050754D01*
X275178058Y-39070747D01*
X275385000Y-38030376D01*
X275385000Y-36969624D01*
X275178058Y-35929253D01*
X274772125Y-34949246D01*
X274182803Y-34067262D01*
X273432738Y-33317197D01*
X272550754Y-32727875D01*
X271570747Y-32321942D01*
X270530376Y-32115000D01*
X269469624Y-32115000D01*
X268429253Y-32321942D01*
X267449246Y-32727875D01*
X266567262Y-33317197D01*
X265817197Y-34067262D01*
X265227875Y-34949246D01*
X264821942Y-35929253D01*
X264615000Y-36969624D01*
X212859533Y-36969624D01*
X212823097Y-36528322D01*
X212531251Y-35508508D01*
X212046056Y-34565225D01*
X211951079Y-34423083D01*
X211302658Y-33876947D01*
X207679605Y-37500000D01*
X207320395Y-37500000D01*
X203697342Y-33876947D01*
X203048921Y-34423083D01*
X202534171Y-35350567D01*
X202210254Y-36360653D01*
X202089620Y-37414523D01*
X193385000Y-37414523D01*
X193385000Y-36969624D01*
X193178058Y-35929253D01*
X192772125Y-34949246D01*
X192182803Y-34067262D01*
X191812883Y-33697342D01*
X203876947Y-33697342D01*
X207500000Y-37320395D01*
X211123053Y-33697342D01*
X210576917Y-33048921D01*
X209649433Y-32534171D01*
X208639347Y-32210254D01*
X208549768Y-32200000D01*
X217661928Y-32200000D01*
X217674188Y-32324482D01*
X217710498Y-32444180D01*
X217769463Y-32554494D01*
X217848815Y-32651185D01*
X217945506Y-32730537D01*
X218055820Y-32789502D01*
X218175518Y-32825812D01*
X218300000Y-32838072D01*
X219214250Y-32835000D01*
X219373000Y-32676250D01*
X219373000Y-31127000D01*
X219627000Y-31127000D01*
X219627000Y-32676250D01*
X219785750Y-32835000D01*
X220700000Y-32838072D01*
X220824482Y-32825812D01*
X220944180Y-32789502D01*
X221054494Y-32730537D01*
X221151185Y-32651185D01*
X221230537Y-32554494D01*
X221289502Y-32444180D01*
X221325812Y-32324482D01*
X221338072Y-32200000D01*
X221335000Y-31285750D01*
X221176250Y-31127000D01*
X219627000Y-31127000D01*
X219373000Y-31127000D01*
X217823750Y-31127000D01*
X217665000Y-31285750D01*
X217661928Y-32200000D01*
X208549768Y-32200000D01*
X207585477Y-32089620D01*
X206528322Y-32176903D01*
X205508508Y-32468749D01*
X204565225Y-32953944D01*
X204423083Y-33048921D01*
X203876947Y-33697342D01*
X191812883Y-33697342D01*
X191432738Y-33317197D01*
X190550754Y-32727875D01*
X189570747Y-32321942D01*
X188530376Y-32115000D01*
X187469624Y-32115000D01*
X186429253Y-32321942D01*
X185449246Y-32727875D01*
X184567262Y-33317197D01*
X183817197Y-34067262D01*
X183227875Y-34949246D01*
X182821942Y-35929253D01*
X182615000Y-36969624D01*
X130859533Y-36969624D01*
X130823097Y-36528322D01*
X130531251Y-35508508D01*
X130046056Y-34565225D01*
X129951079Y-34423083D01*
X129302658Y-33876947D01*
X125679605Y-37500000D01*
X125320395Y-37500000D01*
X121697342Y-33876947D01*
X121048921Y-34423083D01*
X120534171Y-35350567D01*
X120210254Y-36360653D01*
X120089620Y-37414523D01*
X111385000Y-37414523D01*
X111385000Y-36969624D01*
X111178058Y-35929253D01*
X110772125Y-34949246D01*
X110182803Y-34067262D01*
X109812883Y-33697342D01*
X121876947Y-33697342D01*
X125500000Y-37320395D01*
X129123053Y-33697342D01*
X128576917Y-33048921D01*
X127649433Y-32534171D01*
X126639347Y-32210254D01*
X126549768Y-32200000D01*
X136161928Y-32200000D01*
X136174188Y-32324482D01*
X136210498Y-32444180D01*
X136269463Y-32554494D01*
X136348815Y-32651185D01*
X136445506Y-32730537D01*
X136555820Y-32789502D01*
X136675518Y-32825812D01*
X136800000Y-32838072D01*
X137714250Y-32835000D01*
X137873000Y-32676250D01*
X137873000Y-31127000D01*
X138127000Y-31127000D01*
X138127000Y-32676250D01*
X138285750Y-32835000D01*
X139200000Y-32838072D01*
X139324482Y-32825812D01*
X139444180Y-32789502D01*
X139554494Y-32730537D01*
X139651185Y-32651185D01*
X139730537Y-32554494D01*
X139789502Y-32444180D01*
X139825812Y-32324482D01*
X139838072Y-32200000D01*
X139835000Y-31285750D01*
X139676250Y-31127000D01*
X138127000Y-31127000D01*
X137873000Y-31127000D01*
X136323750Y-31127000D01*
X136165000Y-31285750D01*
X136161928Y-32200000D01*
X126549768Y-32200000D01*
X125585477Y-32089620D01*
X124528322Y-32176903D01*
X123508508Y-32468749D01*
X122565225Y-32953944D01*
X122423083Y-33048921D01*
X121876947Y-33697342D01*
X109812883Y-33697342D01*
X109432738Y-33317197D01*
X108550754Y-32727875D01*
X107570747Y-32321942D01*
X106530376Y-32115000D01*
X105469624Y-32115000D01*
X104429253Y-32321942D01*
X103449246Y-32727875D01*
X102567262Y-33317197D01*
X101817197Y-34067262D01*
X101227875Y-34949246D01*
X100821942Y-35929253D01*
X100615000Y-36969624D01*
X48859533Y-36969624D01*
X48823097Y-36528322D01*
X48531251Y-35508508D01*
X48046056Y-34565225D01*
X47951079Y-34423083D01*
X47302658Y-33876947D01*
X43679605Y-37500000D01*
X43320395Y-37500000D01*
X39697342Y-33876947D01*
X39048921Y-34423083D01*
X38534171Y-35350567D01*
X38210254Y-36360653D01*
X38089620Y-37414523D01*
X33407521Y-37414523D01*
X33266994Y-36921536D01*
X32760302Y-35933933D01*
X32654365Y-35775387D01*
X31980339Y-35199266D01*
X28179605Y-39000000D01*
X27820395Y-39000000D01*
X24019661Y-35199266D01*
X23345635Y-35775387D01*
X22805976Y-36745368D01*
X22465921Y-37801994D01*
X22338538Y-38904659D01*
X20660000Y-38904659D01*
X20660000Y-35019661D01*
X24199266Y-35019661D01*
X28000000Y-38820395D01*
X31800734Y-35019661D01*
X31224613Y-34345635D01*
X30254632Y-33805976D01*
X29917083Y-33697342D01*
X39876947Y-33697342D01*
X43500000Y-37320395D01*
X47123053Y-33697342D01*
X46576917Y-33048921D01*
X45649433Y-32534171D01*
X44639347Y-32210254D01*
X44549768Y-32200000D01*
X54161928Y-32200000D01*
X54174188Y-32324482D01*
X54210498Y-32444180D01*
X54269463Y-32554494D01*
X54348815Y-32651185D01*
X54445506Y-32730537D01*
X54555820Y-32789502D01*
X54675518Y-32825812D01*
X54800000Y-32838072D01*
X55714250Y-32835000D01*
X55873000Y-32676250D01*
X55873000Y-31127000D01*
X56127000Y-31127000D01*
X56127000Y-32676250D01*
X56285750Y-32835000D01*
X57200000Y-32838072D01*
X57324482Y-32825812D01*
X57444180Y-32789502D01*
X57554494Y-32730537D01*
X57651185Y-32651185D01*
X57730537Y-32554494D01*
X57789502Y-32444180D01*
X57825812Y-32324482D01*
X57838072Y-32200000D01*
X57835000Y-31285750D01*
X57676250Y-31127000D01*
X56127000Y-31127000D01*
X55873000Y-31127000D01*
X54323750Y-31127000D01*
X54165000Y-31285750D01*
X54161928Y-32200000D01*
X44549768Y-32200000D01*
X43585477Y-32089620D01*
X42528322Y-32176903D01*
X41508508Y-32468749D01*
X40565225Y-32953944D01*
X40423083Y-33048921D01*
X39876947Y-33697342D01*
X29917083Y-33697342D01*
X29198006Y-33465921D01*
X28095341Y-33338538D01*
X26989013Y-33428721D01*
X25921536Y-33733006D01*
X24933933Y-34239698D01*
X24775387Y-34345635D01*
X24199266Y-35019661D01*
X20660000Y-35019661D01*
X20660000Y-30980339D01*
X24199266Y-30980339D01*
X24775387Y-31654365D01*
X25745368Y-32194024D01*
X26801994Y-32534079D01*
X27904659Y-32661462D01*
X29010987Y-32571279D01*
X30078464Y-32266994D01*
X31066067Y-31760302D01*
X31224613Y-31654365D01*
X31800734Y-30980339D01*
X28000000Y-27179605D01*
X24199266Y-30980339D01*
X20660000Y-30980339D01*
X20660000Y-26904659D01*
X22338538Y-26904659D01*
X22428721Y-28010987D01*
X22733006Y-29078464D01*
X23239698Y-30066067D01*
X23345635Y-30224613D01*
X24019661Y-30800734D01*
X27820395Y-27000000D01*
X28179605Y-27000000D01*
X31980339Y-30800734D01*
X32654365Y-30224613D01*
X32890602Y-29800000D01*
X54161928Y-29800000D01*
X54165000Y-30714250D01*
X54323750Y-30873000D01*
X55873000Y-30873000D01*
X55873000Y-29323750D01*
X56127000Y-29323750D01*
X56127000Y-30873000D01*
X57676250Y-30873000D01*
X57729982Y-30819268D01*
X59165000Y-30819268D01*
X59165000Y-31180732D01*
X59235518Y-31535250D01*
X59373844Y-31869199D01*
X59574662Y-32169744D01*
X59830256Y-32425338D01*
X60130801Y-32626156D01*
X60464750Y-32764482D01*
X60819268Y-32835000D01*
X61180732Y-32835000D01*
X61535250Y-32764482D01*
X61869199Y-32626156D01*
X62169744Y-32425338D01*
X62395082Y-32200000D01*
X86661928Y-32200000D01*
X86674188Y-32324482D01*
X86710498Y-32444180D01*
X86769463Y-32554494D01*
X86848815Y-32651185D01*
X86945506Y-32730537D01*
X87055820Y-32789502D01*
X87175518Y-32825812D01*
X87300000Y-32838072D01*
X88214250Y-32835000D01*
X88373000Y-32676250D01*
X88373000Y-31127000D01*
X88627000Y-31127000D01*
X88627000Y-32676250D01*
X88785750Y-32835000D01*
X89700000Y-32838072D01*
X89824482Y-32825812D01*
X89944180Y-32789502D01*
X90054494Y-32730537D01*
X90151185Y-32651185D01*
X90230537Y-32554494D01*
X90289502Y-32444180D01*
X90325812Y-32324482D01*
X90338072Y-32200000D01*
X90335000Y-31285750D01*
X90176250Y-31127000D01*
X88627000Y-31127000D01*
X88373000Y-31127000D01*
X86823750Y-31127000D01*
X86665000Y-31285750D01*
X86661928Y-32200000D01*
X62395082Y-32200000D01*
X62425338Y-32169744D01*
X62626156Y-31869199D01*
X62764482Y-31535250D01*
X62835000Y-31180732D01*
X62835000Y-30819268D01*
X62764482Y-30464750D01*
X62626156Y-30130801D01*
X62425338Y-29830256D01*
X62395082Y-29800000D01*
X86661928Y-29800000D01*
X86665000Y-30714250D01*
X86823750Y-30873000D01*
X88373000Y-30873000D01*
X88373000Y-29323750D01*
X88627000Y-29323750D01*
X88627000Y-30873000D01*
X90176250Y-30873000D01*
X90229982Y-30819268D01*
X91665000Y-30819268D01*
X91665000Y-31180732D01*
X91735518Y-31535250D01*
X91873844Y-31869199D01*
X92074662Y-32169744D01*
X92330256Y-32425338D01*
X92630801Y-32626156D01*
X92964750Y-32764482D01*
X93319268Y-32835000D01*
X93680732Y-32835000D01*
X94035250Y-32764482D01*
X94369199Y-32626156D01*
X94669744Y-32425338D01*
X94925338Y-32169744D01*
X95126156Y-31869199D01*
X95264482Y-31535250D01*
X95335000Y-31180732D01*
X95335000Y-30819268D01*
X95264482Y-30464750D01*
X95126156Y-30130801D01*
X94925338Y-29830256D01*
X94895082Y-29800000D01*
X136161928Y-29800000D01*
X136165000Y-30714250D01*
X136323750Y-30873000D01*
X137873000Y-30873000D01*
X137873000Y-29323750D01*
X138127000Y-29323750D01*
X138127000Y-30873000D01*
X139676250Y-30873000D01*
X139729982Y-30819268D01*
X141165000Y-30819268D01*
X141165000Y-31180732D01*
X141235518Y-31535250D01*
X141373844Y-31869199D01*
X141574662Y-32169744D01*
X141830256Y-32425338D01*
X142130801Y-32626156D01*
X142464750Y-32764482D01*
X142819268Y-32835000D01*
X143180732Y-32835000D01*
X143535250Y-32764482D01*
X143869199Y-32626156D01*
X144169744Y-32425338D01*
X144395082Y-32200000D01*
X168661928Y-32200000D01*
X168674188Y-32324482D01*
X168710498Y-32444180D01*
X168769463Y-32554494D01*
X168848815Y-32651185D01*
X168945506Y-32730537D01*
X169055820Y-32789502D01*
X169175518Y-32825812D01*
X169300000Y-32838072D01*
X170214250Y-32835000D01*
X170373000Y-32676250D01*
X170373000Y-31127000D01*
X170627000Y-31127000D01*
X170627000Y-32676250D01*
X170785750Y-32835000D01*
X171700000Y-32838072D01*
X171824482Y-32825812D01*
X171944180Y-32789502D01*
X172054494Y-32730537D01*
X172151185Y-32651185D01*
X172230537Y-32554494D01*
X172289502Y-32444180D01*
X172325812Y-32324482D01*
X172338072Y-32200000D01*
X172335000Y-31285750D01*
X172176250Y-31127000D01*
X170627000Y-31127000D01*
X170373000Y-31127000D01*
X168823750Y-31127000D01*
X168665000Y-31285750D01*
X168661928Y-32200000D01*
X144395082Y-32200000D01*
X144425338Y-32169744D01*
X144626156Y-31869199D01*
X144764482Y-31535250D01*
X144835000Y-31180732D01*
X144835000Y-30819268D01*
X144764482Y-30464750D01*
X144626156Y-30130801D01*
X144425338Y-29830256D01*
X144395082Y-29800000D01*
X168661928Y-29800000D01*
X168665000Y-30714250D01*
X168823750Y-30873000D01*
X170373000Y-30873000D01*
X170373000Y-29323750D01*
X170627000Y-29323750D01*
X170627000Y-30873000D01*
X172176250Y-30873000D01*
X172229982Y-30819268D01*
X173665000Y-30819268D01*
X173665000Y-31180732D01*
X173735518Y-31535250D01*
X173873844Y-31869199D01*
X174074662Y-32169744D01*
X174330256Y-32425338D01*
X174630801Y-32626156D01*
X174964750Y-32764482D01*
X175319268Y-32835000D01*
X175680732Y-32835000D01*
X176035250Y-32764482D01*
X176369199Y-32626156D01*
X176669744Y-32425338D01*
X176925338Y-32169744D01*
X177126156Y-31869199D01*
X177264482Y-31535250D01*
X177335000Y-31180732D01*
X177335000Y-30819268D01*
X177264482Y-30464750D01*
X177126156Y-30130801D01*
X176925338Y-29830256D01*
X176895082Y-29800000D01*
X217661928Y-29800000D01*
X217665000Y-30714250D01*
X217823750Y-30873000D01*
X219373000Y-30873000D01*
X219373000Y-29323750D01*
X219627000Y-29323750D01*
X219627000Y-30873000D01*
X221176250Y-30873000D01*
X221229982Y-30819268D01*
X222665000Y-30819268D01*
X222665000Y-31180732D01*
X222735518Y-31535250D01*
X222873844Y-31869199D01*
X223074662Y-32169744D01*
X223330256Y-32425338D01*
X223630801Y-32626156D01*
X223964750Y-32764482D01*
X224319268Y-32835000D01*
X224680732Y-32835000D01*
X225035250Y-32764482D01*
X225369199Y-32626156D01*
X225669744Y-32425338D01*
X225895082Y-32200000D01*
X250161928Y-32200000D01*
X250174188Y-32324482D01*
X250210498Y-32444180D01*
X250269463Y-32554494D01*
X250348815Y-32651185D01*
X250445506Y-32730537D01*
X250555820Y-32789502D01*
X250675518Y-32825812D01*
X250800000Y-32838072D01*
X251714250Y-32835000D01*
X251873000Y-32676250D01*
X251873000Y-31127000D01*
X252127000Y-31127000D01*
X252127000Y-32676250D01*
X252285750Y-32835000D01*
X253200000Y-32838072D01*
X253324482Y-32825812D01*
X253444180Y-32789502D01*
X253554494Y-32730537D01*
X253651185Y-32651185D01*
X253730537Y-32554494D01*
X253789502Y-32444180D01*
X253825812Y-32324482D01*
X253838072Y-32200000D01*
X253835000Y-31285750D01*
X253676250Y-31127000D01*
X252127000Y-31127000D01*
X251873000Y-31127000D01*
X250323750Y-31127000D01*
X250165000Y-31285750D01*
X250161928Y-32200000D01*
X225895082Y-32200000D01*
X225925338Y-32169744D01*
X226126156Y-31869199D01*
X226264482Y-31535250D01*
X226335000Y-31180732D01*
X226335000Y-30819268D01*
X226264482Y-30464750D01*
X226126156Y-30130801D01*
X225925338Y-29830256D01*
X225895082Y-29800000D01*
X250161928Y-29800000D01*
X250165000Y-30714250D01*
X250323750Y-30873000D01*
X251873000Y-30873000D01*
X251873000Y-29323750D01*
X252127000Y-29323750D01*
X252127000Y-30873000D01*
X253676250Y-30873000D01*
X253729982Y-30819268D01*
X255165000Y-30819268D01*
X255165000Y-31180732D01*
X255235518Y-31535250D01*
X255373844Y-31869199D01*
X255574662Y-32169744D01*
X255830256Y-32425338D01*
X256130801Y-32626156D01*
X256464750Y-32764482D01*
X256819268Y-32835000D01*
X257180732Y-32835000D01*
X257535250Y-32764482D01*
X257869199Y-32626156D01*
X258169744Y-32425338D01*
X258425338Y-32169744D01*
X258626156Y-31869199D01*
X258764482Y-31535250D01*
X258835000Y-31180732D01*
X258835000Y-30819268D01*
X258764482Y-30464750D01*
X258626156Y-30130801D01*
X258425338Y-29830256D01*
X258169744Y-29574662D01*
X257869199Y-29373844D01*
X257535250Y-29235518D01*
X257180732Y-29165000D01*
X256819268Y-29165000D01*
X256464750Y-29235518D01*
X256130801Y-29373844D01*
X255830256Y-29574662D01*
X255574662Y-29830256D01*
X255373844Y-30130801D01*
X255235518Y-30464750D01*
X255165000Y-30819268D01*
X253729982Y-30819268D01*
X253835000Y-30714250D01*
X253838072Y-29800000D01*
X253825812Y-29675518D01*
X253789502Y-29555820D01*
X253730537Y-29445506D01*
X253651185Y-29348815D01*
X253554494Y-29269463D01*
X253444180Y-29210498D01*
X253324482Y-29174188D01*
X253200000Y-29161928D01*
X252285750Y-29165000D01*
X252127000Y-29323750D01*
X251873000Y-29323750D01*
X251714250Y-29165000D01*
X250800000Y-29161928D01*
X250675518Y-29174188D01*
X250555820Y-29210498D01*
X250445506Y-29269463D01*
X250348815Y-29348815D01*
X250269463Y-29445506D01*
X250210498Y-29555820D01*
X250174188Y-29675518D01*
X250161928Y-29800000D01*
X225895082Y-29800000D01*
X225669744Y-29574662D01*
X225369199Y-29373844D01*
X225035250Y-29235518D01*
X224680732Y-29165000D01*
X224319268Y-29165000D01*
X223964750Y-29235518D01*
X223630801Y-29373844D01*
X223330256Y-29574662D01*
X223074662Y-29830256D01*
X222873844Y-30130801D01*
X222735518Y-30464750D01*
X222665000Y-30819268D01*
X221229982Y-30819268D01*
X221335000Y-30714250D01*
X221338072Y-29800000D01*
X221325812Y-29675518D01*
X221289502Y-29555820D01*
X221230537Y-29445506D01*
X221151185Y-29348815D01*
X221054494Y-29269463D01*
X220944180Y-29210498D01*
X220824482Y-29174188D01*
X220700000Y-29161928D01*
X219785750Y-29165000D01*
X219627000Y-29323750D01*
X219373000Y-29323750D01*
X219214250Y-29165000D01*
X218300000Y-29161928D01*
X218175518Y-29174188D01*
X218055820Y-29210498D01*
X217945506Y-29269463D01*
X217848815Y-29348815D01*
X217769463Y-29445506D01*
X217710498Y-29555820D01*
X217674188Y-29675518D01*
X217661928Y-29800000D01*
X176895082Y-29800000D01*
X176669744Y-29574662D01*
X176369199Y-29373844D01*
X176035250Y-29235518D01*
X175680732Y-29165000D01*
X175319268Y-29165000D01*
X174964750Y-29235518D01*
X174630801Y-29373844D01*
X174330256Y-29574662D01*
X174074662Y-29830256D01*
X173873844Y-30130801D01*
X173735518Y-30464750D01*
X173665000Y-30819268D01*
X172229982Y-30819268D01*
X172335000Y-30714250D01*
X172338072Y-29800000D01*
X172325812Y-29675518D01*
X172289502Y-29555820D01*
X172230537Y-29445506D01*
X172151185Y-29348815D01*
X172054494Y-29269463D01*
X171944180Y-29210498D01*
X171824482Y-29174188D01*
X171700000Y-29161928D01*
X170785750Y-29165000D01*
X170627000Y-29323750D01*
X170373000Y-29323750D01*
X170214250Y-29165000D01*
X169300000Y-29161928D01*
X169175518Y-29174188D01*
X169055820Y-29210498D01*
X168945506Y-29269463D01*
X168848815Y-29348815D01*
X168769463Y-29445506D01*
X168710498Y-29555820D01*
X168674188Y-29675518D01*
X168661928Y-29800000D01*
X144395082Y-29800000D01*
X144169744Y-29574662D01*
X143869199Y-29373844D01*
X143535250Y-29235518D01*
X143180732Y-29165000D01*
X142819268Y-29165000D01*
X142464750Y-29235518D01*
X142130801Y-29373844D01*
X141830256Y-29574662D01*
X141574662Y-29830256D01*
X141373844Y-30130801D01*
X141235518Y-30464750D01*
X141165000Y-30819268D01*
X139729982Y-30819268D01*
X139835000Y-30714250D01*
X139838072Y-29800000D01*
X139825812Y-29675518D01*
X139789502Y-29555820D01*
X139730537Y-29445506D01*
X139651185Y-29348815D01*
X139554494Y-29269463D01*
X139444180Y-29210498D01*
X139324482Y-29174188D01*
X139200000Y-29161928D01*
X138285750Y-29165000D01*
X138127000Y-29323750D01*
X137873000Y-29323750D01*
X137714250Y-29165000D01*
X136800000Y-29161928D01*
X136675518Y-29174188D01*
X136555820Y-29210498D01*
X136445506Y-29269463D01*
X136348815Y-29348815D01*
X136269463Y-29445506D01*
X136210498Y-29555820D01*
X136174188Y-29675518D01*
X136161928Y-29800000D01*
X94895082Y-29800000D01*
X94669744Y-29574662D01*
X94369199Y-29373844D01*
X94035250Y-29235518D01*
X93680732Y-29165000D01*
X93319268Y-29165000D01*
X92964750Y-29235518D01*
X92630801Y-29373844D01*
X92330256Y-29574662D01*
X92074662Y-29830256D01*
X91873844Y-30130801D01*
X91735518Y-30464750D01*
X91665000Y-30819268D01*
X90229982Y-30819268D01*
X90335000Y-30714250D01*
X90338072Y-29800000D01*
X90325812Y-29675518D01*
X90289502Y-29555820D01*
X90230537Y-29445506D01*
X90151185Y-29348815D01*
X90054494Y-29269463D01*
X89944180Y-29210498D01*
X89824482Y-29174188D01*
X89700000Y-29161928D01*
X88785750Y-29165000D01*
X88627000Y-29323750D01*
X88373000Y-29323750D01*
X88214250Y-29165000D01*
X87300000Y-29161928D01*
X87175518Y-29174188D01*
X87055820Y-29210498D01*
X86945506Y-29269463D01*
X86848815Y-29348815D01*
X86769463Y-29445506D01*
X86710498Y-29555820D01*
X86674188Y-29675518D01*
X86661928Y-29800000D01*
X62395082Y-29800000D01*
X62169744Y-29574662D01*
X61869199Y-29373844D01*
X61535250Y-29235518D01*
X61180732Y-29165000D01*
X60819268Y-29165000D01*
X60464750Y-29235518D01*
X60130801Y-29373844D01*
X59830256Y-29574662D01*
X59574662Y-29830256D01*
X59373844Y-30130801D01*
X59235518Y-30464750D01*
X59165000Y-30819268D01*
X57729982Y-30819268D01*
X57835000Y-30714250D01*
X57838072Y-29800000D01*
X57825812Y-29675518D01*
X57789502Y-29555820D01*
X57730537Y-29445506D01*
X57651185Y-29348815D01*
X57554494Y-29269463D01*
X57444180Y-29210498D01*
X57324482Y-29174188D01*
X57200000Y-29161928D01*
X56285750Y-29165000D01*
X56127000Y-29323750D01*
X55873000Y-29323750D01*
X55714250Y-29165000D01*
X54800000Y-29161928D01*
X54675518Y-29174188D01*
X54555820Y-29210498D01*
X54445506Y-29269463D01*
X54348815Y-29348815D01*
X54269463Y-29445506D01*
X54210498Y-29555820D01*
X54174188Y-29675518D01*
X54161928Y-29800000D01*
X32890602Y-29800000D01*
X33194024Y-29254632D01*
X33534079Y-28198006D01*
X33661462Y-27095341D01*
X33571279Y-25989013D01*
X33266994Y-24921536D01*
X32760302Y-23933933D01*
X32654365Y-23775387D01*
X31980339Y-23199266D01*
X28179605Y-27000000D01*
X27820395Y-27000000D01*
X24019661Y-23199266D01*
X23345635Y-23775387D01*
X22805976Y-24745368D01*
X22465921Y-25801994D01*
X22338538Y-26904659D01*
X20660000Y-26904659D01*
X20660000Y-23019661D01*
X24199266Y-23019661D01*
X28000000Y-26820395D01*
X31800734Y-23019661D01*
X31224613Y-22345635D01*
X30254632Y-21805976D01*
X29198006Y-21465921D01*
X28095341Y-21338538D01*
X26989013Y-21428721D01*
X25921536Y-21733006D01*
X24933933Y-22239698D01*
X24775387Y-22345635D01*
X24199266Y-23019661D01*
X20660000Y-23019661D01*
X20660000Y-20660000D01*
X279340000Y-20660000D01*
X279340001Y-74340000D01*
G36*
X34873000Y-74340000D02*
G01*
X20660000Y-74340000D01*
X20660000Y-48127000D01*
X34873000Y-48127000D01*
X34873000Y-74340000D01*
G37*
X34873000Y-74340000D02*
X20660000Y-74340000D01*
X20660000Y-48127000D01*
X34873000Y-48127000D01*
X34873000Y-74340000D01*
G36*
X79373000Y-67373000D02*
G01*
X68627000Y-67373000D01*
X68627000Y-44627000D01*
X79373000Y-44627000D01*
X79373000Y-67373000D01*
G37*
X79373000Y-67373000D02*
X68627000Y-67373000D01*
X68627000Y-44627000D01*
X79373000Y-44627000D01*
X79373000Y-67373000D01*
G36*
X161373000Y-67373000D02*
G01*
X150627000Y-67373000D01*
X150627000Y-44627000D01*
X161373000Y-44627000D01*
X161373000Y-67373000D01*
G37*
X161373000Y-67373000D02*
X150627000Y-67373000D01*
X150627000Y-44627000D01*
X161373000Y-44627000D01*
X161373000Y-67373000D01*
G36*
X243373000Y-67373000D02*
G01*
X232627000Y-67373000D01*
X232627000Y-44627000D01*
X243373000Y-44627000D01*
X243373000Y-67373000D01*
G37*
X243373000Y-67373000D02*
X232627000Y-67373000D01*
X232627000Y-44627000D01*
X243373000Y-44627000D01*
X243373000Y-67373000D01*
M02*
