M48
METRIC,TZ
T1C0.400
T2C1.000
T3C1.200
T4C5.300
%
G90
G05
T1
X21000Y-49000
X21000Y-50500
X21000Y-52000
X21000Y-53500
X21000Y-55000
X21000Y-56500
X21000Y-58000
X21000Y-59500
X21000Y-61000
X21000Y-62500
X21000Y-64000
X21000Y-65500
X21000Y-67000
X21000Y-68500
X21000Y-70000
X21000Y-71500
X21000Y-73000
X22500Y-49000
X22500Y-50500
X22500Y-52000
X22500Y-53500
X22500Y-55000
X22500Y-56500
X22500Y-58000
X22500Y-59500
X22500Y-61000
X22500Y-62500
X22500Y-64000
X22500Y-65500
X22500Y-67000
X22500Y-68500
X22500Y-70000
X22500Y-71500
X22500Y-73000
X24000Y-49000
X24000Y-50500
X24000Y-52000
X24000Y-53500
X24000Y-55000
X24000Y-56500
X24000Y-58000
X24000Y-59500
X24000Y-61000
X24000Y-62500
X24000Y-64000
X24000Y-65500
X24000Y-67000
X24000Y-68500
X24000Y-70000
X24000Y-71500
X24000Y-73000
X25500Y-49000
X25500Y-50500
X25500Y-52000
X25500Y-53500
X25500Y-55000
X25500Y-56500
X25500Y-58000
X25500Y-59500
X25500Y-61000
X25500Y-62500
X25500Y-64000
X25500Y-65500
X25500Y-67000
X25500Y-68500
X25500Y-70000
X25500Y-71500
X25500Y-73000
X27000Y-49000
X27000Y-50500
X27000Y-52000
X27000Y-53500
X27000Y-55000
X27000Y-56500
X27000Y-58000
X27000Y-59500
X27000Y-61000
X27000Y-62500
X27000Y-64000
X27000Y-65500
X27000Y-67000
X27000Y-68500
X27000Y-70000
X27000Y-71500
X27000Y-73000
X28500Y-49000
X28500Y-50500
X28500Y-52000
X28500Y-53500
X28500Y-55000
X28500Y-56500
X28500Y-58000
X28500Y-59500
X28500Y-61000
X28500Y-62500
X28500Y-64000
X28500Y-65500
X28500Y-67000
X28500Y-68500
X28500Y-70000
X28500Y-71500
X28500Y-73000
X30000Y-49000
X30000Y-50500
X30000Y-52000
X30000Y-53500
X30000Y-55000
X30000Y-56500
X30000Y-58000
X30000Y-59500
X30000Y-61000
X30000Y-62500
X30000Y-64000
X30000Y-65500
X30000Y-67000
X30000Y-68500
X30000Y-70000
X30000Y-71500
X30000Y-73000
X31500Y-49000
X31500Y-50500
X31500Y-52000
X31500Y-53500
X31500Y-55000
X31500Y-56500
X31500Y-58000
X31500Y-59500
X31500Y-61000
X31500Y-62500
X31500Y-64000
X31500Y-64000
X31500Y-65500
X31500Y-67000
X31500Y-68500
X31500Y-70000
X31500Y-71500
X31500Y-73000
X33000Y-49000
X33000Y-50500
X33000Y-52000
X33000Y-53500
X33000Y-55000
X33000Y-56500
X33000Y-58000
X33000Y-59500
X33000Y-61000
X33000Y-62500
X33000Y-64000
X33000Y-65500
X33000Y-67000
X33000Y-68500
X33000Y-70000
X33000Y-71500
X33000Y-73000
X34500Y-49000
X34500Y-50500
X34500Y-52000
X34500Y-53500
X34500Y-55000
X34500Y-56500
X34500Y-58000
X34500Y-59500
X34500Y-61000
X34500Y-62500
X34500Y-64000
X34500Y-65500
X34500Y-67000
X34500Y-68500
X34500Y-70000
X34500Y-71500
X34500Y-73000
T2
X82200Y-72400
X84740Y-72400
X38860Y-72400
X41400Y-72400
X246200Y-72500
X248740Y-72500
X164200Y-72600
X166740Y-72600
T3
X88500Y-60000
X93500Y-60000
X170500Y-60000
X175500Y-60000
X219500Y-60000
X224500Y-60000
X252000Y-31000
X257000Y-31000
X88500Y-31000
X93500Y-31000
X56000Y-31000
X61000Y-31000
X252000Y-60000
X257000Y-60000
X170500Y-31000
X175500Y-31000
X219500Y-31000
X224500Y-31000
X138000Y-31000
X143000Y-31000
X138000Y-60000
X143000Y-60000
X56000Y-60000
X61000Y-60000
T4
X188000Y-58500
X156000Y-49900
X188000Y-37500
X238000Y-62000
X74000Y-49900
X270000Y-58500
X106000Y-58500
X207500Y-58500
X106000Y-37500
X125500Y-37500
X207500Y-37500
X74000Y-62000
X43500Y-58500
X125500Y-58500
X270000Y-37500
X156000Y-62000
X238000Y-49900
X43500Y-37500
T0
M30
