G04 #@! TF.GenerationSoftware,KiCad,Pcbnew,(5.1.6)-1*
G04 #@! TF.CreationDate,2021-04-15T22:16:23+02:00*
G04 #@! TF.ProjectId,DCLink,44434c69-6e6b-42e6-9b69-6361645f7063,rev?*
G04 #@! TF.SameCoordinates,Original*
G04 #@! TF.FileFunction,Soldermask,Bot*
G04 #@! TF.FilePolarity,Negative*
%FSLAX46Y46*%
G04 Gerber Fmt 4.6, Leading zero omitted, Abs format (unit mm)*
G04 Created by KiCad (PCBNEW (5.1.6)-1) date 2021-04-15 22:16:23*
%MOMM*%
%LPD*%
G01*
G04 APERTURE LIST*
%ADD10O,1.800000X1.800000*%
%ADD11R,1.800000X1.800000*%
%ADD12C,2.500000*%
%ADD13R,2.500000X2.500000*%
%ADD14C,9.600000*%
G04 APERTURE END LIST*
D10*
X84740000Y-72400000D03*
D11*
X82200000Y-72400000D03*
D12*
X61000000Y-31000000D03*
D13*
X56000000Y-31000000D03*
X56000000Y-60000000D03*
D12*
X61000000Y-60000000D03*
D13*
X88500000Y-31000000D03*
D12*
X93500000Y-31000000D03*
X93500000Y-60000000D03*
D13*
X88500000Y-60000000D03*
X138000000Y-31000000D03*
D12*
X143000000Y-31000000D03*
X143000000Y-60000000D03*
D13*
X138000000Y-60000000D03*
X170500000Y-31000000D03*
D12*
X175500000Y-31000000D03*
X175500000Y-60000000D03*
D13*
X170500000Y-60000000D03*
X219500000Y-31000000D03*
D12*
X224500000Y-31000000D03*
X224500000Y-60000000D03*
D13*
X219500000Y-60000000D03*
X252000000Y-31000000D03*
D12*
X257000000Y-31000000D03*
X257000000Y-60000000D03*
D13*
X252000000Y-60000000D03*
D11*
X164200000Y-72600000D03*
D10*
X166740000Y-72600000D03*
D14*
X43500000Y-37500000D03*
X43500000Y-58500000D03*
X125500000Y-37500000D03*
X125500000Y-58500000D03*
X207500000Y-58500000D03*
X207500000Y-37500000D03*
X74000000Y-49900000D03*
X156000000Y-49900000D03*
X238000000Y-49900000D03*
X74000000Y-62000000D03*
X156000000Y-62000000D03*
X238000000Y-62000000D03*
X106000000Y-37500000D03*
X106000000Y-58500000D03*
X188000000Y-37500000D03*
X188000000Y-58500000D03*
X270000000Y-58500000D03*
X270000000Y-37500000D03*
D11*
X246200000Y-72500000D03*
D10*
X248740000Y-72500000D03*
X38860000Y-72400000D03*
D11*
X41400000Y-72400000D03*
M02*
