G04 #@! TF.GenerationSoftware,KiCad,Pcbnew,(5.1.6)-1*
G04 #@! TF.CreationDate,2021-04-15T23:42:56+02:00*
G04 #@! TF.ProjectId,ThreePhaseInverter,54687265-6550-4686-9173-65496e766572,rev?*
G04 #@! TF.SameCoordinates,Original*
G04 #@! TF.FileFunction,Soldermask,Top*
G04 #@! TF.FilePolarity,Negative*
%FSLAX46Y46*%
G04 Gerber Fmt 4.6, Leading zero omitted, Abs format (unit mm)*
G04 Created by KiCad (PCBNEW (5.1.6)-1) date 2021-04-15 23:42:56*
%MOMM*%
%LPD*%
G01*
G04 APERTURE LIST*
%ADD10C,3.300000*%
%ADD11C,0.150000*%
%ADD12R,2.900000X1.000000*%
%ADD13R,1.370000X2.390000*%
%ADD14R,1.370000X0.862000*%
%ADD15R,2.640000X2.770000*%
%ADD16R,0.862000X1.370000*%
%ADD17R,2.770000X2.640000*%
%ADD18C,10.100000*%
G04 APERTURE END LIST*
D10*
X126000000Y-146000000D03*
X126000000Y-64000000D03*
X54000000Y-146000000D03*
X54000000Y-64000000D03*
D11*
G36*
X64865245Y-89199039D02*
G01*
X64855866Y-89196194D01*
X64847221Y-89191573D01*
X64839645Y-89185355D01*
X64833427Y-89177779D01*
X64828806Y-89169134D01*
X64825961Y-89159755D01*
X64825000Y-89150000D01*
X64825000Y-79050000D01*
X64825961Y-79040245D01*
X64828806Y-79030866D01*
X64833427Y-79022221D01*
X64839645Y-79014645D01*
X64847221Y-79008427D01*
X64855866Y-79003806D01*
X64865245Y-79000961D01*
X64875000Y-79000000D01*
X66425000Y-79000000D01*
X66434755Y-79000961D01*
X66444134Y-79003806D01*
X66452779Y-79008427D01*
X66460355Y-79014645D01*
X66466573Y-79022221D01*
X66471194Y-79030866D01*
X66474039Y-79040245D01*
X66475000Y-79050000D01*
X66475000Y-79700000D01*
X69125000Y-79700000D01*
X69125000Y-79250000D01*
X69125961Y-79240245D01*
X69128806Y-79230866D01*
X69133427Y-79222221D01*
X69139645Y-79214645D01*
X69147221Y-79208427D01*
X69155866Y-79203806D01*
X69165245Y-79200961D01*
X69175000Y-79200000D01*
X72875000Y-79200000D01*
X72884755Y-79200961D01*
X72894134Y-79203806D01*
X72902779Y-79208427D01*
X72910355Y-79214645D01*
X72916573Y-79222221D01*
X72921194Y-79230866D01*
X72924039Y-79240245D01*
X72925000Y-79250000D01*
X72925000Y-88950000D01*
X72924039Y-88959755D01*
X72921194Y-88969134D01*
X72916573Y-88977779D01*
X72910355Y-88985355D01*
X72902779Y-88991573D01*
X72894134Y-88996194D01*
X72884755Y-88999039D01*
X72875000Y-89000000D01*
X69175000Y-89000000D01*
X69165245Y-88999039D01*
X69155866Y-88996194D01*
X69147221Y-88991573D01*
X69139645Y-88985355D01*
X69133427Y-88977779D01*
X69128806Y-88969134D01*
X69125961Y-88959755D01*
X69125000Y-88950000D01*
X69125000Y-88500000D01*
X66475000Y-88500000D01*
X66475000Y-89150000D01*
X66474039Y-89159755D01*
X66471194Y-89169134D01*
X66466573Y-89177779D01*
X66460355Y-89185355D01*
X66452779Y-89191573D01*
X66444134Y-89196194D01*
X66434755Y-89199039D01*
X66425000Y-89200000D01*
X64875000Y-89200000D01*
X64865245Y-89199039D01*
G37*
D12*
X76500000Y-79900000D03*
X76500000Y-81100000D03*
X76500000Y-82300000D03*
X76500000Y-83500000D03*
X76500000Y-84700000D03*
X76500000Y-85900000D03*
X76500000Y-87100000D03*
X76500000Y-88300000D03*
D11*
G36*
X64865245Y-107599039D02*
G01*
X64855866Y-107596194D01*
X64847221Y-107591573D01*
X64839645Y-107585355D01*
X64833427Y-107577779D01*
X64828806Y-107569134D01*
X64825961Y-107559755D01*
X64825000Y-107550000D01*
X64825000Y-97450000D01*
X64825961Y-97440245D01*
X64828806Y-97430866D01*
X64833427Y-97422221D01*
X64839645Y-97414645D01*
X64847221Y-97408427D01*
X64855866Y-97403806D01*
X64865245Y-97400961D01*
X64875000Y-97400000D01*
X66425000Y-97400000D01*
X66434755Y-97400961D01*
X66444134Y-97403806D01*
X66452779Y-97408427D01*
X66460355Y-97414645D01*
X66466573Y-97422221D01*
X66471194Y-97430866D01*
X66474039Y-97440245D01*
X66475000Y-97450000D01*
X66475000Y-98100000D01*
X69125000Y-98100000D01*
X69125000Y-97650000D01*
X69125961Y-97640245D01*
X69128806Y-97630866D01*
X69133427Y-97622221D01*
X69139645Y-97614645D01*
X69147221Y-97608427D01*
X69155866Y-97603806D01*
X69165245Y-97600961D01*
X69175000Y-97600000D01*
X72875000Y-97600000D01*
X72884755Y-97600961D01*
X72894134Y-97603806D01*
X72902779Y-97608427D01*
X72910355Y-97614645D01*
X72916573Y-97622221D01*
X72921194Y-97630866D01*
X72924039Y-97640245D01*
X72925000Y-97650000D01*
X72925000Y-107350000D01*
X72924039Y-107359755D01*
X72921194Y-107369134D01*
X72916573Y-107377779D01*
X72910355Y-107385355D01*
X72902779Y-107391573D01*
X72894134Y-107396194D01*
X72884755Y-107399039D01*
X72875000Y-107400000D01*
X69175000Y-107400000D01*
X69165245Y-107399039D01*
X69155866Y-107396194D01*
X69147221Y-107391573D01*
X69139645Y-107385355D01*
X69133427Y-107377779D01*
X69128806Y-107369134D01*
X69125961Y-107359755D01*
X69125000Y-107350000D01*
X69125000Y-106900000D01*
X66475000Y-106900000D01*
X66475000Y-107550000D01*
X66474039Y-107559755D01*
X66471194Y-107569134D01*
X66466573Y-107577779D01*
X66460355Y-107585355D01*
X66452779Y-107591573D01*
X66444134Y-107596194D01*
X66434755Y-107599039D01*
X66425000Y-107600000D01*
X64875000Y-107600000D01*
X64865245Y-107599039D01*
G37*
D12*
X76500000Y-98300000D03*
X76500000Y-99500000D03*
X76500000Y-100700000D03*
X76500000Y-101900000D03*
X76500000Y-103100000D03*
X76500000Y-104300000D03*
X76500000Y-105500000D03*
X76500000Y-106700000D03*
D11*
G36*
X98865245Y-89099039D02*
G01*
X98855866Y-89096194D01*
X98847221Y-89091573D01*
X98839645Y-89085355D01*
X98833427Y-89077779D01*
X98828806Y-89069134D01*
X98825961Y-89059755D01*
X98825000Y-89050000D01*
X98825000Y-78950000D01*
X98825961Y-78940245D01*
X98828806Y-78930866D01*
X98833427Y-78922221D01*
X98839645Y-78914645D01*
X98847221Y-78908427D01*
X98855866Y-78903806D01*
X98865245Y-78900961D01*
X98875000Y-78900000D01*
X100425000Y-78900000D01*
X100434755Y-78900961D01*
X100444134Y-78903806D01*
X100452779Y-78908427D01*
X100460355Y-78914645D01*
X100466573Y-78922221D01*
X100471194Y-78930866D01*
X100474039Y-78940245D01*
X100475000Y-78950000D01*
X100475000Y-79600000D01*
X103125000Y-79600000D01*
X103125000Y-79150000D01*
X103125961Y-79140245D01*
X103128806Y-79130866D01*
X103133427Y-79122221D01*
X103139645Y-79114645D01*
X103147221Y-79108427D01*
X103155866Y-79103806D01*
X103165245Y-79100961D01*
X103175000Y-79100000D01*
X106875000Y-79100000D01*
X106884755Y-79100961D01*
X106894134Y-79103806D01*
X106902779Y-79108427D01*
X106910355Y-79114645D01*
X106916573Y-79122221D01*
X106921194Y-79130866D01*
X106924039Y-79140245D01*
X106925000Y-79150000D01*
X106925000Y-88850000D01*
X106924039Y-88859755D01*
X106921194Y-88869134D01*
X106916573Y-88877779D01*
X106910355Y-88885355D01*
X106902779Y-88891573D01*
X106894134Y-88896194D01*
X106884755Y-88899039D01*
X106875000Y-88900000D01*
X103175000Y-88900000D01*
X103165245Y-88899039D01*
X103155866Y-88896194D01*
X103147221Y-88891573D01*
X103139645Y-88885355D01*
X103133427Y-88877779D01*
X103128806Y-88869134D01*
X103125961Y-88859755D01*
X103125000Y-88850000D01*
X103125000Y-88400000D01*
X100475000Y-88400000D01*
X100475000Y-89050000D01*
X100474039Y-89059755D01*
X100471194Y-89069134D01*
X100466573Y-89077779D01*
X100460355Y-89085355D01*
X100452779Y-89091573D01*
X100444134Y-89096194D01*
X100434755Y-89099039D01*
X100425000Y-89100000D01*
X98875000Y-89100000D01*
X98865245Y-89099039D01*
G37*
D12*
X110500000Y-79800000D03*
X110500000Y-81000000D03*
X110500000Y-82200000D03*
X110500000Y-83400000D03*
X110500000Y-84600000D03*
X110500000Y-85800000D03*
X110500000Y-87000000D03*
X110500000Y-88200000D03*
D11*
G36*
X98865245Y-107599039D02*
G01*
X98855866Y-107596194D01*
X98847221Y-107591573D01*
X98839645Y-107585355D01*
X98833427Y-107577779D01*
X98828806Y-107569134D01*
X98825961Y-107559755D01*
X98825000Y-107550000D01*
X98825000Y-97450000D01*
X98825961Y-97440245D01*
X98828806Y-97430866D01*
X98833427Y-97422221D01*
X98839645Y-97414645D01*
X98847221Y-97408427D01*
X98855866Y-97403806D01*
X98865245Y-97400961D01*
X98875000Y-97400000D01*
X100425000Y-97400000D01*
X100434755Y-97400961D01*
X100444134Y-97403806D01*
X100452779Y-97408427D01*
X100460355Y-97414645D01*
X100466573Y-97422221D01*
X100471194Y-97430866D01*
X100474039Y-97440245D01*
X100475000Y-97450000D01*
X100475000Y-98100000D01*
X103125000Y-98100000D01*
X103125000Y-97650000D01*
X103125961Y-97640245D01*
X103128806Y-97630866D01*
X103133427Y-97622221D01*
X103139645Y-97614645D01*
X103147221Y-97608427D01*
X103155866Y-97603806D01*
X103165245Y-97600961D01*
X103175000Y-97600000D01*
X106875000Y-97600000D01*
X106884755Y-97600961D01*
X106894134Y-97603806D01*
X106902779Y-97608427D01*
X106910355Y-97614645D01*
X106916573Y-97622221D01*
X106921194Y-97630866D01*
X106924039Y-97640245D01*
X106925000Y-97650000D01*
X106925000Y-107350000D01*
X106924039Y-107359755D01*
X106921194Y-107369134D01*
X106916573Y-107377779D01*
X106910355Y-107385355D01*
X106902779Y-107391573D01*
X106894134Y-107396194D01*
X106884755Y-107399039D01*
X106875000Y-107400000D01*
X103175000Y-107400000D01*
X103165245Y-107399039D01*
X103155866Y-107396194D01*
X103147221Y-107391573D01*
X103139645Y-107385355D01*
X103133427Y-107377779D01*
X103128806Y-107369134D01*
X103125961Y-107359755D01*
X103125000Y-107350000D01*
X103125000Y-106900000D01*
X100475000Y-106900000D01*
X100475000Y-107550000D01*
X100474039Y-107559755D01*
X100471194Y-107569134D01*
X100466573Y-107577779D01*
X100460355Y-107585355D01*
X100452779Y-107591573D01*
X100444134Y-107596194D01*
X100434755Y-107599039D01*
X100425000Y-107600000D01*
X98875000Y-107600000D01*
X98865245Y-107599039D01*
G37*
D12*
X110500000Y-98300000D03*
X110500000Y-99500000D03*
X110500000Y-100700000D03*
X110500000Y-101900000D03*
X110500000Y-103100000D03*
X110500000Y-104300000D03*
X110500000Y-105500000D03*
X110500000Y-106700000D03*
D13*
X117590000Y-145495000D03*
X115050000Y-145495000D03*
X117590000Y-140445000D03*
X115050000Y-140445000D03*
X114690000Y-116855000D03*
X117230000Y-116855000D03*
X114690000Y-121905000D03*
X117230000Y-121905000D03*
X64890000Y-135445000D03*
X62350000Y-135445000D03*
X64890000Y-130395000D03*
X62350000Y-130395000D03*
D14*
X113900000Y-109249000D03*
D15*
X113900000Y-111600000D03*
D16*
X111151000Y-93400000D03*
D17*
X108800000Y-93400000D03*
D14*
X80300000Y-109149000D03*
D15*
X80300000Y-111500000D03*
D16*
X77151000Y-93500000D03*
D17*
X74800000Y-93500000D03*
D18*
X57400000Y-96000000D03*
X57500000Y-75000000D03*
X88000000Y-87400000D03*
X88000000Y-99500000D03*
X120000000Y-75000000D03*
X120000000Y-96000000D03*
G36*
G01*
X111355769Y-109650000D02*
X110044231Y-109650000D01*
G75*
G02*
X109775000Y-109380769I0J269231D01*
G01*
X109775000Y-108519231D01*
G75*
G02*
X110044231Y-108250000I269231J0D01*
G01*
X111355769Y-108250000D01*
G75*
G02*
X111625000Y-108519231I0J-269231D01*
G01*
X111625000Y-109380769D01*
G75*
G02*
X111355769Y-109650000I-269231J0D01*
G01*
G37*
G36*
G01*
X111355769Y-112750000D02*
X110044231Y-112750000D01*
G75*
G02*
X109775000Y-112480769I0J269231D01*
G01*
X109775000Y-111619231D01*
G75*
G02*
X110044231Y-111350000I269231J0D01*
G01*
X111355769Y-111350000D01*
G75*
G02*
X111625000Y-111619231I0J-269231D01*
G01*
X111625000Y-112480769D01*
G75*
G02*
X111355769Y-112750000I-269231J0D01*
G01*
G37*
G36*
G01*
X110400000Y-91355769D02*
X110400000Y-90044231D01*
G75*
G02*
X110669231Y-89775000I269231J0D01*
G01*
X111530769Y-89775000D01*
G75*
G02*
X111800000Y-90044231I0J-269231D01*
G01*
X111800000Y-91355769D01*
G75*
G02*
X111530769Y-91625000I-269231J0D01*
G01*
X110669231Y-91625000D01*
G75*
G02*
X110400000Y-91355769I0J269231D01*
G01*
G37*
G36*
G01*
X107300000Y-91355769D02*
X107300000Y-90044231D01*
G75*
G02*
X107569231Y-89775000I269231J0D01*
G01*
X108430769Y-89775000D01*
G75*
G02*
X108700000Y-90044231I0J-269231D01*
G01*
X108700000Y-91355769D01*
G75*
G02*
X108430769Y-91625000I-269231J0D01*
G01*
X107569231Y-91625000D01*
G75*
G02*
X107300000Y-91355769I0J269231D01*
G01*
G37*
G36*
G01*
X77155769Y-109750000D02*
X75844231Y-109750000D01*
G75*
G02*
X75575000Y-109480769I0J269231D01*
G01*
X75575000Y-108619231D01*
G75*
G02*
X75844231Y-108350000I269231J0D01*
G01*
X77155769Y-108350000D01*
G75*
G02*
X77425000Y-108619231I0J-269231D01*
G01*
X77425000Y-109480769D01*
G75*
G02*
X77155769Y-109750000I-269231J0D01*
G01*
G37*
G36*
G01*
X77155769Y-112850000D02*
X75844231Y-112850000D01*
G75*
G02*
X75575000Y-112580769I0J269231D01*
G01*
X75575000Y-111719231D01*
G75*
G02*
X75844231Y-111450000I269231J0D01*
G01*
X77155769Y-111450000D01*
G75*
G02*
X77425000Y-111719231I0J-269231D01*
G01*
X77425000Y-112580769D01*
G75*
G02*
X77155769Y-112850000I-269231J0D01*
G01*
G37*
G36*
G01*
X76350000Y-91455769D02*
X76350000Y-90144231D01*
G75*
G02*
X76619231Y-89875000I269231J0D01*
G01*
X77480769Y-89875000D01*
G75*
G02*
X77750000Y-90144231I0J-269231D01*
G01*
X77750000Y-91455769D01*
G75*
G02*
X77480769Y-91725000I-269231J0D01*
G01*
X76619231Y-91725000D01*
G75*
G02*
X76350000Y-91455769I0J269231D01*
G01*
G37*
G36*
G01*
X73250000Y-91455769D02*
X73250000Y-90144231D01*
G75*
G02*
X73519231Y-89875000I269231J0D01*
G01*
X74380769Y-89875000D01*
G75*
G02*
X74650000Y-90144231I0J-269231D01*
G01*
X74650000Y-91455769D01*
G75*
G02*
X74380769Y-91725000I-269231J0D01*
G01*
X73519231Y-91725000D01*
G75*
G02*
X73250000Y-91455769I0J269231D01*
G01*
G37*
G36*
G01*
X116979168Y-109650000D02*
X116020832Y-109650000D01*
G75*
G02*
X115750000Y-109379168I0J270832D01*
G01*
X115750000Y-108620832D01*
G75*
G02*
X116020832Y-108350000I270832J0D01*
G01*
X116979168Y-108350000D01*
G75*
G02*
X117250000Y-108620832I0J-270832D01*
G01*
X117250000Y-109379168D01*
G75*
G02*
X116979168Y-109650000I-270832J0D01*
G01*
G37*
G36*
G01*
X116979168Y-111650000D02*
X116020832Y-111650000D01*
G75*
G02*
X115750000Y-111379168I0J270832D01*
G01*
X115750000Y-110620832D01*
G75*
G02*
X116020832Y-110350000I270832J0D01*
G01*
X116979168Y-110350000D01*
G75*
G02*
X117250000Y-110620832I0J-270832D01*
G01*
X117250000Y-111379168D01*
G75*
G02*
X116979168Y-111650000I-270832J0D01*
G01*
G37*
G36*
G01*
X109350000Y-96379168D02*
X109350000Y-95420832D01*
G75*
G02*
X109620832Y-95150000I270832J0D01*
G01*
X110379168Y-95150000D01*
G75*
G02*
X110650000Y-95420832I0J-270832D01*
G01*
X110650000Y-96379168D01*
G75*
G02*
X110379168Y-96650000I-270832J0D01*
G01*
X109620832Y-96650000D01*
G75*
G02*
X109350000Y-96379168I0J270832D01*
G01*
G37*
G36*
G01*
X107350000Y-96379168D02*
X107350000Y-95420832D01*
G75*
G02*
X107620832Y-95150000I270832J0D01*
G01*
X108379168Y-95150000D01*
G75*
G02*
X108650000Y-95420832I0J-270832D01*
G01*
X108650000Y-96379168D01*
G75*
G02*
X108379168Y-96650000I-270832J0D01*
G01*
X107620832Y-96650000D01*
G75*
G02*
X107350000Y-96379168I0J270832D01*
G01*
G37*
G36*
G01*
X83279168Y-109650000D02*
X82320832Y-109650000D01*
G75*
G02*
X82050000Y-109379168I0J270832D01*
G01*
X82050000Y-108620832D01*
G75*
G02*
X82320832Y-108350000I270832J0D01*
G01*
X83279168Y-108350000D01*
G75*
G02*
X83550000Y-108620832I0J-270832D01*
G01*
X83550000Y-109379168D01*
G75*
G02*
X83279168Y-109650000I-270832J0D01*
G01*
G37*
G36*
G01*
X83279168Y-111650000D02*
X82320832Y-111650000D01*
G75*
G02*
X82050000Y-111379168I0J270832D01*
G01*
X82050000Y-110620832D01*
G75*
G02*
X82320832Y-110350000I270832J0D01*
G01*
X83279168Y-110350000D01*
G75*
G02*
X83550000Y-110620832I0J-270832D01*
G01*
X83550000Y-111379168D01*
G75*
G02*
X83279168Y-111650000I-270832J0D01*
G01*
G37*
G36*
G01*
X75350000Y-96479168D02*
X75350000Y-95520832D01*
G75*
G02*
X75620832Y-95250000I270832J0D01*
G01*
X76379168Y-95250000D01*
G75*
G02*
X76650000Y-95520832I0J-270832D01*
G01*
X76650000Y-96479168D01*
G75*
G02*
X76379168Y-96750000I-270832J0D01*
G01*
X75620832Y-96750000D01*
G75*
G02*
X75350000Y-96479168I0J270832D01*
G01*
G37*
G36*
G01*
X73350000Y-96479168D02*
X73350000Y-95520832D01*
G75*
G02*
X73620832Y-95250000I270832J0D01*
G01*
X74379168Y-95250000D01*
G75*
G02*
X74650000Y-95520832I0J-270832D01*
G01*
X74650000Y-96479168D01*
G75*
G02*
X74379168Y-96750000I-270832J0D01*
G01*
X73620832Y-96750000D01*
G75*
G02*
X73350000Y-96479168I0J270832D01*
G01*
G37*
G36*
G01*
X70100000Y-77255769D02*
X70100000Y-75944231D01*
G75*
G02*
X70369231Y-75675000I269231J0D01*
G01*
X71230769Y-75675000D01*
G75*
G02*
X71500000Y-75944231I0J-269231D01*
G01*
X71500000Y-77255769D01*
G75*
G02*
X71230769Y-77525000I-269231J0D01*
G01*
X70369231Y-77525000D01*
G75*
G02*
X70100000Y-77255769I0J269231D01*
G01*
G37*
G36*
G01*
X73200000Y-77255769D02*
X73200000Y-75944231D01*
G75*
G02*
X73469231Y-75675000I269231J0D01*
G01*
X74330769Y-75675000D01*
G75*
G02*
X74600000Y-75944231I0J-269231D01*
G01*
X74600000Y-77255769D01*
G75*
G02*
X74330769Y-77525000I-269231J0D01*
G01*
X73469231Y-77525000D01*
G75*
G02*
X73200000Y-77255769I0J269231D01*
G01*
G37*
G36*
G01*
X75125000Y-77281133D02*
X75125000Y-75918867D01*
G75*
G02*
X75393867Y-75650000I268867J0D01*
G01*
X76281133Y-75650000D01*
G75*
G02*
X76550000Y-75918867I0J-268867D01*
G01*
X76550000Y-77281133D01*
G75*
G02*
X76281133Y-77550000I-268867J0D01*
G01*
X75393867Y-77550000D01*
G75*
G02*
X75125000Y-77281133I0J268867D01*
G01*
G37*
G36*
G01*
X78250000Y-77281133D02*
X78250000Y-75918867D01*
G75*
G02*
X78518867Y-75650000I268867J0D01*
G01*
X79406133Y-75650000D01*
G75*
G02*
X79675000Y-75918867I0J-268867D01*
G01*
X79675000Y-77281133D01*
G75*
G02*
X79406133Y-77550000I-268867J0D01*
G01*
X78518867Y-77550000D01*
G75*
G02*
X78250000Y-77281133I0J268867D01*
G01*
G37*
G36*
G01*
X110350000Y-77281133D02*
X110350000Y-75918867D01*
G75*
G02*
X110618867Y-75650000I268867J0D01*
G01*
X111506133Y-75650000D01*
G75*
G02*
X111775000Y-75918867I0J-268867D01*
G01*
X111775000Y-77281133D01*
G75*
G02*
X111506133Y-77550000I-268867J0D01*
G01*
X110618867Y-77550000D01*
G75*
G02*
X110350000Y-77281133I0J268867D01*
G01*
G37*
G36*
G01*
X107225000Y-77281133D02*
X107225000Y-75918867D01*
G75*
G02*
X107493867Y-75650000I268867J0D01*
G01*
X108381133Y-75650000D01*
G75*
G02*
X108650000Y-75918867I0J-268867D01*
G01*
X108650000Y-77281133D01*
G75*
G02*
X108381133Y-77550000I-268867J0D01*
G01*
X107493867Y-77550000D01*
G75*
G02*
X107225000Y-77281133I0J268867D01*
G01*
G37*
G36*
G01*
X89850000Y-67081133D02*
X89850000Y-65718867D01*
G75*
G02*
X90118867Y-65450000I268867J0D01*
G01*
X91006133Y-65450000D01*
G75*
G02*
X91275000Y-65718867I0J-268867D01*
G01*
X91275000Y-67081133D01*
G75*
G02*
X91006133Y-67350000I-268867J0D01*
G01*
X90118867Y-67350000D01*
G75*
G02*
X89850000Y-67081133I0J268867D01*
G01*
G37*
G36*
G01*
X86725000Y-67081133D02*
X86725000Y-65718867D01*
G75*
G02*
X86993867Y-65450000I268867J0D01*
G01*
X87881133Y-65450000D01*
G75*
G02*
X88150000Y-65718867I0J-268867D01*
G01*
X88150000Y-67081133D01*
G75*
G02*
X87881133Y-67350000I-268867J0D01*
G01*
X86993867Y-67350000D01*
G75*
G02*
X86725000Y-67081133I0J268867D01*
G01*
G37*
G36*
G01*
X86725000Y-69381133D02*
X86725000Y-68018867D01*
G75*
G02*
X86993867Y-67750000I268867J0D01*
G01*
X87881133Y-67750000D01*
G75*
G02*
X88150000Y-68018867I0J-268867D01*
G01*
X88150000Y-69381133D01*
G75*
G02*
X87881133Y-69650000I-268867J0D01*
G01*
X86993867Y-69650000D01*
G75*
G02*
X86725000Y-69381133I0J268867D01*
G01*
G37*
G36*
G01*
X89850000Y-69381133D02*
X89850000Y-68018867D01*
G75*
G02*
X90118867Y-67750000I268867J0D01*
G01*
X91006133Y-67750000D01*
G75*
G02*
X91275000Y-68018867I0J-268867D01*
G01*
X91275000Y-69381133D01*
G75*
G02*
X91006133Y-69650000I-268867J0D01*
G01*
X90118867Y-69650000D01*
G75*
G02*
X89850000Y-69381133I0J268867D01*
G01*
G37*
G36*
G01*
X89850000Y-71681133D02*
X89850000Y-70318867D01*
G75*
G02*
X90118867Y-70050000I268867J0D01*
G01*
X91006133Y-70050000D01*
G75*
G02*
X91275000Y-70318867I0J-268867D01*
G01*
X91275000Y-71681133D01*
G75*
G02*
X91006133Y-71950000I-268867J0D01*
G01*
X90118867Y-71950000D01*
G75*
G02*
X89850000Y-71681133I0J268867D01*
G01*
G37*
G36*
G01*
X86725000Y-71681133D02*
X86725000Y-70318867D01*
G75*
G02*
X86993867Y-70050000I268867J0D01*
G01*
X87881133Y-70050000D01*
G75*
G02*
X88150000Y-70318867I0J-268867D01*
G01*
X88150000Y-71681133D01*
G75*
G02*
X87881133Y-71950000I-268867J0D01*
G01*
X86993867Y-71950000D01*
G75*
G02*
X86725000Y-71681133I0J268867D01*
G01*
G37*
G36*
G01*
X86725000Y-73981133D02*
X86725000Y-72618867D01*
G75*
G02*
X86993867Y-72350000I268867J0D01*
G01*
X87881133Y-72350000D01*
G75*
G02*
X88150000Y-72618867I0J-268867D01*
G01*
X88150000Y-73981133D01*
G75*
G02*
X87881133Y-74250000I-268867J0D01*
G01*
X86993867Y-74250000D01*
G75*
G02*
X86725000Y-73981133I0J268867D01*
G01*
G37*
G36*
G01*
X89850000Y-73981133D02*
X89850000Y-72618867D01*
G75*
G02*
X90118867Y-72350000I268867J0D01*
G01*
X91006133Y-72350000D01*
G75*
G02*
X91275000Y-72618867I0J-268867D01*
G01*
X91275000Y-73981133D01*
G75*
G02*
X91006133Y-74250000I-268867J0D01*
G01*
X90118867Y-74250000D01*
G75*
G02*
X89850000Y-73981133I0J268867D01*
G01*
G37*
G36*
G01*
X105350000Y-77255769D02*
X105350000Y-75944231D01*
G75*
G02*
X105619231Y-75675000I269231J0D01*
G01*
X106480769Y-75675000D01*
G75*
G02*
X106750000Y-75944231I0J-269231D01*
G01*
X106750000Y-77255769D01*
G75*
G02*
X106480769Y-77525000I-269231J0D01*
G01*
X105619231Y-77525000D01*
G75*
G02*
X105350000Y-77255769I0J269231D01*
G01*
G37*
G36*
G01*
X102250000Y-77255769D02*
X102250000Y-75944231D01*
G75*
G02*
X102519231Y-75675000I269231J0D01*
G01*
X103380769Y-75675000D01*
G75*
G02*
X103650000Y-75944231I0J-269231D01*
G01*
X103650000Y-77255769D01*
G75*
G02*
X103380769Y-77525000I-269231J0D01*
G01*
X102519231Y-77525000D01*
G75*
G02*
X102250000Y-77255769I0J269231D01*
G01*
G37*
M02*
