G04 #@! TF.GenerationSoftware,KiCad,Pcbnew,(5.1.6)-1*
G04 #@! TF.CreationDate,2021-04-15T23:42:56+02:00*
G04 #@! TF.ProjectId,ThreePhaseInverter,54687265-6550-4686-9173-65496e766572,rev?*
G04 #@! TF.SameCoordinates,Original*
G04 #@! TF.FileFunction,Legend,Top*
G04 #@! TF.FilePolarity,Positive*
%FSLAX46Y46*%
G04 Gerber Fmt 4.6, Leading zero omitted, Abs format (unit mm)*
G04 Created by KiCad (PCBNEW (5.1.6)-1) date 2021-04-15 23:42:56*
%MOMM*%
%LPD*%
G01*
G04 APERTURE LIST*
%ADD10C,0.300000*%
%ADD11C,0.150000*%
%ADD12C,0.120000*%
%ADD13C,0.050000*%
G04 APERTURE END LIST*
D10*
X73578571Y-143042857D02*
X73078571Y-143042857D01*
X73078571Y-143828571D02*
X73078571Y-142328571D01*
X73792857Y-142328571D01*
X74292857Y-142471428D02*
X74364285Y-142400000D01*
X74507142Y-142328571D01*
X74864285Y-142328571D01*
X75007142Y-142400000D01*
X75078571Y-142471428D01*
X75150000Y-142614285D01*
X75150000Y-142757142D01*
X75078571Y-142971428D01*
X74221428Y-143828571D01*
X75150000Y-143828571D01*
X76578571Y-143828571D02*
X75721428Y-143828571D01*
X76150000Y-143828571D02*
X76150000Y-142328571D01*
X76007142Y-142542857D01*
X75864285Y-142685714D01*
X75721428Y-142757142D01*
X78364285Y-143257142D02*
X79507142Y-143257142D01*
X82150000Y-142400000D02*
X82007142Y-142328571D01*
X81792857Y-142328571D01*
X81578571Y-142400000D01*
X81435714Y-142542857D01*
X81364285Y-142685714D01*
X81292857Y-142971428D01*
X81292857Y-143185714D01*
X81364285Y-143471428D01*
X81435714Y-143614285D01*
X81578571Y-143757142D01*
X81792857Y-143828571D01*
X81935714Y-143828571D01*
X82150000Y-143757142D01*
X82221428Y-143685714D01*
X82221428Y-143185714D01*
X81935714Y-143185714D01*
X82864285Y-143828571D02*
X82864285Y-142828571D01*
X82864285Y-143114285D02*
X82935714Y-142971428D01*
X83007142Y-142900000D01*
X83150000Y-142828571D01*
X83292857Y-142828571D01*
X84007142Y-143828571D02*
X83864285Y-143757142D01*
X83792857Y-143685714D01*
X83721428Y-143542857D01*
X83721428Y-143114285D01*
X83792857Y-142971428D01*
X83864285Y-142900000D01*
X84007142Y-142828571D01*
X84221428Y-142828571D01*
X84364285Y-142900000D01*
X84435714Y-142971428D01*
X84507142Y-143114285D01*
X84507142Y-143542857D01*
X84435714Y-143685714D01*
X84364285Y-143757142D01*
X84221428Y-143828571D01*
X84007142Y-143828571D01*
X85792857Y-142828571D02*
X85792857Y-143828571D01*
X85150000Y-142828571D02*
X85150000Y-143614285D01*
X85221428Y-143757142D01*
X85364285Y-143828571D01*
X85578571Y-143828571D01*
X85721428Y-143757142D01*
X85792857Y-143685714D01*
X86507142Y-142828571D02*
X86507142Y-144328571D01*
X86507142Y-142900000D02*
X86650000Y-142828571D01*
X86935714Y-142828571D01*
X87078571Y-142900000D01*
X87150000Y-142971428D01*
X87221428Y-143114285D01*
X87221428Y-143542857D01*
X87150000Y-143685714D01*
X87078571Y-143757142D01*
X86935714Y-143828571D01*
X86650000Y-143828571D01*
X86507142Y-143757142D01*
X88935714Y-142471428D02*
X89007142Y-142400000D01*
X89150000Y-142328571D01*
X89507142Y-142328571D01*
X89650000Y-142400000D01*
X89721428Y-142471428D01*
X89792857Y-142614285D01*
X89792857Y-142757142D01*
X89721428Y-142971428D01*
X88864285Y-143828571D01*
X89792857Y-143828571D01*
X75828571Y-144878571D02*
X75828571Y-145950000D01*
X75757142Y-146164285D01*
X75614285Y-146307142D01*
X75400000Y-146378571D01*
X75257142Y-146378571D01*
X77042857Y-145592857D02*
X76542857Y-145592857D01*
X76542857Y-146378571D02*
X76542857Y-144878571D01*
X77257142Y-144878571D01*
X77828571Y-146378571D02*
X77828571Y-144878571D01*
X77828571Y-145592857D02*
X78685714Y-145592857D01*
X78685714Y-146378571D02*
X78685714Y-144878571D01*
X81757142Y-146378571D02*
X81685714Y-146378571D01*
X81542857Y-146307142D01*
X81328571Y-146092857D01*
X80971428Y-145664285D01*
X80828571Y-145450000D01*
X80757142Y-145235714D01*
X80757142Y-145092857D01*
X80828571Y-144950000D01*
X80971428Y-144878571D01*
X81042857Y-144878571D01*
X81185714Y-144950000D01*
X81257142Y-145092857D01*
X81257142Y-145164285D01*
X81185714Y-145307142D01*
X81114285Y-145378571D01*
X80685714Y-145664285D01*
X80614285Y-145735714D01*
X80542857Y-145878571D01*
X80542857Y-146092857D01*
X80614285Y-146235714D01*
X80685714Y-146307142D01*
X80828571Y-146378571D01*
X81042857Y-146378571D01*
X81185714Y-146307142D01*
X81257142Y-146235714D01*
X81471428Y-145950000D01*
X81542857Y-145735714D01*
X81542857Y-145592857D01*
X83542857Y-146378571D02*
X83542857Y-144878571D01*
X83542857Y-145592857D02*
X84400000Y-145592857D01*
X84400000Y-146378571D02*
X84400000Y-144878571D01*
X85900000Y-144950000D02*
X85757142Y-144878571D01*
X85542857Y-144878571D01*
X85328571Y-144950000D01*
X85185714Y-145092857D01*
X85114285Y-145235714D01*
X85042857Y-145521428D01*
X85042857Y-145735714D01*
X85114285Y-146021428D01*
X85185714Y-146164285D01*
X85328571Y-146307142D01*
X85542857Y-146378571D01*
X85685714Y-146378571D01*
X85900000Y-146307142D01*
X85971428Y-146235714D01*
X85971428Y-145735714D01*
X85685714Y-145735714D01*
X86614285Y-146378571D02*
X86614285Y-144878571D01*
X87471428Y-146378571D02*
X86828571Y-145521428D01*
X87471428Y-144878571D02*
X86614285Y-145735714D01*
X75007142Y-148928571D02*
X75007142Y-147428571D01*
X75721428Y-147928571D02*
X75721428Y-148928571D01*
X75721428Y-148071428D02*
X75792857Y-148000000D01*
X75935714Y-147928571D01*
X76150000Y-147928571D01*
X76292857Y-148000000D01*
X76364285Y-148142857D01*
X76364285Y-148928571D01*
X76935714Y-147928571D02*
X77292857Y-148928571D01*
X77650000Y-147928571D01*
X78792857Y-148857142D02*
X78650000Y-148928571D01*
X78364285Y-148928571D01*
X78221428Y-148857142D01*
X78150000Y-148714285D01*
X78150000Y-148142857D01*
X78221428Y-148000000D01*
X78364285Y-147928571D01*
X78650000Y-147928571D01*
X78792857Y-148000000D01*
X78864285Y-148142857D01*
X78864285Y-148285714D01*
X78150000Y-148428571D01*
X79507142Y-148928571D02*
X79507142Y-147928571D01*
X79507142Y-148214285D02*
X79578571Y-148071428D01*
X79650000Y-148000000D01*
X79792857Y-147928571D01*
X79935714Y-147928571D01*
X80221428Y-147928571D02*
X80792857Y-147928571D01*
X80435714Y-147428571D02*
X80435714Y-148714285D01*
X80507142Y-148857142D01*
X80650000Y-148928571D01*
X80792857Y-148928571D01*
X81864285Y-148857142D02*
X81721428Y-148928571D01*
X81435714Y-148928571D01*
X81292857Y-148857142D01*
X81221428Y-148714285D01*
X81221428Y-148142857D01*
X81292857Y-148000000D01*
X81435714Y-147928571D01*
X81721428Y-147928571D01*
X81864285Y-148000000D01*
X81935714Y-148142857D01*
X81935714Y-148285714D01*
X81221428Y-148428571D01*
X82578571Y-148928571D02*
X82578571Y-147928571D01*
X82578571Y-148214285D02*
X82650000Y-148071428D01*
X82721428Y-148000000D01*
X82864285Y-147928571D01*
X83007142Y-147928571D01*
X85364285Y-148928571D02*
X84650000Y-148928571D01*
X84650000Y-147428571D01*
X86435714Y-148857142D02*
X86292857Y-148928571D01*
X86007142Y-148928571D01*
X85864285Y-148857142D01*
X85792857Y-148714285D01*
X85792857Y-148142857D01*
X85864285Y-148000000D01*
X86007142Y-147928571D01*
X86292857Y-147928571D01*
X86435714Y-148000000D01*
X86507142Y-148142857D01*
X86507142Y-148285714D01*
X85792857Y-148428571D01*
X87792857Y-147928571D02*
X87792857Y-149142857D01*
X87721428Y-149285714D01*
X87650000Y-149357142D01*
X87507142Y-149428571D01*
X87292857Y-149428571D01*
X87150000Y-149357142D01*
X87792857Y-148857142D02*
X87650000Y-148928571D01*
X87364285Y-148928571D01*
X87221428Y-148857142D01*
X87150000Y-148785714D01*
X87078571Y-148642857D01*
X87078571Y-148214285D01*
X87150000Y-148071428D01*
X87221428Y-148000000D01*
X87364285Y-147928571D01*
X87650000Y-147928571D01*
X87792857Y-148000000D01*
X83307142Y-79899047D02*
X83307142Y-77359047D01*
X84274761Y-77359047D01*
X84516666Y-77480000D01*
X84637619Y-77600952D01*
X84758571Y-77842857D01*
X84758571Y-78205714D01*
X84637619Y-78447619D01*
X84516666Y-78568571D01*
X84274761Y-78689523D01*
X83307142Y-78689523D01*
X85847142Y-79899047D02*
X85847142Y-77359047D01*
X85847142Y-78568571D02*
X87298571Y-78568571D01*
X87298571Y-79899047D02*
X87298571Y-77359047D01*
X88387142Y-79173333D02*
X89596666Y-79173333D01*
X88145238Y-79899047D02*
X88991904Y-77359047D01*
X89838571Y-79899047D01*
X90564285Y-79778095D02*
X90927142Y-79899047D01*
X91531904Y-79899047D01*
X91773809Y-79778095D01*
X91894761Y-79657142D01*
X92015714Y-79415238D01*
X92015714Y-79173333D01*
X91894761Y-78931428D01*
X91773809Y-78810476D01*
X91531904Y-78689523D01*
X91048095Y-78568571D01*
X90806190Y-78447619D01*
X90685238Y-78326666D01*
X90564285Y-78084761D01*
X90564285Y-77842857D01*
X90685238Y-77600952D01*
X90806190Y-77480000D01*
X91048095Y-77359047D01*
X91652857Y-77359047D01*
X92015714Y-77480000D01*
X93104285Y-78568571D02*
X93950952Y-78568571D01*
X94313809Y-79899047D02*
X93104285Y-79899047D01*
X93104285Y-77359047D01*
X94313809Y-77359047D01*
X53085238Y-85068571D02*
X53448095Y-85189523D01*
X53569047Y-85310476D01*
X53690000Y-85552380D01*
X53690000Y-85915238D01*
X53569047Y-86157142D01*
X53448095Y-86278095D01*
X53206190Y-86399047D01*
X52238571Y-86399047D01*
X52238571Y-83859047D01*
X53085238Y-83859047D01*
X53327142Y-83980000D01*
X53448095Y-84100952D01*
X53569047Y-84342857D01*
X53569047Y-84584761D01*
X53448095Y-84826666D01*
X53327142Y-84947619D01*
X53085238Y-85068571D01*
X52238571Y-85068571D01*
X54657619Y-85673333D02*
X55867142Y-85673333D01*
X54415714Y-86399047D02*
X55262380Y-83859047D01*
X56109047Y-86399047D01*
X56592857Y-83859047D02*
X58044285Y-83859047D01*
X57318571Y-86399047D02*
X57318571Y-83859047D01*
X58528095Y-83859047D02*
X59979523Y-83859047D01*
X59253809Y-86399047D02*
X59253809Y-83859047D01*
X60826190Y-85431428D02*
X62761428Y-85431428D01*
X61793809Y-86399047D02*
X61793809Y-84463809D01*
X116335238Y-85318571D02*
X116698095Y-85439523D01*
X116819047Y-85560476D01*
X116940000Y-85802380D01*
X116940000Y-86165238D01*
X116819047Y-86407142D01*
X116698095Y-86528095D01*
X116456190Y-86649047D01*
X115488571Y-86649047D01*
X115488571Y-84109047D01*
X116335238Y-84109047D01*
X116577142Y-84230000D01*
X116698095Y-84350952D01*
X116819047Y-84592857D01*
X116819047Y-84834761D01*
X116698095Y-85076666D01*
X116577142Y-85197619D01*
X116335238Y-85318571D01*
X115488571Y-85318571D01*
X117907619Y-85923333D02*
X119117142Y-85923333D01*
X117665714Y-86649047D02*
X118512380Y-84109047D01*
X119359047Y-86649047D01*
X119842857Y-84109047D02*
X121294285Y-84109047D01*
X120568571Y-86649047D02*
X120568571Y-84109047D01*
X121778095Y-84109047D02*
X123229523Y-84109047D01*
X122503809Y-86649047D02*
X122503809Y-84109047D01*
X124076190Y-85681428D02*
X126011428Y-85681428D01*
D11*
X109702380Y-119345238D02*
X108702380Y-119345238D01*
X108702380Y-119107142D01*
X108750000Y-118964285D01*
X108845238Y-118869047D01*
X108940476Y-118821428D01*
X109130952Y-118773809D01*
X109273809Y-118773809D01*
X109464285Y-118821428D01*
X109559523Y-118869047D01*
X109654761Y-118964285D01*
X109702380Y-119107142D01*
X109702380Y-119345238D01*
X109702380Y-117773809D02*
X109226190Y-118107142D01*
X109702380Y-118345238D02*
X108702380Y-118345238D01*
X108702380Y-117964285D01*
X108750000Y-117869047D01*
X108797619Y-117821428D01*
X108892857Y-117773809D01*
X109035714Y-117773809D01*
X109130952Y-117821428D01*
X109178571Y-117869047D01*
X109226190Y-117964285D01*
X109226190Y-118345238D01*
X108702380Y-117488095D02*
X109702380Y-117154761D01*
X108702380Y-116821428D01*
X109797619Y-116726190D02*
X109797619Y-115964285D01*
X109702380Y-115726190D02*
X108702380Y-115726190D01*
X109178571Y-115726190D02*
X109178571Y-115154761D01*
X109702380Y-115154761D02*
X108702380Y-115154761D01*
X111702380Y-119345238D02*
X110702380Y-119345238D01*
X110702380Y-119107142D01*
X110750000Y-118964285D01*
X110845238Y-118869047D01*
X110940476Y-118821428D01*
X111130952Y-118773809D01*
X111273809Y-118773809D01*
X111464285Y-118821428D01*
X111559523Y-118869047D01*
X111654761Y-118964285D01*
X111702380Y-119107142D01*
X111702380Y-119345238D01*
X111702380Y-117773809D02*
X111226190Y-118107142D01*
X111702380Y-118345238D02*
X110702380Y-118345238D01*
X110702380Y-117964285D01*
X110750000Y-117869047D01*
X110797619Y-117821428D01*
X110892857Y-117773809D01*
X111035714Y-117773809D01*
X111130952Y-117821428D01*
X111178571Y-117869047D01*
X111226190Y-117964285D01*
X111226190Y-118345238D01*
X110702380Y-117488095D02*
X111702380Y-117154761D01*
X110702380Y-116821428D01*
X111797619Y-116726190D02*
X111797619Y-115964285D01*
X111702380Y-115726190D02*
X110702380Y-115726190D01*
X111178571Y-115726190D02*
X111178571Y-115154761D01*
X111702380Y-115154761D02*
X110702380Y-115154761D01*
X109702380Y-123750000D02*
X109226190Y-124083333D01*
X109702380Y-124321428D02*
X108702380Y-124321428D01*
X108702380Y-123940476D01*
X108750000Y-123845238D01*
X108797619Y-123797619D01*
X108892857Y-123750000D01*
X109035714Y-123750000D01*
X109130952Y-123797619D01*
X109178571Y-123845238D01*
X109226190Y-123940476D01*
X109226190Y-124321428D01*
X108702380Y-123464285D02*
X108702380Y-122892857D01*
X109702380Y-123178571D02*
X108702380Y-123178571D01*
X109702380Y-122559523D02*
X108702380Y-122559523D01*
X109702380Y-121988095D01*
X108702380Y-121988095D01*
X109797619Y-121750000D02*
X109797619Y-120988095D01*
X109702380Y-120750000D02*
X108702380Y-120750000D01*
X109178571Y-120750000D02*
X109178571Y-120178571D01*
X109702380Y-120178571D02*
X108702380Y-120178571D01*
X111702380Y-123750000D02*
X111226190Y-124083333D01*
X111702380Y-124321428D02*
X110702380Y-124321428D01*
X110702380Y-123940476D01*
X110750000Y-123845238D01*
X110797619Y-123797619D01*
X110892857Y-123750000D01*
X111035714Y-123750000D01*
X111130952Y-123797619D01*
X111178571Y-123845238D01*
X111226190Y-123940476D01*
X111226190Y-124321428D01*
X110702380Y-123464285D02*
X110702380Y-122892857D01*
X111702380Y-123178571D02*
X110702380Y-123178571D01*
X111702380Y-122559523D02*
X110702380Y-122559523D01*
X111702380Y-121988095D01*
X110702380Y-121988095D01*
X111797619Y-121750000D02*
X111797619Y-120988095D01*
X111702380Y-120750000D02*
X110702380Y-120750000D01*
X111178571Y-120750000D02*
X111178571Y-120178571D01*
X111702380Y-120178571D02*
X110702380Y-120178571D01*
D12*
X108250000Y-119750000D02*
X112250000Y-119750000D01*
X112250000Y-124750000D02*
X108250000Y-124750000D01*
X108250000Y-114750000D02*
X112250000Y-114750000D01*
X112250000Y-114750000D02*
X112250000Y-124750000D01*
X108250000Y-124750000D02*
X108250000Y-114750000D01*
X110250000Y-114750000D02*
X110250000Y-124750000D01*
X108750000Y-142500000D02*
X112750000Y-142500000D01*
X110750000Y-137500000D02*
X110750000Y-147500000D01*
X108750000Y-147500000D02*
X108750000Y-137500000D01*
X112750000Y-147500000D02*
X108750000Y-147500000D01*
X112750000Y-137500000D02*
X112750000Y-147500000D01*
X108750000Y-137500000D02*
X112750000Y-137500000D01*
D11*
X110202380Y-141976190D02*
X109202380Y-141976190D01*
X109202380Y-141738095D01*
X109250000Y-141595238D01*
X109345238Y-141500000D01*
X109440476Y-141452380D01*
X109630952Y-141404761D01*
X109773809Y-141404761D01*
X109964285Y-141452380D01*
X110059523Y-141500000D01*
X110154761Y-141595238D01*
X110202380Y-141738095D01*
X110202380Y-141976190D01*
X110202380Y-140404761D02*
X109726190Y-140738095D01*
X110202380Y-140976190D02*
X109202380Y-140976190D01*
X109202380Y-140595238D01*
X109250000Y-140500000D01*
X109297619Y-140452380D01*
X109392857Y-140404761D01*
X109535714Y-140404761D01*
X109630952Y-140452380D01*
X109678571Y-140500000D01*
X109726190Y-140595238D01*
X109726190Y-140976190D01*
X109202380Y-140119047D02*
X110202380Y-139785714D01*
X109202380Y-139452380D01*
X110297619Y-139357142D02*
X110297619Y-138595238D01*
X110202380Y-137880952D02*
X110202380Y-138357142D01*
X109202380Y-138357142D01*
X112202380Y-141976190D02*
X111202380Y-141976190D01*
X111202380Y-141738095D01*
X111250000Y-141595238D01*
X111345238Y-141500000D01*
X111440476Y-141452380D01*
X111630952Y-141404761D01*
X111773809Y-141404761D01*
X111964285Y-141452380D01*
X112059523Y-141500000D01*
X112154761Y-141595238D01*
X112202380Y-141738095D01*
X112202380Y-141976190D01*
X112202380Y-140404761D02*
X111726190Y-140738095D01*
X112202380Y-140976190D02*
X111202380Y-140976190D01*
X111202380Y-140595238D01*
X111250000Y-140500000D01*
X111297619Y-140452380D01*
X111392857Y-140404761D01*
X111535714Y-140404761D01*
X111630952Y-140452380D01*
X111678571Y-140500000D01*
X111726190Y-140595238D01*
X111726190Y-140976190D01*
X111202380Y-140119047D02*
X112202380Y-139785714D01*
X111202380Y-139452380D01*
X112297619Y-139357142D02*
X112297619Y-138595238D01*
X112202380Y-137880952D02*
X112202380Y-138357142D01*
X111202380Y-138357142D01*
X110202380Y-146380952D02*
X109726190Y-146714285D01*
X110202380Y-146952380D02*
X109202380Y-146952380D01*
X109202380Y-146571428D01*
X109250000Y-146476190D01*
X109297619Y-146428571D01*
X109392857Y-146380952D01*
X109535714Y-146380952D01*
X109630952Y-146428571D01*
X109678571Y-146476190D01*
X109726190Y-146571428D01*
X109726190Y-146952380D01*
X109202380Y-146095238D02*
X109202380Y-145523809D01*
X110202380Y-145809523D02*
X109202380Y-145809523D01*
X110202380Y-145190476D02*
X109202380Y-145190476D01*
X110202380Y-144619047D01*
X109202380Y-144619047D01*
X110297619Y-144380952D02*
X110297619Y-143619047D01*
X110202380Y-142904761D02*
X110202380Y-143380952D01*
X109202380Y-143380952D01*
X112202380Y-146380952D02*
X111726190Y-146714285D01*
X112202380Y-146952380D02*
X111202380Y-146952380D01*
X111202380Y-146571428D01*
X111250000Y-146476190D01*
X111297619Y-146428571D01*
X111392857Y-146380952D01*
X111535714Y-146380952D01*
X111630952Y-146428571D01*
X111678571Y-146476190D01*
X111726190Y-146571428D01*
X111726190Y-146952380D01*
X111202380Y-146095238D02*
X111202380Y-145523809D01*
X112202380Y-145809523D02*
X111202380Y-145809523D01*
X112202380Y-145190476D02*
X111202380Y-145190476D01*
X112202380Y-144619047D01*
X111202380Y-144619047D01*
X112297619Y-144380952D02*
X112297619Y-143619047D01*
X112202380Y-142904761D02*
X112202380Y-143380952D01*
X111202380Y-143380952D01*
D12*
X72500000Y-132750000D02*
X67750000Y-132750000D01*
X70000000Y-128000000D02*
X70000000Y-137750000D01*
D11*
X71428571Y-131988095D02*
X71476190Y-131845238D01*
X71523809Y-131797619D01*
X71619047Y-131750000D01*
X71761904Y-131750000D01*
X71857142Y-131797619D01*
X71904761Y-131845238D01*
X71952380Y-131940476D01*
X71952380Y-132321428D01*
X70952380Y-132321428D01*
X70952380Y-131988095D01*
X71000000Y-131892857D01*
X71047619Y-131845238D01*
X71142857Y-131797619D01*
X71238095Y-131797619D01*
X71333333Y-131845238D01*
X71380952Y-131892857D01*
X71428571Y-131988095D01*
X71428571Y-132321428D01*
X71666666Y-131369047D02*
X71666666Y-130892857D01*
X71952380Y-131464285D02*
X70952380Y-131130952D01*
X71952380Y-130797619D01*
X70952380Y-130607142D02*
X70952380Y-130035714D01*
X71952380Y-130321428D02*
X70952380Y-130321428D01*
X70952380Y-129845238D02*
X70952380Y-129273809D01*
X71952380Y-129559523D02*
X70952380Y-129559523D01*
X71571428Y-128940476D02*
X71571428Y-128178571D01*
X71428571Y-136988095D02*
X71476190Y-136845238D01*
X71523809Y-136797619D01*
X71619047Y-136750000D01*
X71761904Y-136750000D01*
X71857142Y-136797619D01*
X71904761Y-136845238D01*
X71952380Y-136940476D01*
X71952380Y-137321428D01*
X70952380Y-137321428D01*
X70952380Y-136988095D01*
X71000000Y-136892857D01*
X71047619Y-136845238D01*
X71142857Y-136797619D01*
X71238095Y-136797619D01*
X71333333Y-136845238D01*
X71380952Y-136892857D01*
X71428571Y-136988095D01*
X71428571Y-137321428D01*
X71666666Y-136369047D02*
X71666666Y-135892857D01*
X71952380Y-136464285D02*
X70952380Y-136130952D01*
X71952380Y-135797619D01*
X70952380Y-135607142D02*
X70952380Y-135035714D01*
X71952380Y-135321428D02*
X70952380Y-135321428D01*
X70952380Y-134845238D02*
X70952380Y-134273809D01*
X71952380Y-134559523D02*
X70952380Y-134559523D01*
X71571428Y-133940476D02*
X71571428Y-133178571D01*
X68678571Y-131988095D02*
X68726190Y-131845238D01*
X68773809Y-131797619D01*
X68869047Y-131750000D01*
X69011904Y-131750000D01*
X69107142Y-131797619D01*
X69154761Y-131845238D01*
X69202380Y-131940476D01*
X69202380Y-132321428D01*
X68202380Y-132321428D01*
X68202380Y-131988095D01*
X68250000Y-131892857D01*
X68297619Y-131845238D01*
X68392857Y-131797619D01*
X68488095Y-131797619D01*
X68583333Y-131845238D01*
X68630952Y-131892857D01*
X68678571Y-131988095D01*
X68678571Y-132321428D01*
X68916666Y-131369047D02*
X68916666Y-130892857D01*
X69202380Y-131464285D02*
X68202380Y-131130952D01*
X69202380Y-130797619D01*
X68202380Y-130607142D02*
X68202380Y-130035714D01*
X69202380Y-130321428D02*
X68202380Y-130321428D01*
X68202380Y-129845238D02*
X68202380Y-129273809D01*
X69202380Y-129559523D02*
X68202380Y-129559523D01*
X68821428Y-128940476D02*
X68821428Y-128178571D01*
X69202380Y-128559523D02*
X68440476Y-128559523D01*
X68678571Y-137238095D02*
X68726190Y-137095238D01*
X68773809Y-137047619D01*
X68869047Y-137000000D01*
X69011904Y-137000000D01*
X69107142Y-137047619D01*
X69154761Y-137095238D01*
X69202380Y-137190476D01*
X69202380Y-137571428D01*
X68202380Y-137571428D01*
X68202380Y-137238095D01*
X68250000Y-137142857D01*
X68297619Y-137095238D01*
X68392857Y-137047619D01*
X68488095Y-137047619D01*
X68583333Y-137095238D01*
X68630952Y-137142857D01*
X68678571Y-137238095D01*
X68678571Y-137571428D01*
X68916666Y-136619047D02*
X68916666Y-136142857D01*
X69202380Y-136714285D02*
X68202380Y-136380952D01*
X69202380Y-136047619D01*
X68202380Y-135857142D02*
X68202380Y-135285714D01*
X69202380Y-135571428D02*
X68202380Y-135571428D01*
X68202380Y-135095238D02*
X68202380Y-134523809D01*
X69202380Y-134809523D02*
X68202380Y-134809523D01*
X68821428Y-134190476D02*
X68821428Y-133428571D01*
X69202380Y-133809523D02*
X68440476Y-133809523D01*
D12*
X72500000Y-128000000D02*
X67750000Y-128000000D01*
X72500000Y-137750000D02*
X72500000Y-128000000D01*
X67750000Y-137750000D02*
X72500000Y-137750000D01*
X67750000Y-128000000D02*
X67750000Y-137750000D01*
X76410000Y-79050000D02*
X66500000Y-79050000D01*
X77900000Y-89150000D02*
X66500000Y-89150000D01*
X76410000Y-97450000D02*
X66500000Y-97450000D01*
X77900000Y-107550000D02*
X66500000Y-107550000D01*
X110410000Y-78950000D02*
X100500000Y-78950000D01*
X111900000Y-89050000D02*
X100500000Y-89050000D01*
X110410000Y-97450000D02*
X100500000Y-97450000D01*
X111900000Y-107550000D02*
X100500000Y-107550000D01*
X115945000Y-145620000D02*
X116695000Y-145620000D01*
X115945000Y-140320000D02*
X116695000Y-140320000D01*
X118970000Y-145620000D02*
X118485000Y-145620000D01*
X118970000Y-140320000D02*
X118970000Y-145620000D01*
X118485000Y-140320000D02*
X118970000Y-140320000D01*
X113670000Y-145620000D02*
X114155000Y-145620000D01*
X113670000Y-140320000D02*
X113670000Y-145620000D01*
X114155000Y-140320000D02*
X113670000Y-140320000D01*
X114155000Y-139300000D02*
X114155000Y-140320000D01*
X116335000Y-116730000D02*
X115585000Y-116730000D01*
X116335000Y-122030000D02*
X115585000Y-122030000D01*
X113310000Y-116730000D02*
X113795000Y-116730000D01*
X113310000Y-122030000D02*
X113310000Y-116730000D01*
X113795000Y-122030000D02*
X113310000Y-122030000D01*
X118610000Y-116730000D02*
X118125000Y-116730000D01*
X118610000Y-122030000D02*
X118610000Y-116730000D01*
X118125000Y-122030000D02*
X118610000Y-122030000D01*
X118125000Y-123050000D02*
X118125000Y-122030000D01*
X63245000Y-135570000D02*
X63995000Y-135570000D01*
X63245000Y-130270000D02*
X63995000Y-130270000D01*
X66270000Y-135570000D02*
X65785000Y-135570000D01*
X66270000Y-130270000D02*
X66270000Y-135570000D01*
X65785000Y-130270000D02*
X66270000Y-130270000D01*
X60970000Y-135570000D02*
X61455000Y-135570000D01*
X60970000Y-130270000D02*
X60970000Y-135570000D01*
X61455000Y-130270000D02*
X60970000Y-130270000D01*
X61455000Y-129250000D02*
X61455000Y-130270000D01*
D13*
X115350000Y-113125000D02*
X115350000Y-111900000D01*
X112450000Y-113125000D02*
X115350000Y-113125000D01*
X112450000Y-111900000D02*
X112450000Y-113125000D01*
X114950000Y-108725000D02*
X114950000Y-110200000D01*
X114950000Y-109575000D02*
X114600000Y-109150000D01*
X114600000Y-109150000D02*
X115300000Y-109150000D01*
X115300000Y-109150000D02*
X114950000Y-109575000D01*
X114950000Y-109575000D02*
X114600000Y-109575000D01*
X114600000Y-109575000D02*
X114600000Y-109675000D01*
X114600000Y-109675000D02*
X114675000Y-109675000D01*
X114950000Y-109575000D02*
X115300000Y-109575000D01*
X115300000Y-109575000D02*
X115300000Y-109475000D01*
X115300000Y-109475000D02*
X115225000Y-109475000D01*
X107275000Y-94850000D02*
X108500000Y-94850000D01*
X107275000Y-91950000D02*
X107275000Y-94850000D01*
X108500000Y-91950000D02*
X107275000Y-91950000D01*
X111675000Y-94450000D02*
X110200000Y-94450000D01*
X110825000Y-94450000D02*
X111250000Y-94100000D01*
X111250000Y-94100000D02*
X111250000Y-94800000D01*
X111250000Y-94800000D02*
X110825000Y-94450000D01*
X110825000Y-94450000D02*
X110825000Y-94100000D01*
X110825000Y-94100000D02*
X110725000Y-94100000D01*
X110725000Y-94100000D02*
X110725000Y-94175000D01*
X110825000Y-94450000D02*
X110825000Y-94800000D01*
X110825000Y-94800000D02*
X110925000Y-94800000D01*
X110925000Y-94800000D02*
X110925000Y-94725000D01*
X81750000Y-113025000D02*
X81750000Y-111800000D01*
X78850000Y-113025000D02*
X81750000Y-113025000D01*
X78850000Y-111800000D02*
X78850000Y-113025000D01*
X81350000Y-108625000D02*
X81350000Y-110100000D01*
X81350000Y-109475000D02*
X81000000Y-109050000D01*
X81000000Y-109050000D02*
X81700000Y-109050000D01*
X81700000Y-109050000D02*
X81350000Y-109475000D01*
X81350000Y-109475000D02*
X81000000Y-109475000D01*
X81000000Y-109475000D02*
X81000000Y-109575000D01*
X81000000Y-109575000D02*
X81075000Y-109575000D01*
X81350000Y-109475000D02*
X81700000Y-109475000D01*
X81700000Y-109475000D02*
X81700000Y-109375000D01*
X81700000Y-109375000D02*
X81625000Y-109375000D01*
X73275000Y-94950000D02*
X74500000Y-94950000D01*
X73275000Y-92050000D02*
X73275000Y-94950000D01*
X74500000Y-92050000D02*
X73275000Y-92050000D01*
X77675000Y-94550000D02*
X76200000Y-94550000D01*
X76825000Y-94550000D02*
X77250000Y-94200000D01*
X77250000Y-94200000D02*
X77250000Y-94900000D01*
X77250000Y-94900000D02*
X76825000Y-94550000D01*
X76825000Y-94550000D02*
X76825000Y-94200000D01*
X76825000Y-94200000D02*
X76725000Y-94200000D01*
X76725000Y-94200000D02*
X76725000Y-94275000D01*
X76825000Y-94550000D02*
X76825000Y-94900000D01*
X76825000Y-94900000D02*
X76925000Y-94900000D01*
X76925000Y-94900000D02*
X76925000Y-94825000D01*
D12*
X109790000Y-111227064D02*
X109790000Y-109772936D01*
X111610000Y-111227064D02*
X111610000Y-109772936D01*
X108822936Y-89790000D02*
X110277064Y-89790000D01*
X108822936Y-91610000D02*
X110277064Y-91610000D01*
X75590000Y-111327064D02*
X75590000Y-109872936D01*
X77410000Y-111327064D02*
X77410000Y-109872936D01*
X74772936Y-89890000D02*
X76227064Y-89890000D01*
X74772936Y-91710000D02*
X76227064Y-91710000D01*
X115765000Y-110227064D02*
X115765000Y-109772936D01*
X117235000Y-110227064D02*
X117235000Y-109772936D01*
X108772936Y-95165000D02*
X109227064Y-95165000D01*
X108772936Y-96635000D02*
X109227064Y-96635000D01*
X82065000Y-110227064D02*
X82065000Y-109772936D01*
X83535000Y-110227064D02*
X83535000Y-109772936D01*
X74772936Y-95265000D02*
X75227064Y-95265000D01*
X74772936Y-96735000D02*
X75227064Y-96735000D01*
X71622936Y-75690000D02*
X73077064Y-75690000D01*
X71622936Y-77510000D02*
X73077064Y-77510000D01*
X76688748Y-75690000D02*
X78111252Y-75690000D01*
X76688748Y-77510000D02*
X78111252Y-77510000D01*
X108788748Y-77510000D02*
X110211252Y-77510000D01*
X108788748Y-75690000D02*
X110211252Y-75690000D01*
X88288748Y-67310000D02*
X89711252Y-67310000D01*
X88288748Y-65490000D02*
X89711252Y-65490000D01*
X88288748Y-67790000D02*
X89711252Y-67790000D01*
X88288748Y-69610000D02*
X89711252Y-69610000D01*
X88288748Y-71910000D02*
X89711252Y-71910000D01*
X88288748Y-70090000D02*
X89711252Y-70090000D01*
X88288748Y-72390000D02*
X89711252Y-72390000D01*
X88288748Y-74210000D02*
X89711252Y-74210000D01*
X103772936Y-77510000D02*
X105227064Y-77510000D01*
X103772936Y-75690000D02*
X105227064Y-75690000D01*
D11*
X125238095Y-142602380D02*
X125238095Y-141602380D01*
X125238095Y-142078571D02*
X125809523Y-142078571D01*
X125809523Y-142602380D02*
X125809523Y-141602380D01*
X126714285Y-141935714D02*
X126714285Y-142602380D01*
X126476190Y-141554761D02*
X126238095Y-142269047D01*
X126857142Y-142269047D01*
X120738095Y-64452380D02*
X120738095Y-63452380D01*
X120738095Y-63928571D02*
X121309523Y-63928571D01*
X121309523Y-64452380D02*
X121309523Y-63452380D01*
X121690476Y-63452380D02*
X122309523Y-63452380D01*
X121976190Y-63833333D01*
X122119047Y-63833333D01*
X122214285Y-63880952D01*
X122261904Y-63928571D01*
X122309523Y-64023809D01*
X122309523Y-64261904D01*
X122261904Y-64357142D01*
X122214285Y-64404761D01*
X122119047Y-64452380D01*
X121833333Y-64452380D01*
X121738095Y-64404761D01*
X121690476Y-64357142D01*
X53238095Y-142602380D02*
X53238095Y-141602380D01*
X53238095Y-142078571D02*
X53809523Y-142078571D01*
X53809523Y-142602380D02*
X53809523Y-141602380D01*
X54238095Y-141697619D02*
X54285714Y-141650000D01*
X54380952Y-141602380D01*
X54619047Y-141602380D01*
X54714285Y-141650000D01*
X54761904Y-141697619D01*
X54809523Y-141792857D01*
X54809523Y-141888095D01*
X54761904Y-142030952D01*
X54190476Y-142602380D01*
X54809523Y-142602380D01*
X57238095Y-64452380D02*
X57238095Y-63452380D01*
X57238095Y-63928571D02*
X57809523Y-63928571D01*
X57809523Y-64452380D02*
X57809523Y-63452380D01*
X58809523Y-64452380D02*
X58238095Y-64452380D01*
X58523809Y-64452380D02*
X58523809Y-63452380D01*
X58428571Y-63595238D01*
X58333333Y-63690476D01*
X58238095Y-63738095D01*
X64222619Y-88821428D02*
X64175000Y-88916666D01*
X64079761Y-89011904D01*
X63936904Y-89154761D01*
X63889285Y-89250000D01*
X63889285Y-89345238D01*
X64127380Y-89297619D02*
X64079761Y-89392857D01*
X63984523Y-89488095D01*
X63794047Y-89535714D01*
X63460714Y-89535714D01*
X63270238Y-89488095D01*
X63175000Y-89392857D01*
X63127380Y-89297619D01*
X63127380Y-89107142D01*
X63175000Y-89011904D01*
X63270238Y-88916666D01*
X63460714Y-88869047D01*
X63794047Y-88869047D01*
X63984523Y-88916666D01*
X64079761Y-89011904D01*
X64127380Y-89107142D01*
X64127380Y-89297619D01*
X64127380Y-87916666D02*
X64127380Y-88488095D01*
X64127380Y-88202380D02*
X63127380Y-88202380D01*
X63270238Y-88297619D01*
X63365476Y-88392857D01*
X63413095Y-88488095D01*
X64127380Y-86964285D02*
X64127380Y-87535714D01*
X64127380Y-87250000D02*
X63127380Y-87250000D01*
X63270238Y-87345238D01*
X63365476Y-87440476D01*
X63413095Y-87535714D01*
X64322619Y-107196428D02*
X64275000Y-107291666D01*
X64179761Y-107386904D01*
X64036904Y-107529761D01*
X63989285Y-107625000D01*
X63989285Y-107720238D01*
X64227380Y-107672619D02*
X64179761Y-107767857D01*
X64084523Y-107863095D01*
X63894047Y-107910714D01*
X63560714Y-107910714D01*
X63370238Y-107863095D01*
X63275000Y-107767857D01*
X63227380Y-107672619D01*
X63227380Y-107482142D01*
X63275000Y-107386904D01*
X63370238Y-107291666D01*
X63560714Y-107244047D01*
X63894047Y-107244047D01*
X64084523Y-107291666D01*
X64179761Y-107386904D01*
X64227380Y-107482142D01*
X64227380Y-107672619D01*
X64227380Y-106291666D02*
X64227380Y-106863095D01*
X64227380Y-106577380D02*
X63227380Y-106577380D01*
X63370238Y-106672619D01*
X63465476Y-106767857D01*
X63513095Y-106863095D01*
X63322619Y-105910714D02*
X63275000Y-105863095D01*
X63227380Y-105767857D01*
X63227380Y-105529761D01*
X63275000Y-105434523D01*
X63322619Y-105386904D01*
X63417857Y-105339285D01*
X63513095Y-105339285D01*
X63655952Y-105386904D01*
X64227380Y-105958333D01*
X64227380Y-105339285D01*
X98097619Y-88746428D02*
X98050000Y-88841666D01*
X97954761Y-88936904D01*
X97811904Y-89079761D01*
X97764285Y-89175000D01*
X97764285Y-89270238D01*
X98002380Y-89222619D02*
X97954761Y-89317857D01*
X97859523Y-89413095D01*
X97669047Y-89460714D01*
X97335714Y-89460714D01*
X97145238Y-89413095D01*
X97050000Y-89317857D01*
X97002380Y-89222619D01*
X97002380Y-89032142D01*
X97050000Y-88936904D01*
X97145238Y-88841666D01*
X97335714Y-88794047D01*
X97669047Y-88794047D01*
X97859523Y-88841666D01*
X97954761Y-88936904D01*
X98002380Y-89032142D01*
X98002380Y-89222619D01*
X97097619Y-88413095D02*
X97050000Y-88365476D01*
X97002380Y-88270238D01*
X97002380Y-88032142D01*
X97050000Y-87936904D01*
X97097619Y-87889285D01*
X97192857Y-87841666D01*
X97288095Y-87841666D01*
X97430952Y-87889285D01*
X98002380Y-88460714D01*
X98002380Y-87841666D01*
X98002380Y-86889285D02*
X98002380Y-87460714D01*
X98002380Y-87175000D02*
X97002380Y-87175000D01*
X97145238Y-87270238D01*
X97240476Y-87365476D01*
X97288095Y-87460714D01*
X98147619Y-107371428D02*
X98100000Y-107466666D01*
X98004761Y-107561904D01*
X97861904Y-107704761D01*
X97814285Y-107800000D01*
X97814285Y-107895238D01*
X98052380Y-107847619D02*
X98004761Y-107942857D01*
X97909523Y-108038095D01*
X97719047Y-108085714D01*
X97385714Y-108085714D01*
X97195238Y-108038095D01*
X97100000Y-107942857D01*
X97052380Y-107847619D01*
X97052380Y-107657142D01*
X97100000Y-107561904D01*
X97195238Y-107466666D01*
X97385714Y-107419047D01*
X97719047Y-107419047D01*
X97909523Y-107466666D01*
X98004761Y-107561904D01*
X98052380Y-107657142D01*
X98052380Y-107847619D01*
X97147619Y-107038095D02*
X97100000Y-106990476D01*
X97052380Y-106895238D01*
X97052380Y-106657142D01*
X97100000Y-106561904D01*
X97147619Y-106514285D01*
X97242857Y-106466666D01*
X97338095Y-106466666D01*
X97480952Y-106514285D01*
X98052380Y-107085714D01*
X98052380Y-106466666D01*
X97147619Y-106085714D02*
X97100000Y-106038095D01*
X97052380Y-105942857D01*
X97052380Y-105704761D01*
X97100000Y-105609523D01*
X97147619Y-105561904D01*
X97242857Y-105514285D01*
X97338095Y-105514285D01*
X97480952Y-105561904D01*
X98052380Y-106133333D01*
X98052380Y-105514285D01*
X115986666Y-137552380D02*
X115986666Y-138266666D01*
X115939047Y-138409523D01*
X115843809Y-138504761D01*
X115700952Y-138552380D01*
X115605714Y-138552380D01*
X116367619Y-137552380D02*
X116986666Y-137552380D01*
X116653333Y-137933333D01*
X116796190Y-137933333D01*
X116891428Y-137980952D01*
X116939047Y-138028571D01*
X116986666Y-138123809D01*
X116986666Y-138361904D01*
X116939047Y-138457142D01*
X116891428Y-138504761D01*
X116796190Y-138552380D01*
X116510476Y-138552380D01*
X116415238Y-138504761D01*
X116367619Y-138457142D01*
X115626666Y-123702380D02*
X115626666Y-124416666D01*
X115579047Y-124559523D01*
X115483809Y-124654761D01*
X115340952Y-124702380D01*
X115245714Y-124702380D01*
X116055238Y-123797619D02*
X116102857Y-123750000D01*
X116198095Y-123702380D01*
X116436190Y-123702380D01*
X116531428Y-123750000D01*
X116579047Y-123797619D01*
X116626666Y-123892857D01*
X116626666Y-123988095D01*
X116579047Y-124130952D01*
X116007619Y-124702380D01*
X116626666Y-124702380D01*
X63286666Y-127502380D02*
X63286666Y-128216666D01*
X63239047Y-128359523D01*
X63143809Y-128454761D01*
X63000952Y-128502380D01*
X62905714Y-128502380D01*
X64286666Y-128502380D02*
X63715238Y-128502380D01*
X64000952Y-128502380D02*
X64000952Y-127502380D01*
X63905714Y-127645238D01*
X63810476Y-127740476D01*
X63715238Y-127788095D01*
X114352380Y-108514285D02*
X113352380Y-108514285D01*
X113352380Y-108276190D01*
X113400000Y-108133333D01*
X113495238Y-108038095D01*
X113590476Y-107990476D01*
X113780952Y-107942857D01*
X113923809Y-107942857D01*
X114114285Y-107990476D01*
X114209523Y-108038095D01*
X114304761Y-108133333D01*
X114352380Y-108276190D01*
X114352380Y-108514285D01*
X113447619Y-107561904D02*
X113400000Y-107514285D01*
X113352380Y-107419047D01*
X113352380Y-107180952D01*
X113400000Y-107085714D01*
X113447619Y-107038095D01*
X113542857Y-106990476D01*
X113638095Y-106990476D01*
X113780952Y-107038095D01*
X114352380Y-107609523D01*
X114352380Y-106990476D01*
X113447619Y-106609523D02*
X113400000Y-106561904D01*
X113352380Y-106466666D01*
X113352380Y-106228571D01*
X113400000Y-106133333D01*
X113447619Y-106085714D01*
X113542857Y-106038095D01*
X113638095Y-106038095D01*
X113780952Y-106085714D01*
X114352380Y-106657142D01*
X114352380Y-106038095D01*
X111985714Y-93852380D02*
X111985714Y-92852380D01*
X112223809Y-92852380D01*
X112366666Y-92900000D01*
X112461904Y-92995238D01*
X112509523Y-93090476D01*
X112557142Y-93280952D01*
X112557142Y-93423809D01*
X112509523Y-93614285D01*
X112461904Y-93709523D01*
X112366666Y-93804761D01*
X112223809Y-93852380D01*
X111985714Y-93852380D01*
X112938095Y-92947619D02*
X112985714Y-92900000D01*
X113080952Y-92852380D01*
X113319047Y-92852380D01*
X113414285Y-92900000D01*
X113461904Y-92947619D01*
X113509523Y-93042857D01*
X113509523Y-93138095D01*
X113461904Y-93280952D01*
X112890476Y-93852380D01*
X113509523Y-93852380D01*
X114461904Y-93852380D02*
X113890476Y-93852380D01*
X114176190Y-93852380D02*
X114176190Y-92852380D01*
X114080952Y-92995238D01*
X113985714Y-93090476D01*
X113890476Y-93138095D01*
X80752380Y-115714285D02*
X79752380Y-115714285D01*
X79752380Y-115476190D01*
X79800000Y-115333333D01*
X79895238Y-115238095D01*
X79990476Y-115190476D01*
X80180952Y-115142857D01*
X80323809Y-115142857D01*
X80514285Y-115190476D01*
X80609523Y-115238095D01*
X80704761Y-115333333D01*
X80752380Y-115476190D01*
X80752380Y-115714285D01*
X80752380Y-114190476D02*
X80752380Y-114761904D01*
X80752380Y-114476190D02*
X79752380Y-114476190D01*
X79895238Y-114571428D01*
X79990476Y-114666666D01*
X80038095Y-114761904D01*
X79847619Y-113809523D02*
X79800000Y-113761904D01*
X79752380Y-113666666D01*
X79752380Y-113428571D01*
X79800000Y-113333333D01*
X79847619Y-113285714D01*
X79942857Y-113238095D01*
X80038095Y-113238095D01*
X80180952Y-113285714D01*
X80752380Y-113857142D01*
X80752380Y-113238095D01*
X77985714Y-93952380D02*
X77985714Y-92952380D01*
X78223809Y-92952380D01*
X78366666Y-93000000D01*
X78461904Y-93095238D01*
X78509523Y-93190476D01*
X78557142Y-93380952D01*
X78557142Y-93523809D01*
X78509523Y-93714285D01*
X78461904Y-93809523D01*
X78366666Y-93904761D01*
X78223809Y-93952380D01*
X77985714Y-93952380D01*
X79509523Y-93952380D02*
X78938095Y-93952380D01*
X79223809Y-93952380D02*
X79223809Y-92952380D01*
X79128571Y-93095238D01*
X79033333Y-93190476D01*
X78938095Y-93238095D01*
X80461904Y-93952380D02*
X79890476Y-93952380D01*
X80176190Y-93952380D02*
X80176190Y-92952380D01*
X80080952Y-93095238D01*
X79985714Y-93190476D01*
X79890476Y-93238095D01*
X56590476Y-101452380D02*
X56590476Y-102166666D01*
X56542857Y-102309523D01*
X56447619Y-102404761D01*
X56304761Y-102452380D01*
X56209523Y-102452380D01*
X57590476Y-102452380D02*
X57019047Y-102452380D01*
X57304761Y-102452380D02*
X57304761Y-101452380D01*
X57209523Y-101595238D01*
X57114285Y-101690476D01*
X57019047Y-101738095D01*
X57971428Y-101547619D02*
X58019047Y-101500000D01*
X58114285Y-101452380D01*
X58352380Y-101452380D01*
X58447619Y-101500000D01*
X58495238Y-101547619D01*
X58542857Y-101642857D01*
X58542857Y-101738095D01*
X58495238Y-101880952D01*
X57923809Y-102452380D01*
X58542857Y-102452380D01*
X63190476Y-74452380D02*
X63190476Y-75166666D01*
X63142857Y-75309523D01*
X63047619Y-75404761D01*
X62904761Y-75452380D01*
X62809523Y-75452380D01*
X64190476Y-75452380D02*
X63619047Y-75452380D01*
X63904761Y-75452380D02*
X63904761Y-74452380D01*
X63809523Y-74595238D01*
X63714285Y-74690476D01*
X63619047Y-74738095D01*
X65142857Y-75452380D02*
X64571428Y-75452380D01*
X64857142Y-75452380D02*
X64857142Y-74452380D01*
X64761904Y-74595238D01*
X64666666Y-74690476D01*
X64571428Y-74738095D01*
X87215476Y-81027380D02*
X87215476Y-81741666D01*
X87167857Y-81884523D01*
X87072619Y-81979761D01*
X86929761Y-82027380D01*
X86834523Y-82027380D01*
X87644047Y-81122619D02*
X87691666Y-81075000D01*
X87786904Y-81027380D01*
X88025000Y-81027380D01*
X88120238Y-81075000D01*
X88167857Y-81122619D01*
X88215476Y-81217857D01*
X88215476Y-81313095D01*
X88167857Y-81455952D01*
X87596428Y-82027380D01*
X88215476Y-82027380D01*
X89167857Y-82027380D02*
X88596428Y-82027380D01*
X88882142Y-82027380D02*
X88882142Y-81027380D01*
X88786904Y-81170238D01*
X88691666Y-81265476D01*
X88596428Y-81313095D01*
X87215476Y-93127380D02*
X87215476Y-93841666D01*
X87167857Y-93984523D01*
X87072619Y-94079761D01*
X86929761Y-94127380D01*
X86834523Y-94127380D01*
X87644047Y-93222619D02*
X87691666Y-93175000D01*
X87786904Y-93127380D01*
X88025000Y-93127380D01*
X88120238Y-93175000D01*
X88167857Y-93222619D01*
X88215476Y-93317857D01*
X88215476Y-93413095D01*
X88167857Y-93555952D01*
X87596428Y-94127380D01*
X88215476Y-94127380D01*
X88596428Y-93222619D02*
X88644047Y-93175000D01*
X88739285Y-93127380D01*
X88977380Y-93127380D01*
X89072619Y-93175000D01*
X89120238Y-93222619D01*
X89167857Y-93317857D01*
X89167857Y-93413095D01*
X89120238Y-93555952D01*
X88548809Y-94127380D01*
X89167857Y-94127380D01*
X119215476Y-68627380D02*
X119215476Y-69341666D01*
X119167857Y-69484523D01*
X119072619Y-69579761D01*
X118929761Y-69627380D01*
X118834523Y-69627380D01*
X119596428Y-68627380D02*
X120215476Y-68627380D01*
X119882142Y-69008333D01*
X120025000Y-69008333D01*
X120120238Y-69055952D01*
X120167857Y-69103571D01*
X120215476Y-69198809D01*
X120215476Y-69436904D01*
X120167857Y-69532142D01*
X120120238Y-69579761D01*
X120025000Y-69627380D01*
X119739285Y-69627380D01*
X119644047Y-69579761D01*
X119596428Y-69532142D01*
X121167857Y-69627380D02*
X120596428Y-69627380D01*
X120882142Y-69627380D02*
X120882142Y-68627380D01*
X120786904Y-68770238D01*
X120691666Y-68865476D01*
X120596428Y-68913095D01*
X119215476Y-89627380D02*
X119215476Y-90341666D01*
X119167857Y-90484523D01*
X119072619Y-90579761D01*
X118929761Y-90627380D01*
X118834523Y-90627380D01*
X119596428Y-89627380D02*
X120215476Y-89627380D01*
X119882142Y-90008333D01*
X120025000Y-90008333D01*
X120120238Y-90055952D01*
X120167857Y-90103571D01*
X120215476Y-90198809D01*
X120215476Y-90436904D01*
X120167857Y-90532142D01*
X120120238Y-90579761D01*
X120025000Y-90627380D01*
X119739285Y-90627380D01*
X119644047Y-90579761D01*
X119596428Y-90532142D01*
X120596428Y-89722619D02*
X120644047Y-89675000D01*
X120739285Y-89627380D01*
X120977380Y-89627380D01*
X121072619Y-89675000D01*
X121120238Y-89722619D01*
X121167857Y-89817857D01*
X121167857Y-89913095D01*
X121120238Y-90055952D01*
X120548809Y-90627380D01*
X121167857Y-90627380D01*
X109332380Y-111142857D02*
X108856190Y-111476190D01*
X109332380Y-111714285D02*
X108332380Y-111714285D01*
X108332380Y-111333333D01*
X108380000Y-111238095D01*
X108427619Y-111190476D01*
X108522857Y-111142857D01*
X108665714Y-111142857D01*
X108760952Y-111190476D01*
X108808571Y-111238095D01*
X108856190Y-111333333D01*
X108856190Y-111714285D01*
X108427619Y-110761904D02*
X108380000Y-110714285D01*
X108332380Y-110619047D01*
X108332380Y-110380952D01*
X108380000Y-110285714D01*
X108427619Y-110238095D01*
X108522857Y-110190476D01*
X108618095Y-110190476D01*
X108760952Y-110238095D01*
X109332380Y-110809523D01*
X109332380Y-110190476D01*
X108427619Y-109809523D02*
X108380000Y-109761904D01*
X108332380Y-109666666D01*
X108332380Y-109428571D01*
X108380000Y-109333333D01*
X108427619Y-109285714D01*
X108522857Y-109238095D01*
X108618095Y-109238095D01*
X108760952Y-109285714D01*
X109332380Y-109857142D01*
X109332380Y-109238095D01*
X108907142Y-89332380D02*
X108573809Y-88856190D01*
X108335714Y-89332380D02*
X108335714Y-88332380D01*
X108716666Y-88332380D01*
X108811904Y-88380000D01*
X108859523Y-88427619D01*
X108907142Y-88522857D01*
X108907142Y-88665714D01*
X108859523Y-88760952D01*
X108811904Y-88808571D01*
X108716666Y-88856190D01*
X108335714Y-88856190D01*
X109288095Y-88427619D02*
X109335714Y-88380000D01*
X109430952Y-88332380D01*
X109669047Y-88332380D01*
X109764285Y-88380000D01*
X109811904Y-88427619D01*
X109859523Y-88522857D01*
X109859523Y-88618095D01*
X109811904Y-88760952D01*
X109240476Y-89332380D01*
X109859523Y-89332380D01*
X110811904Y-89332380D02*
X110240476Y-89332380D01*
X110526190Y-89332380D02*
X110526190Y-88332380D01*
X110430952Y-88475238D01*
X110335714Y-88570476D01*
X110240476Y-88618095D01*
X75132380Y-111242857D02*
X74656190Y-111576190D01*
X75132380Y-111814285D02*
X74132380Y-111814285D01*
X74132380Y-111433333D01*
X74180000Y-111338095D01*
X74227619Y-111290476D01*
X74322857Y-111242857D01*
X74465714Y-111242857D01*
X74560952Y-111290476D01*
X74608571Y-111338095D01*
X74656190Y-111433333D01*
X74656190Y-111814285D01*
X75132380Y-110290476D02*
X75132380Y-110861904D01*
X75132380Y-110576190D02*
X74132380Y-110576190D01*
X74275238Y-110671428D01*
X74370476Y-110766666D01*
X74418095Y-110861904D01*
X74227619Y-109909523D02*
X74180000Y-109861904D01*
X74132380Y-109766666D01*
X74132380Y-109528571D01*
X74180000Y-109433333D01*
X74227619Y-109385714D01*
X74322857Y-109338095D01*
X74418095Y-109338095D01*
X74560952Y-109385714D01*
X75132380Y-109957142D01*
X75132380Y-109338095D01*
X78657142Y-91252380D02*
X78323809Y-90776190D01*
X78085714Y-91252380D02*
X78085714Y-90252380D01*
X78466666Y-90252380D01*
X78561904Y-90300000D01*
X78609523Y-90347619D01*
X78657142Y-90442857D01*
X78657142Y-90585714D01*
X78609523Y-90680952D01*
X78561904Y-90728571D01*
X78466666Y-90776190D01*
X78085714Y-90776190D01*
X79609523Y-91252380D02*
X79038095Y-91252380D01*
X79323809Y-91252380D02*
X79323809Y-90252380D01*
X79228571Y-90395238D01*
X79133333Y-90490476D01*
X79038095Y-90538095D01*
X80561904Y-91252380D02*
X79990476Y-91252380D01*
X80276190Y-91252380D02*
X80276190Y-90252380D01*
X80180952Y-90395238D01*
X80085714Y-90490476D01*
X79990476Y-90538095D01*
X116952380Y-107442857D02*
X116476190Y-107776190D01*
X116952380Y-108014285D02*
X115952380Y-108014285D01*
X115952380Y-107633333D01*
X116000000Y-107538095D01*
X116047619Y-107490476D01*
X116142857Y-107442857D01*
X116285714Y-107442857D01*
X116380952Y-107490476D01*
X116428571Y-107538095D01*
X116476190Y-107633333D01*
X116476190Y-108014285D01*
X116047619Y-107061904D02*
X116000000Y-107014285D01*
X115952380Y-106919047D01*
X115952380Y-106680952D01*
X116000000Y-106585714D01*
X116047619Y-106538095D01*
X116142857Y-106490476D01*
X116238095Y-106490476D01*
X116380952Y-106538095D01*
X116952380Y-107109523D01*
X116952380Y-106490476D01*
X115952380Y-105633333D02*
X115952380Y-105823809D01*
X116000000Y-105919047D01*
X116047619Y-105966666D01*
X116190476Y-106061904D01*
X116380952Y-106109523D01*
X116761904Y-106109523D01*
X116857142Y-106061904D01*
X116904761Y-106014285D01*
X116952380Y-105919047D01*
X116952380Y-105728571D01*
X116904761Y-105633333D01*
X116857142Y-105585714D01*
X116761904Y-105538095D01*
X116523809Y-105538095D01*
X116428571Y-105585714D01*
X116380952Y-105633333D01*
X116333333Y-105728571D01*
X116333333Y-105919047D01*
X116380952Y-106014285D01*
X116428571Y-106061904D01*
X116523809Y-106109523D01*
X104957142Y-96352380D02*
X104623809Y-95876190D01*
X104385714Y-96352380D02*
X104385714Y-95352380D01*
X104766666Y-95352380D01*
X104861904Y-95400000D01*
X104909523Y-95447619D01*
X104957142Y-95542857D01*
X104957142Y-95685714D01*
X104909523Y-95780952D01*
X104861904Y-95828571D01*
X104766666Y-95876190D01*
X104385714Y-95876190D01*
X105338095Y-95447619D02*
X105385714Y-95400000D01*
X105480952Y-95352380D01*
X105719047Y-95352380D01*
X105814285Y-95400000D01*
X105861904Y-95447619D01*
X105909523Y-95542857D01*
X105909523Y-95638095D01*
X105861904Y-95780952D01*
X105290476Y-96352380D01*
X105909523Y-96352380D01*
X106814285Y-95352380D02*
X106338095Y-95352380D01*
X106290476Y-95828571D01*
X106338095Y-95780952D01*
X106433333Y-95733333D01*
X106671428Y-95733333D01*
X106766666Y-95780952D01*
X106814285Y-95828571D01*
X106861904Y-95923809D01*
X106861904Y-96161904D01*
X106814285Y-96257142D01*
X106766666Y-96304761D01*
X106671428Y-96352380D01*
X106433333Y-96352380D01*
X106338095Y-96304761D01*
X106290476Y-96257142D01*
X83252380Y-113842857D02*
X82776190Y-114176190D01*
X83252380Y-114414285D02*
X82252380Y-114414285D01*
X82252380Y-114033333D01*
X82300000Y-113938095D01*
X82347619Y-113890476D01*
X82442857Y-113842857D01*
X82585714Y-113842857D01*
X82680952Y-113890476D01*
X82728571Y-113938095D01*
X82776190Y-114033333D01*
X82776190Y-114414285D01*
X83252380Y-112890476D02*
X83252380Y-113461904D01*
X83252380Y-113176190D02*
X82252380Y-113176190D01*
X82395238Y-113271428D01*
X82490476Y-113366666D01*
X82538095Y-113461904D01*
X82252380Y-112033333D02*
X82252380Y-112223809D01*
X82300000Y-112319047D01*
X82347619Y-112366666D01*
X82490476Y-112461904D01*
X82680952Y-112509523D01*
X83061904Y-112509523D01*
X83157142Y-112461904D01*
X83204761Y-112414285D01*
X83252380Y-112319047D01*
X83252380Y-112128571D01*
X83204761Y-112033333D01*
X83157142Y-111985714D01*
X83061904Y-111938095D01*
X82823809Y-111938095D01*
X82728571Y-111985714D01*
X82680952Y-112033333D01*
X82633333Y-112128571D01*
X82633333Y-112319047D01*
X82680952Y-112414285D01*
X82728571Y-112461904D01*
X82823809Y-112509523D01*
X74357142Y-94802380D02*
X74023809Y-94326190D01*
X73785714Y-94802380D02*
X73785714Y-93802380D01*
X74166666Y-93802380D01*
X74261904Y-93850000D01*
X74309523Y-93897619D01*
X74357142Y-93992857D01*
X74357142Y-94135714D01*
X74309523Y-94230952D01*
X74261904Y-94278571D01*
X74166666Y-94326190D01*
X73785714Y-94326190D01*
X75309523Y-94802380D02*
X74738095Y-94802380D01*
X75023809Y-94802380D02*
X75023809Y-93802380D01*
X74928571Y-93945238D01*
X74833333Y-94040476D01*
X74738095Y-94088095D01*
X76214285Y-93802380D02*
X75738095Y-93802380D01*
X75690476Y-94278571D01*
X75738095Y-94230952D01*
X75833333Y-94183333D01*
X76071428Y-94183333D01*
X76166666Y-94230952D01*
X76214285Y-94278571D01*
X76261904Y-94373809D01*
X76261904Y-94611904D01*
X76214285Y-94707142D01*
X76166666Y-94754761D01*
X76071428Y-94802380D01*
X75833333Y-94802380D01*
X75738095Y-94754761D01*
X75690476Y-94707142D01*
X72183333Y-75232380D02*
X71850000Y-74756190D01*
X71611904Y-75232380D02*
X71611904Y-74232380D01*
X71992857Y-74232380D01*
X72088095Y-74280000D01*
X72135714Y-74327619D01*
X72183333Y-74422857D01*
X72183333Y-74565714D01*
X72135714Y-74660952D01*
X72088095Y-74708571D01*
X71992857Y-74756190D01*
X71611904Y-74756190D01*
X73135714Y-75232380D02*
X72564285Y-75232380D01*
X72850000Y-75232380D02*
X72850000Y-74232380D01*
X72754761Y-74375238D01*
X72659523Y-74470476D01*
X72564285Y-74518095D01*
X77233333Y-75107142D02*
X77185714Y-75154761D01*
X77042857Y-75202380D01*
X76947619Y-75202380D01*
X76804761Y-75154761D01*
X76709523Y-75059523D01*
X76661904Y-74964285D01*
X76614285Y-74773809D01*
X76614285Y-74630952D01*
X76661904Y-74440476D01*
X76709523Y-74345238D01*
X76804761Y-74250000D01*
X76947619Y-74202380D01*
X77042857Y-74202380D01*
X77185714Y-74250000D01*
X77233333Y-74297619D01*
X78185714Y-75202380D02*
X77614285Y-75202380D01*
X77900000Y-75202380D02*
X77900000Y-74202380D01*
X77804761Y-74345238D01*
X77709523Y-74440476D01*
X77614285Y-74488095D01*
X109333333Y-75107142D02*
X109285714Y-75154761D01*
X109142857Y-75202380D01*
X109047619Y-75202380D01*
X108904761Y-75154761D01*
X108809523Y-75059523D01*
X108761904Y-74964285D01*
X108714285Y-74773809D01*
X108714285Y-74630952D01*
X108761904Y-74440476D01*
X108809523Y-74345238D01*
X108904761Y-74250000D01*
X109047619Y-74202380D01*
X109142857Y-74202380D01*
X109285714Y-74250000D01*
X109333333Y-74297619D01*
X109714285Y-74297619D02*
X109761904Y-74250000D01*
X109857142Y-74202380D01*
X110095238Y-74202380D01*
X110190476Y-74250000D01*
X110238095Y-74297619D01*
X110285714Y-74392857D01*
X110285714Y-74488095D01*
X110238095Y-74630952D01*
X109666666Y-75202380D01*
X110285714Y-75202380D01*
X92212141Y-66757142D02*
X92164522Y-66804761D01*
X92021665Y-66852380D01*
X91926427Y-66852380D01*
X91783570Y-66804761D01*
X91688332Y-66709523D01*
X91640713Y-66614285D01*
X91593094Y-66423809D01*
X91593094Y-66280952D01*
X91640713Y-66090476D01*
X91688332Y-65995238D01*
X91783570Y-65900000D01*
X91926427Y-65852380D01*
X92021665Y-65852380D01*
X92164522Y-65900000D01*
X92212141Y-65947619D01*
X92545475Y-65852380D02*
X93164522Y-65852380D01*
X92831189Y-66233333D01*
X92974046Y-66233333D01*
X93069284Y-66280952D01*
X93116903Y-66328571D01*
X93164522Y-66423809D01*
X93164522Y-66661904D01*
X93116903Y-66757142D01*
X93069284Y-66804761D01*
X92974046Y-66852380D01*
X92688332Y-66852380D01*
X92593094Y-66804761D01*
X92545475Y-66757142D01*
X93783570Y-65852380D02*
X93878808Y-65852380D01*
X93974046Y-65900000D01*
X94021665Y-65947619D01*
X94069284Y-66042857D01*
X94116903Y-66233333D01*
X94116903Y-66471428D01*
X94069284Y-66661904D01*
X94021665Y-66757142D01*
X93974046Y-66804761D01*
X93878808Y-66852380D01*
X93783570Y-66852380D01*
X93688332Y-66804761D01*
X93640713Y-66757142D01*
X93593094Y-66661904D01*
X93545475Y-66471428D01*
X93545475Y-66233333D01*
X93593094Y-66042857D01*
X93640713Y-65947619D01*
X93688332Y-65900000D01*
X93783570Y-65852380D01*
X92212141Y-69057142D02*
X92164522Y-69104761D01*
X92021665Y-69152380D01*
X91926427Y-69152380D01*
X91783570Y-69104761D01*
X91688332Y-69009523D01*
X91640713Y-68914285D01*
X91593094Y-68723809D01*
X91593094Y-68580952D01*
X91640713Y-68390476D01*
X91688332Y-68295238D01*
X91783570Y-68200000D01*
X91926427Y-68152380D01*
X92021665Y-68152380D01*
X92164522Y-68200000D01*
X92212141Y-68247619D01*
X92545475Y-68152380D02*
X93164522Y-68152380D01*
X92831189Y-68533333D01*
X92974046Y-68533333D01*
X93069284Y-68580952D01*
X93116903Y-68628571D01*
X93164522Y-68723809D01*
X93164522Y-68961904D01*
X93116903Y-69057142D01*
X93069284Y-69104761D01*
X92974046Y-69152380D01*
X92688332Y-69152380D01*
X92593094Y-69104761D01*
X92545475Y-69057142D01*
X94116903Y-69152380D02*
X93545475Y-69152380D01*
X93831189Y-69152380D02*
X93831189Y-68152380D01*
X93735951Y-68295238D01*
X93640713Y-68390476D01*
X93545475Y-68438095D01*
X92157142Y-71357142D02*
X92109523Y-71404761D01*
X91966666Y-71452380D01*
X91871428Y-71452380D01*
X91728571Y-71404761D01*
X91633333Y-71309523D01*
X91585714Y-71214285D01*
X91538095Y-71023809D01*
X91538095Y-70880952D01*
X91585714Y-70690476D01*
X91633333Y-70595238D01*
X91728571Y-70500000D01*
X91871428Y-70452380D01*
X91966666Y-70452380D01*
X92109523Y-70500000D01*
X92157142Y-70547619D01*
X92490476Y-70452380D02*
X93109523Y-70452380D01*
X92776190Y-70833333D01*
X92919047Y-70833333D01*
X93014285Y-70880952D01*
X93061904Y-70928571D01*
X93109523Y-71023809D01*
X93109523Y-71261904D01*
X93061904Y-71357142D01*
X93014285Y-71404761D01*
X92919047Y-71452380D01*
X92633333Y-71452380D01*
X92538095Y-71404761D01*
X92490476Y-71357142D01*
X93490476Y-70547619D02*
X93538095Y-70500000D01*
X93633333Y-70452380D01*
X93871428Y-70452380D01*
X93966666Y-70500000D01*
X94014285Y-70547619D01*
X94061904Y-70642857D01*
X94061904Y-70738095D01*
X94014285Y-70880952D01*
X93442857Y-71452380D01*
X94061904Y-71452380D01*
X92157142Y-73657142D02*
X92109523Y-73704761D01*
X91966666Y-73752380D01*
X91871428Y-73752380D01*
X91728571Y-73704761D01*
X91633333Y-73609523D01*
X91585714Y-73514285D01*
X91538095Y-73323809D01*
X91538095Y-73180952D01*
X91585714Y-72990476D01*
X91633333Y-72895238D01*
X91728571Y-72800000D01*
X91871428Y-72752380D01*
X91966666Y-72752380D01*
X92109523Y-72800000D01*
X92157142Y-72847619D01*
X92490476Y-72752380D02*
X93109523Y-72752380D01*
X92776190Y-73133333D01*
X92919047Y-73133333D01*
X93014285Y-73180952D01*
X93061904Y-73228571D01*
X93109523Y-73323809D01*
X93109523Y-73561904D01*
X93061904Y-73657142D01*
X93014285Y-73704761D01*
X92919047Y-73752380D01*
X92633333Y-73752380D01*
X92538095Y-73704761D01*
X92490476Y-73657142D01*
X93442857Y-72752380D02*
X94061904Y-72752380D01*
X93728571Y-73133333D01*
X93871428Y-73133333D01*
X93966666Y-73180952D01*
X94014285Y-73228571D01*
X94061904Y-73323809D01*
X94061904Y-73561904D01*
X94014285Y-73657142D01*
X93966666Y-73704761D01*
X93871428Y-73752380D01*
X93585714Y-73752380D01*
X93490476Y-73704761D01*
X93442857Y-73657142D01*
X104333333Y-75232380D02*
X104000000Y-74756190D01*
X103761904Y-75232380D02*
X103761904Y-74232380D01*
X104142857Y-74232380D01*
X104238095Y-74280000D01*
X104285714Y-74327619D01*
X104333333Y-74422857D01*
X104333333Y-74565714D01*
X104285714Y-74660952D01*
X104238095Y-74708571D01*
X104142857Y-74756190D01*
X103761904Y-74756190D01*
X104714285Y-74327619D02*
X104761904Y-74280000D01*
X104857142Y-74232380D01*
X105095238Y-74232380D01*
X105190476Y-74280000D01*
X105238095Y-74327619D01*
X105285714Y-74422857D01*
X105285714Y-74518095D01*
X105238095Y-74660952D01*
X104666666Y-75232380D01*
X105285714Y-75232380D01*
M02*
