G04 #@! TF.GenerationSoftware,KiCad,Pcbnew,(5.1.6)-1*
G04 #@! TF.CreationDate,2021-04-15T23:13:23+02:00*
G04 #@! TF.ProjectId,GateDriver,47617465-4472-4697-9665-722e6b696361,rev?*
G04 #@! TF.SameCoordinates,Original*
G04 #@! TF.FileFunction,Paste,Top*
G04 #@! TF.FilePolarity,Positive*
%FSLAX46Y46*%
G04 Gerber Fmt 4.6, Leading zero omitted, Abs format (unit mm)*
G04 Created by KiCad (PCBNEW (5.1.6)-1) date 2021-04-15 23:13:23*
%MOMM*%
%LPD*%
G01*
G04 APERTURE LIST*
%ADD10R,1.270000X0.762000*%
%ADD11R,2.540000X2.670000*%
%ADD12R,0.700000X0.600000*%
%ADD13R,0.400000X0.900000*%
%ADD14R,0.300000X0.800000*%
%ADD15R,1.846000X2.150000*%
%ADD16R,1.400000X0.450000*%
%ADD17R,1.800000X0.650000*%
G04 APERTURE END LIST*
D10*
X112625000Y-73701000D03*
D11*
X112625000Y-71350000D03*
D10*
X111100000Y-59974000D03*
D11*
X111100000Y-62325000D03*
D12*
X71475000Y-71250000D03*
X71475000Y-69850000D03*
X69950000Y-69850000D03*
X69950000Y-71250000D03*
G36*
G01*
X68700000Y-67100000D02*
X67750000Y-67100000D01*
G75*
G02*
X67500000Y-66850000I0J250000D01*
G01*
X67500000Y-66350000D01*
G75*
G02*
X67750000Y-66100000I250000J0D01*
G01*
X68700000Y-66100000D01*
G75*
G02*
X68950000Y-66350000I0J-250000D01*
G01*
X68950000Y-66850000D01*
G75*
G02*
X68700000Y-67100000I-250000J0D01*
G01*
G37*
G36*
G01*
X68700000Y-69000000D02*
X67750000Y-69000000D01*
G75*
G02*
X67500000Y-68750000I0J250000D01*
G01*
X67500000Y-68250000D01*
G75*
G02*
X67750000Y-68000000I250000J0D01*
G01*
X68700000Y-68000000D01*
G75*
G02*
X68950000Y-68250000I0J-250000D01*
G01*
X68950000Y-68750000D01*
G75*
G02*
X68700000Y-69000000I-250000J0D01*
G01*
G37*
G36*
G01*
X74625000Y-68975000D02*
X74625000Y-68025000D01*
G75*
G02*
X74875000Y-67775000I250000J0D01*
G01*
X75375000Y-67775000D01*
G75*
G02*
X75625000Y-68025000I0J-250000D01*
G01*
X75625000Y-68975000D01*
G75*
G02*
X75375000Y-69225000I-250000J0D01*
G01*
X74875000Y-69225000D01*
G75*
G02*
X74625000Y-68975000I0J250000D01*
G01*
G37*
G36*
G01*
X72725000Y-68975000D02*
X72725000Y-68025000D01*
G75*
G02*
X72975000Y-67775000I250000J0D01*
G01*
X73475000Y-67775000D01*
G75*
G02*
X73725000Y-68025000I0J-250000D01*
G01*
X73725000Y-68975000D01*
G75*
G02*
X73475000Y-69225000I-250000J0D01*
G01*
X72975000Y-69225000D01*
G75*
G02*
X72725000Y-68975000I0J250000D01*
G01*
G37*
G36*
G01*
X72774999Y-71637500D02*
X73675001Y-71637500D01*
G75*
G02*
X73925000Y-71887499I0J-249999D01*
G01*
X73925000Y-72412501D01*
G75*
G02*
X73675001Y-72662500I-249999J0D01*
G01*
X72774999Y-72662500D01*
G75*
G02*
X72525000Y-72412501I0J249999D01*
G01*
X72525000Y-71887499D01*
G75*
G02*
X72774999Y-71637500I249999J0D01*
G01*
G37*
G36*
G01*
X72774999Y-69812500D02*
X73675001Y-69812500D01*
G75*
G02*
X73925000Y-70062499I0J-249999D01*
G01*
X73925000Y-70587501D01*
G75*
G02*
X73675001Y-70837500I-249999J0D01*
G01*
X72774999Y-70837500D01*
G75*
G02*
X72525000Y-70587501I0J249999D01*
G01*
X72525000Y-70062499D01*
G75*
G02*
X72774999Y-69812500I249999J0D01*
G01*
G37*
G36*
G01*
X67749999Y-71637500D02*
X68650001Y-71637500D01*
G75*
G02*
X68900000Y-71887499I0J-249999D01*
G01*
X68900000Y-72412501D01*
G75*
G02*
X68650001Y-72662500I-249999J0D01*
G01*
X67749999Y-72662500D01*
G75*
G02*
X67500000Y-72412501I0J249999D01*
G01*
X67500000Y-71887499D01*
G75*
G02*
X67749999Y-71637500I249999J0D01*
G01*
G37*
G36*
G01*
X67749999Y-69812500D02*
X68650001Y-69812500D01*
G75*
G02*
X68900000Y-70062499I0J-249999D01*
G01*
X68900000Y-70587501D01*
G75*
G02*
X68650001Y-70837500I-249999J0D01*
G01*
X67749999Y-70837500D01*
G75*
G02*
X67500000Y-70587501I0J249999D01*
G01*
X67500000Y-70062499D01*
G75*
G02*
X67749999Y-69812500I249999J0D01*
G01*
G37*
D13*
X71400000Y-68500000D03*
X71400000Y-66300000D03*
X70750000Y-68500000D03*
X70750000Y-66300000D03*
X70100000Y-68500000D03*
X70100000Y-66300000D03*
D14*
X75750000Y-65050000D03*
X75750000Y-62250000D03*
X75250000Y-65050000D03*
X75250000Y-62250000D03*
X74750000Y-65050000D03*
X74750000Y-62250000D03*
X74250000Y-65050000D03*
X74250000Y-62250000D03*
X80100000Y-65050000D03*
X80100000Y-62250000D03*
X79600000Y-65050000D03*
X79600000Y-62250000D03*
X79100000Y-65050000D03*
X79100000Y-62250000D03*
X78600000Y-65050000D03*
X78600000Y-62250000D03*
D15*
X65100000Y-61175000D03*
D16*
X62900000Y-62150000D03*
X67300000Y-62150000D03*
X62900000Y-61500000D03*
X67300000Y-61500000D03*
X62900000Y-60850000D03*
X67300000Y-60850000D03*
X62900000Y-60200000D03*
X67300000Y-60200000D03*
G36*
G01*
X103412500Y-72399999D02*
X103412500Y-73650001D01*
G75*
G02*
X103162501Y-73900000I-249999J0D01*
G01*
X102537499Y-73900000D01*
G75*
G02*
X102287500Y-73650001I0J249999D01*
G01*
X102287500Y-72399999D01*
G75*
G02*
X102537499Y-72150000I249999J0D01*
G01*
X103162501Y-72150000D01*
G75*
G02*
X103412500Y-72399999I0J-249999D01*
G01*
G37*
G36*
G01*
X106337500Y-72399999D02*
X106337500Y-73650001D01*
G75*
G02*
X106087501Y-73900000I-249999J0D01*
G01*
X105462499Y-73900000D01*
G75*
G02*
X105212500Y-73650001I0J249999D01*
G01*
X105212500Y-72399999D01*
G75*
G02*
X105462499Y-72150000I249999J0D01*
G01*
X106087501Y-72150000D01*
G75*
G02*
X106337500Y-72399999I0J-249999D01*
G01*
G37*
G36*
G01*
X103412500Y-70099999D02*
X103412500Y-71350001D01*
G75*
G02*
X103162501Y-71600000I-249999J0D01*
G01*
X102537499Y-71600000D01*
G75*
G02*
X102287500Y-71350001I0J249999D01*
G01*
X102287500Y-70099999D01*
G75*
G02*
X102537499Y-69850000I249999J0D01*
G01*
X103162501Y-69850000D01*
G75*
G02*
X103412500Y-70099999I0J-249999D01*
G01*
G37*
G36*
G01*
X106337500Y-70099999D02*
X106337500Y-71350001D01*
G75*
G02*
X106087501Y-71600000I-249999J0D01*
G01*
X105462499Y-71600000D01*
G75*
G02*
X105212500Y-71350001I0J249999D01*
G01*
X105212500Y-70099999D01*
G75*
G02*
X105462499Y-69850000I249999J0D01*
G01*
X106087501Y-69850000D01*
G75*
G02*
X106337500Y-70099999I0J-249999D01*
G01*
G37*
G36*
G01*
X103462500Y-62224999D02*
X103462500Y-63475001D01*
G75*
G02*
X103212501Y-63725000I-249999J0D01*
G01*
X102587499Y-63725000D01*
G75*
G02*
X102337500Y-63475001I0J249999D01*
G01*
X102337500Y-62224999D01*
G75*
G02*
X102587499Y-61975000I249999J0D01*
G01*
X103212501Y-61975000D01*
G75*
G02*
X103462500Y-62224999I0J-249999D01*
G01*
G37*
G36*
G01*
X106387500Y-62224999D02*
X106387500Y-63475001D01*
G75*
G02*
X106137501Y-63725000I-249999J0D01*
G01*
X105512499Y-63725000D01*
G75*
G02*
X105262500Y-63475001I0J249999D01*
G01*
X105262500Y-62224999D01*
G75*
G02*
X105512499Y-61975000I249999J0D01*
G01*
X106137501Y-61975000D01*
G75*
G02*
X106387500Y-62224999I0J-249999D01*
G01*
G37*
G36*
G01*
X103450000Y-64499999D02*
X103450000Y-65750001D01*
G75*
G02*
X103200001Y-66000000I-249999J0D01*
G01*
X102574999Y-66000000D01*
G75*
G02*
X102325000Y-65750001I0J249999D01*
G01*
X102325000Y-64499999D01*
G75*
G02*
X102574999Y-64250000I249999J0D01*
G01*
X103200001Y-64250000D01*
G75*
G02*
X103450000Y-64499999I0J-249999D01*
G01*
G37*
G36*
G01*
X106375000Y-64499999D02*
X106375000Y-65750001D01*
G75*
G02*
X106125001Y-66000000I-249999J0D01*
G01*
X105499999Y-66000000D01*
G75*
G02*
X105250000Y-65750001I0J249999D01*
G01*
X105250000Y-64499999D01*
G75*
G02*
X105499999Y-64250000I249999J0D01*
G01*
X106125001Y-64250000D01*
G75*
G02*
X106375000Y-64499999I0J-249999D01*
G01*
G37*
G36*
G01*
X76725000Y-63650000D02*
X77675000Y-63650000D01*
G75*
G02*
X77925000Y-63900000I0J-250000D01*
G01*
X77925000Y-64400000D01*
G75*
G02*
X77675000Y-64650000I-250000J0D01*
G01*
X76725000Y-64650000D01*
G75*
G02*
X76475000Y-64400000I0J250000D01*
G01*
X76475000Y-63900000D01*
G75*
G02*
X76725000Y-63650000I250000J0D01*
G01*
G37*
G36*
G01*
X76725000Y-61750000D02*
X77675000Y-61750000D01*
G75*
G02*
X77925000Y-62000000I0J-250000D01*
G01*
X77925000Y-62500000D01*
G75*
G02*
X77675000Y-62750000I-250000J0D01*
G01*
X76725000Y-62750000D01*
G75*
G02*
X76475000Y-62500000I0J250000D01*
G01*
X76475000Y-62000000D01*
G75*
G02*
X76725000Y-61750000I250000J0D01*
G01*
G37*
G36*
G01*
X72275000Y-63650000D02*
X73225000Y-63650000D01*
G75*
G02*
X73475000Y-63900000I0J-250000D01*
G01*
X73475000Y-64400000D01*
G75*
G02*
X73225000Y-64650000I-250000J0D01*
G01*
X72275000Y-64650000D01*
G75*
G02*
X72025000Y-64400000I0J250000D01*
G01*
X72025000Y-63900000D01*
G75*
G02*
X72275000Y-63650000I250000J0D01*
G01*
G37*
G36*
G01*
X72275000Y-61750000D02*
X73225000Y-61750000D01*
G75*
G02*
X73475000Y-62000000I0J-250000D01*
G01*
X73475000Y-62500000D01*
G75*
G02*
X73225000Y-62750000I-250000J0D01*
G01*
X72275000Y-62750000D01*
G75*
G02*
X72025000Y-62500000I0J250000D01*
G01*
X72025000Y-62000000D01*
G75*
G02*
X72275000Y-61750000I250000J0D01*
G01*
G37*
G36*
G01*
X69600000Y-64100000D02*
X69600000Y-65050000D01*
G75*
G02*
X69350000Y-65300000I-250000J0D01*
G01*
X68850000Y-65300000D01*
G75*
G02*
X68600000Y-65050000I0J250000D01*
G01*
X68600000Y-64100000D01*
G75*
G02*
X68850000Y-63850000I250000J0D01*
G01*
X69350000Y-63850000D01*
G75*
G02*
X69600000Y-64100000I0J-250000D01*
G01*
G37*
G36*
G01*
X71500000Y-64100000D02*
X71500000Y-65050000D01*
G75*
G02*
X71250000Y-65300000I-250000J0D01*
G01*
X70750000Y-65300000D01*
G75*
G02*
X70500000Y-65050000I0J250000D01*
G01*
X70500000Y-64100000D01*
G75*
G02*
X70750000Y-63850000I250000J0D01*
G01*
X71250000Y-63850000D01*
G75*
G02*
X71500000Y-64100000I0J-250000D01*
G01*
G37*
G36*
G01*
X103825000Y-75200000D02*
X103825000Y-76150000D01*
G75*
G02*
X103575000Y-76400000I-250000J0D01*
G01*
X103075000Y-76400000D01*
G75*
G02*
X102825000Y-76150000I0J250000D01*
G01*
X102825000Y-75200000D01*
G75*
G02*
X103075000Y-74950000I250000J0D01*
G01*
X103575000Y-74950000D01*
G75*
G02*
X103825000Y-75200000I0J-250000D01*
G01*
G37*
G36*
G01*
X105725000Y-75200000D02*
X105725000Y-76150000D01*
G75*
G02*
X105475000Y-76400000I-250000J0D01*
G01*
X104975000Y-76400000D01*
G75*
G02*
X104725000Y-76150000I0J250000D01*
G01*
X104725000Y-75200000D01*
G75*
G02*
X104975000Y-74950000I250000J0D01*
G01*
X105475000Y-74950000D01*
G75*
G02*
X105725000Y-75200000I0J-250000D01*
G01*
G37*
G36*
G01*
X103825000Y-77225000D02*
X103825000Y-78175000D01*
G75*
G02*
X103575000Y-78425000I-250000J0D01*
G01*
X103075000Y-78425000D01*
G75*
G02*
X102825000Y-78175000I0J250000D01*
G01*
X102825000Y-77225000D01*
G75*
G02*
X103075000Y-76975000I250000J0D01*
G01*
X103575000Y-76975000D01*
G75*
G02*
X103825000Y-77225000I0J-250000D01*
G01*
G37*
G36*
G01*
X105725000Y-77225000D02*
X105725000Y-78175000D01*
G75*
G02*
X105475000Y-78425000I-250000J0D01*
G01*
X104975000Y-78425000D01*
G75*
G02*
X104725000Y-78175000I0J250000D01*
G01*
X104725000Y-77225000D01*
G75*
G02*
X104975000Y-76975000I250000J0D01*
G01*
X105475000Y-76975000D01*
G75*
G02*
X105725000Y-77225000I0J-250000D01*
G01*
G37*
G36*
G01*
X103825000Y-79225000D02*
X103825000Y-80175000D01*
G75*
G02*
X103575000Y-80425000I-250000J0D01*
G01*
X103075000Y-80425000D01*
G75*
G02*
X102825000Y-80175000I0J250000D01*
G01*
X102825000Y-79225000D01*
G75*
G02*
X103075000Y-78975000I250000J0D01*
G01*
X103575000Y-78975000D01*
G75*
G02*
X103825000Y-79225000I0J-250000D01*
G01*
G37*
G36*
G01*
X105725000Y-79225000D02*
X105725000Y-80175000D01*
G75*
G02*
X105475000Y-80425000I-250000J0D01*
G01*
X104975000Y-80425000D01*
G75*
G02*
X104725000Y-80175000I0J250000D01*
G01*
X104725000Y-79225000D01*
G75*
G02*
X104975000Y-78975000I250000J0D01*
G01*
X105475000Y-78975000D01*
G75*
G02*
X105725000Y-79225000I0J-250000D01*
G01*
G37*
G36*
G01*
X103825000Y-81225000D02*
X103825000Y-82175000D01*
G75*
G02*
X103575000Y-82425000I-250000J0D01*
G01*
X103075000Y-82425000D01*
G75*
G02*
X102825000Y-82175000I0J250000D01*
G01*
X102825000Y-81225000D01*
G75*
G02*
X103075000Y-80975000I250000J0D01*
G01*
X103575000Y-80975000D01*
G75*
G02*
X103825000Y-81225000I0J-250000D01*
G01*
G37*
G36*
G01*
X105725000Y-81225000D02*
X105725000Y-82175000D01*
G75*
G02*
X105475000Y-82425000I-250000J0D01*
G01*
X104975000Y-82425000D01*
G75*
G02*
X104725000Y-82175000I0J250000D01*
G01*
X104725000Y-81225000D01*
G75*
G02*
X104975000Y-80975000I250000J0D01*
G01*
X105475000Y-80975000D01*
G75*
G02*
X105725000Y-81225000I0J-250000D01*
G01*
G37*
G36*
G01*
X103825000Y-83225000D02*
X103825000Y-84175000D01*
G75*
G02*
X103575000Y-84425000I-250000J0D01*
G01*
X103075000Y-84425000D01*
G75*
G02*
X102825000Y-84175000I0J250000D01*
G01*
X102825000Y-83225000D01*
G75*
G02*
X103075000Y-82975000I250000J0D01*
G01*
X103575000Y-82975000D01*
G75*
G02*
X103825000Y-83225000I0J-250000D01*
G01*
G37*
G36*
G01*
X105725000Y-83225000D02*
X105725000Y-84175000D01*
G75*
G02*
X105475000Y-84425000I-250000J0D01*
G01*
X104975000Y-84425000D01*
G75*
G02*
X104725000Y-84175000I0J250000D01*
G01*
X104725000Y-83225000D01*
G75*
G02*
X104975000Y-82975000I250000J0D01*
G01*
X105475000Y-82975000D01*
G75*
G02*
X105725000Y-83225000I0J-250000D01*
G01*
G37*
G36*
G01*
X77775000Y-82650000D02*
X78725000Y-82650000D01*
G75*
G02*
X78975000Y-82900000I0J-250000D01*
G01*
X78975000Y-83400000D01*
G75*
G02*
X78725000Y-83650000I-250000J0D01*
G01*
X77775000Y-83650000D01*
G75*
G02*
X77525000Y-83400000I0J250000D01*
G01*
X77525000Y-82900000D01*
G75*
G02*
X77775000Y-82650000I250000J0D01*
G01*
G37*
G36*
G01*
X77775000Y-80750000D02*
X78725000Y-80750000D01*
G75*
G02*
X78975000Y-81000000I0J-250000D01*
G01*
X78975000Y-81500000D01*
G75*
G02*
X78725000Y-81750000I-250000J0D01*
G01*
X77775000Y-81750000D01*
G75*
G02*
X77525000Y-81500000I0J250000D01*
G01*
X77525000Y-81000000D01*
G75*
G02*
X77775000Y-80750000I250000J0D01*
G01*
G37*
G36*
G01*
X75775000Y-82650000D02*
X76725000Y-82650000D01*
G75*
G02*
X76975000Y-82900000I0J-250000D01*
G01*
X76975000Y-83400000D01*
G75*
G02*
X76725000Y-83650000I-250000J0D01*
G01*
X75775000Y-83650000D01*
G75*
G02*
X75525000Y-83400000I0J250000D01*
G01*
X75525000Y-82900000D01*
G75*
G02*
X75775000Y-82650000I250000J0D01*
G01*
G37*
G36*
G01*
X75775000Y-80750000D02*
X76725000Y-80750000D01*
G75*
G02*
X76975000Y-81000000I0J-250000D01*
G01*
X76975000Y-81500000D01*
G75*
G02*
X76725000Y-81750000I-250000J0D01*
G01*
X75775000Y-81750000D01*
G75*
G02*
X75525000Y-81500000I0J250000D01*
G01*
X75525000Y-81000000D01*
G75*
G02*
X75775000Y-80750000I250000J0D01*
G01*
G37*
G36*
G01*
X73775000Y-82650000D02*
X74725000Y-82650000D01*
G75*
G02*
X74975000Y-82900000I0J-250000D01*
G01*
X74975000Y-83400000D01*
G75*
G02*
X74725000Y-83650000I-250000J0D01*
G01*
X73775000Y-83650000D01*
G75*
G02*
X73525000Y-83400000I0J250000D01*
G01*
X73525000Y-82900000D01*
G75*
G02*
X73775000Y-82650000I250000J0D01*
G01*
G37*
G36*
G01*
X73775000Y-80750000D02*
X74725000Y-80750000D01*
G75*
G02*
X74975000Y-81000000I0J-250000D01*
G01*
X74975000Y-81500000D01*
G75*
G02*
X74725000Y-81750000I-250000J0D01*
G01*
X73775000Y-81750000D01*
G75*
G02*
X73525000Y-81500000I0J250000D01*
G01*
X73525000Y-81000000D01*
G75*
G02*
X73775000Y-80750000I250000J0D01*
G01*
G37*
G36*
G01*
X110350000Y-73000000D02*
X109400000Y-73000000D01*
G75*
G02*
X109150000Y-72750000I0J250000D01*
G01*
X109150000Y-72250000D01*
G75*
G02*
X109400000Y-72000000I250000J0D01*
G01*
X110350000Y-72000000D01*
G75*
G02*
X110600000Y-72250000I0J-250000D01*
G01*
X110600000Y-72750000D01*
G75*
G02*
X110350000Y-73000000I-250000J0D01*
G01*
G37*
G36*
G01*
X110350000Y-74900000D02*
X109400000Y-74900000D01*
G75*
G02*
X109150000Y-74650000I0J250000D01*
G01*
X109150000Y-74150000D01*
G75*
G02*
X109400000Y-73900000I250000J0D01*
G01*
X110350000Y-73900000D01*
G75*
G02*
X110600000Y-74150000I0J-250000D01*
G01*
X110600000Y-74650000D01*
G75*
G02*
X110350000Y-74900000I-250000J0D01*
G01*
G37*
G36*
G01*
X97775000Y-70200000D02*
X96825000Y-70200000D01*
G75*
G02*
X96575000Y-69950000I0J250000D01*
G01*
X96575000Y-69450000D01*
G75*
G02*
X96825000Y-69200000I250000J0D01*
G01*
X97775000Y-69200000D01*
G75*
G02*
X98025000Y-69450000I0J-250000D01*
G01*
X98025000Y-69950000D01*
G75*
G02*
X97775000Y-70200000I-250000J0D01*
G01*
G37*
G36*
G01*
X97775000Y-72100000D02*
X96825000Y-72100000D01*
G75*
G02*
X96575000Y-71850000I0J250000D01*
G01*
X96575000Y-71350000D01*
G75*
G02*
X96825000Y-71100000I250000J0D01*
G01*
X97775000Y-71100000D01*
G75*
G02*
X98025000Y-71350000I0J-250000D01*
G01*
X98025000Y-71850000D01*
G75*
G02*
X97775000Y-72100000I-250000J0D01*
G01*
G37*
G36*
G01*
X81050000Y-66975000D02*
X82000000Y-66975000D01*
G75*
G02*
X82250000Y-67225000I0J-250000D01*
G01*
X82250000Y-67725000D01*
G75*
G02*
X82000000Y-67975000I-250000J0D01*
G01*
X81050000Y-67975000D01*
G75*
G02*
X80800000Y-67725000I0J250000D01*
G01*
X80800000Y-67225000D01*
G75*
G02*
X81050000Y-66975000I250000J0D01*
G01*
G37*
G36*
G01*
X81050000Y-65075000D02*
X82000000Y-65075000D01*
G75*
G02*
X82250000Y-65325000I0J-250000D01*
G01*
X82250000Y-65825000D01*
G75*
G02*
X82000000Y-66075000I-250000J0D01*
G01*
X81050000Y-66075000D01*
G75*
G02*
X80800000Y-65825000I0J250000D01*
G01*
X80800000Y-65325000D01*
G75*
G02*
X81050000Y-65075000I250000J0D01*
G01*
G37*
G36*
G01*
X97775000Y-63850000D02*
X96825000Y-63850000D01*
G75*
G02*
X96575000Y-63600000I0J250000D01*
G01*
X96575000Y-63100000D01*
G75*
G02*
X96825000Y-62850000I250000J0D01*
G01*
X97775000Y-62850000D01*
G75*
G02*
X98025000Y-63100000I0J-250000D01*
G01*
X98025000Y-63600000D01*
G75*
G02*
X97775000Y-63850000I-250000J0D01*
G01*
G37*
G36*
G01*
X97775000Y-65750000D02*
X96825000Y-65750000D01*
G75*
G02*
X96575000Y-65500000I0J250000D01*
G01*
X96575000Y-65000000D01*
G75*
G02*
X96825000Y-64750000I250000J0D01*
G01*
X97775000Y-64750000D01*
G75*
G02*
X98025000Y-65000000I0J-250000D01*
G01*
X98025000Y-65500000D01*
G75*
G02*
X97775000Y-65750000I-250000J0D01*
G01*
G37*
G36*
G01*
X112500000Y-58775000D02*
X112500000Y-57825000D01*
G75*
G02*
X112750000Y-57575000I250000J0D01*
G01*
X113250000Y-57575000D01*
G75*
G02*
X113500000Y-57825000I0J-250000D01*
G01*
X113500000Y-58775000D01*
G75*
G02*
X113250000Y-59025000I-250000J0D01*
G01*
X112750000Y-59025000D01*
G75*
G02*
X112500000Y-58775000I0J250000D01*
G01*
G37*
G36*
G01*
X110600000Y-58775000D02*
X110600000Y-57825000D01*
G75*
G02*
X110850000Y-57575000I250000J0D01*
G01*
X111350000Y-57575000D01*
G75*
G02*
X111600000Y-57825000I0J-250000D01*
G01*
X111600000Y-58775000D01*
G75*
G02*
X111350000Y-59025000I-250000J0D01*
G01*
X110850000Y-59025000D01*
G75*
G02*
X110600000Y-58775000I0J250000D01*
G01*
G37*
G36*
G01*
X70025000Y-60700000D02*
X69075000Y-60700000D01*
G75*
G02*
X68825000Y-60450000I0J250000D01*
G01*
X68825000Y-59950000D01*
G75*
G02*
X69075000Y-59700000I250000J0D01*
G01*
X70025000Y-59700000D01*
G75*
G02*
X70275000Y-59950000I0J-250000D01*
G01*
X70275000Y-60450000D01*
G75*
G02*
X70025000Y-60700000I-250000J0D01*
G01*
G37*
G36*
G01*
X70025000Y-62600000D02*
X69075000Y-62600000D01*
G75*
G02*
X68825000Y-62350000I0J250000D01*
G01*
X68825000Y-61850000D01*
G75*
G02*
X69075000Y-61600000I250000J0D01*
G01*
X70025000Y-61600000D01*
G75*
G02*
X70275000Y-61850000I0J-250000D01*
G01*
X70275000Y-62350000D01*
G75*
G02*
X70025000Y-62600000I-250000J0D01*
G01*
G37*
G36*
G01*
X63400000Y-58075000D02*
X63400000Y-59025000D01*
G75*
G02*
X63150000Y-59275000I-250000J0D01*
G01*
X62650000Y-59275000D01*
G75*
G02*
X62400000Y-59025000I0J250000D01*
G01*
X62400000Y-58075000D01*
G75*
G02*
X62650000Y-57825000I250000J0D01*
G01*
X63150000Y-57825000D01*
G75*
G02*
X63400000Y-58075000I0J-250000D01*
G01*
G37*
G36*
G01*
X65300000Y-58075000D02*
X65300000Y-59025000D01*
G75*
G02*
X65050000Y-59275000I-250000J0D01*
G01*
X64550000Y-59275000D01*
G75*
G02*
X64300000Y-59025000I0J250000D01*
G01*
X64300000Y-58075000D01*
G75*
G02*
X64550000Y-57825000I250000J0D01*
G01*
X65050000Y-57825000D01*
G75*
G02*
X65300000Y-58075000I0J-250000D01*
G01*
G37*
G36*
G01*
X61250000Y-60700000D02*
X60300000Y-60700000D01*
G75*
G02*
X60050000Y-60450000I0J250000D01*
G01*
X60050000Y-59950000D01*
G75*
G02*
X60300000Y-59700000I250000J0D01*
G01*
X61250000Y-59700000D01*
G75*
G02*
X61500000Y-59950000I0J-250000D01*
G01*
X61500000Y-60450000D01*
G75*
G02*
X61250000Y-60700000I-250000J0D01*
G01*
G37*
G36*
G01*
X61250000Y-62600000D02*
X60300000Y-62600000D01*
G75*
G02*
X60050000Y-62350000I0J250000D01*
G01*
X60050000Y-61850000D01*
G75*
G02*
X60300000Y-61600000I250000J0D01*
G01*
X61250000Y-61600000D01*
G75*
G02*
X61500000Y-61850000I0J-250000D01*
G01*
X61500000Y-62350000D01*
G75*
G02*
X61250000Y-62600000I-250000J0D01*
G01*
G37*
G36*
G01*
X103600000Y-59400000D02*
X103600000Y-60350000D01*
G75*
G02*
X103350000Y-60600000I-250000J0D01*
G01*
X102850000Y-60600000D01*
G75*
G02*
X102600000Y-60350000I0J250000D01*
G01*
X102600000Y-59400000D01*
G75*
G02*
X102850000Y-59150000I250000J0D01*
G01*
X103350000Y-59150000D01*
G75*
G02*
X103600000Y-59400000I0J-250000D01*
G01*
G37*
G36*
G01*
X105500000Y-59400000D02*
X105500000Y-60350000D01*
G75*
G02*
X105250000Y-60600000I-250000J0D01*
G01*
X104750000Y-60600000D01*
G75*
G02*
X104500000Y-60350000I0J250000D01*
G01*
X104500000Y-59400000D01*
G75*
G02*
X104750000Y-59150000I250000J0D01*
G01*
X105250000Y-59150000D01*
G75*
G02*
X105500000Y-59400000I0J-250000D01*
G01*
G37*
G36*
G01*
X103600000Y-57400000D02*
X103600000Y-58350000D01*
G75*
G02*
X103350000Y-58600000I-250000J0D01*
G01*
X102850000Y-58600000D01*
G75*
G02*
X102600000Y-58350000I0J250000D01*
G01*
X102600000Y-57400000D01*
G75*
G02*
X102850000Y-57150000I250000J0D01*
G01*
X103350000Y-57150000D01*
G75*
G02*
X103600000Y-57400000I0J-250000D01*
G01*
G37*
G36*
G01*
X105500000Y-57400000D02*
X105500000Y-58350000D01*
G75*
G02*
X105250000Y-58600000I-250000J0D01*
G01*
X104750000Y-58600000D01*
G75*
G02*
X104500000Y-58350000I0J250000D01*
G01*
X104500000Y-57400000D01*
G75*
G02*
X104750000Y-57150000I250000J0D01*
G01*
X105250000Y-57150000D01*
G75*
G02*
X105500000Y-57400000I0J-250000D01*
G01*
G37*
G36*
G01*
X103600000Y-55400000D02*
X103600000Y-56350000D01*
G75*
G02*
X103350000Y-56600000I-250000J0D01*
G01*
X102850000Y-56600000D01*
G75*
G02*
X102600000Y-56350000I0J250000D01*
G01*
X102600000Y-55400000D01*
G75*
G02*
X102850000Y-55150000I250000J0D01*
G01*
X103350000Y-55150000D01*
G75*
G02*
X103600000Y-55400000I0J-250000D01*
G01*
G37*
G36*
G01*
X105500000Y-55400000D02*
X105500000Y-56350000D01*
G75*
G02*
X105250000Y-56600000I-250000J0D01*
G01*
X104750000Y-56600000D01*
G75*
G02*
X104500000Y-56350000I0J250000D01*
G01*
X104500000Y-55400000D01*
G75*
G02*
X104750000Y-55150000I250000J0D01*
G01*
X105250000Y-55150000D01*
G75*
G02*
X105500000Y-55400000I0J-250000D01*
G01*
G37*
G36*
G01*
X103600000Y-53375000D02*
X103600000Y-54325000D01*
G75*
G02*
X103350000Y-54575000I-250000J0D01*
G01*
X102850000Y-54575000D01*
G75*
G02*
X102600000Y-54325000I0J250000D01*
G01*
X102600000Y-53375000D01*
G75*
G02*
X102850000Y-53125000I250000J0D01*
G01*
X103350000Y-53125000D01*
G75*
G02*
X103600000Y-53375000I0J-250000D01*
G01*
G37*
G36*
G01*
X105500000Y-53375000D02*
X105500000Y-54325000D01*
G75*
G02*
X105250000Y-54575000I-250000J0D01*
G01*
X104750000Y-54575000D01*
G75*
G02*
X104500000Y-54325000I0J250000D01*
G01*
X104500000Y-53375000D01*
G75*
G02*
X104750000Y-53125000I250000J0D01*
G01*
X105250000Y-53125000D01*
G75*
G02*
X105500000Y-53375000I0J-250000D01*
G01*
G37*
G36*
G01*
X103600000Y-51350000D02*
X103600000Y-52300000D01*
G75*
G02*
X103350000Y-52550000I-250000J0D01*
G01*
X102850000Y-52550000D01*
G75*
G02*
X102600000Y-52300000I0J250000D01*
G01*
X102600000Y-51350000D01*
G75*
G02*
X102850000Y-51100000I250000J0D01*
G01*
X103350000Y-51100000D01*
G75*
G02*
X103600000Y-51350000I0J-250000D01*
G01*
G37*
G36*
G01*
X105500000Y-51350000D02*
X105500000Y-52300000D01*
G75*
G02*
X105250000Y-52550000I-250000J0D01*
G01*
X104750000Y-52550000D01*
G75*
G02*
X104500000Y-52300000I0J250000D01*
G01*
X104500000Y-51350000D01*
G75*
G02*
X104750000Y-51100000I250000J0D01*
G01*
X105250000Y-51100000D01*
G75*
G02*
X105500000Y-51350000I0J-250000D01*
G01*
G37*
G36*
G01*
X78725000Y-52250000D02*
X77775000Y-52250000D01*
G75*
G02*
X77525000Y-52000000I0J250000D01*
G01*
X77525000Y-51500000D01*
G75*
G02*
X77775000Y-51250000I250000J0D01*
G01*
X78725000Y-51250000D01*
G75*
G02*
X78975000Y-51500000I0J-250000D01*
G01*
X78975000Y-52000000D01*
G75*
G02*
X78725000Y-52250000I-250000J0D01*
G01*
G37*
G36*
G01*
X78725000Y-54150000D02*
X77775000Y-54150000D01*
G75*
G02*
X77525000Y-53900000I0J250000D01*
G01*
X77525000Y-53400000D01*
G75*
G02*
X77775000Y-53150000I250000J0D01*
G01*
X78725000Y-53150000D01*
G75*
G02*
X78975000Y-53400000I0J-250000D01*
G01*
X78975000Y-53900000D01*
G75*
G02*
X78725000Y-54150000I-250000J0D01*
G01*
G37*
G36*
G01*
X76725000Y-52250000D02*
X75775000Y-52250000D01*
G75*
G02*
X75525000Y-52000000I0J250000D01*
G01*
X75525000Y-51500000D01*
G75*
G02*
X75775000Y-51250000I250000J0D01*
G01*
X76725000Y-51250000D01*
G75*
G02*
X76975000Y-51500000I0J-250000D01*
G01*
X76975000Y-52000000D01*
G75*
G02*
X76725000Y-52250000I-250000J0D01*
G01*
G37*
G36*
G01*
X76725000Y-54150000D02*
X75775000Y-54150000D01*
G75*
G02*
X75525000Y-53900000I0J250000D01*
G01*
X75525000Y-53400000D01*
G75*
G02*
X75775000Y-53150000I250000J0D01*
G01*
X76725000Y-53150000D01*
G75*
G02*
X76975000Y-53400000I0J-250000D01*
G01*
X76975000Y-53900000D01*
G75*
G02*
X76725000Y-54150000I-250000J0D01*
G01*
G37*
G36*
G01*
X74725000Y-52250000D02*
X73775000Y-52250000D01*
G75*
G02*
X73525000Y-52000000I0J250000D01*
G01*
X73525000Y-51500000D01*
G75*
G02*
X73775000Y-51250000I250000J0D01*
G01*
X74725000Y-51250000D01*
G75*
G02*
X74975000Y-51500000I0J-250000D01*
G01*
X74975000Y-52000000D01*
G75*
G02*
X74725000Y-52250000I-250000J0D01*
G01*
G37*
G36*
G01*
X74725000Y-54150000D02*
X73775000Y-54150000D01*
G75*
G02*
X73525000Y-53900000I0J250000D01*
G01*
X73525000Y-53400000D01*
G75*
G02*
X73775000Y-53150000I250000J0D01*
G01*
X74725000Y-53150000D01*
G75*
G02*
X74975000Y-53400000I0J-250000D01*
G01*
X74975000Y-53900000D01*
G75*
G02*
X74725000Y-54150000I-250000J0D01*
G01*
G37*
D17*
X94475000Y-63030000D03*
X84475000Y-63030000D03*
X94475000Y-64300000D03*
X84475000Y-64300000D03*
X94475000Y-65570000D03*
X84475000Y-65570000D03*
X94475000Y-66840000D03*
X84475000Y-66840000D03*
X94475000Y-68110000D03*
X84475000Y-68110000D03*
X94475000Y-69380000D03*
X84475000Y-69380000D03*
X94475000Y-70650000D03*
X84475000Y-70650000D03*
X94475000Y-71920000D03*
X84475000Y-71920000D03*
M02*
