M48
METRIC,TZ
T1C0.400
T2C0.850
T3C1.000
T4C1.190
%
G90
G05
T1
X58790Y-55590
X58820Y-59100
X59010Y-75360
X59010Y-81240
X59030Y-78180
X60775Y-63150
X61930Y-55590
X62160Y-81270
X63950Y-64350
X64525Y-68100
X64625Y-60525
X64625Y-61825
X65300Y-74570
X65300Y-81260
X65310Y-77150
X65320Y-72070
X65600Y-60525
X65600Y-61825
X65850Y-58550
X67300Y-63125
X67300Y-81260
X70630Y-83150
X70750Y-67550
X70825Y-81250
X70850Y-50875
X71000Y-64575
X71113Y-52313
X71175Y-62100
X71200Y-58360
X71200Y-60275
X71210Y-56580
X71560Y-83150
X71675Y-81250
X71725Y-50875
X71775Y-52975
X72450Y-53650
X72490Y-83150
X72525Y-81250
X72625Y-50875
X72700Y-61075
X72750Y-65275
X73825Y-60300
X74710Y-58360
X74720Y-56580
X76475Y-65050
X76650Y-70075
X77200Y-61200
X77200Y-65300
X78040Y-56570
X78040Y-58360
X79525Y-66200
X79575Y-70025
X80775Y-72800
X81290Y-84330
X81525Y-65575
X81525Y-68575
X82900Y-65575
X82950Y-66825
X82975Y-68100
X84590Y-84210
X85230Y-55510
X85240Y-51730
X85250Y-73450
X85250Y-81650
X85260Y-58560
X85260Y-61540
X85260Y-76720
X93900Y-73150
X95000Y-73150
X98675Y-65575
X99700Y-72650
X99725Y-65575
X106250Y-51825
X106250Y-53850
X106250Y-55875
X106250Y-57875
X106250Y-58825
X106475Y-75675
X106475Y-77700
X106475Y-79700
X106475Y-81700
X106475Y-83700
X108475Y-72500
X108750Y-69375
X109450Y-81450
X109450Y-83700
X109700Y-51050
X113275Y-59775
X113300Y-51050
X113425Y-63125
X113425Y-65000
X113850Y-81450
X113850Y-83700
T2
X81800Y-53800
X84340Y-53800
X94500Y-53800
X97040Y-53800
X99580Y-53800
X81800Y-78400
X84340Y-78400
X94500Y-78400
X97040Y-78400
X99580Y-78400
T3
X57350Y-66650
X57350Y-69190
X59890Y-66650
X59890Y-69190
X109685Y-53110
X109685Y-55650
X112225Y-53110
X112225Y-55650
X110050Y-76700
X110050Y-79240
X112590Y-76700
X112590Y-79240
T4
X62750Y-72350
X62750Y-74890
X62750Y-77430
X62750Y-79970
X68530Y-76800
X71070Y-76800
X73610Y-76800
X76150Y-76800
X60580Y-54100
X63120Y-54100
X65660Y-54100
X68200Y-54100
T0
M30
