G04 #@! TF.GenerationSoftware,KiCad,Pcbnew,(5.1.6)-1*
G04 #@! TF.CreationDate,2021-04-15T23:13:23+02:00*
G04 #@! TF.ProjectId,GateDriver,47617465-4472-4697-9665-722e6b696361,rev?*
G04 #@! TF.SameCoordinates,Original*
G04 #@! TF.FileFunction,Copper,L2,Bot*
G04 #@! TF.FilePolarity,Positive*
%FSLAX46Y46*%
G04 Gerber Fmt 4.6, Leading zero omitted, Abs format (unit mm)*
G04 Created by KiCad (PCBNEW (5.1.6)-1) date 2021-04-15 23:13:23*
%MOMM*%
%LPD*%
G01*
G04 APERTURE LIST*
G04 #@! TA.AperFunction,ComponentPad*
%ADD10O,1.700000X1.700000*%
G04 #@! TD*
G04 #@! TA.AperFunction,ComponentPad*
%ADD11R,1.700000X1.700000*%
G04 #@! TD*
G04 #@! TA.AperFunction,ComponentPad*
%ADD12O,1.740000X2.190000*%
G04 #@! TD*
G04 #@! TA.AperFunction,ComponentPad*
%ADD13O,2.190000X1.740000*%
G04 #@! TD*
G04 #@! TA.AperFunction,ComponentPad*
%ADD14C,1.850000*%
G04 #@! TD*
G04 #@! TA.AperFunction,ComponentPad*
%ADD15R,1.850000X1.850000*%
G04 #@! TD*
G04 #@! TA.AperFunction,ViaPad*
%ADD16C,0.800000*%
G04 #@! TD*
G04 #@! TA.AperFunction,Conductor*
%ADD17C,1.000000*%
G04 #@! TD*
G04 #@! TA.AperFunction,Conductor*
%ADD18C,0.500000*%
G04 #@! TD*
G04 #@! TA.AperFunction,Conductor*
%ADD19C,0.254000*%
G04 #@! TD*
G04 APERTURE END LIST*
D10*
X112590000Y-79240000D03*
X112590000Y-76700000D03*
X110050000Y-79240000D03*
D11*
X110050000Y-76700000D03*
D10*
X109685000Y-53110000D03*
X109685000Y-55650000D03*
X112225000Y-53110000D03*
D11*
X112225000Y-55650000D03*
D10*
X59890000Y-69190000D03*
X59890000Y-66650000D03*
X57350000Y-69190000D03*
D11*
X57350000Y-66650000D03*
D12*
X60580000Y-54100000D03*
X63120000Y-54100000D03*
X65660000Y-54100000D03*
G04 #@! TA.AperFunction,ComponentPad*
G36*
G01*
X69070000Y-53254999D02*
X69070000Y-54945001D01*
G75*
G02*
X68820001Y-55195000I-249999J0D01*
G01*
X67579999Y-55195000D01*
G75*
G02*
X67330000Y-54945001I0J249999D01*
G01*
X67330000Y-53254999D01*
G75*
G02*
X67579999Y-53005000I249999J0D01*
G01*
X68820001Y-53005000D01*
G75*
G02*
X69070000Y-53254999I0J-249999D01*
G01*
G37*
G04 #@! TD.AperFunction*
X68530000Y-76800000D03*
X71070000Y-76800000D03*
X73610000Y-76800000D03*
G04 #@! TA.AperFunction,ComponentPad*
G36*
G01*
X77020000Y-75954999D02*
X77020000Y-77645001D01*
G75*
G02*
X76770001Y-77895000I-249999J0D01*
G01*
X75529999Y-77895000D01*
G75*
G02*
X75280000Y-77645001I0J249999D01*
G01*
X75280000Y-75954999D01*
G75*
G02*
X75529999Y-75705000I249999J0D01*
G01*
X76770001Y-75705000D01*
G75*
G02*
X77020000Y-75954999I0J-249999D01*
G01*
G37*
G04 #@! TD.AperFunction*
D13*
X62750000Y-79970000D03*
X62750000Y-77430000D03*
X62750000Y-74890000D03*
G04 #@! TA.AperFunction,ComponentPad*
G36*
G01*
X61904999Y-71480000D02*
X63595001Y-71480000D01*
G75*
G02*
X63845000Y-71729999I0J-249999D01*
G01*
X63845000Y-72970001D01*
G75*
G02*
X63595001Y-73220000I-249999J0D01*
G01*
X61904999Y-73220000D01*
G75*
G02*
X61655000Y-72970001I0J249999D01*
G01*
X61655000Y-71729999D01*
G75*
G02*
X61904999Y-71480000I249999J0D01*
G01*
G37*
G04 #@! TD.AperFunction*
D14*
X99580000Y-53800000D03*
X97040000Y-53800000D03*
X94500000Y-53800000D03*
X84340000Y-53800000D03*
D15*
X81800000Y-53800000D03*
X81800000Y-78400000D03*
D14*
X84340000Y-78400000D03*
X94500000Y-78400000D03*
X97040000Y-78400000D03*
X99580000Y-78400000D03*
D16*
X72450000Y-53650000D03*
X71775000Y-52975000D03*
X71112500Y-52312500D03*
X72525000Y-81250000D03*
X71675000Y-81250000D03*
X70825000Y-81250000D03*
X72625000Y-50875000D03*
X71725000Y-50875000D03*
X70850000Y-50875000D03*
X72490000Y-83150000D03*
X71560000Y-83150000D03*
X70630002Y-83149998D03*
X64625000Y-60525000D03*
X65600000Y-60525000D03*
X65600000Y-61825000D03*
X64625000Y-61825000D03*
X82950000Y-66825000D03*
X82975000Y-68100000D03*
X81525000Y-68575000D03*
X77200000Y-65300000D03*
X76475000Y-65050000D03*
X67300000Y-63125000D03*
X70750000Y-67550000D03*
X72750000Y-65275000D03*
X79525000Y-66200000D03*
X60775000Y-63150000D03*
X74710000Y-58360000D03*
X63950000Y-64350000D03*
X64525000Y-68100000D03*
X76650000Y-70075000D03*
X80775000Y-72800000D03*
X79575000Y-70025000D03*
X81290000Y-84330000D03*
X84590000Y-84210000D03*
X85250000Y-81650000D03*
X85260000Y-76720000D03*
X85250000Y-73450000D03*
X85260000Y-58560000D03*
X85230000Y-55510000D03*
X85240000Y-51730000D03*
X58790000Y-55590000D03*
X58820000Y-59100000D03*
X61930000Y-55590000D03*
X78040000Y-58360000D03*
X78040000Y-56570000D03*
X74720000Y-56580000D03*
X71210000Y-56580000D03*
X65320000Y-72070000D03*
X65300000Y-74570000D03*
X65310000Y-77150000D03*
X67300000Y-81260000D03*
X65300000Y-81260000D03*
X62160000Y-81270000D03*
X59010000Y-81240000D03*
X59030000Y-78180000D03*
X59010000Y-75360000D03*
X65850000Y-58550000D03*
X71200000Y-60275000D03*
X73825000Y-60300000D03*
X71175000Y-62100000D03*
X72700000Y-61075000D03*
X71000000Y-64575000D03*
X81525000Y-65575000D03*
X82900000Y-65575000D03*
X77200000Y-61200000D03*
X85260000Y-61540000D03*
X71200000Y-58360000D03*
X98675000Y-65575000D03*
X99725000Y-65575000D03*
X106250000Y-51825000D03*
X106250000Y-53850000D03*
X106250000Y-55875000D03*
X106250000Y-57875000D03*
X106250000Y-58824999D03*
X113300000Y-51050000D03*
X109700000Y-51050000D03*
X113425000Y-65000000D03*
X113425000Y-63125000D03*
X113275000Y-59775000D03*
X93900000Y-73150000D03*
X95000000Y-73150000D03*
X106475000Y-75675000D03*
X106475000Y-77700000D03*
X106475000Y-79700000D03*
X106475000Y-81700000D03*
X106475000Y-83700000D03*
X109450000Y-83700000D03*
X113850000Y-83700000D03*
X108750000Y-69375000D03*
X99700000Y-72650000D03*
X108475000Y-72500000D03*
X109450000Y-81450000D03*
X113850000Y-81450000D03*
D17*
X59945000Y-65100000D02*
X59945000Y-64095000D01*
X72450000Y-53650000D02*
X72450000Y-53650000D01*
X71775000Y-52975000D02*
X72450000Y-53650000D01*
X71112500Y-52312500D02*
X71775000Y-52975000D01*
X72525000Y-81250000D02*
X72575000Y-81250000D01*
X71675000Y-81250000D02*
X72525000Y-81250000D01*
X70825000Y-81250000D02*
X71675000Y-81250000D01*
X59945000Y-65100000D02*
X59945000Y-70150000D01*
X71000000Y-52200000D02*
X71112500Y-52312500D01*
X59945000Y-63948002D02*
X57450000Y-61453002D01*
X57450000Y-52675000D02*
X57925000Y-52200000D01*
X57450000Y-61453002D02*
X57450000Y-52675000D01*
X59945000Y-65100000D02*
X59945000Y-63948002D01*
X57925000Y-52200000D02*
X71000000Y-52200000D01*
X57834989Y-82809989D02*
X69265011Y-82809989D01*
X69265011Y-82809989D02*
X70825000Y-81250000D01*
X57230011Y-75369989D02*
X57230011Y-82205011D01*
X57230011Y-82205011D02*
X57834989Y-82809989D01*
X59945000Y-72655000D02*
X57230011Y-75369989D01*
X59945000Y-70150000D02*
X59945000Y-72655000D01*
X72625000Y-50875000D02*
X72625000Y-50875000D01*
X71725000Y-50875000D02*
X72625000Y-50875000D01*
X70850000Y-50875000D02*
X71725000Y-50875000D01*
X72525000Y-83150000D02*
X72525000Y-83150000D01*
X71675000Y-83150000D02*
X72525000Y-83150000D01*
X57405000Y-65100000D02*
X57405000Y-70150000D01*
X57525000Y-50875000D02*
X70850000Y-50875000D01*
X56075000Y-52325000D02*
X57525000Y-50875000D01*
X57405000Y-65100000D02*
X56075000Y-63770000D01*
X56075000Y-63770000D02*
X56075000Y-52325000D01*
X56030000Y-71525000D02*
X56030000Y-83560000D01*
X56030000Y-83560000D02*
X56480000Y-84010000D01*
X57405000Y-70150000D02*
X56030000Y-71525000D01*
X70630004Y-83150000D02*
X70630002Y-83149998D01*
X56480000Y-84010000D02*
X69770000Y-84010000D01*
X71675000Y-83150000D02*
X70630004Y-83150000D01*
X69770000Y-84010000D02*
X70630002Y-83149998D01*
D18*
X71175000Y-62100000D02*
X71175000Y-64400000D01*
X71175000Y-64400000D02*
X71000000Y-64575000D01*
D19*
G36*
X114594001Y-66073000D02*
G01*
X93527000Y-66073000D01*
X93527000Y-54673962D01*
X93667474Y-54814436D01*
X93881377Y-54957362D01*
X94119054Y-55055811D01*
X94371370Y-55106000D01*
X94628630Y-55106000D01*
X94880946Y-55055811D01*
X95118623Y-54957362D01*
X95332526Y-54814436D01*
X95470254Y-54676708D01*
X96195819Y-54676708D01*
X96287364Y-54875044D01*
X96511556Y-55001219D01*
X96756056Y-55081232D01*
X97011468Y-55112008D01*
X97267976Y-55092364D01*
X97515723Y-55023056D01*
X97745188Y-54906746D01*
X97792636Y-54875044D01*
X97884181Y-54676708D01*
X97040000Y-53832527D01*
X96195819Y-54676708D01*
X95470254Y-54676708D01*
X95514436Y-54632526D01*
X95657362Y-54418623D01*
X95755811Y-54180946D01*
X95770197Y-54108622D01*
X95816944Y-54275723D01*
X95933254Y-54505188D01*
X95964956Y-54552636D01*
X96163292Y-54644181D01*
X97007473Y-53800000D01*
X97072527Y-53800000D01*
X97916708Y-54644181D01*
X98115044Y-54552636D01*
X98241219Y-54328444D01*
X98311070Y-54114995D01*
X98324189Y-54180946D01*
X98422638Y-54418623D01*
X98565564Y-54632526D01*
X98747474Y-54814436D01*
X98961377Y-54957362D01*
X99199054Y-55055811D01*
X99451370Y-55106000D01*
X99708630Y-55106000D01*
X99960946Y-55055811D01*
X100198623Y-54957362D01*
X100412526Y-54814436D01*
X100526962Y-54700000D01*
X108419000Y-54700000D01*
X108419000Y-56850000D01*
X108426321Y-56924329D01*
X108448002Y-56995802D01*
X108483210Y-57061672D01*
X108530592Y-57119408D01*
X108588328Y-57166790D01*
X108654198Y-57201998D01*
X108725671Y-57223679D01*
X108800000Y-57231000D01*
X113125000Y-57231000D01*
X113199329Y-57223679D01*
X113270802Y-57201998D01*
X113336672Y-57166790D01*
X113394408Y-57119408D01*
X113441790Y-57061672D01*
X113476998Y-56995802D01*
X113498679Y-56924329D01*
X113506000Y-56850000D01*
X113506000Y-54700000D01*
X113498679Y-54625671D01*
X113476998Y-54554198D01*
X113441790Y-54488328D01*
X113394408Y-54430592D01*
X113336672Y-54383210D01*
X113270802Y-54348002D01*
X113199329Y-54326321D01*
X113125000Y-54319000D01*
X112455506Y-54319000D01*
X112489957Y-54312147D01*
X112719393Y-54237358D01*
X112929830Y-54119245D01*
X113113181Y-53962347D01*
X113262400Y-53772694D01*
X113371752Y-53557574D01*
X113437035Y-53325254D01*
X113360536Y-53133000D01*
X112248000Y-53133000D01*
X112248000Y-53153000D01*
X112202000Y-53153000D01*
X112202000Y-53133000D01*
X111089464Y-53133000D01*
X111012965Y-53325254D01*
X111078248Y-53557574D01*
X111187600Y-53772694D01*
X111336819Y-53962347D01*
X111520170Y-54119245D01*
X111730607Y-54237358D01*
X111960043Y-54312147D01*
X111994494Y-54319000D01*
X109915506Y-54319000D01*
X109949957Y-54312147D01*
X110179393Y-54237358D01*
X110389830Y-54119245D01*
X110573181Y-53962347D01*
X110722400Y-53772694D01*
X110831752Y-53557574D01*
X110897035Y-53325254D01*
X110820536Y-53133000D01*
X109708000Y-53133000D01*
X109708000Y-53153000D01*
X109662000Y-53153000D01*
X109662000Y-53133000D01*
X108549464Y-53133000D01*
X108472965Y-53325254D01*
X108538248Y-53557574D01*
X108647600Y-53772694D01*
X108796819Y-53962347D01*
X108980170Y-54119245D01*
X109190607Y-54237358D01*
X109420043Y-54312147D01*
X109454494Y-54319000D01*
X108800000Y-54319000D01*
X108725671Y-54326321D01*
X108654198Y-54348002D01*
X108588328Y-54383210D01*
X108530592Y-54430592D01*
X108483210Y-54488328D01*
X108448002Y-54554198D01*
X108426321Y-54625671D01*
X108419000Y-54700000D01*
X100526962Y-54700000D01*
X100594436Y-54632526D01*
X100737362Y-54418623D01*
X100835811Y-54180946D01*
X100886000Y-53928630D01*
X100886000Y-53671370D01*
X100835811Y-53419054D01*
X100737362Y-53181377D01*
X100594436Y-52967474D01*
X100521708Y-52894746D01*
X108472965Y-52894746D01*
X108549464Y-53087000D01*
X109662000Y-53087000D01*
X109662000Y-51974483D01*
X109708000Y-51974483D01*
X109708000Y-53087000D01*
X110820536Y-53087000D01*
X110897035Y-52894746D01*
X111012965Y-52894746D01*
X111089464Y-53087000D01*
X112202000Y-53087000D01*
X112202000Y-51974483D01*
X112248000Y-51974483D01*
X112248000Y-53087000D01*
X113360536Y-53087000D01*
X113437035Y-52894746D01*
X113371752Y-52662426D01*
X113262400Y-52447306D01*
X113113181Y-52257653D01*
X112929830Y-52100755D01*
X112719393Y-51982642D01*
X112489957Y-51907853D01*
X112440254Y-51897966D01*
X112248000Y-51974483D01*
X112202000Y-51974483D01*
X112009746Y-51897966D01*
X111960043Y-51907853D01*
X111730607Y-51982642D01*
X111520170Y-52100755D01*
X111336819Y-52257653D01*
X111187600Y-52447306D01*
X111078248Y-52662426D01*
X111012965Y-52894746D01*
X110897035Y-52894746D01*
X110831752Y-52662426D01*
X110722400Y-52447306D01*
X110573181Y-52257653D01*
X110389830Y-52100755D01*
X110179393Y-51982642D01*
X109949957Y-51907853D01*
X109900254Y-51897966D01*
X109708000Y-51974483D01*
X109662000Y-51974483D01*
X109469746Y-51897966D01*
X109420043Y-51907853D01*
X109190607Y-51982642D01*
X108980170Y-52100755D01*
X108796819Y-52257653D01*
X108647600Y-52447306D01*
X108538248Y-52662426D01*
X108472965Y-52894746D01*
X100521708Y-52894746D01*
X100412526Y-52785564D01*
X100198623Y-52642638D01*
X99960946Y-52544189D01*
X99708630Y-52494000D01*
X99451370Y-52494000D01*
X99199054Y-52544189D01*
X98961377Y-52642638D01*
X98747474Y-52785564D01*
X98565564Y-52967474D01*
X98422638Y-53181377D01*
X98324189Y-53419054D01*
X98309803Y-53491378D01*
X98263056Y-53324277D01*
X98146746Y-53094812D01*
X98115044Y-53047364D01*
X97916708Y-52955819D01*
X97072527Y-53800000D01*
X97007473Y-53800000D01*
X96163292Y-52955819D01*
X95964956Y-53047364D01*
X95838781Y-53271556D01*
X95768930Y-53485005D01*
X95755811Y-53419054D01*
X95657362Y-53181377D01*
X95514436Y-52967474D01*
X95470254Y-52923292D01*
X96195819Y-52923292D01*
X97040000Y-53767473D01*
X97884181Y-52923292D01*
X97792636Y-52724956D01*
X97568444Y-52598781D01*
X97323944Y-52518768D01*
X97068532Y-52487992D01*
X96812024Y-52507636D01*
X96564277Y-52576944D01*
X96334812Y-52693254D01*
X96287364Y-52724956D01*
X96195819Y-52923292D01*
X95470254Y-52923292D01*
X95332526Y-52785564D01*
X95118623Y-52642638D01*
X94880946Y-52544189D01*
X94628630Y-52494000D01*
X94371370Y-52494000D01*
X94119054Y-52544189D01*
X93881377Y-52642638D01*
X93667474Y-52785564D01*
X93527000Y-52926038D01*
X93527000Y-50406000D01*
X114594001Y-50406000D01*
X114594001Y-66073000D01*
G37*
X114594001Y-66073000D02*
X93527000Y-66073000D01*
X93527000Y-54673962D01*
X93667474Y-54814436D01*
X93881377Y-54957362D01*
X94119054Y-55055811D01*
X94371370Y-55106000D01*
X94628630Y-55106000D01*
X94880946Y-55055811D01*
X95118623Y-54957362D01*
X95332526Y-54814436D01*
X95470254Y-54676708D01*
X96195819Y-54676708D01*
X96287364Y-54875044D01*
X96511556Y-55001219D01*
X96756056Y-55081232D01*
X97011468Y-55112008D01*
X97267976Y-55092364D01*
X97515723Y-55023056D01*
X97745188Y-54906746D01*
X97792636Y-54875044D01*
X97884181Y-54676708D01*
X97040000Y-53832527D01*
X96195819Y-54676708D01*
X95470254Y-54676708D01*
X95514436Y-54632526D01*
X95657362Y-54418623D01*
X95755811Y-54180946D01*
X95770197Y-54108622D01*
X95816944Y-54275723D01*
X95933254Y-54505188D01*
X95964956Y-54552636D01*
X96163292Y-54644181D01*
X97007473Y-53800000D01*
X97072527Y-53800000D01*
X97916708Y-54644181D01*
X98115044Y-54552636D01*
X98241219Y-54328444D01*
X98311070Y-54114995D01*
X98324189Y-54180946D01*
X98422638Y-54418623D01*
X98565564Y-54632526D01*
X98747474Y-54814436D01*
X98961377Y-54957362D01*
X99199054Y-55055811D01*
X99451370Y-55106000D01*
X99708630Y-55106000D01*
X99960946Y-55055811D01*
X100198623Y-54957362D01*
X100412526Y-54814436D01*
X100526962Y-54700000D01*
X108419000Y-54700000D01*
X108419000Y-56850000D01*
X108426321Y-56924329D01*
X108448002Y-56995802D01*
X108483210Y-57061672D01*
X108530592Y-57119408D01*
X108588328Y-57166790D01*
X108654198Y-57201998D01*
X108725671Y-57223679D01*
X108800000Y-57231000D01*
X113125000Y-57231000D01*
X113199329Y-57223679D01*
X113270802Y-57201998D01*
X113336672Y-57166790D01*
X113394408Y-57119408D01*
X113441790Y-57061672D01*
X113476998Y-56995802D01*
X113498679Y-56924329D01*
X113506000Y-56850000D01*
X113506000Y-54700000D01*
X113498679Y-54625671D01*
X113476998Y-54554198D01*
X113441790Y-54488328D01*
X113394408Y-54430592D01*
X113336672Y-54383210D01*
X113270802Y-54348002D01*
X113199329Y-54326321D01*
X113125000Y-54319000D01*
X112455506Y-54319000D01*
X112489957Y-54312147D01*
X112719393Y-54237358D01*
X112929830Y-54119245D01*
X113113181Y-53962347D01*
X113262400Y-53772694D01*
X113371752Y-53557574D01*
X113437035Y-53325254D01*
X113360536Y-53133000D01*
X112248000Y-53133000D01*
X112248000Y-53153000D01*
X112202000Y-53153000D01*
X112202000Y-53133000D01*
X111089464Y-53133000D01*
X111012965Y-53325254D01*
X111078248Y-53557574D01*
X111187600Y-53772694D01*
X111336819Y-53962347D01*
X111520170Y-54119245D01*
X111730607Y-54237358D01*
X111960043Y-54312147D01*
X111994494Y-54319000D01*
X109915506Y-54319000D01*
X109949957Y-54312147D01*
X110179393Y-54237358D01*
X110389830Y-54119245D01*
X110573181Y-53962347D01*
X110722400Y-53772694D01*
X110831752Y-53557574D01*
X110897035Y-53325254D01*
X110820536Y-53133000D01*
X109708000Y-53133000D01*
X109708000Y-53153000D01*
X109662000Y-53153000D01*
X109662000Y-53133000D01*
X108549464Y-53133000D01*
X108472965Y-53325254D01*
X108538248Y-53557574D01*
X108647600Y-53772694D01*
X108796819Y-53962347D01*
X108980170Y-54119245D01*
X109190607Y-54237358D01*
X109420043Y-54312147D01*
X109454494Y-54319000D01*
X108800000Y-54319000D01*
X108725671Y-54326321D01*
X108654198Y-54348002D01*
X108588328Y-54383210D01*
X108530592Y-54430592D01*
X108483210Y-54488328D01*
X108448002Y-54554198D01*
X108426321Y-54625671D01*
X108419000Y-54700000D01*
X100526962Y-54700000D01*
X100594436Y-54632526D01*
X100737362Y-54418623D01*
X100835811Y-54180946D01*
X100886000Y-53928630D01*
X100886000Y-53671370D01*
X100835811Y-53419054D01*
X100737362Y-53181377D01*
X100594436Y-52967474D01*
X100521708Y-52894746D01*
X108472965Y-52894746D01*
X108549464Y-53087000D01*
X109662000Y-53087000D01*
X109662000Y-51974483D01*
X109708000Y-51974483D01*
X109708000Y-53087000D01*
X110820536Y-53087000D01*
X110897035Y-52894746D01*
X111012965Y-52894746D01*
X111089464Y-53087000D01*
X112202000Y-53087000D01*
X112202000Y-51974483D01*
X112248000Y-51974483D01*
X112248000Y-53087000D01*
X113360536Y-53087000D01*
X113437035Y-52894746D01*
X113371752Y-52662426D01*
X113262400Y-52447306D01*
X113113181Y-52257653D01*
X112929830Y-52100755D01*
X112719393Y-51982642D01*
X112489957Y-51907853D01*
X112440254Y-51897966D01*
X112248000Y-51974483D01*
X112202000Y-51974483D01*
X112009746Y-51897966D01*
X111960043Y-51907853D01*
X111730607Y-51982642D01*
X111520170Y-52100755D01*
X111336819Y-52257653D01*
X111187600Y-52447306D01*
X111078248Y-52662426D01*
X111012965Y-52894746D01*
X110897035Y-52894746D01*
X110831752Y-52662426D01*
X110722400Y-52447306D01*
X110573181Y-52257653D01*
X110389830Y-52100755D01*
X110179393Y-51982642D01*
X109949957Y-51907853D01*
X109900254Y-51897966D01*
X109708000Y-51974483D01*
X109662000Y-51974483D01*
X109469746Y-51897966D01*
X109420043Y-51907853D01*
X109190607Y-51982642D01*
X108980170Y-52100755D01*
X108796819Y-52257653D01*
X108647600Y-52447306D01*
X108538248Y-52662426D01*
X108472965Y-52894746D01*
X100521708Y-52894746D01*
X100412526Y-52785564D01*
X100198623Y-52642638D01*
X99960946Y-52544189D01*
X99708630Y-52494000D01*
X99451370Y-52494000D01*
X99199054Y-52544189D01*
X98961377Y-52642638D01*
X98747474Y-52785564D01*
X98565564Y-52967474D01*
X98422638Y-53181377D01*
X98324189Y-53419054D01*
X98309803Y-53491378D01*
X98263056Y-53324277D01*
X98146746Y-53094812D01*
X98115044Y-53047364D01*
X97916708Y-52955819D01*
X97072527Y-53800000D01*
X97007473Y-53800000D01*
X96163292Y-52955819D01*
X95964956Y-53047364D01*
X95838781Y-53271556D01*
X95768930Y-53485005D01*
X95755811Y-53419054D01*
X95657362Y-53181377D01*
X95514436Y-52967474D01*
X95470254Y-52923292D01*
X96195819Y-52923292D01*
X97040000Y-53767473D01*
X97884181Y-52923292D01*
X97792636Y-52724956D01*
X97568444Y-52598781D01*
X97323944Y-52518768D01*
X97068532Y-52487992D01*
X96812024Y-52507636D01*
X96564277Y-52576944D01*
X96334812Y-52693254D01*
X96287364Y-52724956D01*
X96195819Y-52923292D01*
X95470254Y-52923292D01*
X95332526Y-52785564D01*
X95118623Y-52642638D01*
X94880946Y-52544189D01*
X94628630Y-52494000D01*
X94371370Y-52494000D01*
X94119054Y-52544189D01*
X93881377Y-52642638D01*
X93667474Y-52785564D01*
X93527000Y-52926038D01*
X93527000Y-50406000D01*
X114594001Y-50406000D01*
X114594001Y-66073000D01*
G36*
X114594000Y-84594000D02*
G01*
X93527000Y-84594000D01*
X93527000Y-79273962D01*
X93667474Y-79414436D01*
X93881377Y-79557362D01*
X94119054Y-79655811D01*
X94371370Y-79706000D01*
X94628630Y-79706000D01*
X94880946Y-79655811D01*
X95118623Y-79557362D01*
X95332526Y-79414436D01*
X95470254Y-79276708D01*
X96195819Y-79276708D01*
X96287364Y-79475044D01*
X96511556Y-79601219D01*
X96756056Y-79681232D01*
X97011468Y-79712008D01*
X97267976Y-79692364D01*
X97515723Y-79623056D01*
X97745188Y-79506746D01*
X97792636Y-79475044D01*
X97884181Y-79276708D01*
X97040000Y-78432527D01*
X96195819Y-79276708D01*
X95470254Y-79276708D01*
X95514436Y-79232526D01*
X95657362Y-79018623D01*
X95755811Y-78780946D01*
X95770197Y-78708622D01*
X95816944Y-78875723D01*
X95933254Y-79105188D01*
X95964956Y-79152636D01*
X96163292Y-79244181D01*
X97007473Y-78400000D01*
X97072527Y-78400000D01*
X97916708Y-79244181D01*
X98115044Y-79152636D01*
X98241219Y-78928444D01*
X98311070Y-78714995D01*
X98324189Y-78780946D01*
X98422638Y-79018623D01*
X98565564Y-79232526D01*
X98747474Y-79414436D01*
X98961377Y-79557362D01*
X99199054Y-79655811D01*
X99451370Y-79706000D01*
X99708630Y-79706000D01*
X99960946Y-79655811D01*
X100198623Y-79557362D01*
X100351437Y-79455254D01*
X108837965Y-79455254D01*
X108903248Y-79687574D01*
X109012600Y-79902694D01*
X109161819Y-80092347D01*
X109345170Y-80249245D01*
X109555607Y-80367358D01*
X109785043Y-80442147D01*
X109834746Y-80452034D01*
X110027000Y-80375517D01*
X110027000Y-79263000D01*
X110073000Y-79263000D01*
X110073000Y-80375517D01*
X110265254Y-80452034D01*
X110314957Y-80442147D01*
X110544393Y-80367358D01*
X110754830Y-80249245D01*
X110938181Y-80092347D01*
X111087400Y-79902694D01*
X111196752Y-79687574D01*
X111262035Y-79455254D01*
X111377965Y-79455254D01*
X111443248Y-79687574D01*
X111552600Y-79902694D01*
X111701819Y-80092347D01*
X111885170Y-80249245D01*
X112095607Y-80367358D01*
X112325043Y-80442147D01*
X112374746Y-80452034D01*
X112567000Y-80375517D01*
X112567000Y-79263000D01*
X112613000Y-79263000D01*
X112613000Y-80375517D01*
X112805254Y-80452034D01*
X112854957Y-80442147D01*
X113084393Y-80367358D01*
X113294830Y-80249245D01*
X113478181Y-80092347D01*
X113627400Y-79902694D01*
X113736752Y-79687574D01*
X113802035Y-79455254D01*
X113725536Y-79263000D01*
X112613000Y-79263000D01*
X112567000Y-79263000D01*
X111454464Y-79263000D01*
X111377965Y-79455254D01*
X111262035Y-79455254D01*
X111185536Y-79263000D01*
X110073000Y-79263000D01*
X110027000Y-79263000D01*
X108914464Y-79263000D01*
X108837965Y-79455254D01*
X100351437Y-79455254D01*
X100412526Y-79414436D01*
X100594436Y-79232526D01*
X100737362Y-79018623D01*
X100835811Y-78780946D01*
X100886000Y-78528630D01*
X100886000Y-78271370D01*
X100835811Y-78019054D01*
X100737362Y-77781377D01*
X100594436Y-77567474D01*
X100412526Y-77385564D01*
X100198623Y-77242638D01*
X99960946Y-77144189D01*
X99708630Y-77094000D01*
X99451370Y-77094000D01*
X99199054Y-77144189D01*
X98961377Y-77242638D01*
X98747474Y-77385564D01*
X98565564Y-77567474D01*
X98422638Y-77781377D01*
X98324189Y-78019054D01*
X98309803Y-78091378D01*
X98263056Y-77924277D01*
X98146746Y-77694812D01*
X98115044Y-77647364D01*
X97916708Y-77555819D01*
X97072527Y-78400000D01*
X97007473Y-78400000D01*
X96163292Y-77555819D01*
X95964956Y-77647364D01*
X95838781Y-77871556D01*
X95768930Y-78085005D01*
X95755811Y-78019054D01*
X95657362Y-77781377D01*
X95514436Y-77567474D01*
X95470254Y-77523292D01*
X96195819Y-77523292D01*
X97040000Y-78367473D01*
X97884181Y-77523292D01*
X97792636Y-77324956D01*
X97568444Y-77198781D01*
X97323944Y-77118768D01*
X97068532Y-77087992D01*
X96812024Y-77107636D01*
X96564277Y-77176944D01*
X96334812Y-77293254D01*
X96287364Y-77324956D01*
X96195819Y-77523292D01*
X95470254Y-77523292D01*
X95332526Y-77385564D01*
X95118623Y-77242638D01*
X94880946Y-77144189D01*
X94628630Y-77094000D01*
X94371370Y-77094000D01*
X94119054Y-77144189D01*
X93881377Y-77242638D01*
X93667474Y-77385564D01*
X93527000Y-77526038D01*
X93527000Y-75650000D01*
X108619000Y-75650000D01*
X108619000Y-77775000D01*
X108626321Y-77849329D01*
X108648002Y-77920802D01*
X108683210Y-77986672D01*
X108730592Y-78044408D01*
X108788328Y-78091790D01*
X108854198Y-78126998D01*
X108925671Y-78148679D01*
X109000000Y-78156000D01*
X109478358Y-78156000D01*
X109345170Y-78230755D01*
X109161819Y-78387653D01*
X109012600Y-78577306D01*
X108903248Y-78792426D01*
X108837965Y-79024746D01*
X108914464Y-79217000D01*
X110027000Y-79217000D01*
X110027000Y-79197000D01*
X110073000Y-79197000D01*
X110073000Y-79217000D01*
X111185536Y-79217000D01*
X111262035Y-79024746D01*
X111196752Y-78792426D01*
X111087400Y-78577306D01*
X110938181Y-78387653D01*
X110754830Y-78230755D01*
X110621642Y-78156000D01*
X112018358Y-78156000D01*
X111885170Y-78230755D01*
X111701819Y-78387653D01*
X111552600Y-78577306D01*
X111443248Y-78792426D01*
X111377965Y-79024746D01*
X111454464Y-79217000D01*
X112567000Y-79217000D01*
X112567000Y-79197000D01*
X112613000Y-79197000D01*
X112613000Y-79217000D01*
X113725536Y-79217000D01*
X113802035Y-79024746D01*
X113736752Y-78792426D01*
X113627400Y-78577306D01*
X113478181Y-78387653D01*
X113294830Y-78230755D01*
X113161642Y-78156000D01*
X113650000Y-78156000D01*
X113724329Y-78148679D01*
X113795802Y-78126998D01*
X113861672Y-78091790D01*
X113919408Y-78044408D01*
X113966790Y-77986672D01*
X114001998Y-77920802D01*
X114023679Y-77849329D01*
X114031000Y-77775000D01*
X114031000Y-75650000D01*
X114023679Y-75575671D01*
X114001998Y-75504198D01*
X113966790Y-75438328D01*
X113919408Y-75380592D01*
X113861672Y-75333210D01*
X113795802Y-75298002D01*
X113724329Y-75276321D01*
X113650000Y-75269000D01*
X109000000Y-75269000D01*
X108925671Y-75276321D01*
X108854198Y-75298002D01*
X108788328Y-75333210D01*
X108730592Y-75380592D01*
X108683210Y-75438328D01*
X108648002Y-75504198D01*
X108626321Y-75575671D01*
X108619000Y-75650000D01*
X93527000Y-75650000D01*
X93527000Y-68827000D01*
X114594000Y-68827000D01*
X114594000Y-84594000D01*
G37*
X114594000Y-84594000D02*
X93527000Y-84594000D01*
X93527000Y-79273962D01*
X93667474Y-79414436D01*
X93881377Y-79557362D01*
X94119054Y-79655811D01*
X94371370Y-79706000D01*
X94628630Y-79706000D01*
X94880946Y-79655811D01*
X95118623Y-79557362D01*
X95332526Y-79414436D01*
X95470254Y-79276708D01*
X96195819Y-79276708D01*
X96287364Y-79475044D01*
X96511556Y-79601219D01*
X96756056Y-79681232D01*
X97011468Y-79712008D01*
X97267976Y-79692364D01*
X97515723Y-79623056D01*
X97745188Y-79506746D01*
X97792636Y-79475044D01*
X97884181Y-79276708D01*
X97040000Y-78432527D01*
X96195819Y-79276708D01*
X95470254Y-79276708D01*
X95514436Y-79232526D01*
X95657362Y-79018623D01*
X95755811Y-78780946D01*
X95770197Y-78708622D01*
X95816944Y-78875723D01*
X95933254Y-79105188D01*
X95964956Y-79152636D01*
X96163292Y-79244181D01*
X97007473Y-78400000D01*
X97072527Y-78400000D01*
X97916708Y-79244181D01*
X98115044Y-79152636D01*
X98241219Y-78928444D01*
X98311070Y-78714995D01*
X98324189Y-78780946D01*
X98422638Y-79018623D01*
X98565564Y-79232526D01*
X98747474Y-79414436D01*
X98961377Y-79557362D01*
X99199054Y-79655811D01*
X99451370Y-79706000D01*
X99708630Y-79706000D01*
X99960946Y-79655811D01*
X100198623Y-79557362D01*
X100351437Y-79455254D01*
X108837965Y-79455254D01*
X108903248Y-79687574D01*
X109012600Y-79902694D01*
X109161819Y-80092347D01*
X109345170Y-80249245D01*
X109555607Y-80367358D01*
X109785043Y-80442147D01*
X109834746Y-80452034D01*
X110027000Y-80375517D01*
X110027000Y-79263000D01*
X110073000Y-79263000D01*
X110073000Y-80375517D01*
X110265254Y-80452034D01*
X110314957Y-80442147D01*
X110544393Y-80367358D01*
X110754830Y-80249245D01*
X110938181Y-80092347D01*
X111087400Y-79902694D01*
X111196752Y-79687574D01*
X111262035Y-79455254D01*
X111377965Y-79455254D01*
X111443248Y-79687574D01*
X111552600Y-79902694D01*
X111701819Y-80092347D01*
X111885170Y-80249245D01*
X112095607Y-80367358D01*
X112325043Y-80442147D01*
X112374746Y-80452034D01*
X112567000Y-80375517D01*
X112567000Y-79263000D01*
X112613000Y-79263000D01*
X112613000Y-80375517D01*
X112805254Y-80452034D01*
X112854957Y-80442147D01*
X113084393Y-80367358D01*
X113294830Y-80249245D01*
X113478181Y-80092347D01*
X113627400Y-79902694D01*
X113736752Y-79687574D01*
X113802035Y-79455254D01*
X113725536Y-79263000D01*
X112613000Y-79263000D01*
X112567000Y-79263000D01*
X111454464Y-79263000D01*
X111377965Y-79455254D01*
X111262035Y-79455254D01*
X111185536Y-79263000D01*
X110073000Y-79263000D01*
X110027000Y-79263000D01*
X108914464Y-79263000D01*
X108837965Y-79455254D01*
X100351437Y-79455254D01*
X100412526Y-79414436D01*
X100594436Y-79232526D01*
X100737362Y-79018623D01*
X100835811Y-78780946D01*
X100886000Y-78528630D01*
X100886000Y-78271370D01*
X100835811Y-78019054D01*
X100737362Y-77781377D01*
X100594436Y-77567474D01*
X100412526Y-77385564D01*
X100198623Y-77242638D01*
X99960946Y-77144189D01*
X99708630Y-77094000D01*
X99451370Y-77094000D01*
X99199054Y-77144189D01*
X98961377Y-77242638D01*
X98747474Y-77385564D01*
X98565564Y-77567474D01*
X98422638Y-77781377D01*
X98324189Y-78019054D01*
X98309803Y-78091378D01*
X98263056Y-77924277D01*
X98146746Y-77694812D01*
X98115044Y-77647364D01*
X97916708Y-77555819D01*
X97072527Y-78400000D01*
X97007473Y-78400000D01*
X96163292Y-77555819D01*
X95964956Y-77647364D01*
X95838781Y-77871556D01*
X95768930Y-78085005D01*
X95755811Y-78019054D01*
X95657362Y-77781377D01*
X95514436Y-77567474D01*
X95470254Y-77523292D01*
X96195819Y-77523292D01*
X97040000Y-78367473D01*
X97884181Y-77523292D01*
X97792636Y-77324956D01*
X97568444Y-77198781D01*
X97323944Y-77118768D01*
X97068532Y-77087992D01*
X96812024Y-77107636D01*
X96564277Y-77176944D01*
X96334812Y-77293254D01*
X96287364Y-77324956D01*
X96195819Y-77523292D01*
X95470254Y-77523292D01*
X95332526Y-77385564D01*
X95118623Y-77242638D01*
X94880946Y-77144189D01*
X94628630Y-77094000D01*
X94371370Y-77094000D01*
X94119054Y-77144189D01*
X93881377Y-77242638D01*
X93667474Y-77385564D01*
X93527000Y-77526038D01*
X93527000Y-75650000D01*
X108619000Y-75650000D01*
X108619000Y-77775000D01*
X108626321Y-77849329D01*
X108648002Y-77920802D01*
X108683210Y-77986672D01*
X108730592Y-78044408D01*
X108788328Y-78091790D01*
X108854198Y-78126998D01*
X108925671Y-78148679D01*
X109000000Y-78156000D01*
X109478358Y-78156000D01*
X109345170Y-78230755D01*
X109161819Y-78387653D01*
X109012600Y-78577306D01*
X108903248Y-78792426D01*
X108837965Y-79024746D01*
X108914464Y-79217000D01*
X110027000Y-79217000D01*
X110027000Y-79197000D01*
X110073000Y-79197000D01*
X110073000Y-79217000D01*
X111185536Y-79217000D01*
X111262035Y-79024746D01*
X111196752Y-78792426D01*
X111087400Y-78577306D01*
X110938181Y-78387653D01*
X110754830Y-78230755D01*
X110621642Y-78156000D01*
X112018358Y-78156000D01*
X111885170Y-78230755D01*
X111701819Y-78387653D01*
X111552600Y-78577306D01*
X111443248Y-78792426D01*
X111377965Y-79024746D01*
X111454464Y-79217000D01*
X112567000Y-79217000D01*
X112567000Y-79197000D01*
X112613000Y-79197000D01*
X112613000Y-79217000D01*
X113725536Y-79217000D01*
X113802035Y-79024746D01*
X113736752Y-78792426D01*
X113627400Y-78577306D01*
X113478181Y-78387653D01*
X113294830Y-78230755D01*
X113161642Y-78156000D01*
X113650000Y-78156000D01*
X113724329Y-78148679D01*
X113795802Y-78126998D01*
X113861672Y-78091790D01*
X113919408Y-78044408D01*
X113966790Y-77986672D01*
X114001998Y-77920802D01*
X114023679Y-77849329D01*
X114031000Y-77775000D01*
X114031000Y-75650000D01*
X114023679Y-75575671D01*
X114001998Y-75504198D01*
X113966790Y-75438328D01*
X113919408Y-75380592D01*
X113861672Y-75333210D01*
X113795802Y-75298002D01*
X113724329Y-75276321D01*
X113650000Y-75269000D01*
X109000000Y-75269000D01*
X108925671Y-75276321D01*
X108854198Y-75298002D01*
X108788328Y-75333210D01*
X108730592Y-75380592D01*
X108683210Y-75438328D01*
X108648002Y-75504198D01*
X108626321Y-75575671D01*
X108619000Y-75650000D01*
X93527000Y-75650000D01*
X93527000Y-68827000D01*
X114594000Y-68827000D01*
X114594000Y-84594000D01*
G36*
X85673000Y-62523000D02*
G01*
X70677000Y-62523000D01*
X70677000Y-59827000D01*
X85673000Y-59827000D01*
X85673000Y-62523000D01*
G37*
X85673000Y-62523000D02*
X70677000Y-62523000D01*
X70677000Y-59827000D01*
X85673000Y-59827000D01*
X85673000Y-62523000D01*
G36*
X85673000Y-65773000D02*
G01*
X80927000Y-65773000D01*
X80927000Y-59827000D01*
X85673000Y-59827000D01*
X85673000Y-65773000D01*
G37*
X85673000Y-65773000D02*
X80927000Y-65773000D01*
X80927000Y-59827000D01*
X85673000Y-59827000D01*
X85673000Y-65773000D01*
G36*
X85673000Y-59319000D02*
G01*
X70550000Y-59319000D01*
X70475671Y-59326321D01*
X70404198Y-59348002D01*
X70338328Y-59383210D01*
X70280592Y-59430592D01*
X70233210Y-59488328D01*
X70198002Y-59554198D01*
X70176321Y-59625671D01*
X70169000Y-59700000D01*
X70169000Y-62650000D01*
X70176321Y-62724329D01*
X70198002Y-62795802D01*
X70233210Y-62861672D01*
X70280592Y-62919408D01*
X70338328Y-62966790D01*
X70404198Y-63001998D01*
X70475671Y-63023679D01*
X70544000Y-63030409D01*
X70544001Y-63940388D01*
X70502141Y-63968358D01*
X70393358Y-64077141D01*
X70307887Y-64205058D01*
X70249013Y-64347191D01*
X70219000Y-64498078D01*
X70219000Y-64651922D01*
X70249013Y-64802809D01*
X70307887Y-64944942D01*
X70393358Y-65072859D01*
X70502141Y-65181642D01*
X70630058Y-65267113D01*
X70772191Y-65325987D01*
X70923078Y-65356000D01*
X71076922Y-65356000D01*
X71227809Y-65325987D01*
X71369942Y-65267113D01*
X71497859Y-65181642D01*
X71606642Y-65072859D01*
X71692113Y-64944942D01*
X71750987Y-64802809D01*
X71781000Y-64651922D01*
X71781000Y-64576015D01*
X71796870Y-64523698D01*
X71806000Y-64430998D01*
X71806000Y-64430989D01*
X71809052Y-64400001D01*
X71806000Y-64369013D01*
X71806000Y-63031000D01*
X80419000Y-63031000D01*
X80419000Y-65900000D01*
X80426321Y-65974329D01*
X80448002Y-66045802D01*
X80483210Y-66111672D01*
X80530592Y-66169408D01*
X80588328Y-66216790D01*
X80654198Y-66251998D01*
X80725671Y-66273679D01*
X80800000Y-66281000D01*
X81188584Y-66281000D01*
X81297191Y-66325987D01*
X81448078Y-66356000D01*
X81601922Y-66356000D01*
X81752809Y-66325987D01*
X81861416Y-66281000D01*
X82563584Y-66281000D01*
X82672191Y-66325987D01*
X82823078Y-66356000D01*
X82976922Y-66356000D01*
X83127809Y-66325987D01*
X83236416Y-66281000D01*
X85673000Y-66281000D01*
X85673000Y-84594000D01*
X70431921Y-84594000D01*
X70994922Y-84031000D01*
X72568273Y-84031000D01*
X72697706Y-84018252D01*
X72863775Y-83967875D01*
X73016825Y-83886068D01*
X73150975Y-83775975D01*
X73261068Y-83641825D01*
X73342875Y-83488775D01*
X73393252Y-83322706D01*
X73410262Y-83150000D01*
X73393252Y-82977294D01*
X73342875Y-82811225D01*
X73261068Y-82658175D01*
X73150975Y-82524025D01*
X73016825Y-82413932D01*
X72863775Y-82332125D01*
X72697706Y-82281748D01*
X72568273Y-82269000D01*
X71051922Y-82269000D01*
X71189922Y-82131000D01*
X72618273Y-82131000D01*
X72747706Y-82118252D01*
X72913775Y-82067875D01*
X73066825Y-81986068D01*
X73200975Y-81875975D01*
X73311068Y-81741825D01*
X73392875Y-81588775D01*
X73443252Y-81422706D01*
X73460262Y-81250000D01*
X73443252Y-81077294D01*
X73392875Y-80911225D01*
X73311068Y-80758175D01*
X73200975Y-80624025D01*
X73066825Y-80513932D01*
X72913775Y-80432125D01*
X72747706Y-80381748D01*
X72618273Y-80369000D01*
X70868270Y-80369000D01*
X70825000Y-80364738D01*
X70781730Y-80369000D01*
X70781727Y-80369000D01*
X70652294Y-80381748D01*
X70486225Y-80432125D01*
X70333174Y-80513932D01*
X70279615Y-80557887D01*
X70199025Y-80624025D01*
X70171439Y-80657639D01*
X68900090Y-81928989D01*
X58199911Y-81928989D01*
X58111011Y-81840090D01*
X58111011Y-76513543D01*
X69819000Y-76513543D01*
X69819000Y-77086456D01*
X69837101Y-77270238D01*
X69908634Y-77506052D01*
X70024799Y-77723380D01*
X70181129Y-77913871D01*
X70371619Y-78070201D01*
X70588947Y-78186366D01*
X70824761Y-78257899D01*
X71070000Y-78282053D01*
X71315238Y-78257899D01*
X71551052Y-78186366D01*
X71768380Y-78070201D01*
X71958871Y-77913871D01*
X72115201Y-77723381D01*
X72231366Y-77506053D01*
X72302899Y-77270239D01*
X72321000Y-77086457D01*
X72321000Y-76513544D01*
X72302899Y-76329762D01*
X72231366Y-76093948D01*
X72157097Y-75954999D01*
X74897157Y-75954999D01*
X74897157Y-77645001D01*
X74909317Y-77768462D01*
X74945329Y-77887179D01*
X75003810Y-77996589D01*
X75082512Y-78092488D01*
X75178411Y-78171190D01*
X75287821Y-78229671D01*
X75406538Y-78265683D01*
X75529999Y-78277843D01*
X76770001Y-78277843D01*
X76893462Y-78265683D01*
X77012179Y-78229671D01*
X77121589Y-78171190D01*
X77217488Y-78092488D01*
X77296190Y-77996589D01*
X77354671Y-77887179D01*
X77390683Y-77768462D01*
X77402843Y-77645001D01*
X77402843Y-77475000D01*
X80492157Y-77475000D01*
X80492157Y-79325000D01*
X80499513Y-79399689D01*
X80521299Y-79471508D01*
X80556678Y-79537696D01*
X80604289Y-79595711D01*
X80662304Y-79643322D01*
X80728492Y-79678701D01*
X80800311Y-79700487D01*
X80875000Y-79707843D01*
X82725000Y-79707843D01*
X82799689Y-79700487D01*
X82871508Y-79678701D01*
X82937696Y-79643322D01*
X82995711Y-79595711D01*
X83043322Y-79537696D01*
X83078701Y-79471508D01*
X83100487Y-79399689D01*
X83107843Y-79325000D01*
X83107843Y-78838052D01*
X83182638Y-79018623D01*
X83325564Y-79232526D01*
X83507474Y-79414436D01*
X83721377Y-79557362D01*
X83959054Y-79655811D01*
X84211370Y-79706000D01*
X84468630Y-79706000D01*
X84720946Y-79655811D01*
X84958623Y-79557362D01*
X85172526Y-79414436D01*
X85354436Y-79232526D01*
X85497362Y-79018623D01*
X85595811Y-78780946D01*
X85646000Y-78528630D01*
X85646000Y-78271370D01*
X85595811Y-78019054D01*
X85497362Y-77781377D01*
X85354436Y-77567474D01*
X85172526Y-77385564D01*
X84958623Y-77242638D01*
X84720946Y-77144189D01*
X84468630Y-77094000D01*
X84211370Y-77094000D01*
X83959054Y-77144189D01*
X83721377Y-77242638D01*
X83507474Y-77385564D01*
X83325564Y-77567474D01*
X83182638Y-77781377D01*
X83107843Y-77961948D01*
X83107843Y-77475000D01*
X83100487Y-77400311D01*
X83078701Y-77328492D01*
X83043322Y-77262304D01*
X82995711Y-77204289D01*
X82937696Y-77156678D01*
X82871508Y-77121299D01*
X82799689Y-77099513D01*
X82725000Y-77092157D01*
X80875000Y-77092157D01*
X80800311Y-77099513D01*
X80728492Y-77121299D01*
X80662304Y-77156678D01*
X80604289Y-77204289D01*
X80556678Y-77262304D01*
X80521299Y-77328492D01*
X80499513Y-77400311D01*
X80492157Y-77475000D01*
X77402843Y-77475000D01*
X77402843Y-75954999D01*
X77390683Y-75831538D01*
X77354671Y-75712821D01*
X77296190Y-75603411D01*
X77217488Y-75507512D01*
X77121589Y-75428810D01*
X77012179Y-75370329D01*
X76893462Y-75334317D01*
X76770001Y-75322157D01*
X75529999Y-75322157D01*
X75406538Y-75334317D01*
X75287821Y-75370329D01*
X75178411Y-75428810D01*
X75082512Y-75507512D01*
X75003810Y-75603411D01*
X74945329Y-75712821D01*
X74909317Y-75831538D01*
X74897157Y-75954999D01*
X72157097Y-75954999D01*
X72115201Y-75876619D01*
X71958871Y-75686129D01*
X71768381Y-75529799D01*
X71551053Y-75413634D01*
X71315239Y-75342101D01*
X71070000Y-75317947D01*
X70824762Y-75342101D01*
X70588948Y-75413634D01*
X70371620Y-75529799D01*
X70181130Y-75686129D01*
X70024800Y-75876619D01*
X69908634Y-76093947D01*
X69837101Y-76329761D01*
X69819000Y-76513543D01*
X58111011Y-76513543D01*
X58111011Y-75734910D01*
X58955921Y-74890000D01*
X61267947Y-74890000D01*
X61292101Y-75135239D01*
X61363634Y-75371053D01*
X61479799Y-75588381D01*
X61636129Y-75778871D01*
X61826619Y-75935201D01*
X62043947Y-76051366D01*
X62279761Y-76122899D01*
X62463543Y-76141000D01*
X63036457Y-76141000D01*
X63220239Y-76122899D01*
X63456053Y-76051366D01*
X63673381Y-75935201D01*
X63863871Y-75778871D01*
X64020201Y-75588381D01*
X64136366Y-75371053D01*
X64207899Y-75135239D01*
X64232053Y-74890000D01*
X64207899Y-74644761D01*
X64136366Y-74408947D01*
X64020201Y-74191619D01*
X63863871Y-74001129D01*
X63673381Y-73844799D01*
X63456053Y-73728634D01*
X63220239Y-73657101D01*
X63036457Y-73639000D01*
X62463543Y-73639000D01*
X62279761Y-73657101D01*
X62043947Y-73728634D01*
X61826619Y-73844799D01*
X61636129Y-74001129D01*
X61479799Y-74191619D01*
X61363634Y-74408947D01*
X61292101Y-74644761D01*
X61267947Y-74890000D01*
X58955921Y-74890000D01*
X60537361Y-73308561D01*
X60570975Y-73280975D01*
X60627434Y-73212179D01*
X60681068Y-73146826D01*
X60762874Y-72993776D01*
X60762875Y-72993775D01*
X60813252Y-72827706D01*
X60826000Y-72698273D01*
X60826000Y-72698271D01*
X60830262Y-72655001D01*
X60826000Y-72611731D01*
X60826000Y-71729999D01*
X61272157Y-71729999D01*
X61272157Y-72970001D01*
X61284317Y-73093462D01*
X61320329Y-73212179D01*
X61378810Y-73321589D01*
X61457512Y-73417488D01*
X61553411Y-73496190D01*
X61662821Y-73554671D01*
X61781538Y-73590683D01*
X61904999Y-73602843D01*
X63595001Y-73602843D01*
X63718462Y-73590683D01*
X63837179Y-73554671D01*
X63946589Y-73496190D01*
X64042488Y-73417488D01*
X64121190Y-73321589D01*
X64179671Y-73212179D01*
X64215683Y-73093462D01*
X64227843Y-72970001D01*
X64227843Y-71729999D01*
X64215683Y-71606538D01*
X64179671Y-71487821D01*
X64121190Y-71378411D01*
X64042488Y-71282512D01*
X63946589Y-71203810D01*
X63837179Y-71145329D01*
X63718462Y-71109317D01*
X63595001Y-71097157D01*
X61904999Y-71097157D01*
X61781538Y-71109317D01*
X61662821Y-71145329D01*
X61553411Y-71203810D01*
X61457512Y-71282512D01*
X61378810Y-71378411D01*
X61320329Y-71487821D01*
X61284317Y-71606538D01*
X61272157Y-71729999D01*
X60826000Y-71729999D01*
X60826000Y-69994897D01*
X60846180Y-69974717D01*
X60980898Y-69773097D01*
X61073693Y-69549069D01*
X61121000Y-69311243D01*
X61121000Y-69068757D01*
X61073693Y-68830931D01*
X60980898Y-68606903D01*
X60846180Y-68405283D01*
X60826000Y-68385103D01*
X60826000Y-67454897D01*
X60846180Y-67434717D01*
X60980898Y-67233097D01*
X61073693Y-67009069D01*
X61121000Y-66771243D01*
X61121000Y-66528757D01*
X61073693Y-66290931D01*
X60980898Y-66066903D01*
X60846180Y-65865283D01*
X60826000Y-65845103D01*
X60826000Y-63991272D01*
X60830262Y-63948002D01*
X60826000Y-63904729D01*
X60813252Y-63775296D01*
X60762875Y-63609227D01*
X60756497Y-63597295D01*
X60681068Y-63456176D01*
X60598559Y-63355639D01*
X60570975Y-63322027D01*
X60537361Y-63294441D01*
X58331000Y-61088081D01*
X58331000Y-58283078D01*
X70419000Y-58283078D01*
X70419000Y-58436922D01*
X70449013Y-58587809D01*
X70507887Y-58729942D01*
X70593358Y-58857859D01*
X70702141Y-58966642D01*
X70830058Y-59052113D01*
X70972191Y-59110987D01*
X71123078Y-59141000D01*
X71276922Y-59141000D01*
X71427809Y-59110987D01*
X71569942Y-59052113D01*
X71697859Y-58966642D01*
X71806642Y-58857859D01*
X71892113Y-58729942D01*
X71950987Y-58587809D01*
X71981000Y-58436922D01*
X71981000Y-58283078D01*
X71950987Y-58132191D01*
X71892113Y-57990058D01*
X71806642Y-57862141D01*
X71697859Y-57753358D01*
X71569942Y-57667887D01*
X71427809Y-57609013D01*
X71276922Y-57579000D01*
X71123078Y-57579000D01*
X70972191Y-57609013D01*
X70830058Y-57667887D01*
X70702141Y-57753358D01*
X70593358Y-57862141D01*
X70507887Y-57990058D01*
X70449013Y-58132191D01*
X70419000Y-58283078D01*
X58331000Y-58283078D01*
X58331000Y-53081000D01*
X64693272Y-53081000D01*
X64614800Y-53176619D01*
X64498634Y-53393947D01*
X64427101Y-53629761D01*
X64409000Y-53813543D01*
X64409000Y-54386456D01*
X64427101Y-54570238D01*
X64498634Y-54806052D01*
X64614799Y-55023380D01*
X64771129Y-55213871D01*
X64961619Y-55370201D01*
X65178947Y-55486366D01*
X65414761Y-55557899D01*
X65660000Y-55582053D01*
X65905238Y-55557899D01*
X66141052Y-55486366D01*
X66358380Y-55370201D01*
X66548871Y-55213871D01*
X66705201Y-55023381D01*
X66821366Y-54806053D01*
X66892899Y-54570239D01*
X66911000Y-54386457D01*
X66911000Y-53813544D01*
X66892899Y-53629762D01*
X66821366Y-53393948D01*
X66705201Y-53176619D01*
X66626729Y-53081000D01*
X66974647Y-53081000D01*
X66959317Y-53131538D01*
X66947157Y-53254999D01*
X66947157Y-54945001D01*
X66959317Y-55068462D01*
X66995329Y-55187179D01*
X67053810Y-55296589D01*
X67132512Y-55392488D01*
X67228411Y-55471190D01*
X67337821Y-55529671D01*
X67456538Y-55565683D01*
X67579999Y-55577843D01*
X68820001Y-55577843D01*
X68943462Y-55565683D01*
X69062179Y-55529671D01*
X69171589Y-55471190D01*
X69267488Y-55392488D01*
X69346190Y-55296589D01*
X69404671Y-55187179D01*
X69440683Y-55068462D01*
X69452843Y-54945001D01*
X69452843Y-53254999D01*
X69440683Y-53131538D01*
X69425353Y-53081000D01*
X70635079Y-53081000D01*
X71182637Y-53628559D01*
X71182642Y-53628563D01*
X71796438Y-54242360D01*
X71824025Y-54275975D01*
X71857637Y-54303559D01*
X71958174Y-54386068D01*
X71986086Y-54400987D01*
X72111225Y-54467875D01*
X72277294Y-54518252D01*
X72406727Y-54531000D01*
X72406729Y-54531000D01*
X72449999Y-54535262D01*
X72493269Y-54531000D01*
X72493273Y-54531000D01*
X72622706Y-54518252D01*
X72788775Y-54467875D01*
X72941825Y-54386068D01*
X73075975Y-54275975D01*
X73186068Y-54141825D01*
X73267875Y-53988775D01*
X73318252Y-53822706D01*
X73335262Y-53650000D01*
X73318252Y-53477294D01*
X73267875Y-53311225D01*
X73190692Y-53166825D01*
X73186068Y-53158174D01*
X73103559Y-53057637D01*
X73075975Y-53024025D01*
X73042360Y-52996438D01*
X72920922Y-52875000D01*
X80492157Y-52875000D01*
X80492157Y-54725000D01*
X80499513Y-54799689D01*
X80521299Y-54871508D01*
X80556678Y-54937696D01*
X80604289Y-54995711D01*
X80662304Y-55043322D01*
X80728492Y-55078701D01*
X80800311Y-55100487D01*
X80875000Y-55107843D01*
X82725000Y-55107843D01*
X82799689Y-55100487D01*
X82871508Y-55078701D01*
X82937696Y-55043322D01*
X82995711Y-54995711D01*
X83043322Y-54937696D01*
X83078701Y-54871508D01*
X83100487Y-54799689D01*
X83107843Y-54725000D01*
X83107843Y-54238052D01*
X83182638Y-54418623D01*
X83325564Y-54632526D01*
X83507474Y-54814436D01*
X83721377Y-54957362D01*
X83959054Y-55055811D01*
X84211370Y-55106000D01*
X84468630Y-55106000D01*
X84720946Y-55055811D01*
X84958623Y-54957362D01*
X85172526Y-54814436D01*
X85354436Y-54632526D01*
X85497362Y-54418623D01*
X85595811Y-54180946D01*
X85646000Y-53928630D01*
X85646000Y-53671370D01*
X85595811Y-53419054D01*
X85497362Y-53181377D01*
X85354436Y-52967474D01*
X85172526Y-52785564D01*
X84958623Y-52642638D01*
X84720946Y-52544189D01*
X84468630Y-52494000D01*
X84211370Y-52494000D01*
X83959054Y-52544189D01*
X83721377Y-52642638D01*
X83507474Y-52785564D01*
X83325564Y-52967474D01*
X83182638Y-53181377D01*
X83107843Y-53361948D01*
X83107843Y-52875000D01*
X83100487Y-52800311D01*
X83078701Y-52728492D01*
X83043322Y-52662304D01*
X82995711Y-52604289D01*
X82937696Y-52556678D01*
X82871508Y-52521299D01*
X82799689Y-52499513D01*
X82725000Y-52492157D01*
X80875000Y-52492157D01*
X80800311Y-52499513D01*
X80728492Y-52521299D01*
X80662304Y-52556678D01*
X80604289Y-52604289D01*
X80556678Y-52662304D01*
X80521299Y-52728492D01*
X80499513Y-52800311D01*
X80492157Y-52875000D01*
X72920922Y-52875000D01*
X72428563Y-52382642D01*
X72428559Y-52382637D01*
X71801921Y-51756000D01*
X72668273Y-51756000D01*
X72797706Y-51743252D01*
X72963775Y-51692875D01*
X73116825Y-51611068D01*
X73250975Y-51500975D01*
X73361068Y-51366825D01*
X73442875Y-51213775D01*
X73493252Y-51047706D01*
X73510262Y-50875000D01*
X73493252Y-50702294D01*
X73442875Y-50536225D01*
X73373268Y-50406000D01*
X85673000Y-50406000D01*
X85673000Y-59319000D01*
G37*
X85673000Y-59319000D02*
X70550000Y-59319000D01*
X70475671Y-59326321D01*
X70404198Y-59348002D01*
X70338328Y-59383210D01*
X70280592Y-59430592D01*
X70233210Y-59488328D01*
X70198002Y-59554198D01*
X70176321Y-59625671D01*
X70169000Y-59700000D01*
X70169000Y-62650000D01*
X70176321Y-62724329D01*
X70198002Y-62795802D01*
X70233210Y-62861672D01*
X70280592Y-62919408D01*
X70338328Y-62966790D01*
X70404198Y-63001998D01*
X70475671Y-63023679D01*
X70544000Y-63030409D01*
X70544001Y-63940388D01*
X70502141Y-63968358D01*
X70393358Y-64077141D01*
X70307887Y-64205058D01*
X70249013Y-64347191D01*
X70219000Y-64498078D01*
X70219000Y-64651922D01*
X70249013Y-64802809D01*
X70307887Y-64944942D01*
X70393358Y-65072859D01*
X70502141Y-65181642D01*
X70630058Y-65267113D01*
X70772191Y-65325987D01*
X70923078Y-65356000D01*
X71076922Y-65356000D01*
X71227809Y-65325987D01*
X71369942Y-65267113D01*
X71497859Y-65181642D01*
X71606642Y-65072859D01*
X71692113Y-64944942D01*
X71750987Y-64802809D01*
X71781000Y-64651922D01*
X71781000Y-64576015D01*
X71796870Y-64523698D01*
X71806000Y-64430998D01*
X71806000Y-64430989D01*
X71809052Y-64400001D01*
X71806000Y-64369013D01*
X71806000Y-63031000D01*
X80419000Y-63031000D01*
X80419000Y-65900000D01*
X80426321Y-65974329D01*
X80448002Y-66045802D01*
X80483210Y-66111672D01*
X80530592Y-66169408D01*
X80588328Y-66216790D01*
X80654198Y-66251998D01*
X80725671Y-66273679D01*
X80800000Y-66281000D01*
X81188584Y-66281000D01*
X81297191Y-66325987D01*
X81448078Y-66356000D01*
X81601922Y-66356000D01*
X81752809Y-66325987D01*
X81861416Y-66281000D01*
X82563584Y-66281000D01*
X82672191Y-66325987D01*
X82823078Y-66356000D01*
X82976922Y-66356000D01*
X83127809Y-66325987D01*
X83236416Y-66281000D01*
X85673000Y-66281000D01*
X85673000Y-84594000D01*
X70431921Y-84594000D01*
X70994922Y-84031000D01*
X72568273Y-84031000D01*
X72697706Y-84018252D01*
X72863775Y-83967875D01*
X73016825Y-83886068D01*
X73150975Y-83775975D01*
X73261068Y-83641825D01*
X73342875Y-83488775D01*
X73393252Y-83322706D01*
X73410262Y-83150000D01*
X73393252Y-82977294D01*
X73342875Y-82811225D01*
X73261068Y-82658175D01*
X73150975Y-82524025D01*
X73016825Y-82413932D01*
X72863775Y-82332125D01*
X72697706Y-82281748D01*
X72568273Y-82269000D01*
X71051922Y-82269000D01*
X71189922Y-82131000D01*
X72618273Y-82131000D01*
X72747706Y-82118252D01*
X72913775Y-82067875D01*
X73066825Y-81986068D01*
X73200975Y-81875975D01*
X73311068Y-81741825D01*
X73392875Y-81588775D01*
X73443252Y-81422706D01*
X73460262Y-81250000D01*
X73443252Y-81077294D01*
X73392875Y-80911225D01*
X73311068Y-80758175D01*
X73200975Y-80624025D01*
X73066825Y-80513932D01*
X72913775Y-80432125D01*
X72747706Y-80381748D01*
X72618273Y-80369000D01*
X70868270Y-80369000D01*
X70825000Y-80364738D01*
X70781730Y-80369000D01*
X70781727Y-80369000D01*
X70652294Y-80381748D01*
X70486225Y-80432125D01*
X70333174Y-80513932D01*
X70279615Y-80557887D01*
X70199025Y-80624025D01*
X70171439Y-80657639D01*
X68900090Y-81928989D01*
X58199911Y-81928989D01*
X58111011Y-81840090D01*
X58111011Y-76513543D01*
X69819000Y-76513543D01*
X69819000Y-77086456D01*
X69837101Y-77270238D01*
X69908634Y-77506052D01*
X70024799Y-77723380D01*
X70181129Y-77913871D01*
X70371619Y-78070201D01*
X70588947Y-78186366D01*
X70824761Y-78257899D01*
X71070000Y-78282053D01*
X71315238Y-78257899D01*
X71551052Y-78186366D01*
X71768380Y-78070201D01*
X71958871Y-77913871D01*
X72115201Y-77723381D01*
X72231366Y-77506053D01*
X72302899Y-77270239D01*
X72321000Y-77086457D01*
X72321000Y-76513544D01*
X72302899Y-76329762D01*
X72231366Y-76093948D01*
X72157097Y-75954999D01*
X74897157Y-75954999D01*
X74897157Y-77645001D01*
X74909317Y-77768462D01*
X74945329Y-77887179D01*
X75003810Y-77996589D01*
X75082512Y-78092488D01*
X75178411Y-78171190D01*
X75287821Y-78229671D01*
X75406538Y-78265683D01*
X75529999Y-78277843D01*
X76770001Y-78277843D01*
X76893462Y-78265683D01*
X77012179Y-78229671D01*
X77121589Y-78171190D01*
X77217488Y-78092488D01*
X77296190Y-77996589D01*
X77354671Y-77887179D01*
X77390683Y-77768462D01*
X77402843Y-77645001D01*
X77402843Y-77475000D01*
X80492157Y-77475000D01*
X80492157Y-79325000D01*
X80499513Y-79399689D01*
X80521299Y-79471508D01*
X80556678Y-79537696D01*
X80604289Y-79595711D01*
X80662304Y-79643322D01*
X80728492Y-79678701D01*
X80800311Y-79700487D01*
X80875000Y-79707843D01*
X82725000Y-79707843D01*
X82799689Y-79700487D01*
X82871508Y-79678701D01*
X82937696Y-79643322D01*
X82995711Y-79595711D01*
X83043322Y-79537696D01*
X83078701Y-79471508D01*
X83100487Y-79399689D01*
X83107843Y-79325000D01*
X83107843Y-78838052D01*
X83182638Y-79018623D01*
X83325564Y-79232526D01*
X83507474Y-79414436D01*
X83721377Y-79557362D01*
X83959054Y-79655811D01*
X84211370Y-79706000D01*
X84468630Y-79706000D01*
X84720946Y-79655811D01*
X84958623Y-79557362D01*
X85172526Y-79414436D01*
X85354436Y-79232526D01*
X85497362Y-79018623D01*
X85595811Y-78780946D01*
X85646000Y-78528630D01*
X85646000Y-78271370D01*
X85595811Y-78019054D01*
X85497362Y-77781377D01*
X85354436Y-77567474D01*
X85172526Y-77385564D01*
X84958623Y-77242638D01*
X84720946Y-77144189D01*
X84468630Y-77094000D01*
X84211370Y-77094000D01*
X83959054Y-77144189D01*
X83721377Y-77242638D01*
X83507474Y-77385564D01*
X83325564Y-77567474D01*
X83182638Y-77781377D01*
X83107843Y-77961948D01*
X83107843Y-77475000D01*
X83100487Y-77400311D01*
X83078701Y-77328492D01*
X83043322Y-77262304D01*
X82995711Y-77204289D01*
X82937696Y-77156678D01*
X82871508Y-77121299D01*
X82799689Y-77099513D01*
X82725000Y-77092157D01*
X80875000Y-77092157D01*
X80800311Y-77099513D01*
X80728492Y-77121299D01*
X80662304Y-77156678D01*
X80604289Y-77204289D01*
X80556678Y-77262304D01*
X80521299Y-77328492D01*
X80499513Y-77400311D01*
X80492157Y-77475000D01*
X77402843Y-77475000D01*
X77402843Y-75954999D01*
X77390683Y-75831538D01*
X77354671Y-75712821D01*
X77296190Y-75603411D01*
X77217488Y-75507512D01*
X77121589Y-75428810D01*
X77012179Y-75370329D01*
X76893462Y-75334317D01*
X76770001Y-75322157D01*
X75529999Y-75322157D01*
X75406538Y-75334317D01*
X75287821Y-75370329D01*
X75178411Y-75428810D01*
X75082512Y-75507512D01*
X75003810Y-75603411D01*
X74945329Y-75712821D01*
X74909317Y-75831538D01*
X74897157Y-75954999D01*
X72157097Y-75954999D01*
X72115201Y-75876619D01*
X71958871Y-75686129D01*
X71768381Y-75529799D01*
X71551053Y-75413634D01*
X71315239Y-75342101D01*
X71070000Y-75317947D01*
X70824762Y-75342101D01*
X70588948Y-75413634D01*
X70371620Y-75529799D01*
X70181130Y-75686129D01*
X70024800Y-75876619D01*
X69908634Y-76093947D01*
X69837101Y-76329761D01*
X69819000Y-76513543D01*
X58111011Y-76513543D01*
X58111011Y-75734910D01*
X58955921Y-74890000D01*
X61267947Y-74890000D01*
X61292101Y-75135239D01*
X61363634Y-75371053D01*
X61479799Y-75588381D01*
X61636129Y-75778871D01*
X61826619Y-75935201D01*
X62043947Y-76051366D01*
X62279761Y-76122899D01*
X62463543Y-76141000D01*
X63036457Y-76141000D01*
X63220239Y-76122899D01*
X63456053Y-76051366D01*
X63673381Y-75935201D01*
X63863871Y-75778871D01*
X64020201Y-75588381D01*
X64136366Y-75371053D01*
X64207899Y-75135239D01*
X64232053Y-74890000D01*
X64207899Y-74644761D01*
X64136366Y-74408947D01*
X64020201Y-74191619D01*
X63863871Y-74001129D01*
X63673381Y-73844799D01*
X63456053Y-73728634D01*
X63220239Y-73657101D01*
X63036457Y-73639000D01*
X62463543Y-73639000D01*
X62279761Y-73657101D01*
X62043947Y-73728634D01*
X61826619Y-73844799D01*
X61636129Y-74001129D01*
X61479799Y-74191619D01*
X61363634Y-74408947D01*
X61292101Y-74644761D01*
X61267947Y-74890000D01*
X58955921Y-74890000D01*
X60537361Y-73308561D01*
X60570975Y-73280975D01*
X60627434Y-73212179D01*
X60681068Y-73146826D01*
X60762874Y-72993776D01*
X60762875Y-72993775D01*
X60813252Y-72827706D01*
X60826000Y-72698273D01*
X60826000Y-72698271D01*
X60830262Y-72655001D01*
X60826000Y-72611731D01*
X60826000Y-71729999D01*
X61272157Y-71729999D01*
X61272157Y-72970001D01*
X61284317Y-73093462D01*
X61320329Y-73212179D01*
X61378810Y-73321589D01*
X61457512Y-73417488D01*
X61553411Y-73496190D01*
X61662821Y-73554671D01*
X61781538Y-73590683D01*
X61904999Y-73602843D01*
X63595001Y-73602843D01*
X63718462Y-73590683D01*
X63837179Y-73554671D01*
X63946589Y-73496190D01*
X64042488Y-73417488D01*
X64121190Y-73321589D01*
X64179671Y-73212179D01*
X64215683Y-73093462D01*
X64227843Y-72970001D01*
X64227843Y-71729999D01*
X64215683Y-71606538D01*
X64179671Y-71487821D01*
X64121190Y-71378411D01*
X64042488Y-71282512D01*
X63946589Y-71203810D01*
X63837179Y-71145329D01*
X63718462Y-71109317D01*
X63595001Y-71097157D01*
X61904999Y-71097157D01*
X61781538Y-71109317D01*
X61662821Y-71145329D01*
X61553411Y-71203810D01*
X61457512Y-71282512D01*
X61378810Y-71378411D01*
X61320329Y-71487821D01*
X61284317Y-71606538D01*
X61272157Y-71729999D01*
X60826000Y-71729999D01*
X60826000Y-69994897D01*
X60846180Y-69974717D01*
X60980898Y-69773097D01*
X61073693Y-69549069D01*
X61121000Y-69311243D01*
X61121000Y-69068757D01*
X61073693Y-68830931D01*
X60980898Y-68606903D01*
X60846180Y-68405283D01*
X60826000Y-68385103D01*
X60826000Y-67454897D01*
X60846180Y-67434717D01*
X60980898Y-67233097D01*
X61073693Y-67009069D01*
X61121000Y-66771243D01*
X61121000Y-66528757D01*
X61073693Y-66290931D01*
X60980898Y-66066903D01*
X60846180Y-65865283D01*
X60826000Y-65845103D01*
X60826000Y-63991272D01*
X60830262Y-63948002D01*
X60826000Y-63904729D01*
X60813252Y-63775296D01*
X60762875Y-63609227D01*
X60756497Y-63597295D01*
X60681068Y-63456176D01*
X60598559Y-63355639D01*
X60570975Y-63322027D01*
X60537361Y-63294441D01*
X58331000Y-61088081D01*
X58331000Y-58283078D01*
X70419000Y-58283078D01*
X70419000Y-58436922D01*
X70449013Y-58587809D01*
X70507887Y-58729942D01*
X70593358Y-58857859D01*
X70702141Y-58966642D01*
X70830058Y-59052113D01*
X70972191Y-59110987D01*
X71123078Y-59141000D01*
X71276922Y-59141000D01*
X71427809Y-59110987D01*
X71569942Y-59052113D01*
X71697859Y-58966642D01*
X71806642Y-58857859D01*
X71892113Y-58729942D01*
X71950987Y-58587809D01*
X71981000Y-58436922D01*
X71981000Y-58283078D01*
X71950987Y-58132191D01*
X71892113Y-57990058D01*
X71806642Y-57862141D01*
X71697859Y-57753358D01*
X71569942Y-57667887D01*
X71427809Y-57609013D01*
X71276922Y-57579000D01*
X71123078Y-57579000D01*
X70972191Y-57609013D01*
X70830058Y-57667887D01*
X70702141Y-57753358D01*
X70593358Y-57862141D01*
X70507887Y-57990058D01*
X70449013Y-58132191D01*
X70419000Y-58283078D01*
X58331000Y-58283078D01*
X58331000Y-53081000D01*
X64693272Y-53081000D01*
X64614800Y-53176619D01*
X64498634Y-53393947D01*
X64427101Y-53629761D01*
X64409000Y-53813543D01*
X64409000Y-54386456D01*
X64427101Y-54570238D01*
X64498634Y-54806052D01*
X64614799Y-55023380D01*
X64771129Y-55213871D01*
X64961619Y-55370201D01*
X65178947Y-55486366D01*
X65414761Y-55557899D01*
X65660000Y-55582053D01*
X65905238Y-55557899D01*
X66141052Y-55486366D01*
X66358380Y-55370201D01*
X66548871Y-55213871D01*
X66705201Y-55023381D01*
X66821366Y-54806053D01*
X66892899Y-54570239D01*
X66911000Y-54386457D01*
X66911000Y-53813544D01*
X66892899Y-53629762D01*
X66821366Y-53393948D01*
X66705201Y-53176619D01*
X66626729Y-53081000D01*
X66974647Y-53081000D01*
X66959317Y-53131538D01*
X66947157Y-53254999D01*
X66947157Y-54945001D01*
X66959317Y-55068462D01*
X66995329Y-55187179D01*
X67053810Y-55296589D01*
X67132512Y-55392488D01*
X67228411Y-55471190D01*
X67337821Y-55529671D01*
X67456538Y-55565683D01*
X67579999Y-55577843D01*
X68820001Y-55577843D01*
X68943462Y-55565683D01*
X69062179Y-55529671D01*
X69171589Y-55471190D01*
X69267488Y-55392488D01*
X69346190Y-55296589D01*
X69404671Y-55187179D01*
X69440683Y-55068462D01*
X69452843Y-54945001D01*
X69452843Y-53254999D01*
X69440683Y-53131538D01*
X69425353Y-53081000D01*
X70635079Y-53081000D01*
X71182637Y-53628559D01*
X71182642Y-53628563D01*
X71796438Y-54242360D01*
X71824025Y-54275975D01*
X71857637Y-54303559D01*
X71958174Y-54386068D01*
X71986086Y-54400987D01*
X72111225Y-54467875D01*
X72277294Y-54518252D01*
X72406727Y-54531000D01*
X72406729Y-54531000D01*
X72449999Y-54535262D01*
X72493269Y-54531000D01*
X72493273Y-54531000D01*
X72622706Y-54518252D01*
X72788775Y-54467875D01*
X72941825Y-54386068D01*
X73075975Y-54275975D01*
X73186068Y-54141825D01*
X73267875Y-53988775D01*
X73318252Y-53822706D01*
X73335262Y-53650000D01*
X73318252Y-53477294D01*
X73267875Y-53311225D01*
X73190692Y-53166825D01*
X73186068Y-53158174D01*
X73103559Y-53057637D01*
X73075975Y-53024025D01*
X73042360Y-52996438D01*
X72920922Y-52875000D01*
X80492157Y-52875000D01*
X80492157Y-54725000D01*
X80499513Y-54799689D01*
X80521299Y-54871508D01*
X80556678Y-54937696D01*
X80604289Y-54995711D01*
X80662304Y-55043322D01*
X80728492Y-55078701D01*
X80800311Y-55100487D01*
X80875000Y-55107843D01*
X82725000Y-55107843D01*
X82799689Y-55100487D01*
X82871508Y-55078701D01*
X82937696Y-55043322D01*
X82995711Y-54995711D01*
X83043322Y-54937696D01*
X83078701Y-54871508D01*
X83100487Y-54799689D01*
X83107843Y-54725000D01*
X83107843Y-54238052D01*
X83182638Y-54418623D01*
X83325564Y-54632526D01*
X83507474Y-54814436D01*
X83721377Y-54957362D01*
X83959054Y-55055811D01*
X84211370Y-55106000D01*
X84468630Y-55106000D01*
X84720946Y-55055811D01*
X84958623Y-54957362D01*
X85172526Y-54814436D01*
X85354436Y-54632526D01*
X85497362Y-54418623D01*
X85595811Y-54180946D01*
X85646000Y-53928630D01*
X85646000Y-53671370D01*
X85595811Y-53419054D01*
X85497362Y-53181377D01*
X85354436Y-52967474D01*
X85172526Y-52785564D01*
X84958623Y-52642638D01*
X84720946Y-52544189D01*
X84468630Y-52494000D01*
X84211370Y-52494000D01*
X83959054Y-52544189D01*
X83721377Y-52642638D01*
X83507474Y-52785564D01*
X83325564Y-52967474D01*
X83182638Y-53181377D01*
X83107843Y-53361948D01*
X83107843Y-52875000D01*
X83100487Y-52800311D01*
X83078701Y-52728492D01*
X83043322Y-52662304D01*
X82995711Y-52604289D01*
X82937696Y-52556678D01*
X82871508Y-52521299D01*
X82799689Y-52499513D01*
X82725000Y-52492157D01*
X80875000Y-52492157D01*
X80800311Y-52499513D01*
X80728492Y-52521299D01*
X80662304Y-52556678D01*
X80604289Y-52604289D01*
X80556678Y-52662304D01*
X80521299Y-52728492D01*
X80499513Y-52800311D01*
X80492157Y-52875000D01*
X72920922Y-52875000D01*
X72428563Y-52382642D01*
X72428559Y-52382637D01*
X71801921Y-51756000D01*
X72668273Y-51756000D01*
X72797706Y-51743252D01*
X72963775Y-51692875D01*
X73116825Y-51611068D01*
X73250975Y-51500975D01*
X73361068Y-51366825D01*
X73442875Y-51213775D01*
X73493252Y-51047706D01*
X73510262Y-50875000D01*
X73493252Y-50702294D01*
X73442875Y-50536225D01*
X73373268Y-50406000D01*
X85673000Y-50406000D01*
X85673000Y-59319000D01*
G36*
X112998000Y-56723000D02*
G01*
X108927000Y-56723000D01*
X108927000Y-54827000D01*
X112998000Y-54827000D01*
X112998000Y-56723000D01*
G37*
X112998000Y-56723000D02*
X108927000Y-56723000D01*
X108927000Y-54827000D01*
X112998000Y-54827000D01*
X112998000Y-56723000D01*
G36*
X113523000Y-77648000D02*
G01*
X109127000Y-77648000D01*
X109127000Y-75777000D01*
X113523000Y-75777000D01*
X113523000Y-77648000D01*
G37*
X113523000Y-77648000D02*
X109127000Y-77648000D01*
X109127000Y-75777000D01*
X113523000Y-75777000D01*
X113523000Y-77648000D01*
M02*
