G04 #@! TF.GenerationSoftware,KiCad,Pcbnew,(5.1.6)-1*
G04 #@! TF.CreationDate,2021-04-15T23:13:23+02:00*
G04 #@! TF.ProjectId,GateDriver,47617465-4472-4697-9665-722e6b696361,rev?*
G04 #@! TF.SameCoordinates,Original*
G04 #@! TF.FileFunction,Legend,Top*
G04 #@! TF.FilePolarity,Positive*
%FSLAX46Y46*%
G04 Gerber Fmt 4.6, Leading zero omitted, Abs format (unit mm)*
G04 Created by KiCad (PCBNEW (5.1.6)-1) date 2021-04-15 23:13:23*
%MOMM*%
%LPD*%
G01*
G04 APERTURE LIST*
%ADD10C,0.120000*%
%ADD11C,0.125000*%
%ADD12C,0.150000*%
%ADD13C,0.254000*%
%ADD14C,0.050000*%
G04 APERTURE END LIST*
D10*
X55750000Y-54750000D02*
X58850000Y-54750000D01*
X55750000Y-53100000D02*
X55750000Y-54750000D01*
X58850000Y-53100000D02*
X55750000Y-53100000D01*
X58850000Y-54750000D02*
X58850000Y-53100000D01*
X58700000Y-72300000D02*
X58700000Y-77900000D01*
X55600000Y-72300000D02*
X58700000Y-72300000D01*
X55600000Y-77900000D02*
X55600000Y-72300000D01*
X58700000Y-77900000D02*
X55600000Y-77900000D01*
X76050000Y-70950000D02*
X76050000Y-73500000D01*
X79150000Y-70950000D02*
X76050000Y-70950000D01*
X79150000Y-73500000D02*
X79150000Y-70950000D01*
X76050000Y-73500000D02*
X79150000Y-73500000D01*
D11*
X112111904Y-81900000D02*
X112064285Y-81876190D01*
X111992857Y-81876190D01*
X111921428Y-81900000D01*
X111873809Y-81947619D01*
X111850000Y-81995238D01*
X111826190Y-82090476D01*
X111826190Y-82161904D01*
X111850000Y-82257142D01*
X111873809Y-82304761D01*
X111921428Y-82352380D01*
X111992857Y-82376190D01*
X112040476Y-82376190D01*
X112111904Y-82352380D01*
X112135714Y-82328571D01*
X112135714Y-82161904D01*
X112040476Y-82161904D01*
X112969047Y-82376190D02*
X112730952Y-82376190D01*
X112730952Y-81876190D01*
X113207142Y-82376190D02*
X113159523Y-82352380D01*
X113135714Y-82328571D01*
X113111904Y-82280952D01*
X113111904Y-82138095D01*
X113135714Y-82090476D01*
X113159523Y-82066666D01*
X113207142Y-82042857D01*
X113278571Y-82042857D01*
X113326190Y-82066666D01*
X113350000Y-82090476D01*
X113373809Y-82138095D01*
X113373809Y-82280952D01*
X113350000Y-82328571D01*
X113326190Y-82352380D01*
X113278571Y-82376190D01*
X113207142Y-82376190D01*
X110452380Y-83326190D02*
X110285714Y-83088095D01*
X110166666Y-83326190D02*
X110166666Y-82826190D01*
X110357142Y-82826190D01*
X110404761Y-82850000D01*
X110428571Y-82873809D01*
X110452380Y-82921428D01*
X110452380Y-82992857D01*
X110428571Y-83040476D01*
X110404761Y-83064285D01*
X110357142Y-83088095D01*
X110166666Y-83088095D01*
X110595238Y-82826190D02*
X110880952Y-82826190D01*
X110738095Y-83326190D02*
X110738095Y-82826190D01*
X111047619Y-83326190D02*
X111047619Y-82826190D01*
X111333333Y-83326190D01*
X111333333Y-82826190D01*
X110261904Y-81900000D02*
X110214285Y-81876190D01*
X110142857Y-81876190D01*
X110071428Y-81900000D01*
X110023809Y-81947619D01*
X110000000Y-81995238D01*
X109976190Y-82090476D01*
X109976190Y-82161904D01*
X110000000Y-82257142D01*
X110023809Y-82304761D01*
X110071428Y-82352380D01*
X110142857Y-82376190D01*
X110190476Y-82376190D01*
X110261904Y-82352380D01*
X110285714Y-82328571D01*
X110285714Y-82161904D01*
X110190476Y-82161904D01*
X111119047Y-82376190D02*
X110880952Y-82376190D01*
X110880952Y-81876190D01*
X111357142Y-82376190D02*
X111309523Y-82352380D01*
X111285714Y-82328571D01*
X111261904Y-82280952D01*
X111261904Y-82138095D01*
X111285714Y-82090476D01*
X111309523Y-82066666D01*
X111357142Y-82042857D01*
X111428571Y-82042857D01*
X111476190Y-82066666D01*
X111500000Y-82090476D01*
X111523809Y-82138095D01*
X111523809Y-82280952D01*
X111500000Y-82328571D01*
X111476190Y-82352380D01*
X111428571Y-82376190D01*
X111357142Y-82376190D01*
X112302380Y-83326190D02*
X112135714Y-83088095D01*
X112016666Y-83326190D02*
X112016666Y-82826190D01*
X112207142Y-82826190D01*
X112254761Y-82850000D01*
X112278571Y-82873809D01*
X112302380Y-82921428D01*
X112302380Y-82992857D01*
X112278571Y-83040476D01*
X112254761Y-83064285D01*
X112207142Y-83088095D01*
X112016666Y-83088095D01*
X112445238Y-82826190D02*
X112730952Y-82826190D01*
X112588095Y-83326190D02*
X112588095Y-82826190D01*
X112897619Y-83326190D02*
X112897619Y-82826190D01*
X113183333Y-83326190D01*
X113183333Y-82826190D01*
D10*
X109850000Y-82600000D02*
X113450000Y-82600000D01*
X113500000Y-81650000D02*
X113500000Y-83500000D01*
X109850000Y-83500000D02*
X109850000Y-81650000D01*
X111700000Y-81650000D02*
X111700000Y-83500000D01*
X109850000Y-81650000D02*
X113450000Y-81650000D01*
X113500000Y-83500000D02*
X109850000Y-83500000D01*
X108700000Y-60650000D02*
X108700000Y-57050000D01*
X107750000Y-58800000D02*
X109600000Y-58800000D01*
X107750000Y-60650000D02*
X107750000Y-57050000D01*
X109600000Y-60650000D02*
X107750000Y-60650000D01*
X109600000Y-57050000D02*
X109600000Y-60650000D01*
X107750000Y-57050000D02*
X109600000Y-57050000D01*
D11*
X109426190Y-58197619D02*
X109188095Y-58364285D01*
X109426190Y-58483333D02*
X108926190Y-58483333D01*
X108926190Y-58292857D01*
X108950000Y-58245238D01*
X108973809Y-58221428D01*
X109021428Y-58197619D01*
X109092857Y-58197619D01*
X109140476Y-58221428D01*
X109164285Y-58245238D01*
X109188095Y-58292857D01*
X109188095Y-58483333D01*
X108926190Y-58054761D02*
X108926190Y-57769047D01*
X109426190Y-57911904D02*
X108926190Y-57911904D01*
X109426190Y-57602380D02*
X108926190Y-57602380D01*
X109426190Y-57316666D01*
X108926190Y-57316666D01*
X108476190Y-58197619D02*
X108238095Y-58364285D01*
X108476190Y-58483333D02*
X107976190Y-58483333D01*
X107976190Y-58292857D01*
X108000000Y-58245238D01*
X108023809Y-58221428D01*
X108071428Y-58197619D01*
X108142857Y-58197619D01*
X108190476Y-58221428D01*
X108214285Y-58245238D01*
X108238095Y-58292857D01*
X108238095Y-58483333D01*
X107976190Y-58054761D02*
X107976190Y-57769047D01*
X108476190Y-57911904D02*
X107976190Y-57911904D01*
X108476190Y-57602380D02*
X107976190Y-57602380D01*
X108476190Y-57316666D01*
X107976190Y-57316666D01*
X108950000Y-60190476D02*
X108926190Y-60238095D01*
X108926190Y-60309523D01*
X108950000Y-60380952D01*
X108997619Y-60428571D01*
X109045238Y-60452380D01*
X109140476Y-60476190D01*
X109211904Y-60476190D01*
X109307142Y-60452380D01*
X109354761Y-60428571D01*
X109402380Y-60380952D01*
X109426190Y-60309523D01*
X109426190Y-60261904D01*
X109402380Y-60190476D01*
X109378571Y-60166666D01*
X109211904Y-60166666D01*
X109211904Y-60261904D01*
X109426190Y-59571428D02*
X108926190Y-59571428D01*
X109164285Y-59571428D02*
X109164285Y-59285714D01*
X109426190Y-59285714D02*
X108926190Y-59285714D01*
X109426190Y-59047619D02*
X109092857Y-59047619D01*
X108926190Y-59047619D02*
X108950000Y-59071428D01*
X108973809Y-59047619D01*
X108950000Y-59023809D01*
X108926190Y-59047619D01*
X108973809Y-59047619D01*
X108000000Y-60190476D02*
X107976190Y-60238095D01*
X107976190Y-60309523D01*
X108000000Y-60380952D01*
X108047619Y-60428571D01*
X108095238Y-60452380D01*
X108190476Y-60476190D01*
X108261904Y-60476190D01*
X108357142Y-60452380D01*
X108404761Y-60428571D01*
X108452380Y-60380952D01*
X108476190Y-60309523D01*
X108476190Y-60261904D01*
X108452380Y-60190476D01*
X108428571Y-60166666D01*
X108261904Y-60166666D01*
X108261904Y-60261904D01*
X108476190Y-59571428D02*
X107976190Y-59571428D01*
X108214285Y-59571428D02*
X108214285Y-59285714D01*
X108476190Y-59285714D02*
X107976190Y-59285714D01*
X108476190Y-59047619D02*
X108142857Y-59047619D01*
X107976190Y-59047619D02*
X108000000Y-59071428D01*
X108023809Y-59047619D01*
X108000000Y-59023809D01*
X107976190Y-59047619D01*
X108023809Y-59047619D01*
X58626190Y-54259523D02*
X58626190Y-54545238D01*
X58626190Y-54402380D02*
X58126190Y-54402380D01*
X58197619Y-54450000D01*
X58245238Y-54497619D01*
X58269047Y-54545238D01*
X58173809Y-54069047D02*
X58150000Y-54045238D01*
X58126190Y-53997619D01*
X58126190Y-53878571D01*
X58150000Y-53830952D01*
X58173809Y-53807142D01*
X58221428Y-53783333D01*
X58269047Y-53783333D01*
X58340476Y-53807142D01*
X58626190Y-54092857D01*
X58626190Y-53783333D01*
X58126190Y-53640476D02*
X58626190Y-53473809D01*
X58126190Y-53307142D01*
X57926190Y-54259523D02*
X57926190Y-54545238D01*
X57926190Y-54402380D02*
X57426190Y-54402380D01*
X57497619Y-54450000D01*
X57545238Y-54497619D01*
X57569047Y-54545238D01*
X57473809Y-54069047D02*
X57450000Y-54045238D01*
X57426190Y-53997619D01*
X57426190Y-53878571D01*
X57450000Y-53830952D01*
X57473809Y-53807142D01*
X57521428Y-53783333D01*
X57569047Y-53783333D01*
X57640476Y-53807142D01*
X57926190Y-54092857D01*
X57926190Y-53783333D01*
X57426190Y-53640476D02*
X57926190Y-53473809D01*
X57426190Y-53307142D01*
X56050000Y-54330952D02*
X56026190Y-54378571D01*
X56026190Y-54450000D01*
X56050000Y-54521428D01*
X56097619Y-54569047D01*
X56145238Y-54592857D01*
X56240476Y-54616666D01*
X56311904Y-54616666D01*
X56407142Y-54592857D01*
X56454761Y-54569047D01*
X56502380Y-54521428D01*
X56526190Y-54450000D01*
X56526190Y-54402380D01*
X56502380Y-54330952D01*
X56478571Y-54307142D01*
X56311904Y-54307142D01*
X56311904Y-54402380D01*
X56526190Y-54092857D02*
X56026190Y-54092857D01*
X56526190Y-53807142D01*
X56026190Y-53807142D01*
X56526190Y-53569047D02*
X56026190Y-53569047D01*
X56026190Y-53450000D01*
X56050000Y-53378571D01*
X56097619Y-53330952D01*
X56145238Y-53307142D01*
X56240476Y-53283333D01*
X56311904Y-53283333D01*
X56407142Y-53307142D01*
X56454761Y-53330952D01*
X56502380Y-53378571D01*
X56526190Y-53450000D01*
X56526190Y-53569047D01*
X76250000Y-72980952D02*
X76226190Y-73028571D01*
X76226190Y-73100000D01*
X76250000Y-73171428D01*
X76297619Y-73219047D01*
X76345238Y-73242857D01*
X76440476Y-73266666D01*
X76511904Y-73266666D01*
X76607142Y-73242857D01*
X76654761Y-73219047D01*
X76702380Y-73171428D01*
X76726190Y-73100000D01*
X76726190Y-73052380D01*
X76702380Y-72980952D01*
X76678571Y-72957142D01*
X76511904Y-72957142D01*
X76511904Y-73052380D01*
X76726190Y-72742857D02*
X76226190Y-72742857D01*
X76726190Y-72457142D01*
X76226190Y-72457142D01*
X76726190Y-72219047D02*
X76226190Y-72219047D01*
X76226190Y-72100000D01*
X76250000Y-72028571D01*
X76297619Y-71980952D01*
X76345238Y-71957142D01*
X76440476Y-71933333D01*
X76511904Y-71933333D01*
X76607142Y-71957142D01*
X76654761Y-71980952D01*
X76702380Y-72028571D01*
X76726190Y-72100000D01*
X76726190Y-72219047D01*
X77476190Y-73154761D02*
X76976190Y-73154761D01*
X76976190Y-72964285D01*
X77000000Y-72916666D01*
X77023809Y-72892857D01*
X77071428Y-72869047D01*
X77142857Y-72869047D01*
X77190476Y-72892857D01*
X77214285Y-72916666D01*
X77238095Y-72964285D01*
X77238095Y-73154761D01*
X76976190Y-72702380D02*
X77476190Y-72583333D01*
X77119047Y-72488095D01*
X77476190Y-72392857D01*
X76976190Y-72273809D01*
X77476190Y-72083333D02*
X76976190Y-72083333D01*
X77333333Y-71916666D01*
X76976190Y-71750000D01*
X77476190Y-71750000D01*
X77476190Y-71273809D02*
X77476190Y-71511904D01*
X76976190Y-71511904D01*
X78926190Y-73164285D02*
X78426190Y-73164285D01*
X78426190Y-72973809D01*
X78450000Y-72926190D01*
X78473809Y-72902380D01*
X78521428Y-72878571D01*
X78592857Y-72878571D01*
X78640476Y-72902380D01*
X78664285Y-72926190D01*
X78688095Y-72973809D01*
X78688095Y-73164285D01*
X78426190Y-72711904D02*
X78926190Y-72592857D01*
X78569047Y-72497619D01*
X78926190Y-72402380D01*
X78426190Y-72283333D01*
X78926190Y-72092857D02*
X78426190Y-72092857D01*
X78783333Y-71926190D01*
X78426190Y-71759523D01*
X78926190Y-71759523D01*
X78926190Y-71521428D02*
X78426190Y-71521428D01*
X78664285Y-71521428D02*
X78664285Y-71235714D01*
X78926190Y-71235714D02*
X78426190Y-71235714D01*
D12*
X72302380Y-54769047D02*
X72302380Y-55340476D01*
X72302380Y-55054761D02*
X71302380Y-55054761D01*
X71445238Y-55150000D01*
X71540476Y-55245238D01*
X71588095Y-55340476D01*
X71397619Y-54388095D02*
X71350000Y-54340476D01*
X71302380Y-54245238D01*
X71302380Y-54007142D01*
X71350000Y-53911904D01*
X71397619Y-53864285D01*
X71492857Y-53816666D01*
X71588095Y-53816666D01*
X71730952Y-53864285D01*
X72302380Y-54435714D01*
X72302380Y-53816666D01*
X71302380Y-53530952D02*
X72302380Y-53197619D01*
X71302380Y-52864285D01*
X71052380Y-54719047D02*
X71052380Y-55290476D01*
X71052380Y-55004761D02*
X70052380Y-55004761D01*
X70195238Y-55100000D01*
X70290476Y-55195238D01*
X70338095Y-55290476D01*
X70147619Y-54338095D02*
X70100000Y-54290476D01*
X70052380Y-54195238D01*
X70052380Y-53957142D01*
X70100000Y-53861904D01*
X70147619Y-53814285D01*
X70242857Y-53766666D01*
X70338095Y-53766666D01*
X70480952Y-53814285D01*
X71052380Y-54385714D01*
X71052380Y-53766666D01*
X70052380Y-53480952D02*
X71052380Y-53147619D01*
X70052380Y-52814285D01*
D11*
X56750000Y-54330952D02*
X56726190Y-54378571D01*
X56726190Y-54450000D01*
X56750000Y-54521428D01*
X56797619Y-54569047D01*
X56845238Y-54592857D01*
X56940476Y-54616666D01*
X57011904Y-54616666D01*
X57107142Y-54592857D01*
X57154761Y-54569047D01*
X57202380Y-54521428D01*
X57226190Y-54450000D01*
X57226190Y-54402380D01*
X57202380Y-54330952D01*
X57178571Y-54307142D01*
X57011904Y-54307142D01*
X57011904Y-54402380D01*
X57226190Y-54092857D02*
X56726190Y-54092857D01*
X57226190Y-53807142D01*
X56726190Y-53807142D01*
X57226190Y-53569047D02*
X56726190Y-53569047D01*
X56726190Y-53450000D01*
X56750000Y-53378571D01*
X56797619Y-53330952D01*
X56845238Y-53307142D01*
X56940476Y-53283333D01*
X57011904Y-53283333D01*
X57107142Y-53307142D01*
X57154761Y-53330952D01*
X57202380Y-53378571D01*
X57226190Y-53450000D01*
X57226190Y-53569047D01*
X77700000Y-72980952D02*
X77676190Y-73028571D01*
X77676190Y-73100000D01*
X77700000Y-73171428D01*
X77747619Y-73219047D01*
X77795238Y-73242857D01*
X77890476Y-73266666D01*
X77961904Y-73266666D01*
X78057142Y-73242857D01*
X78104761Y-73219047D01*
X78152380Y-73171428D01*
X78176190Y-73100000D01*
X78176190Y-73052380D01*
X78152380Y-72980952D01*
X78128571Y-72957142D01*
X77961904Y-72957142D01*
X77961904Y-73052380D01*
X78176190Y-72742857D02*
X77676190Y-72742857D01*
X78176190Y-72457142D01*
X77676190Y-72457142D01*
X78176190Y-72219047D02*
X77676190Y-72219047D01*
X77676190Y-72100000D01*
X77700000Y-72028571D01*
X77747619Y-71980952D01*
X77795238Y-71957142D01*
X77890476Y-71933333D01*
X77961904Y-71933333D01*
X78057142Y-71957142D01*
X78104761Y-71980952D01*
X78152380Y-72028571D01*
X78176190Y-72100000D01*
X78176190Y-72219047D01*
D12*
X56438095Y-76700000D02*
X56342857Y-76652380D01*
X56200000Y-76652380D01*
X56057142Y-76700000D01*
X55961904Y-76795238D01*
X55914285Y-76890476D01*
X55866666Y-77080952D01*
X55866666Y-77223809D01*
X55914285Y-77414285D01*
X55961904Y-77509523D01*
X56057142Y-77604761D01*
X56200000Y-77652380D01*
X56295238Y-77652380D01*
X56438095Y-77604761D01*
X56485714Y-77557142D01*
X56485714Y-77223809D01*
X56295238Y-77223809D01*
X56914285Y-77652380D02*
X56914285Y-76652380D01*
X57485714Y-77652380D01*
X57485714Y-76652380D01*
X57961904Y-77652380D02*
X57961904Y-76652380D01*
X58200000Y-76652380D01*
X58342857Y-76700000D01*
X58438095Y-76795238D01*
X58485714Y-76890476D01*
X58533333Y-77080952D01*
X58533333Y-77223809D01*
X58485714Y-77414285D01*
X58438095Y-77509523D01*
X58342857Y-77604761D01*
X58200000Y-77652380D01*
X57961904Y-77652380D01*
X56438095Y-75300000D02*
X56342857Y-75252380D01*
X56200000Y-75252380D01*
X56057142Y-75300000D01*
X55961904Y-75395238D01*
X55914285Y-75490476D01*
X55866666Y-75680952D01*
X55866666Y-75823809D01*
X55914285Y-76014285D01*
X55961904Y-76109523D01*
X56057142Y-76204761D01*
X56200000Y-76252380D01*
X56295238Y-76252380D01*
X56438095Y-76204761D01*
X56485714Y-76157142D01*
X56485714Y-75823809D01*
X56295238Y-75823809D01*
X56914285Y-76252380D02*
X56914285Y-75252380D01*
X57485714Y-76252380D01*
X57485714Y-75252380D01*
X57961904Y-76252380D02*
X57961904Y-75252380D01*
X58200000Y-75252380D01*
X58342857Y-75300000D01*
X58438095Y-75395238D01*
X58485714Y-75490476D01*
X58533333Y-75680952D01*
X58533333Y-75823809D01*
X58485714Y-76014285D01*
X58438095Y-76109523D01*
X58342857Y-76204761D01*
X58200000Y-76252380D01*
X57961904Y-76252380D01*
X56630952Y-74952380D02*
X56059523Y-74952380D01*
X56345238Y-74952380D02*
X56345238Y-73952380D01*
X56250000Y-74095238D01*
X56154761Y-74190476D01*
X56059523Y-74238095D01*
X57011904Y-74047619D02*
X57059523Y-74000000D01*
X57154761Y-73952380D01*
X57392857Y-73952380D01*
X57488095Y-74000000D01*
X57535714Y-74047619D01*
X57583333Y-74142857D01*
X57583333Y-74238095D01*
X57535714Y-74380952D01*
X56964285Y-74952380D01*
X57583333Y-74952380D01*
X57869047Y-73952380D02*
X58202380Y-74952380D01*
X58535714Y-73952380D01*
X56630952Y-73502380D02*
X56059523Y-73502380D01*
X56345238Y-73502380D02*
X56345238Y-72502380D01*
X56250000Y-72645238D01*
X56154761Y-72740476D01*
X56059523Y-72788095D01*
X57011904Y-72597619D02*
X57059523Y-72550000D01*
X57154761Y-72502380D01*
X57392857Y-72502380D01*
X57488095Y-72550000D01*
X57535714Y-72597619D01*
X57583333Y-72692857D01*
X57583333Y-72788095D01*
X57535714Y-72930952D01*
X56964285Y-73502380D01*
X57583333Y-73502380D01*
X57869047Y-72502380D02*
X58202380Y-73502380D01*
X58535714Y-72502380D01*
D13*
X97795238Y-68479761D02*
X97795238Y-66479761D01*
X98938095Y-68479761D02*
X98080952Y-67336904D01*
X98938095Y-66479761D02*
X97795238Y-67622619D01*
X99795238Y-67432142D02*
X100461904Y-67432142D01*
X100747619Y-68479761D02*
X99795238Y-68479761D01*
X99795238Y-66479761D01*
X100747619Y-66479761D01*
X101604761Y-67432142D02*
X102271428Y-67432142D01*
X102557142Y-68479761D02*
X101604761Y-68479761D01*
X101604761Y-66479761D01*
X102557142Y-66479761D01*
X103414285Y-68479761D02*
X103414285Y-66479761D01*
X104176190Y-66479761D01*
X104366666Y-66575000D01*
X104461904Y-66670238D01*
X104557142Y-66860714D01*
X104557142Y-67146428D01*
X104461904Y-67336904D01*
X104366666Y-67432142D01*
X104176190Y-67527380D01*
X103414285Y-67527380D01*
X107319047Y-66479761D02*
X107700000Y-66479761D01*
X107890476Y-66575000D01*
X108080952Y-66765476D01*
X108176190Y-67146428D01*
X108176190Y-67813095D01*
X108080952Y-68194047D01*
X107890476Y-68384523D01*
X107700000Y-68479761D01*
X107319047Y-68479761D01*
X107128571Y-68384523D01*
X106938095Y-68194047D01*
X106842857Y-67813095D01*
X106842857Y-67146428D01*
X106938095Y-66765476D01*
X107128571Y-66575000D01*
X107319047Y-66479761D01*
X109033333Y-66479761D02*
X109033333Y-68098809D01*
X109128571Y-68289285D01*
X109223809Y-68384523D01*
X109414285Y-68479761D01*
X109795238Y-68479761D01*
X109985714Y-68384523D01*
X110080952Y-68289285D01*
X110176190Y-68098809D01*
X110176190Y-66479761D01*
X110842857Y-66479761D02*
X111985714Y-66479761D01*
X111414285Y-68479761D02*
X111414285Y-66479761D01*
X112652380Y-68289285D02*
X112747619Y-68384523D01*
X112652380Y-68479761D01*
X112557142Y-68384523D01*
X112652380Y-68289285D01*
X112652380Y-68479761D01*
X112652380Y-67717857D02*
X112557142Y-66575000D01*
X112652380Y-66479761D01*
X112747619Y-66575000D01*
X112652380Y-67717857D01*
X112652380Y-66479761D01*
X113604761Y-68289285D02*
X113699999Y-68384523D01*
X113604761Y-68479761D01*
X113509523Y-68384523D01*
X113604761Y-68289285D01*
X113604761Y-68479761D01*
X113604761Y-67717857D02*
X113509523Y-66575000D01*
X113604761Y-66479761D01*
X113699999Y-66575000D01*
X113604761Y-67717857D01*
X113604761Y-66479761D01*
D14*
X111225000Y-73475000D02*
X111300000Y-73475000D01*
X111225000Y-73375000D02*
X111225000Y-73475000D01*
X111575000Y-73375000D02*
X111225000Y-73375000D01*
X111925000Y-73275000D02*
X111850000Y-73275000D01*
X111925000Y-73375000D02*
X111925000Y-73275000D01*
X111575000Y-73375000D02*
X111925000Y-73375000D01*
X111225000Y-73800000D02*
X111575000Y-73375000D01*
X111925000Y-73800000D02*
X111225000Y-73800000D01*
X111575000Y-73375000D02*
X111925000Y-73800000D01*
X111575000Y-74225000D02*
X111575000Y-72750000D01*
X114075000Y-71050000D02*
X114075000Y-69825000D01*
X114075000Y-69825000D02*
X111175000Y-69825000D01*
X111175000Y-69825000D02*
X111175000Y-71050000D01*
X112500000Y-60200000D02*
X112425000Y-60200000D01*
X112500000Y-60300000D02*
X112500000Y-60200000D01*
X112150000Y-60300000D02*
X112500000Y-60300000D01*
X111800000Y-60400000D02*
X111875000Y-60400000D01*
X111800000Y-60300000D02*
X111800000Y-60400000D01*
X112150000Y-60300000D02*
X111800000Y-60300000D01*
X112500000Y-59875000D02*
X112150000Y-60300000D01*
X111800000Y-59875000D02*
X112500000Y-59875000D01*
X112150000Y-60300000D02*
X111800000Y-59875000D01*
X112150000Y-59450000D02*
X112150000Y-60925000D01*
X109650000Y-62625000D02*
X109650000Y-63850000D01*
X109650000Y-63850000D02*
X112550000Y-63850000D01*
X112550000Y-63850000D02*
X112550000Y-62625000D01*
D10*
X69580000Y-57130000D02*
X69580000Y-51110000D01*
X69580000Y-51110000D02*
X59200000Y-51110000D01*
X59200000Y-51110000D02*
X59200000Y-57130000D01*
X59200000Y-57130000D02*
X69580000Y-57130000D01*
X69870000Y-56100000D02*
X69870000Y-52100000D01*
X68200000Y-51110000D02*
X68200000Y-52110000D01*
X68200000Y-52110000D02*
X60580000Y-52110000D01*
X60580000Y-52110000D02*
X60580000Y-51110000D01*
X68200000Y-52110000D02*
X67950000Y-52640000D01*
X67950000Y-52640000D02*
X60830000Y-52640000D01*
X60830000Y-52640000D02*
X60580000Y-52110000D01*
X67950000Y-51110000D02*
X67950000Y-52110000D01*
X60830000Y-51110000D02*
X60830000Y-52110000D01*
X69000000Y-57130000D02*
X69000000Y-56530000D01*
X69000000Y-56530000D02*
X67400000Y-56530000D01*
X67400000Y-56530000D02*
X67400000Y-57130000D01*
X66460000Y-57130000D02*
X66460000Y-56530000D01*
X66460000Y-56530000D02*
X64860000Y-56530000D01*
X64860000Y-56530000D02*
X64860000Y-57130000D01*
X63920000Y-57130000D02*
X63920000Y-56530000D01*
X63920000Y-56530000D02*
X62320000Y-56530000D01*
X62320000Y-56530000D02*
X62320000Y-57130000D01*
X61380000Y-57130000D02*
X61380000Y-56530000D01*
X61380000Y-56530000D02*
X59780000Y-56530000D01*
X59780000Y-56530000D02*
X59780000Y-57130000D01*
X77530000Y-79830000D02*
X77530000Y-73810000D01*
X77530000Y-73810000D02*
X67150000Y-73810000D01*
X67150000Y-73810000D02*
X67150000Y-79830000D01*
X67150000Y-79830000D02*
X77530000Y-79830000D01*
X77820000Y-78800000D02*
X77820000Y-74800000D01*
X76150000Y-73810000D02*
X76150000Y-74810000D01*
X76150000Y-74810000D02*
X68530000Y-74810000D01*
X68530000Y-74810000D02*
X68530000Y-73810000D01*
X76150000Y-74810000D02*
X75900000Y-75340000D01*
X75900000Y-75340000D02*
X68780000Y-75340000D01*
X68780000Y-75340000D02*
X68530000Y-74810000D01*
X75900000Y-73810000D02*
X75900000Y-74810000D01*
X68780000Y-73810000D02*
X68780000Y-74810000D01*
X76950000Y-79830000D02*
X76950000Y-79230000D01*
X76950000Y-79230000D02*
X75350000Y-79230000D01*
X75350000Y-79230000D02*
X75350000Y-79830000D01*
X74410000Y-79830000D02*
X74410000Y-79230000D01*
X74410000Y-79230000D02*
X72810000Y-79230000D01*
X72810000Y-79230000D02*
X72810000Y-79830000D01*
X71870000Y-79830000D02*
X71870000Y-79230000D01*
X71870000Y-79230000D02*
X70270000Y-79230000D01*
X70270000Y-79230000D02*
X70270000Y-79830000D01*
X69330000Y-79830000D02*
X69330000Y-79230000D01*
X69330000Y-79230000D02*
X67730000Y-79230000D01*
X67730000Y-79230000D02*
X67730000Y-79830000D01*
X65780000Y-70970000D02*
X59760000Y-70970000D01*
X59760000Y-70970000D02*
X59760000Y-81350000D01*
X59760000Y-81350000D02*
X65780000Y-81350000D01*
X65780000Y-81350000D02*
X65780000Y-70970000D01*
X64750000Y-70680000D02*
X60750000Y-70680000D01*
X59760000Y-72350000D02*
X60760000Y-72350000D01*
X60760000Y-72350000D02*
X60760000Y-79970000D01*
X60760000Y-79970000D02*
X59760000Y-79970000D01*
X60760000Y-72350000D02*
X61290000Y-72600000D01*
X61290000Y-72600000D02*
X61290000Y-79720000D01*
X61290000Y-79720000D02*
X60760000Y-79970000D01*
X59760000Y-72600000D02*
X60760000Y-72600000D01*
X59760000Y-79720000D02*
X60760000Y-79720000D01*
X65780000Y-71550000D02*
X65180000Y-71550000D01*
X65180000Y-71550000D02*
X65180000Y-73150000D01*
X65180000Y-73150000D02*
X65780000Y-73150000D01*
X65780000Y-74090000D02*
X65180000Y-74090000D01*
X65180000Y-74090000D02*
X65180000Y-75690000D01*
X65180000Y-75690000D02*
X65780000Y-75690000D01*
X65780000Y-76630000D02*
X65180000Y-76630000D01*
X65180000Y-76630000D02*
X65180000Y-78230000D01*
X65180000Y-78230000D02*
X65780000Y-78230000D01*
X65780000Y-79170000D02*
X65180000Y-79170000D01*
X65180000Y-79170000D02*
X65180000Y-80770000D01*
X65180000Y-80770000D02*
X65780000Y-80770000D01*
X70875000Y-71700000D02*
X72075000Y-71700000D01*
X70875000Y-69850000D02*
X70875000Y-71700000D01*
X72075000Y-69850000D02*
X72075000Y-71700000D01*
X70550000Y-69850000D02*
X70550000Y-71700000D01*
X69350000Y-69850000D02*
X69350000Y-71700000D01*
X69350000Y-71700000D02*
X70550000Y-71700000D01*
X67490000Y-67811252D02*
X67490000Y-67288748D01*
X68960000Y-67811252D02*
X68960000Y-67288748D01*
X73913748Y-67765000D02*
X74436252Y-67765000D01*
X73913748Y-69235000D02*
X74436252Y-69235000D01*
X73960000Y-71010436D02*
X73960000Y-71464564D01*
X72490000Y-71010436D02*
X72490000Y-71464564D01*
X68935000Y-71010436D02*
X68935000Y-71464564D01*
X67465000Y-71010436D02*
X67465000Y-71464564D01*
X71850000Y-69200000D02*
X69950000Y-69200000D01*
X71850000Y-65600000D02*
X71850000Y-69200000D01*
X69650000Y-65600000D02*
X71850000Y-65600000D01*
X69650000Y-68900000D02*
X69650000Y-65600000D01*
X69950000Y-69200000D02*
X69650000Y-68900000D01*
X74150000Y-65700000D02*
X73850000Y-65400000D01*
X73850000Y-65400000D02*
X73850000Y-61600000D01*
X73850000Y-61600000D02*
X76150000Y-61600000D01*
X76150000Y-61600000D02*
X76150000Y-65700000D01*
X76150000Y-65700000D02*
X74150000Y-65700000D01*
X78500000Y-65700000D02*
X78200000Y-65400000D01*
X78200000Y-65400000D02*
X78200000Y-61600000D01*
X78200000Y-61600000D02*
X80500000Y-61600000D01*
X80500000Y-61600000D02*
X80500000Y-65700000D01*
X80500000Y-65700000D02*
X78500000Y-65700000D01*
X61700000Y-60275000D02*
X62500000Y-59475000D01*
X62500000Y-59475000D02*
X68500000Y-59475000D01*
X68500000Y-59475000D02*
X68500000Y-62875000D01*
X68500000Y-62875000D02*
X61700000Y-62875000D01*
X61700000Y-62875000D02*
X61700000Y-60275000D01*
X105039564Y-73935000D02*
X103585436Y-73935000D01*
X105039564Y-72115000D02*
X103585436Y-72115000D01*
X105039564Y-71635000D02*
X103585436Y-71635000D01*
X105039564Y-69815000D02*
X103585436Y-69815000D01*
X105089564Y-63760000D02*
X103635436Y-63760000D01*
X105089564Y-61940000D02*
X103635436Y-61940000D01*
X105077064Y-66035000D02*
X103622936Y-66035000D01*
X105077064Y-64215000D02*
X103622936Y-64215000D01*
X77935000Y-62938748D02*
X77935000Y-63461252D01*
X76465000Y-62938748D02*
X76465000Y-63461252D01*
X73485000Y-62938748D02*
X73485000Y-63461252D01*
X72015000Y-62938748D02*
X72015000Y-63461252D01*
X70311252Y-65310000D02*
X69788748Y-65310000D01*
X70311252Y-63840000D02*
X69788748Y-63840000D01*
X104536252Y-76410000D02*
X104013748Y-76410000D01*
X104536252Y-74940000D02*
X104013748Y-74940000D01*
X104536252Y-78435000D02*
X104013748Y-78435000D01*
X104536252Y-76965000D02*
X104013748Y-76965000D01*
X104536252Y-80435000D02*
X104013748Y-80435000D01*
X104536252Y-78965000D02*
X104013748Y-78965000D01*
X104536252Y-82435000D02*
X104013748Y-82435000D01*
X104536252Y-80965000D02*
X104013748Y-80965000D01*
X104536252Y-84435000D02*
X104013748Y-84435000D01*
X104536252Y-82965000D02*
X104013748Y-82965000D01*
X78985000Y-81938748D02*
X78985000Y-82461252D01*
X77515000Y-81938748D02*
X77515000Y-82461252D01*
X76985000Y-81938748D02*
X76985000Y-82461252D01*
X75515000Y-81938748D02*
X75515000Y-82461252D01*
X74985000Y-81938748D02*
X74985000Y-82461252D01*
X73515000Y-81938748D02*
X73515000Y-82461252D01*
X109140000Y-73711252D02*
X109140000Y-73188748D01*
X110610000Y-73711252D02*
X110610000Y-73188748D01*
X96565000Y-70911252D02*
X96565000Y-70388748D01*
X98035000Y-70911252D02*
X98035000Y-70388748D01*
X82260000Y-66263748D02*
X82260000Y-66786252D01*
X80790000Y-66263748D02*
X80790000Y-66786252D01*
X96565000Y-64561252D02*
X96565000Y-64038748D01*
X98035000Y-64561252D02*
X98035000Y-64038748D01*
X111788748Y-57565000D02*
X112311252Y-57565000D01*
X111788748Y-59035000D02*
X112311252Y-59035000D01*
X68815000Y-61411252D02*
X68815000Y-60888748D01*
X70285000Y-61411252D02*
X70285000Y-60888748D01*
X64111252Y-59285000D02*
X63588748Y-59285000D01*
X64111252Y-57815000D02*
X63588748Y-57815000D01*
X60040000Y-61411252D02*
X60040000Y-60888748D01*
X61510000Y-61411252D02*
X61510000Y-60888748D01*
X104311252Y-60610000D02*
X103788748Y-60610000D01*
X104311252Y-59140000D02*
X103788748Y-59140000D01*
X104311252Y-58610000D02*
X103788748Y-58610000D01*
X104311252Y-57140000D02*
X103788748Y-57140000D01*
X104311252Y-56610000D02*
X103788748Y-56610000D01*
X104311252Y-55140000D02*
X103788748Y-55140000D01*
X104311252Y-54585000D02*
X103788748Y-54585000D01*
X104311252Y-53115000D02*
X103788748Y-53115000D01*
X104311252Y-52560000D02*
X103788748Y-52560000D01*
X104311252Y-51090000D02*
X103788748Y-51090000D01*
X77515000Y-52961252D02*
X77515000Y-52438748D01*
X78985000Y-52961252D02*
X78985000Y-52438748D01*
X75515000Y-52961252D02*
X75515000Y-52438748D01*
X76985000Y-52961252D02*
X76985000Y-52438748D01*
X73515000Y-52961252D02*
X73515000Y-52438748D01*
X74985000Y-52961252D02*
X74985000Y-52438748D01*
X79655000Y-59910000D02*
X101725000Y-59910000D01*
X101725000Y-59910000D02*
X101725000Y-50490000D01*
X101725000Y-50490000D02*
X79655000Y-50490000D01*
X79655000Y-50490000D02*
X79655000Y-59910000D01*
X79355000Y-58960000D02*
X79355000Y-60210000D01*
X79355000Y-60210000D02*
X80605000Y-60210000D01*
X79355000Y-84810000D02*
X80605000Y-84810000D01*
X79355000Y-83560000D02*
X79355000Y-84810000D01*
X79655000Y-75090000D02*
X79655000Y-84510000D01*
X101725000Y-75090000D02*
X79655000Y-75090000D01*
X101725000Y-84510000D02*
X101725000Y-75090000D01*
X79655000Y-84510000D02*
X101725000Y-84510000D01*
X83075000Y-72745000D02*
X83075000Y-63005000D01*
X95875000Y-72745000D02*
X83075000Y-72745000D01*
X95875000Y-62205000D02*
X95875000Y-72745000D01*
X83875000Y-62205000D02*
X95875000Y-62205000D01*
X83075000Y-63005000D02*
X83875000Y-62205000D01*
D12*
X111886904Y-75527380D02*
X111886904Y-74527380D01*
X112125000Y-74527380D01*
X112267857Y-74575000D01*
X112363095Y-74670238D01*
X112410714Y-74765476D01*
X112458333Y-74955952D01*
X112458333Y-75098809D01*
X112410714Y-75289285D01*
X112363095Y-75384523D01*
X112267857Y-75479761D01*
X112125000Y-75527380D01*
X111886904Y-75527380D01*
X112791666Y-74527380D02*
X113410714Y-74527380D01*
X113077380Y-74908333D01*
X113220238Y-74908333D01*
X113315476Y-74955952D01*
X113363095Y-75003571D01*
X113410714Y-75098809D01*
X113410714Y-75336904D01*
X113363095Y-75432142D01*
X113315476Y-75479761D01*
X113220238Y-75527380D01*
X112934523Y-75527380D01*
X112839285Y-75479761D01*
X112791666Y-75432142D01*
X113702380Y-62288095D02*
X112702380Y-62288095D01*
X112702380Y-62050000D01*
X112750000Y-61907142D01*
X112845238Y-61811904D01*
X112940476Y-61764285D01*
X113130952Y-61716666D01*
X113273809Y-61716666D01*
X113464285Y-61764285D01*
X113559523Y-61811904D01*
X113654761Y-61907142D01*
X113702380Y-62050000D01*
X113702380Y-62288095D01*
X113702380Y-60764285D02*
X113702380Y-61335714D01*
X113702380Y-61050000D02*
X112702380Y-61050000D01*
X112845238Y-61145238D01*
X112940476Y-61240476D01*
X112988095Y-61335714D01*
X59541666Y-57377380D02*
X59541666Y-58091666D01*
X59494047Y-58234523D01*
X59398809Y-58329761D01*
X59255952Y-58377380D01*
X59160714Y-58377380D01*
X60446428Y-57710714D02*
X60446428Y-58377380D01*
X60208333Y-57329761D02*
X59970238Y-58044047D01*
X60589285Y-58044047D01*
X78102380Y-76033333D02*
X78816666Y-76033333D01*
X78959523Y-76080952D01*
X79054761Y-76176190D01*
X79102380Y-76319047D01*
X79102380Y-76414285D01*
X78102380Y-75652380D02*
X78102380Y-75033333D01*
X78483333Y-75366666D01*
X78483333Y-75223809D01*
X78530952Y-75128571D01*
X78578571Y-75080952D01*
X78673809Y-75033333D01*
X78911904Y-75033333D01*
X79007142Y-75080952D01*
X79054761Y-75128571D01*
X79102380Y-75223809D01*
X79102380Y-75509523D01*
X79054761Y-75604761D01*
X79007142Y-75652380D01*
X62441666Y-69427380D02*
X62441666Y-70141666D01*
X62394047Y-70284523D01*
X62298809Y-70379761D01*
X62155952Y-70427380D01*
X62060714Y-70427380D01*
X63441666Y-70427380D02*
X62870238Y-70427380D01*
X63155952Y-70427380D02*
X63155952Y-69427380D01*
X63060714Y-69570238D01*
X62965476Y-69665476D01*
X62870238Y-69713095D01*
X71927380Y-73413095D02*
X70927380Y-73413095D01*
X70927380Y-73175000D01*
X70975000Y-73032142D01*
X71070238Y-72936904D01*
X71165476Y-72889285D01*
X71355952Y-72841666D01*
X71498809Y-72841666D01*
X71689285Y-72889285D01*
X71784523Y-72936904D01*
X71879761Y-73032142D01*
X71927380Y-73175000D01*
X71927380Y-73413095D01*
X71022619Y-72460714D02*
X70975000Y-72413095D01*
X70927380Y-72317857D01*
X70927380Y-72079761D01*
X70975000Y-71984523D01*
X71022619Y-71936904D01*
X71117857Y-71889285D01*
X71213095Y-71889285D01*
X71355952Y-71936904D01*
X71927380Y-72508333D01*
X71927380Y-71889285D01*
X70402380Y-73438095D02*
X69402380Y-73438095D01*
X69402380Y-73200000D01*
X69450000Y-73057142D01*
X69545238Y-72961904D01*
X69640476Y-72914285D01*
X69830952Y-72866666D01*
X69973809Y-72866666D01*
X70164285Y-72914285D01*
X70259523Y-72961904D01*
X70354761Y-73057142D01*
X70402380Y-73200000D01*
X70402380Y-73438095D01*
X69735714Y-72009523D02*
X70402380Y-72009523D01*
X69354761Y-72247619D02*
X70069047Y-72485714D01*
X70069047Y-71866666D01*
X67107142Y-68217857D02*
X67154761Y-68265476D01*
X67202380Y-68408333D01*
X67202380Y-68503571D01*
X67154761Y-68646428D01*
X67059523Y-68741666D01*
X66964285Y-68789285D01*
X66773809Y-68836904D01*
X66630952Y-68836904D01*
X66440476Y-68789285D01*
X66345238Y-68741666D01*
X66250000Y-68646428D01*
X66202380Y-68503571D01*
X66202380Y-68408333D01*
X66250000Y-68265476D01*
X66297619Y-68217857D01*
X67202380Y-67265476D02*
X67202380Y-67836904D01*
X67202380Y-67551190D02*
X66202380Y-67551190D01*
X66345238Y-67646428D01*
X66440476Y-67741666D01*
X66488095Y-67836904D01*
X66630952Y-66694047D02*
X66583333Y-66789285D01*
X66535714Y-66836904D01*
X66440476Y-66884523D01*
X66392857Y-66884523D01*
X66297619Y-66836904D01*
X66250000Y-66789285D01*
X66202380Y-66694047D01*
X66202380Y-66503571D01*
X66250000Y-66408333D01*
X66297619Y-66360714D01*
X66392857Y-66313095D01*
X66440476Y-66313095D01*
X66535714Y-66360714D01*
X66583333Y-66408333D01*
X66630952Y-66503571D01*
X66630952Y-66694047D01*
X66678571Y-66789285D01*
X66726190Y-66836904D01*
X66821428Y-66884523D01*
X67011904Y-66884523D01*
X67107142Y-66836904D01*
X67154761Y-66789285D01*
X67202380Y-66694047D01*
X67202380Y-66503571D01*
X67154761Y-66408333D01*
X67107142Y-66360714D01*
X67011904Y-66313095D01*
X66821428Y-66313095D01*
X66726190Y-66360714D01*
X66678571Y-66408333D01*
X66630952Y-66503571D01*
X76557142Y-68857142D02*
X76509523Y-68904761D01*
X76366666Y-68952380D01*
X76271428Y-68952380D01*
X76128571Y-68904761D01*
X76033333Y-68809523D01*
X75985714Y-68714285D01*
X75938095Y-68523809D01*
X75938095Y-68380952D01*
X75985714Y-68190476D01*
X76033333Y-68095238D01*
X76128571Y-68000000D01*
X76271428Y-67952380D01*
X76366666Y-67952380D01*
X76509523Y-68000000D01*
X76557142Y-68047619D01*
X77509523Y-68952380D02*
X76938095Y-68952380D01*
X77223809Y-68952380D02*
X77223809Y-67952380D01*
X77128571Y-68095238D01*
X77033333Y-68190476D01*
X76938095Y-68238095D01*
X78366666Y-67952380D02*
X78176190Y-67952380D01*
X78080952Y-68000000D01*
X78033333Y-68047619D01*
X77938095Y-68190476D01*
X77890476Y-68380952D01*
X77890476Y-68761904D01*
X77938095Y-68857142D01*
X77985714Y-68904761D01*
X78080952Y-68952380D01*
X78271428Y-68952380D01*
X78366666Y-68904761D01*
X78414285Y-68857142D01*
X78461904Y-68761904D01*
X78461904Y-68523809D01*
X78414285Y-68428571D01*
X78366666Y-68380952D01*
X78271428Y-68333333D01*
X78080952Y-68333333D01*
X77985714Y-68380952D01*
X77938095Y-68428571D01*
X77890476Y-68523809D01*
X75352380Y-71391666D02*
X74876190Y-71725000D01*
X75352380Y-71963095D02*
X74352380Y-71963095D01*
X74352380Y-71582142D01*
X74400000Y-71486904D01*
X74447619Y-71439285D01*
X74542857Y-71391666D01*
X74685714Y-71391666D01*
X74780952Y-71439285D01*
X74828571Y-71486904D01*
X74876190Y-71582142D01*
X74876190Y-71963095D01*
X74352380Y-71058333D02*
X74352380Y-70439285D01*
X74733333Y-70772619D01*
X74733333Y-70629761D01*
X74780952Y-70534523D01*
X74828571Y-70486904D01*
X74923809Y-70439285D01*
X75161904Y-70439285D01*
X75257142Y-70486904D01*
X75304761Y-70534523D01*
X75352380Y-70629761D01*
X75352380Y-70915476D01*
X75304761Y-71010714D01*
X75257142Y-71058333D01*
X67127380Y-71416666D02*
X66651190Y-71750000D01*
X67127380Y-71988095D02*
X66127380Y-71988095D01*
X66127380Y-71607142D01*
X66175000Y-71511904D01*
X66222619Y-71464285D01*
X66317857Y-71416666D01*
X66460714Y-71416666D01*
X66555952Y-71464285D01*
X66603571Y-71511904D01*
X66651190Y-71607142D01*
X66651190Y-71988095D01*
X66127380Y-70559523D02*
X66127380Y-70750000D01*
X66175000Y-70845238D01*
X66222619Y-70892857D01*
X66365476Y-70988095D01*
X66555952Y-71035714D01*
X66936904Y-71035714D01*
X67032142Y-70988095D01*
X67079761Y-70940476D01*
X67127380Y-70845238D01*
X67127380Y-70654761D01*
X67079761Y-70559523D01*
X67032142Y-70511904D01*
X66936904Y-70464285D01*
X66698809Y-70464285D01*
X66603571Y-70511904D01*
X66555952Y-70559523D01*
X66508333Y-70654761D01*
X66508333Y-70845238D01*
X66555952Y-70940476D01*
X66603571Y-70988095D01*
X66698809Y-71035714D01*
X72013095Y-65827380D02*
X72013095Y-66636904D01*
X72060714Y-66732142D01*
X72108333Y-66779761D01*
X72203571Y-66827380D01*
X72394047Y-66827380D01*
X72489285Y-66779761D01*
X72536904Y-66732142D01*
X72584523Y-66636904D01*
X72584523Y-65827380D01*
X72965476Y-65827380D02*
X73584523Y-65827380D01*
X73251190Y-66208333D01*
X73394047Y-66208333D01*
X73489285Y-66255952D01*
X73536904Y-66303571D01*
X73584523Y-66398809D01*
X73584523Y-66636904D01*
X73536904Y-66732142D01*
X73489285Y-66779761D01*
X73394047Y-66827380D01*
X73108333Y-66827380D01*
X73013095Y-66779761D01*
X72965476Y-66732142D01*
X74238095Y-65877380D02*
X74238095Y-66686904D01*
X74285714Y-66782142D01*
X74333333Y-66829761D01*
X74428571Y-66877380D01*
X74619047Y-66877380D01*
X74714285Y-66829761D01*
X74761904Y-66782142D01*
X74809523Y-66686904D01*
X74809523Y-65877380D01*
X75761904Y-65877380D02*
X75285714Y-65877380D01*
X75238095Y-66353571D01*
X75285714Y-66305952D01*
X75380952Y-66258333D01*
X75619047Y-66258333D01*
X75714285Y-66305952D01*
X75761904Y-66353571D01*
X75809523Y-66448809D01*
X75809523Y-66686904D01*
X75761904Y-66782142D01*
X75714285Y-66829761D01*
X75619047Y-66877380D01*
X75380952Y-66877380D01*
X75285714Y-66829761D01*
X75238095Y-66782142D01*
X78588095Y-60452380D02*
X78588095Y-61261904D01*
X78635714Y-61357142D01*
X78683333Y-61404761D01*
X78778571Y-61452380D01*
X78969047Y-61452380D01*
X79064285Y-61404761D01*
X79111904Y-61357142D01*
X79159523Y-61261904D01*
X79159523Y-60452380D01*
X80064285Y-60785714D02*
X80064285Y-61452380D01*
X79826190Y-60404761D02*
X79588095Y-61119047D01*
X80207142Y-61119047D01*
X64688095Y-63027380D02*
X64688095Y-63836904D01*
X64735714Y-63932142D01*
X64783333Y-63979761D01*
X64878571Y-64027380D01*
X65069047Y-64027380D01*
X65164285Y-63979761D01*
X65211904Y-63932142D01*
X65259523Y-63836904D01*
X65259523Y-63027380D01*
X66259523Y-64027380D02*
X65688095Y-64027380D01*
X65973809Y-64027380D02*
X65973809Y-63027380D01*
X65878571Y-63170238D01*
X65783333Y-63265476D01*
X65688095Y-63313095D01*
X107295833Y-73477380D02*
X106962500Y-73001190D01*
X106724404Y-73477380D02*
X106724404Y-72477380D01*
X107105357Y-72477380D01*
X107200595Y-72525000D01*
X107248214Y-72572619D01*
X107295833Y-72667857D01*
X107295833Y-72810714D01*
X107248214Y-72905952D01*
X107200595Y-72953571D01*
X107105357Y-73001190D01*
X106724404Y-73001190D01*
X108200595Y-72477380D02*
X107724404Y-72477380D01*
X107676785Y-72953571D01*
X107724404Y-72905952D01*
X107819642Y-72858333D01*
X108057738Y-72858333D01*
X108152976Y-72905952D01*
X108200595Y-72953571D01*
X108248214Y-73048809D01*
X108248214Y-73286904D01*
X108200595Y-73382142D01*
X108152976Y-73429761D01*
X108057738Y-73477380D01*
X107819642Y-73477380D01*
X107724404Y-73429761D01*
X107676785Y-73382142D01*
X107320833Y-71177380D02*
X106987500Y-70701190D01*
X106749404Y-71177380D02*
X106749404Y-70177380D01*
X107130357Y-70177380D01*
X107225595Y-70225000D01*
X107273214Y-70272619D01*
X107320833Y-70367857D01*
X107320833Y-70510714D01*
X107273214Y-70605952D01*
X107225595Y-70653571D01*
X107130357Y-70701190D01*
X106749404Y-70701190D01*
X108177976Y-70510714D02*
X108177976Y-71177380D01*
X107939880Y-70129761D02*
X107701785Y-70844047D01*
X108320833Y-70844047D01*
X107370833Y-63302380D02*
X107037500Y-62826190D01*
X106799404Y-63302380D02*
X106799404Y-62302380D01*
X107180357Y-62302380D01*
X107275595Y-62350000D01*
X107323214Y-62397619D01*
X107370833Y-62492857D01*
X107370833Y-62635714D01*
X107323214Y-62730952D01*
X107275595Y-62778571D01*
X107180357Y-62826190D01*
X106799404Y-62826190D01*
X107751785Y-62397619D02*
X107799404Y-62350000D01*
X107894642Y-62302380D01*
X108132738Y-62302380D01*
X108227976Y-62350000D01*
X108275595Y-62397619D01*
X108323214Y-62492857D01*
X108323214Y-62588095D01*
X108275595Y-62730952D01*
X107704166Y-63302380D01*
X108323214Y-63302380D01*
X107408333Y-65577380D02*
X107075000Y-65101190D01*
X106836904Y-65577380D02*
X106836904Y-64577380D01*
X107217857Y-64577380D01*
X107313095Y-64625000D01*
X107360714Y-64672619D01*
X107408333Y-64767857D01*
X107408333Y-64910714D01*
X107360714Y-65005952D01*
X107313095Y-65053571D01*
X107217857Y-65101190D01*
X106836904Y-65101190D01*
X108360714Y-65577380D02*
X107789285Y-65577380D01*
X108075000Y-65577380D02*
X108075000Y-64577380D01*
X107979761Y-64720238D01*
X107884523Y-64815476D01*
X107789285Y-64863095D01*
X77607142Y-60942857D02*
X77654761Y-60990476D01*
X77702380Y-61133333D01*
X77702380Y-61228571D01*
X77654761Y-61371428D01*
X77559523Y-61466666D01*
X77464285Y-61514285D01*
X77273809Y-61561904D01*
X77130952Y-61561904D01*
X76940476Y-61514285D01*
X76845238Y-61466666D01*
X76750000Y-61371428D01*
X76702380Y-61228571D01*
X76702380Y-61133333D01*
X76750000Y-60990476D01*
X76797619Y-60942857D01*
X76797619Y-60561904D02*
X76750000Y-60514285D01*
X76702380Y-60419047D01*
X76702380Y-60180952D01*
X76750000Y-60085714D01*
X76797619Y-60038095D01*
X76892857Y-59990476D01*
X76988095Y-59990476D01*
X77130952Y-60038095D01*
X77702380Y-60609523D01*
X77702380Y-59990476D01*
X77702380Y-59514285D02*
X77702380Y-59323809D01*
X77654761Y-59228571D01*
X77607142Y-59180952D01*
X77464285Y-59085714D01*
X77273809Y-59038095D01*
X76892857Y-59038095D01*
X76797619Y-59085714D01*
X76750000Y-59133333D01*
X76702380Y-59228571D01*
X76702380Y-59419047D01*
X76750000Y-59514285D01*
X76797619Y-59561904D01*
X76892857Y-59609523D01*
X77130952Y-59609523D01*
X77226190Y-59561904D01*
X77273809Y-59514285D01*
X77321428Y-59419047D01*
X77321428Y-59228571D01*
X77273809Y-59133333D01*
X77226190Y-59085714D01*
X77130952Y-59038095D01*
X73107142Y-60892857D02*
X73154761Y-60940476D01*
X73202380Y-61083333D01*
X73202380Y-61178571D01*
X73154761Y-61321428D01*
X73059523Y-61416666D01*
X72964285Y-61464285D01*
X72773809Y-61511904D01*
X72630952Y-61511904D01*
X72440476Y-61464285D01*
X72345238Y-61416666D01*
X72250000Y-61321428D01*
X72202380Y-61178571D01*
X72202380Y-61083333D01*
X72250000Y-60940476D01*
X72297619Y-60892857D01*
X72297619Y-60511904D02*
X72250000Y-60464285D01*
X72202380Y-60369047D01*
X72202380Y-60130952D01*
X72250000Y-60035714D01*
X72297619Y-59988095D01*
X72392857Y-59940476D01*
X72488095Y-59940476D01*
X72630952Y-59988095D01*
X73202380Y-60559523D01*
X73202380Y-59940476D01*
X72630952Y-59369047D02*
X72583333Y-59464285D01*
X72535714Y-59511904D01*
X72440476Y-59559523D01*
X72392857Y-59559523D01*
X72297619Y-59511904D01*
X72250000Y-59464285D01*
X72202380Y-59369047D01*
X72202380Y-59178571D01*
X72250000Y-59083333D01*
X72297619Y-59035714D01*
X72392857Y-58988095D01*
X72440476Y-58988095D01*
X72535714Y-59035714D01*
X72583333Y-59083333D01*
X72630952Y-59178571D01*
X72630952Y-59369047D01*
X72678571Y-59464285D01*
X72726190Y-59511904D01*
X72821428Y-59559523D01*
X73011904Y-59559523D01*
X73107142Y-59511904D01*
X73154761Y-59464285D01*
X73202380Y-59369047D01*
X73202380Y-59178571D01*
X73154761Y-59083333D01*
X73107142Y-59035714D01*
X73011904Y-58988095D01*
X72821428Y-58988095D01*
X72726190Y-59035714D01*
X72678571Y-59083333D01*
X72630952Y-59178571D01*
X66357142Y-65282142D02*
X66309523Y-65329761D01*
X66166666Y-65377380D01*
X66071428Y-65377380D01*
X65928571Y-65329761D01*
X65833333Y-65234523D01*
X65785714Y-65139285D01*
X65738095Y-64948809D01*
X65738095Y-64805952D01*
X65785714Y-64615476D01*
X65833333Y-64520238D01*
X65928571Y-64425000D01*
X66071428Y-64377380D01*
X66166666Y-64377380D01*
X66309523Y-64425000D01*
X66357142Y-64472619D01*
X66738095Y-64472619D02*
X66785714Y-64425000D01*
X66880952Y-64377380D01*
X67119047Y-64377380D01*
X67214285Y-64425000D01*
X67261904Y-64472619D01*
X67309523Y-64567857D01*
X67309523Y-64663095D01*
X67261904Y-64805952D01*
X66690476Y-65377380D01*
X67309523Y-65377380D01*
X67642857Y-64377380D02*
X68309523Y-64377380D01*
X67880952Y-65377380D01*
X106682142Y-76032142D02*
X106634523Y-76079761D01*
X106491666Y-76127380D01*
X106396428Y-76127380D01*
X106253571Y-76079761D01*
X106158333Y-75984523D01*
X106110714Y-75889285D01*
X106063095Y-75698809D01*
X106063095Y-75555952D01*
X106110714Y-75365476D01*
X106158333Y-75270238D01*
X106253571Y-75175000D01*
X106396428Y-75127380D01*
X106491666Y-75127380D01*
X106634523Y-75175000D01*
X106682142Y-75222619D01*
X107063095Y-75222619D02*
X107110714Y-75175000D01*
X107205952Y-75127380D01*
X107444047Y-75127380D01*
X107539285Y-75175000D01*
X107586904Y-75222619D01*
X107634523Y-75317857D01*
X107634523Y-75413095D01*
X107586904Y-75555952D01*
X107015476Y-76127380D01*
X107634523Y-76127380D01*
X108491666Y-75127380D02*
X108301190Y-75127380D01*
X108205952Y-75175000D01*
X108158333Y-75222619D01*
X108063095Y-75365476D01*
X108015476Y-75555952D01*
X108015476Y-75936904D01*
X108063095Y-76032142D01*
X108110714Y-76079761D01*
X108205952Y-76127380D01*
X108396428Y-76127380D01*
X108491666Y-76079761D01*
X108539285Y-76032142D01*
X108586904Y-75936904D01*
X108586904Y-75698809D01*
X108539285Y-75603571D01*
X108491666Y-75555952D01*
X108396428Y-75508333D01*
X108205952Y-75508333D01*
X108110714Y-75555952D01*
X108063095Y-75603571D01*
X108015476Y-75698809D01*
X106682142Y-78107142D02*
X106634523Y-78154761D01*
X106491666Y-78202380D01*
X106396428Y-78202380D01*
X106253571Y-78154761D01*
X106158333Y-78059523D01*
X106110714Y-77964285D01*
X106063095Y-77773809D01*
X106063095Y-77630952D01*
X106110714Y-77440476D01*
X106158333Y-77345238D01*
X106253571Y-77250000D01*
X106396428Y-77202380D01*
X106491666Y-77202380D01*
X106634523Y-77250000D01*
X106682142Y-77297619D01*
X107063095Y-77297619D02*
X107110714Y-77250000D01*
X107205952Y-77202380D01*
X107444047Y-77202380D01*
X107539285Y-77250000D01*
X107586904Y-77297619D01*
X107634523Y-77392857D01*
X107634523Y-77488095D01*
X107586904Y-77630952D01*
X107015476Y-78202380D01*
X107634523Y-78202380D01*
X108539285Y-77202380D02*
X108063095Y-77202380D01*
X108015476Y-77678571D01*
X108063095Y-77630952D01*
X108158333Y-77583333D01*
X108396428Y-77583333D01*
X108491666Y-77630952D01*
X108539285Y-77678571D01*
X108586904Y-77773809D01*
X108586904Y-78011904D01*
X108539285Y-78107142D01*
X108491666Y-78154761D01*
X108396428Y-78202380D01*
X108158333Y-78202380D01*
X108063095Y-78154761D01*
X108015476Y-78107142D01*
X106707142Y-80057142D02*
X106659523Y-80104761D01*
X106516666Y-80152380D01*
X106421428Y-80152380D01*
X106278571Y-80104761D01*
X106183333Y-80009523D01*
X106135714Y-79914285D01*
X106088095Y-79723809D01*
X106088095Y-79580952D01*
X106135714Y-79390476D01*
X106183333Y-79295238D01*
X106278571Y-79200000D01*
X106421428Y-79152380D01*
X106516666Y-79152380D01*
X106659523Y-79200000D01*
X106707142Y-79247619D01*
X107088095Y-79247619D02*
X107135714Y-79200000D01*
X107230952Y-79152380D01*
X107469047Y-79152380D01*
X107564285Y-79200000D01*
X107611904Y-79247619D01*
X107659523Y-79342857D01*
X107659523Y-79438095D01*
X107611904Y-79580952D01*
X107040476Y-80152380D01*
X107659523Y-80152380D01*
X108516666Y-79485714D02*
X108516666Y-80152380D01*
X108278571Y-79104761D02*
X108040476Y-79819047D01*
X108659523Y-79819047D01*
X106682142Y-82057142D02*
X106634523Y-82104761D01*
X106491666Y-82152380D01*
X106396428Y-82152380D01*
X106253571Y-82104761D01*
X106158333Y-82009523D01*
X106110714Y-81914285D01*
X106063095Y-81723809D01*
X106063095Y-81580952D01*
X106110714Y-81390476D01*
X106158333Y-81295238D01*
X106253571Y-81200000D01*
X106396428Y-81152380D01*
X106491666Y-81152380D01*
X106634523Y-81200000D01*
X106682142Y-81247619D01*
X107063095Y-81247619D02*
X107110714Y-81200000D01*
X107205952Y-81152380D01*
X107444047Y-81152380D01*
X107539285Y-81200000D01*
X107586904Y-81247619D01*
X107634523Y-81342857D01*
X107634523Y-81438095D01*
X107586904Y-81580952D01*
X107015476Y-82152380D01*
X107634523Y-82152380D01*
X107967857Y-81152380D02*
X108586904Y-81152380D01*
X108253571Y-81533333D01*
X108396428Y-81533333D01*
X108491666Y-81580952D01*
X108539285Y-81628571D01*
X108586904Y-81723809D01*
X108586904Y-81961904D01*
X108539285Y-82057142D01*
X108491666Y-82104761D01*
X108396428Y-82152380D01*
X108110714Y-82152380D01*
X108015476Y-82104761D01*
X107967857Y-82057142D01*
X106707142Y-84057142D02*
X106659523Y-84104761D01*
X106516666Y-84152380D01*
X106421428Y-84152380D01*
X106278571Y-84104761D01*
X106183333Y-84009523D01*
X106135714Y-83914285D01*
X106088095Y-83723809D01*
X106088095Y-83580952D01*
X106135714Y-83390476D01*
X106183333Y-83295238D01*
X106278571Y-83200000D01*
X106421428Y-83152380D01*
X106516666Y-83152380D01*
X106659523Y-83200000D01*
X106707142Y-83247619D01*
X107088095Y-83247619D02*
X107135714Y-83200000D01*
X107230952Y-83152380D01*
X107469047Y-83152380D01*
X107564285Y-83200000D01*
X107611904Y-83247619D01*
X107659523Y-83342857D01*
X107659523Y-83438095D01*
X107611904Y-83580952D01*
X107040476Y-84152380D01*
X107659523Y-84152380D01*
X108040476Y-83247619D02*
X108088095Y-83200000D01*
X108183333Y-83152380D01*
X108421428Y-83152380D01*
X108516666Y-83200000D01*
X108564285Y-83247619D01*
X108611904Y-83342857D01*
X108611904Y-83438095D01*
X108564285Y-83580952D01*
X107992857Y-84152380D01*
X108611904Y-84152380D01*
X72982142Y-82867857D02*
X73029761Y-82915476D01*
X73077380Y-83058333D01*
X73077380Y-83153571D01*
X73029761Y-83296428D01*
X72934523Y-83391666D01*
X72839285Y-83439285D01*
X72648809Y-83486904D01*
X72505952Y-83486904D01*
X72315476Y-83439285D01*
X72220238Y-83391666D01*
X72125000Y-83296428D01*
X72077380Y-83153571D01*
X72077380Y-83058333D01*
X72125000Y-82915476D01*
X72172619Y-82867857D01*
X72172619Y-82486904D02*
X72125000Y-82439285D01*
X72077380Y-82344047D01*
X72077380Y-82105952D01*
X72125000Y-82010714D01*
X72172619Y-81963095D01*
X72267857Y-81915476D01*
X72363095Y-81915476D01*
X72505952Y-81963095D01*
X73077380Y-82534523D01*
X73077380Y-81915476D01*
X73077380Y-80963095D02*
X73077380Y-81534523D01*
X73077380Y-81248809D02*
X72077380Y-81248809D01*
X72220238Y-81344047D01*
X72315476Y-81439285D01*
X72363095Y-81534523D01*
X71682142Y-82842857D02*
X71729761Y-82890476D01*
X71777380Y-83033333D01*
X71777380Y-83128571D01*
X71729761Y-83271428D01*
X71634523Y-83366666D01*
X71539285Y-83414285D01*
X71348809Y-83461904D01*
X71205952Y-83461904D01*
X71015476Y-83414285D01*
X70920238Y-83366666D01*
X70825000Y-83271428D01*
X70777380Y-83128571D01*
X70777380Y-83033333D01*
X70825000Y-82890476D01*
X70872619Y-82842857D01*
X70872619Y-82461904D02*
X70825000Y-82414285D01*
X70777380Y-82319047D01*
X70777380Y-82080952D01*
X70825000Y-81985714D01*
X70872619Y-81938095D01*
X70967857Y-81890476D01*
X71063095Y-81890476D01*
X71205952Y-81938095D01*
X71777380Y-82509523D01*
X71777380Y-81890476D01*
X70777380Y-81271428D02*
X70777380Y-81176190D01*
X70825000Y-81080952D01*
X70872619Y-81033333D01*
X70967857Y-80985714D01*
X71158333Y-80938095D01*
X71396428Y-80938095D01*
X71586904Y-80985714D01*
X71682142Y-81033333D01*
X71729761Y-81080952D01*
X71777380Y-81176190D01*
X71777380Y-81271428D01*
X71729761Y-81366666D01*
X71682142Y-81414285D01*
X71586904Y-81461904D01*
X71396428Y-81509523D01*
X71158333Y-81509523D01*
X70967857Y-81461904D01*
X70872619Y-81414285D01*
X70825000Y-81366666D01*
X70777380Y-81271428D01*
X70357142Y-82842857D02*
X70404761Y-82890476D01*
X70452380Y-83033333D01*
X70452380Y-83128571D01*
X70404761Y-83271428D01*
X70309523Y-83366666D01*
X70214285Y-83414285D01*
X70023809Y-83461904D01*
X69880952Y-83461904D01*
X69690476Y-83414285D01*
X69595238Y-83366666D01*
X69500000Y-83271428D01*
X69452380Y-83128571D01*
X69452380Y-83033333D01*
X69500000Y-82890476D01*
X69547619Y-82842857D01*
X70452380Y-81890476D02*
X70452380Y-82461904D01*
X70452380Y-82176190D02*
X69452380Y-82176190D01*
X69595238Y-82271428D01*
X69690476Y-82366666D01*
X69738095Y-82461904D01*
X70452380Y-81414285D02*
X70452380Y-81223809D01*
X70404761Y-81128571D01*
X70357142Y-81080952D01*
X70214285Y-80985714D01*
X70023809Y-80938095D01*
X69642857Y-80938095D01*
X69547619Y-80985714D01*
X69500000Y-81033333D01*
X69452380Y-81128571D01*
X69452380Y-81319047D01*
X69500000Y-81414285D01*
X69547619Y-81461904D01*
X69642857Y-81509523D01*
X69880952Y-81509523D01*
X69976190Y-81461904D01*
X70023809Y-81414285D01*
X70071428Y-81319047D01*
X70071428Y-81128571D01*
X70023809Y-81033333D01*
X69976190Y-80985714D01*
X69880952Y-80938095D01*
X110257142Y-70992857D02*
X110304761Y-71040476D01*
X110352380Y-71183333D01*
X110352380Y-71278571D01*
X110304761Y-71421428D01*
X110209523Y-71516666D01*
X110114285Y-71564285D01*
X109923809Y-71611904D01*
X109780952Y-71611904D01*
X109590476Y-71564285D01*
X109495238Y-71516666D01*
X109400000Y-71421428D01*
X109352380Y-71278571D01*
X109352380Y-71183333D01*
X109400000Y-71040476D01*
X109447619Y-70992857D01*
X110352380Y-70040476D02*
X110352380Y-70611904D01*
X110352380Y-70326190D02*
X109352380Y-70326190D01*
X109495238Y-70421428D01*
X109590476Y-70516666D01*
X109638095Y-70611904D01*
X109352380Y-69707142D02*
X109352380Y-69040476D01*
X110352380Y-69469047D01*
X96832142Y-73307142D02*
X96784523Y-73354761D01*
X96641666Y-73402380D01*
X96546428Y-73402380D01*
X96403571Y-73354761D01*
X96308333Y-73259523D01*
X96260714Y-73164285D01*
X96213095Y-72973809D01*
X96213095Y-72830952D01*
X96260714Y-72640476D01*
X96308333Y-72545238D01*
X96403571Y-72450000D01*
X96546428Y-72402380D01*
X96641666Y-72402380D01*
X96784523Y-72450000D01*
X96832142Y-72497619D01*
X97784523Y-73402380D02*
X97213095Y-73402380D01*
X97498809Y-73402380D02*
X97498809Y-72402380D01*
X97403571Y-72545238D01*
X97308333Y-72640476D01*
X97213095Y-72688095D01*
X98689285Y-72402380D02*
X98213095Y-72402380D01*
X98165476Y-72878571D01*
X98213095Y-72830952D01*
X98308333Y-72783333D01*
X98546428Y-72783333D01*
X98641666Y-72830952D01*
X98689285Y-72878571D01*
X98736904Y-72973809D01*
X98736904Y-73211904D01*
X98689285Y-73307142D01*
X98641666Y-73354761D01*
X98546428Y-73402380D01*
X98308333Y-73402380D01*
X98213095Y-73354761D01*
X98165476Y-73307142D01*
X82732142Y-70442857D02*
X82779761Y-70490476D01*
X82827380Y-70633333D01*
X82827380Y-70728571D01*
X82779761Y-70871428D01*
X82684523Y-70966666D01*
X82589285Y-71014285D01*
X82398809Y-71061904D01*
X82255952Y-71061904D01*
X82065476Y-71014285D01*
X81970238Y-70966666D01*
X81875000Y-70871428D01*
X81827380Y-70728571D01*
X81827380Y-70633333D01*
X81875000Y-70490476D01*
X81922619Y-70442857D01*
X82827380Y-69490476D02*
X82827380Y-70061904D01*
X82827380Y-69776190D02*
X81827380Y-69776190D01*
X81970238Y-69871428D01*
X82065476Y-69966666D01*
X82113095Y-70061904D01*
X82160714Y-68633333D02*
X82827380Y-68633333D01*
X81779761Y-68871428D02*
X82494047Y-69109523D01*
X82494047Y-68490476D01*
X96807142Y-62432142D02*
X96759523Y-62479761D01*
X96616666Y-62527380D01*
X96521428Y-62527380D01*
X96378571Y-62479761D01*
X96283333Y-62384523D01*
X96235714Y-62289285D01*
X96188095Y-62098809D01*
X96188095Y-61955952D01*
X96235714Y-61765476D01*
X96283333Y-61670238D01*
X96378571Y-61575000D01*
X96521428Y-61527380D01*
X96616666Y-61527380D01*
X96759523Y-61575000D01*
X96807142Y-61622619D01*
X97759523Y-62527380D02*
X97188095Y-62527380D01*
X97473809Y-62527380D02*
X97473809Y-61527380D01*
X97378571Y-61670238D01*
X97283333Y-61765476D01*
X97188095Y-61813095D01*
X98092857Y-61527380D02*
X98711904Y-61527380D01*
X98378571Y-61908333D01*
X98521428Y-61908333D01*
X98616666Y-61955952D01*
X98664285Y-62003571D01*
X98711904Y-62098809D01*
X98711904Y-62336904D01*
X98664285Y-62432142D01*
X98616666Y-62479761D01*
X98521428Y-62527380D01*
X98235714Y-62527380D01*
X98140476Y-62479761D01*
X98092857Y-62432142D01*
X111407142Y-56977142D02*
X111359523Y-57024761D01*
X111216666Y-57072380D01*
X111121428Y-57072380D01*
X110978571Y-57024761D01*
X110883333Y-56929523D01*
X110835714Y-56834285D01*
X110788095Y-56643809D01*
X110788095Y-56500952D01*
X110835714Y-56310476D01*
X110883333Y-56215238D01*
X110978571Y-56120000D01*
X111121428Y-56072380D01*
X111216666Y-56072380D01*
X111359523Y-56120000D01*
X111407142Y-56167619D01*
X112359523Y-57072380D02*
X111788095Y-57072380D01*
X112073809Y-57072380D02*
X112073809Y-56072380D01*
X111978571Y-56215238D01*
X111883333Y-56310476D01*
X111788095Y-56358095D01*
X112740476Y-56167619D02*
X112788095Y-56120000D01*
X112883333Y-56072380D01*
X113121428Y-56072380D01*
X113216666Y-56120000D01*
X113264285Y-56167619D01*
X113311904Y-56262857D01*
X113311904Y-56358095D01*
X113264285Y-56500952D01*
X112692857Y-57072380D01*
X113311904Y-57072380D01*
X69932142Y-58742857D02*
X69979761Y-58790476D01*
X70027380Y-58933333D01*
X70027380Y-59028571D01*
X69979761Y-59171428D01*
X69884523Y-59266666D01*
X69789285Y-59314285D01*
X69598809Y-59361904D01*
X69455952Y-59361904D01*
X69265476Y-59314285D01*
X69170238Y-59266666D01*
X69075000Y-59171428D01*
X69027380Y-59028571D01*
X69027380Y-58933333D01*
X69075000Y-58790476D01*
X69122619Y-58742857D01*
X70027380Y-57790476D02*
X70027380Y-58361904D01*
X70027380Y-58076190D02*
X69027380Y-58076190D01*
X69170238Y-58171428D01*
X69265476Y-58266666D01*
X69313095Y-58361904D01*
X70027380Y-56838095D02*
X70027380Y-57409523D01*
X70027380Y-57123809D02*
X69027380Y-57123809D01*
X69170238Y-57219047D01*
X69265476Y-57314285D01*
X69313095Y-57409523D01*
X66132142Y-58907142D02*
X66084523Y-58954761D01*
X65941666Y-59002380D01*
X65846428Y-59002380D01*
X65703571Y-58954761D01*
X65608333Y-58859523D01*
X65560714Y-58764285D01*
X65513095Y-58573809D01*
X65513095Y-58430952D01*
X65560714Y-58240476D01*
X65608333Y-58145238D01*
X65703571Y-58050000D01*
X65846428Y-58002380D01*
X65941666Y-58002380D01*
X66084523Y-58050000D01*
X66132142Y-58097619D01*
X67084523Y-59002380D02*
X66513095Y-59002380D01*
X66798809Y-59002380D02*
X66798809Y-58002380D01*
X66703571Y-58145238D01*
X66608333Y-58240476D01*
X66513095Y-58288095D01*
X67703571Y-58002380D02*
X67798809Y-58002380D01*
X67894047Y-58050000D01*
X67941666Y-58097619D01*
X67989285Y-58192857D01*
X68036904Y-58383333D01*
X68036904Y-58621428D01*
X67989285Y-58811904D01*
X67941666Y-58907142D01*
X67894047Y-58954761D01*
X67798809Y-59002380D01*
X67703571Y-59002380D01*
X67608333Y-58954761D01*
X67560714Y-58907142D01*
X67513095Y-58811904D01*
X67465476Y-58621428D01*
X67465476Y-58383333D01*
X67513095Y-58192857D01*
X67560714Y-58097619D01*
X67608333Y-58050000D01*
X67703571Y-58002380D01*
X59582142Y-61316666D02*
X59629761Y-61364285D01*
X59677380Y-61507142D01*
X59677380Y-61602380D01*
X59629761Y-61745238D01*
X59534523Y-61840476D01*
X59439285Y-61888095D01*
X59248809Y-61935714D01*
X59105952Y-61935714D01*
X58915476Y-61888095D01*
X58820238Y-61840476D01*
X58725000Y-61745238D01*
X58677380Y-61602380D01*
X58677380Y-61507142D01*
X58725000Y-61364285D01*
X58772619Y-61316666D01*
X59677380Y-60840476D02*
X59677380Y-60650000D01*
X59629761Y-60554761D01*
X59582142Y-60507142D01*
X59439285Y-60411904D01*
X59248809Y-60364285D01*
X58867857Y-60364285D01*
X58772619Y-60411904D01*
X58725000Y-60459523D01*
X58677380Y-60554761D01*
X58677380Y-60745238D01*
X58725000Y-60840476D01*
X58772619Y-60888095D01*
X58867857Y-60935714D01*
X59105952Y-60935714D01*
X59201190Y-60888095D01*
X59248809Y-60840476D01*
X59296428Y-60745238D01*
X59296428Y-60554761D01*
X59248809Y-60459523D01*
X59201190Y-60411904D01*
X59105952Y-60364285D01*
X106508333Y-60232142D02*
X106460714Y-60279761D01*
X106317857Y-60327380D01*
X106222619Y-60327380D01*
X106079761Y-60279761D01*
X105984523Y-60184523D01*
X105936904Y-60089285D01*
X105889285Y-59898809D01*
X105889285Y-59755952D01*
X105936904Y-59565476D01*
X105984523Y-59470238D01*
X106079761Y-59375000D01*
X106222619Y-59327380D01*
X106317857Y-59327380D01*
X106460714Y-59375000D01*
X106508333Y-59422619D01*
X107079761Y-59755952D02*
X106984523Y-59708333D01*
X106936904Y-59660714D01*
X106889285Y-59565476D01*
X106889285Y-59517857D01*
X106936904Y-59422619D01*
X106984523Y-59375000D01*
X107079761Y-59327380D01*
X107270238Y-59327380D01*
X107365476Y-59375000D01*
X107413095Y-59422619D01*
X107460714Y-59517857D01*
X107460714Y-59565476D01*
X107413095Y-59660714D01*
X107365476Y-59708333D01*
X107270238Y-59755952D01*
X107079761Y-59755952D01*
X106984523Y-59803571D01*
X106936904Y-59851190D01*
X106889285Y-59946428D01*
X106889285Y-60136904D01*
X106936904Y-60232142D01*
X106984523Y-60279761D01*
X107079761Y-60327380D01*
X107270238Y-60327380D01*
X107365476Y-60279761D01*
X107413095Y-60232142D01*
X107460714Y-60136904D01*
X107460714Y-59946428D01*
X107413095Y-59851190D01*
X107365476Y-59803571D01*
X107270238Y-59755952D01*
X106495833Y-58232142D02*
X106448214Y-58279761D01*
X106305357Y-58327380D01*
X106210119Y-58327380D01*
X106067261Y-58279761D01*
X105972023Y-58184523D01*
X105924404Y-58089285D01*
X105876785Y-57898809D01*
X105876785Y-57755952D01*
X105924404Y-57565476D01*
X105972023Y-57470238D01*
X106067261Y-57375000D01*
X106210119Y-57327380D01*
X106305357Y-57327380D01*
X106448214Y-57375000D01*
X106495833Y-57422619D01*
X106829166Y-57327380D02*
X107495833Y-57327380D01*
X107067261Y-58327380D01*
X106520833Y-56232142D02*
X106473214Y-56279761D01*
X106330357Y-56327380D01*
X106235119Y-56327380D01*
X106092261Y-56279761D01*
X105997023Y-56184523D01*
X105949404Y-56089285D01*
X105901785Y-55898809D01*
X105901785Y-55755952D01*
X105949404Y-55565476D01*
X105997023Y-55470238D01*
X106092261Y-55375000D01*
X106235119Y-55327380D01*
X106330357Y-55327380D01*
X106473214Y-55375000D01*
X106520833Y-55422619D01*
X107377976Y-55327380D02*
X107187500Y-55327380D01*
X107092261Y-55375000D01*
X107044642Y-55422619D01*
X106949404Y-55565476D01*
X106901785Y-55755952D01*
X106901785Y-56136904D01*
X106949404Y-56232142D01*
X106997023Y-56279761D01*
X107092261Y-56327380D01*
X107282738Y-56327380D01*
X107377976Y-56279761D01*
X107425595Y-56232142D01*
X107473214Y-56136904D01*
X107473214Y-55898809D01*
X107425595Y-55803571D01*
X107377976Y-55755952D01*
X107282738Y-55708333D01*
X107092261Y-55708333D01*
X106997023Y-55755952D01*
X106949404Y-55803571D01*
X106901785Y-55898809D01*
X106495833Y-54207142D02*
X106448214Y-54254761D01*
X106305357Y-54302380D01*
X106210119Y-54302380D01*
X106067261Y-54254761D01*
X105972023Y-54159523D01*
X105924404Y-54064285D01*
X105876785Y-53873809D01*
X105876785Y-53730952D01*
X105924404Y-53540476D01*
X105972023Y-53445238D01*
X106067261Y-53350000D01*
X106210119Y-53302380D01*
X106305357Y-53302380D01*
X106448214Y-53350000D01*
X106495833Y-53397619D01*
X107400595Y-53302380D02*
X106924404Y-53302380D01*
X106876785Y-53778571D01*
X106924404Y-53730952D01*
X107019642Y-53683333D01*
X107257738Y-53683333D01*
X107352976Y-53730952D01*
X107400595Y-53778571D01*
X107448214Y-53873809D01*
X107448214Y-54111904D01*
X107400595Y-54207142D01*
X107352976Y-54254761D01*
X107257738Y-54302380D01*
X107019642Y-54302380D01*
X106924404Y-54254761D01*
X106876785Y-54207142D01*
X106495833Y-52182142D02*
X106448214Y-52229761D01*
X106305357Y-52277380D01*
X106210119Y-52277380D01*
X106067261Y-52229761D01*
X105972023Y-52134523D01*
X105924404Y-52039285D01*
X105876785Y-51848809D01*
X105876785Y-51705952D01*
X105924404Y-51515476D01*
X105972023Y-51420238D01*
X106067261Y-51325000D01*
X106210119Y-51277380D01*
X106305357Y-51277380D01*
X106448214Y-51325000D01*
X106495833Y-51372619D01*
X107352976Y-51610714D02*
X107352976Y-52277380D01*
X107114880Y-51229761D02*
X106876785Y-51944047D01*
X107495833Y-51944047D01*
X78607142Y-55491666D02*
X78654761Y-55539285D01*
X78702380Y-55682142D01*
X78702380Y-55777380D01*
X78654761Y-55920238D01*
X78559523Y-56015476D01*
X78464285Y-56063095D01*
X78273809Y-56110714D01*
X78130952Y-56110714D01*
X77940476Y-56063095D01*
X77845238Y-56015476D01*
X77750000Y-55920238D01*
X77702380Y-55777380D01*
X77702380Y-55682142D01*
X77750000Y-55539285D01*
X77797619Y-55491666D01*
X77702380Y-55158333D02*
X77702380Y-54539285D01*
X78083333Y-54872619D01*
X78083333Y-54729761D01*
X78130952Y-54634523D01*
X78178571Y-54586904D01*
X78273809Y-54539285D01*
X78511904Y-54539285D01*
X78607142Y-54586904D01*
X78654761Y-54634523D01*
X78702380Y-54729761D01*
X78702380Y-55015476D01*
X78654761Y-55110714D01*
X78607142Y-55158333D01*
X76607142Y-55466666D02*
X76654761Y-55514285D01*
X76702380Y-55657142D01*
X76702380Y-55752380D01*
X76654761Y-55895238D01*
X76559523Y-55990476D01*
X76464285Y-56038095D01*
X76273809Y-56085714D01*
X76130952Y-56085714D01*
X75940476Y-56038095D01*
X75845238Y-55990476D01*
X75750000Y-55895238D01*
X75702380Y-55752380D01*
X75702380Y-55657142D01*
X75750000Y-55514285D01*
X75797619Y-55466666D01*
X75797619Y-55085714D02*
X75750000Y-55038095D01*
X75702380Y-54942857D01*
X75702380Y-54704761D01*
X75750000Y-54609523D01*
X75797619Y-54561904D01*
X75892857Y-54514285D01*
X75988095Y-54514285D01*
X76130952Y-54561904D01*
X76702380Y-55133333D01*
X76702380Y-54514285D01*
X74607142Y-55454166D02*
X74654761Y-55501785D01*
X74702380Y-55644642D01*
X74702380Y-55739880D01*
X74654761Y-55882738D01*
X74559523Y-55977976D01*
X74464285Y-56025595D01*
X74273809Y-56073214D01*
X74130952Y-56073214D01*
X73940476Y-56025595D01*
X73845238Y-55977976D01*
X73750000Y-55882738D01*
X73702380Y-55739880D01*
X73702380Y-55644642D01*
X73750000Y-55501785D01*
X73797619Y-55454166D01*
X74702380Y-54501785D02*
X74702380Y-55073214D01*
X74702380Y-54787500D02*
X73702380Y-54787500D01*
X73845238Y-54882738D01*
X73940476Y-54977976D01*
X73988095Y-55073214D01*
X81910714Y-61152380D02*
X81910714Y-60152380D01*
X82291666Y-60152380D01*
X82386904Y-60200000D01*
X82434523Y-60247619D01*
X82482142Y-60342857D01*
X82482142Y-60485714D01*
X82434523Y-60580952D01*
X82386904Y-60628571D01*
X82291666Y-60676190D01*
X81910714Y-60676190D01*
X82863095Y-61104761D02*
X83005952Y-61152380D01*
X83244047Y-61152380D01*
X83339285Y-61104761D01*
X83386904Y-61057142D01*
X83434523Y-60961904D01*
X83434523Y-60866666D01*
X83386904Y-60771428D01*
X83339285Y-60723809D01*
X83244047Y-60676190D01*
X83053571Y-60628571D01*
X82958333Y-60580952D01*
X82910714Y-60533333D01*
X82863095Y-60438095D01*
X82863095Y-60342857D01*
X82910714Y-60247619D01*
X82958333Y-60200000D01*
X83053571Y-60152380D01*
X83291666Y-60152380D01*
X83434523Y-60200000D01*
X84386904Y-61152380D02*
X83815476Y-61152380D01*
X84101190Y-61152380D02*
X84101190Y-60152380D01*
X84005952Y-60295238D01*
X83910714Y-60390476D01*
X83815476Y-60438095D01*
X82060714Y-74827380D02*
X82060714Y-73827380D01*
X82441666Y-73827380D01*
X82536904Y-73875000D01*
X82584523Y-73922619D01*
X82632142Y-74017857D01*
X82632142Y-74160714D01*
X82584523Y-74255952D01*
X82536904Y-74303571D01*
X82441666Y-74351190D01*
X82060714Y-74351190D01*
X83013095Y-74779761D02*
X83155952Y-74827380D01*
X83394047Y-74827380D01*
X83489285Y-74779761D01*
X83536904Y-74732142D01*
X83584523Y-74636904D01*
X83584523Y-74541666D01*
X83536904Y-74446428D01*
X83489285Y-74398809D01*
X83394047Y-74351190D01*
X83203571Y-74303571D01*
X83108333Y-74255952D01*
X83060714Y-74208333D01*
X83013095Y-74113095D01*
X83013095Y-74017857D01*
X83060714Y-73922619D01*
X83108333Y-73875000D01*
X83203571Y-73827380D01*
X83441666Y-73827380D01*
X83584523Y-73875000D01*
X83965476Y-73922619D02*
X84013095Y-73875000D01*
X84108333Y-73827380D01*
X84346428Y-73827380D01*
X84441666Y-73875000D01*
X84489285Y-73922619D01*
X84536904Y-74017857D01*
X84536904Y-74113095D01*
X84489285Y-74255952D01*
X83917857Y-74827380D01*
X84536904Y-74827380D01*
X85813095Y-72952380D02*
X85813095Y-73761904D01*
X85860714Y-73857142D01*
X85908333Y-73904761D01*
X86003571Y-73952380D01*
X86194047Y-73952380D01*
X86289285Y-73904761D01*
X86336904Y-73857142D01*
X86384523Y-73761904D01*
X86384523Y-72952380D01*
X86813095Y-73047619D02*
X86860714Y-73000000D01*
X86955952Y-72952380D01*
X87194047Y-72952380D01*
X87289285Y-73000000D01*
X87336904Y-73047619D01*
X87384523Y-73142857D01*
X87384523Y-73238095D01*
X87336904Y-73380952D01*
X86765476Y-73952380D01*
X87384523Y-73952380D01*
M02*
